<svg width="80" height="80" viewBox="0 0 80 80" fill="none" xmlns="http://www.w3.org/2000/svg">
<g filter="url(#filter0_d_2262_23293)">
<circle cx="40" cy="36" r="32" fill="white"/>
</g>
<path d="M36.1719 33.6719H38.5781C39.349 33.6719 39.9844 33.5417 40.4844 33.2812C40.9844 33.0104 41.3542 32.6354 41.5938 32.1562C41.8438 31.6667 41.9688 31.099 41.9688 30.4531C41.9688 29.8698 41.8542 29.3542 41.625 28.9062C41.4062 28.4479 41.0677 28.0938 40.6094 27.8438C40.151 27.5833 39.5729 27.4531 38.875 27.4531C38.3229 27.4531 37.8125 27.5625 37.3438 27.7812C36.875 28 36.5 28.3073 36.2188 28.7031C35.9375 29.099 35.7969 29.5781 35.7969 30.1406H31.2812C31.2812 28.8906 31.6146 27.8021 32.2812 26.875C32.9583 25.9479 33.8646 25.224 35 24.7031C36.1354 24.1823 37.3854 23.9219 38.75 23.9219C40.2917 23.9219 41.6406 24.1719 42.7969 24.6719C43.9531 25.1615 44.8542 25.8854 45.5 26.8438C46.1458 27.8021 46.4688 28.9896 46.4688 30.4062C46.4688 31.125 46.3021 31.8229 45.9688 32.5C45.6354 33.1667 45.1562 33.7708 44.5312 34.3125C43.9167 34.8438 43.1667 35.2708 42.2812 35.5938C41.3958 35.9062 40.401 36.0625 39.2969 36.0625H36.1719V33.6719ZM36.1719 37.0938V34.7656H39.2969C40.5365 34.7656 41.625 34.9062 42.5625 35.1875C43.5 35.4688 44.2865 35.875 44.9219 36.4062C45.5573 36.9271 46.0365 37.5469 46.3594 38.2656C46.6823 38.974 46.8438 39.7604 46.8438 40.625C46.8438 41.6875 46.6406 42.6354 46.2344 43.4688C45.8281 44.2917 45.2552 44.9896 44.5156 45.5625C43.7865 46.1354 42.9323 46.5729 41.9531 46.875C40.974 47.1667 39.9062 47.3125 38.75 47.3125C37.7917 47.3125 36.849 47.1823 35.9219 46.9219C35.0052 46.651 34.1719 46.25 33.4219 45.7188C32.6823 45.1771 32.0885 44.5 31.6406 43.6875C31.2031 42.8646 30.9844 41.8906 30.9844 40.7656H35.5C35.5 41.349 35.6458 41.8698 35.9375 42.3281C36.2292 42.7865 36.6302 43.1458 37.1406 43.4062C37.6615 43.6667 38.2396 43.7969 38.875 43.7969C39.5938 43.7969 40.2083 43.6667 40.7188 43.4062C41.2396 43.1354 41.6354 42.7604 41.9062 42.2812C42.1875 41.7917 42.3281 41.224 42.3281 40.5781C42.3281 39.7448 42.1771 39.0781 41.875 38.5781C41.5729 38.0677 41.1406 37.6927 40.5781 37.4531C40.0156 37.2135 39.349 37.0938 38.5781 37.0938H36.1719Z" fill="#F31624"/>
<defs>
<filter id="filter0_d_2262_23293" x="0" y="0" width="80" height="80" filterUnits="userSpaceOnUse" color-interpolation-filters="sRGB">
<feFlood flood-opacity="0" result="BackgroundImageFix"/>
<feColorMatrix in="SourceAlpha" type="matrix" values="0 0 0 0 0 0 0 0 0 0 0 0 0 0 0 0 0 0 127 0" result="hardAlpha"/>
<feOffset dy="4"/>
<feGaussianBlur stdDeviation="4"/>
<feColorMatrix type="matrix" values="0 0 0 0 0 0 0 0 0 0 0 0 0 0 0 0 0 0 0.15 0"/>
<feBlend mode="normal" in2="BackgroundImageFix" result="effect1_dropShadow_2262_23293"/>
<feBlend mode="normal" in="SourceGraphic" in2="effect1_dropShadow_2262_23293" result="shape"/>
</filter>
</defs>
</svg>
