<svg width="603" height="227" viewBox="0 0 603 227" fill="none" xmlns="http://www.w3.org/2000/svg">
<g clip-path="url(#clip0_2401_21957)">
<path d="M90.9885 129.66C155.635 94.1057 193.667 103.669 254.838 109.302C316.009 114.934 343.383 139.477 511.686 100.262" stroke="#F31624" stroke-opacity="0.1" stroke-width="180" stroke-linecap="round"/>
<mask id="mask0_2401_21957" style="mask-type:alpha" maskUnits="userSpaceOnUse" x="88" y="-17" width="413" height="230">
<path d="M259.001 200.5C168.002 185 155.854 216.027 88.7148 172.464L88.7166 -16.0647L501 -16.0647L501 198C368.499 216.5 349.999 216 259.001 200.5Z" fill="black"/>
</mask>
<g mask="url(#mask0_2401_21957)">
<path d="M302.845 305.657L316.921 300.725C315.04 291.194 311.953 275.525 309.532 263.186L308.587 258.362C307.192 251.225 306.148 245.879 305.887 244.646V244.601C305.966 242.46 306.237 240.33 306.697 238.238C310.297 217.655 324.121 155.348 324.121 155.348L281.2 158.462C281.2 158.462 271.363 231.362 273.766 246.995C275.566 258.686 293.8 290.501 302.845 305.657Z" fill="#F31624"/>
<path d="M306.04 189.762C305.996 189.771 305.95 189.771 305.905 189.762C305.761 189.708 291.442 183.939 286.924 184.983C286.768 185.015 286.617 185.066 286.474 185.136C287.212 185.982 294.061 187.791 300.478 189.096C300.562 189.122 300.633 189.178 300.677 189.253C300.721 189.329 300.736 189.418 300.718 189.504C300.7 189.589 300.651 189.665 300.58 189.716C300.509 189.767 300.421 189.79 300.334 189.78C300.334 189.78 296.734 189.042 293.134 188.142C285.718 186.261 285.709 185.514 285.7 185.109C285.7 184.542 286.456 184.362 286.744 184.299C291.478 183.21 305.554 188.871 306.148 189.114C306.21 189.15 306.259 189.204 306.29 189.268C306.32 189.333 306.33 189.405 306.318 189.475C306.307 189.546 306.274 189.611 306.224 189.662C306.174 189.713 306.11 189.748 306.04 189.762V189.762Z" fill="#ECBDBB"/>
<path d="M307.598 293.768C307.524 293.767 307.452 293.744 307.392 293.7C307.332 293.656 307.288 293.595 307.265 293.525C306.689 291.662 293.09 247.94 293.576 243.593C294.062 239.246 303.962 196.658 304.376 194.849C304.398 194.758 304.454 194.679 304.534 194.63C304.613 194.582 304.708 194.566 304.799 194.588C304.89 194.609 304.968 194.666 305.017 194.745C305.066 194.824 305.082 194.92 305.06 195.011C304.961 195.452 294.746 239.426 294.26 243.674C293.774 247.922 307.76 292.859 307.922 293.318C307.936 293.362 307.941 293.409 307.937 293.455C307.932 293.501 307.919 293.546 307.897 293.587C307.875 293.628 307.846 293.664 307.81 293.694C307.774 293.723 307.733 293.745 307.688 293.759L307.598 293.768Z" fill="#ECBDBB"/>
<path d="M280.607 180.043C280.526 180.043 280.447 180.015 280.384 179.963C280.322 179.912 280.279 179.84 280.263 179.761C280.247 179.681 280.259 179.599 280.297 179.527C280.335 179.455 280.397 179.399 280.472 179.368V179.368C281.943 178.641 283.237 177.599 284.261 176.317C285.935 174.292 287.861 170.656 287.339 164.842C287.332 164.749 287.362 164.657 287.423 164.586C287.483 164.515 287.57 164.471 287.663 164.464C287.756 164.457 287.848 164.487 287.919 164.548C287.99 164.608 288.034 164.695 288.041 164.788C289.013 176.425 280.841 179.98 280.751 180.016C280.705 180.035 280.656 180.044 280.607 180.043V180.043Z" fill="#ECBDBB"/>
<path d="M307.192 189.764C307.148 189.772 307.102 189.772 307.057 189.764C306.832 189.665 301.567 187.397 301.567 184.166C301.567 181.16 302.044 164.015 302.044 163.844C302.044 163.751 302.081 163.661 302.147 163.596C302.213 163.53 302.302 163.493 302.395 163.493C302.488 163.493 302.578 163.53 302.644 163.596C302.709 163.661 302.746 163.751 302.746 163.844C302.746 164.015 302.269 181.151 302.269 184.148C302.269 186.434 305.689 188.306 306.904 188.909C307.201 186.524 308.542 175.49 309.244 162.863C309.244 162.77 309.281 162.68 309.347 162.615C309.413 162.549 309.502 162.512 309.595 162.512C309.688 162.512 309.778 162.549 309.844 162.615C309.909 162.68 309.946 162.77 309.946 162.863C309.154 177.11 307.561 189.323 307.543 189.44C307.537 189.528 307.497 189.611 307.432 189.671C307.366 189.731 307.281 189.764 307.192 189.764V189.764Z" fill="#ECBDBB"/>
<path d="M306.239 188.927C306.239 188.927 293.639 226.034 294.242 233.234C294.845 240.434 336.308 280.097 336.308 280.097L347.189 271.943L325.589 228.599C325.589 228.599 353.426 187.001 355.001 178.37C356.576 169.739 346.901 147.338 346.901 147.338L309.281 154.061L306.239 188.927Z" fill="#F31624"/>
<path d="M306.237 189.276C306.174 189.277 306.112 189.26 306.058 189.228C306.003 189.196 305.959 189.15 305.928 189.095C305.898 189.039 305.883 188.977 305.885 188.914C305.887 188.851 305.906 188.79 305.94 188.736C306.345 188.088 315.84 172.77 321.753 170.592C322.527 170.313 323.355 170.088 323.67 170.592C323.877 170.934 324.255 171.582 319.602 176.154C317.388 178.323 315.102 180.375 315.039 180.402C314.969 180.464 314.876 180.496 314.783 180.49C314.689 180.484 314.602 180.441 314.539 180.371C314.477 180.301 314.446 180.208 314.452 180.115C314.458 180.021 314.501 179.934 314.571 179.871C318.657 176.271 322.995 171.915 323.058 170.979C322.691 170.99 322.329 171.076 321.996 171.231C317.595 172.842 310.836 182.508 307.938 186.9C311.799 183.561 320.754 176.199 328.224 173.499C328.309 173.474 328.401 173.482 328.481 173.522C328.561 173.562 328.622 173.631 328.653 173.714C328.684 173.798 328.682 173.89 328.647 173.972C328.613 174.054 328.548 174.12 328.467 174.156C318.81 177.693 306.597 189.087 306.471 189.195C306.405 189.25 306.322 189.279 306.237 189.276V189.276Z" fill="#ECBDBB"/>
<path d="M305.5 249.028C305.45 249.028 305.402 249.017 305.357 248.997C305.312 248.977 305.272 248.948 305.239 248.911C297.787 240.622 294.07 235.501 293.872 233.26C293.242 226.123 305.185 190.87 305.869 188.854L308.902 154.024C308.91 153.931 308.955 153.845 309.027 153.785C309.099 153.725 309.191 153.696 309.284 153.705C309.377 153.713 309.463 153.758 309.523 153.83C309.583 153.901 309.612 153.994 309.604 154.087L306.562 188.953C306.565 188.98 306.565 189.007 306.562 189.034C306.436 189.403 293.962 226.15 294.583 233.197C294.709 234.61 296.752 238.399 305.77 248.434C305.818 248.485 305.851 248.549 305.863 248.618C305.875 248.687 305.865 248.759 305.836 248.823C305.807 248.887 305.76 248.941 305.7 248.977C305.64 249.014 305.57 249.031 305.5 249.028V249.028Z" fill="#ECBDBB"/>
<path d="M340.303 269.178C340.239 269.177 340.178 269.159 340.124 269.126C340.07 269.093 340.026 269.045 339.997 268.989L317.767 227.643C317.736 227.59 317.72 227.529 317.72 227.468C317.72 227.406 317.736 227.345 317.767 227.292C325.678 214.134 346.297 179.655 346.675 178.125C347.017 176.766 344.947 163.122 343.471 154.275C343.455 154.183 343.477 154.089 343.531 154.013C343.585 153.937 343.667 153.886 343.759 153.87C343.851 153.855 343.945 153.876 344.021 153.93C344.097 153.984 344.148 154.066 344.164 154.158C344.542 156.426 347.845 176.361 347.359 178.296C346.873 180.231 320.638 223.899 318.478 227.499L340.6 268.656C340.629 268.709 340.645 268.768 340.644 268.829C340.644 268.889 340.628 268.948 340.598 269.001C340.569 269.053 340.526 269.097 340.474 269.128C340.422 269.159 340.363 269.177 340.303 269.178V269.178Z" fill="#ECBDBB"/>
<path d="M346.801 174.606C346.162 174.534 340.573 173.841 339.601 171.807C338.629 169.773 336.154 157.407 336.055 156.84C336.046 156.795 336.047 156.748 336.056 156.703C336.065 156.657 336.083 156.614 336.109 156.576C336.135 156.537 336.168 156.504 336.207 156.479C336.246 156.453 336.289 156.435 336.334 156.426C336.38 156.418 336.427 156.418 336.472 156.427C336.518 156.436 336.561 156.454 336.599 156.48C336.638 156.506 336.671 156.539 336.696 156.578C336.722 156.617 336.739 156.66 336.748 156.705C336.748 156.831 339.313 169.638 340.24 171.492C340.96 172.923 345.316 173.724 346.936 173.904C347.029 173.922 347.112 173.976 347.165 174.055C347.218 174.133 347.238 174.23 347.22 174.323C347.202 174.416 347.148 174.498 347.069 174.551C346.991 174.605 346.894 174.624 346.801 174.606Z" fill="#ECBDBB"/>
<path d="M268.366 120.786C265.634 122.566 262.773 124.14 259.807 125.493C254.884 127.716 248.935 129.516 245.092 127.626C237.532 123.909 224.581 81.0784 224.581 81.0784L231.421 78.4414L254.695 108.555L257.566 106.017L259.861 103.992L268.366 120.786Z" fill="#ECBDBB"/>
<path d="M268.366 120.786C265.634 122.566 262.773 124.139 259.807 125.493C257.344 119.315 256.568 112.594 257.557 106.017L259.852 103.992L268.366 120.786Z" fill="#465A64"/>
<path d="M247.495 122.461H247.414C247.369 122.451 247.327 122.431 247.289 122.404C247.252 122.377 247.22 122.343 247.196 122.304C247.172 122.265 247.155 122.221 247.148 122.176C247.141 122.13 247.142 122.083 247.153 122.038C248.443 117.387 250.673 113.05 253.705 109.294C253.767 109.226 253.852 109.184 253.944 109.178C254.036 109.173 254.126 109.203 254.196 109.263C254.266 109.323 254.309 109.408 254.316 109.5C254.324 109.592 254.295 109.683 254.236 109.753C251.277 113.423 249.099 117.658 247.837 122.2C247.817 122.276 247.773 122.342 247.711 122.389C247.649 122.437 247.573 122.462 247.495 122.461V122.461Z" fill="#465A64"/>
<path d="M224.58 81.0792C224.58 81.0792 219.423 76.2372 218.703 74.4012C217.983 72.5652 216.102 65.6442 216.102 65.6442L230.097 57.4902L234.732 68.1282L231.411 78.4422L224.58 81.0792Z" fill="#ECBDBB"/>
<path d="M217.022 61.8465C215.141 62.8095 215.663 64.7625 216.122 65.6445C216.581 66.5265 219.524 72.7185 221.684 71.6835C223.844 70.6485 222.206 66.6075 220.685 64.1235C219.164 61.6395 217.742 61.4775 217.022 61.8465Z" fill="#ECBDBB"/>
<path d="M220.224 58.9659C218.307 59.8659 219.225 62.7279 219.666 63.6009C220.107 64.4739 223.068 70.6749 225.228 69.6399C227.388 68.6049 225.75 64.5639 224.229 62.0799C222.708 59.5959 221.259 58.4889 220.224 58.9659Z" fill="#ECBDBB"/>
<path d="M223.826 57.0844C221.945 58.0474 222.584 60.3604 223.223 61.5844C223.682 62.4844 226.625 68.6584 228.785 67.6234C230.945 66.5884 229.082 62.6644 227.786 60.0634C226.301 57.0124 224.501 56.7244 223.826 57.0844Z" fill="#ECBDBB"/>
<path d="M227.704 55.7254C225.823 56.6884 226.345 58.6414 226.804 59.5234C227.263 60.4054 230.207 66.5974 232.367 65.5624C234.527 64.5274 232.889 60.4864 231.368 58.0024C229.847 55.5184 228.424 55.3564 227.704 55.7254Z" fill="#ECBDBB"/>
<path d="M221.152 72.1518C220.054 72.1518 218.776 70.9818 217.345 68.6508C217.315 68.6119 217.295 68.5673 217.284 68.5198C217.273 68.4724 217.271 68.4232 217.28 68.3754C217.289 68.3275 217.308 68.282 217.336 68.2418C217.363 68.2017 217.399 68.1676 217.44 68.1419C217.482 68.1163 217.528 68.0994 217.576 68.0926C217.624 68.0857 217.673 68.089 217.72 68.1021C217.767 68.1153 217.811 68.1381 217.848 68.169C217.886 68.1999 217.917 68.2383 217.939 68.2818C219.415 70.6668 220.639 71.7648 221.539 71.3688C222.439 70.9728 222.592 69.9558 222.187 68.3538C221.785 66.9271 221.178 65.566 220.387 64.3128C220.129 63.8615 219.827 63.4365 219.487 63.0438C219.452 63.0108 219.424 62.9711 219.405 62.9269C219.386 62.8828 219.376 62.8352 219.377 62.7872C219.377 62.7392 219.387 62.6917 219.406 62.6477C219.425 62.6037 219.453 62.5642 219.489 62.5315C219.524 62.4987 219.565 62.4736 219.611 62.4576C219.656 62.4416 219.704 62.435 219.752 62.4383C219.8 62.4417 219.846 62.4548 219.889 62.4769C219.932 62.499 219.969 62.5296 220 62.5668C220.39 62.9932 220.737 63.4575 221.035 63.9528C221.863 65.2676 222.497 66.6954 222.916 68.1918C223.528 70.6398 222.7 71.6208 221.89 72.0078C221.66 72.1172 221.406 72.1667 221.152 72.1518V72.1518Z" fill="#465A64"/>
<path d="M224.707 70.1169C223.96 70.1169 223.132 69.5769 222.232 68.4969C222.197 68.4551 222.172 68.4058 222.16 68.3529C221.758 66.9261 221.151 65.565 220.36 64.3119C220.102 63.8606 219.8 63.4356 219.46 63.0429C219.425 63.0099 219.397 62.9701 219.378 62.926C219.359 62.8819 219.349 62.8343 219.35 62.7863C219.35 62.7383 219.36 62.6908 219.379 62.6468C219.398 62.6028 219.426 62.5632 219.462 62.5305C219.497 62.4978 219.538 62.4727 219.584 62.4567C219.629 62.4407 219.677 62.4341 219.725 62.4374C219.773 62.4407 219.819 62.4538 219.862 62.4759C219.905 62.498 219.942 62.5286 219.973 62.5659C220.363 62.9922 220.71 63.4566 221.008 63.9519C221.818 65.244 222.442 66.6438 222.862 68.1099C223.51 68.8749 224.41 69.6759 225.112 69.3339C225.814 68.9919 226.165 67.9119 225.76 66.3099C225.356 64.8864 224.75 63.5285 223.96 62.2779C223.661 61.7853 223.333 61.3105 222.979 60.8559C222.945 60.8205 222.919 60.7785 222.902 60.7324C222.885 60.6863 222.878 60.6373 222.882 60.5884C222.885 60.5395 222.899 60.4919 222.922 60.4485C222.945 60.4052 222.976 60.3672 223.015 60.3369C223.053 60.3066 223.098 60.2847 223.145 60.2726C223.193 60.2605 223.242 60.2585 223.291 60.2667C223.339 60.2749 223.385 60.2931 223.426 60.3202C223.467 60.3472 223.501 60.3826 223.528 60.4239C223.879 60.8971 224.204 61.3899 224.5 61.8999C225.324 63.2127 225.954 64.6373 226.372 66.1299C226.993 68.5869 226.156 69.5679 225.355 69.9639C225.153 70.0621 224.931 70.1144 224.707 70.1169V70.1169Z" fill="#465A64"/>
<path d="M228.27 68.0742C227.523 68.0742 226.686 67.5252 225.786 66.4362C225.752 66.397 225.728 66.351 225.714 66.3012C225.311 64.8778 224.704 63.5198 223.914 62.2692C223.615 61.7766 223.287 61.3018 222.933 60.8472C222.899 60.8119 222.873 60.7698 222.856 60.7237C222.839 60.6777 222.832 60.6286 222.836 60.5797C222.839 60.5308 222.853 60.4832 222.876 60.4399C222.899 60.3965 222.93 60.3585 222.969 60.3282C223.007 60.2979 223.052 60.276 223.099 60.2639C223.147 60.2518 223.196 60.2498 223.245 60.258C223.293 60.2662 223.339 60.2844 223.38 60.3115C223.421 60.3386 223.455 60.3739 223.482 60.4152C223.849 60.8902 224.189 61.3861 224.499 61.9002C225.308 63.1898 225.932 64.5864 226.353 66.0492C227.001 66.8142 227.901 67.6242 228.603 67.2822C228.918 67.1292 229.863 66.6792 229.107 64.1052C228.664 62.7652 228.11 61.4647 227.451 60.2172C227.25 59.8146 227.022 59.4266 226.767 59.0562C226.736 59.0187 226.712 58.9751 226.699 58.9281C226.686 58.8812 226.682 58.832 226.689 58.7836C226.695 58.7352 226.712 58.6888 226.738 58.6472C226.763 58.6057 226.797 58.5699 226.838 58.5422C226.878 58.5146 226.923 58.4956 226.971 58.4866C227.019 58.4775 227.069 58.4786 227.116 58.4897C227.164 58.5008 227.209 58.5217 227.248 58.551C227.287 58.5804 227.319 58.6176 227.343 58.6602C227.615 59.0595 227.859 59.4775 228.072 59.9112C228.755 61.2012 229.327 62.5471 229.782 63.9342V63.9342C230.394 66.0132 230.097 67.3542 228.882 67.9212C228.691 68.0149 228.482 68.0671 228.27 68.0742V68.0742Z" fill="#465A64"/>
<path d="M231.825 66.0407C231.042 66.0407 230.151 65.4377 229.188 64.2407C229.153 64.1989 229.128 64.1496 229.116 64.0967C228.673 62.7566 228.12 61.4561 227.46 60.2087C227.262 59.8063 227.037 59.4183 226.785 59.0477C226.742 58.9713 226.73 58.8818 226.749 58.7966C226.769 58.7114 226.82 58.6367 226.892 58.5872C226.964 58.5376 227.052 58.5167 227.139 58.5287C227.226 58.5406 227.305 58.5845 227.361 58.6517C227.633 59.051 227.877 59.469 228.09 59.9027C228.762 61.1709 229.327 62.4924 229.782 63.8537C230.475 64.7087 231.438 65.6537 232.185 65.2577C232.932 64.8617 233.238 63.8357 232.833 62.2337C232.81 62.143 232.824 62.0469 232.873 61.9668C232.921 61.8866 232.999 61.8288 233.089 61.8061C233.18 61.7835 233.276 61.7978 233.356 61.8459C233.436 61.894 233.494 61.9719 233.517 62.0627C234.138 64.5197 233.301 65.5007 232.491 65.8877C232.284 65.9891 232.056 66.0415 231.825 66.0407V66.0407Z" fill="#465A64"/>
<path d="M226.299 63.5381C226.204 63.4095 226.142 63.26 226.117 63.1022C226.092 62.9445 226.105 62.783 226.155 62.6314C226.205 62.4798 226.291 62.3424 226.406 62.2308C226.52 62.1192 226.659 62.0367 226.812 61.9901C228.954 61.3151 233.634 59.8841 234.012 60.1271C234.39 60.3701 235.533 67.0481 235.533 67.7231C235.533 68.3981 231.375 78.4421 231.375 78.4421C231.375 78.4421 223.968 76.8041 226.497 70.0811C227.397 67.7141 230.7 64.2041 230.7 64.2041C229.555 64.2779 228.407 64.2779 227.262 64.2041C226.876 64.0956 226.537 63.8612 226.299 63.5381Z" fill="#ECBDBB"/>
<path d="M226.875 75.8956C226.818 75.8953 226.762 75.8812 226.712 75.8545C226.662 75.8279 226.619 75.7895 226.587 75.7426C225.498 74.1496 225.372 72.2056 226.218 69.9646C227.174 67.9895 228.421 66.1692 229.917 64.5646C229.017 64.6255 228.114 64.6105 227.217 64.5196C226.747 64.3938 226.334 64.1112 226.047 63.7186C225.917 63.5511 225.831 63.3545 225.795 63.1458C225.759 62.9371 225.774 62.7228 225.84 62.5216C225.906 62.3098 226.022 62.1173 226.179 61.9605C226.336 61.8037 226.528 61.6874 226.74 61.6216C228.117 61.1896 230.088 60.5866 231.645 60.1726C231.731 60.1585 231.819 60.1769 231.892 60.2242C231.965 60.2715 232.018 60.3444 232.041 60.4285C232.063 60.5127 232.054 60.6022 232.014 60.6796C231.974 60.7571 231.907 60.8169 231.825 60.8476C230.277 61.2616 228.315 61.8556 226.947 62.2876C226.845 62.3207 226.752 62.3782 226.677 62.455C226.602 62.5318 226.546 62.6256 226.515 62.7286C226.485 62.8226 226.478 62.9226 226.495 63.0199C226.512 63.1172 226.553 63.2088 226.614 63.2866C226.808 63.5546 227.087 63.7483 227.406 63.8356C228.515 63.912 229.627 63.912 230.736 63.8356C230.806 63.8321 230.876 63.8499 230.936 63.8865C230.996 63.9231 231.044 63.9769 231.073 64.0409C231.102 64.1049 231.111 64.1762 231.099 64.2455C231.087 64.3148 231.055 64.3789 231.006 64.4296C231.006 64.4296 227.739 67.9216 226.884 70.1896C226.128 72.2056 226.227 73.9336 227.181 75.3286C227.223 75.3823 227.249 75.4474 227.255 75.5156C227.261 75.5838 227.247 75.6523 227.214 75.7126C227.182 75.7729 227.132 75.8223 227.072 75.8548C227.012 75.8873 226.943 75.9015 226.875 75.8956V75.8956Z" fill="#465A64"/>
<path d="M295.437 99.4744C294.15 106.413 289.857 114.018 281.559 119.715L270.165 126.915C261.768 121.038 257.331 104.838 257.331 104.838C263.325 96.5584 280.128 82.6444 280.128 82.6444C290.82 77.2534 297.696 87.3694 295.437 99.4744Z" fill="#738F9D"/>
<path d="M271.967 123.783C271.919 123.784 271.871 123.775 271.826 123.757C271.781 123.738 271.74 123.71 271.706 123.675C264.776 116.268 260.906 104.469 260.834 104.352C260.816 104.308 260.808 104.26 260.809 104.211C260.81 104.163 260.821 104.116 260.841 104.072C260.862 104.028 260.891 103.989 260.927 103.957C260.963 103.925 261.005 103.901 261.051 103.886C261.097 103.871 261.146 103.866 261.194 103.871C261.242 103.875 261.288 103.89 261.33 103.913C261.372 103.937 261.409 103.969 261.439 104.007C261.468 104.046 261.489 104.09 261.5 104.136C261.5 104.253 265.397 115.908 272.219 123.198C272.264 123.248 272.294 123.31 272.304 123.376C272.315 123.442 272.307 123.51 272.28 123.571C272.254 123.633 272.21 123.685 272.155 123.723C272.099 123.761 272.034 123.782 271.967 123.783V123.783Z" fill="#738F9D"/>
<path d="M295.439 99.475C294.152 106.414 289.859 114.019 281.561 119.716L270.167 126.916C270.167 126.916 281.12 104.362 287.042 92.608C289.4 87.928 293.036 92.203 295.439 99.475Z" fill="#465A64"/>
<path d="M315.273 63.3301C301.906 66.1337 289.672 72.8396 280.119 82.5991C280.119 82.5991 276.402 128.427 278.319 163.698C278.319 163.698 320.79 168.261 351.975 151.224C351.984 151.26 336.387 81.4381 315.273 63.3301Z" fill="#738F9D"/>
<path d="M294.16 98.7994C294.074 98.8002 293.991 98.7694 293.926 98.713C293.862 98.6567 293.82 98.5785 293.809 98.4934C293.017 92.1934 292.531 82.4104 292.531 82.2934C292.527 82.2313 292.541 82.1694 292.569 82.114C292.598 82.0587 292.64 82.0119 292.693 81.9784L295.393 80.1784C295.447 80.1444 295.509 80.1258 295.573 80.1244L299.011 80.0434C299.056 80.041 299.102 80.0478 299.145 80.0633C299.188 80.0789 299.228 80.1029 299.261 80.1339C299.295 80.165 299.322 80.2024 299.34 80.2441C299.359 80.2857 299.37 80.3307 299.371 80.3764C299.533 84.2374 300.793 95.6764 300.811 95.7844C300.818 95.8597 300.801 95.9354 300.762 96.0003C300.724 96.0652 300.665 96.1157 300.595 96.1444L294.295 98.7004L294.16 98.7994ZM293.26 82.4734C293.332 83.8684 293.773 92.1484 294.475 97.9444L300.118 95.6584C299.929 93.9664 298.912 84.6154 298.723 80.8084L295.726 80.8804L293.26 82.4734Z" fill="#738F9D"/>
<path d="M281.57 160.729H281.444C281.351 160.729 281.261 160.692 281.196 160.626C281.13 160.561 281.093 160.471 281.093 160.378C281.093 160.285 281.13 160.196 281.196 160.13C281.261 160.064 281.351 160.027 281.444 160.027H281.543C283.766 160.027 323.636 159.838 347.585 147.949C347.626 147.929 347.671 147.916 347.717 147.913C347.763 147.91 347.81 147.916 347.854 147.93C347.897 147.945 347.938 147.968 347.973 147.998C348.008 148.029 348.037 148.065 348.057 148.107C348.078 148.148 348.09 148.193 348.094 148.239C348.097 148.285 348.091 148.332 348.076 148.376C348.062 148.42 348.039 148.46 348.008 148.495C347.978 148.53 347.941 148.559 347.9 148.579C335.003 154.987 317.615 157.948 305.303 159.307C297.421 160.183 289.5 160.657 281.57 160.729Z" fill="#738F9D"/>
<path d="M278.167 119.103C278.121 119.102 278.076 119.092 278.034 119.073C277.992 119.054 277.953 119.028 277.922 118.994C277.89 118.961 277.865 118.921 277.849 118.878C277.832 118.835 277.824 118.789 277.825 118.743C278.365 102.48 279.292 89.1692 279.625 84.1922C279.629 84.1461 279.641 84.1012 279.662 84.0599C279.683 84.0187 279.712 83.982 279.747 83.9519C279.782 83.9219 279.823 83.899 279.867 83.8846C279.911 83.8702 279.957 83.8647 280.003 83.8682C280.049 83.8718 280.094 83.8844 280.136 83.9053C280.177 83.9262 280.214 83.955 280.244 83.9901C280.274 84.0252 280.297 84.0659 280.311 84.1098C280.325 84.1538 280.331 84.2001 280.327 84.2462C279.958 89.2142 279.031 102.516 278.527 118.77C278.523 118.862 278.482 118.948 278.415 119.01C278.348 119.072 278.259 119.106 278.167 119.103V119.103Z" fill="#738F9D"/>
<path d="M292 69.3878C289.507 71.0168 286.663 75.4448 288.76 86.7218C288.76 86.7218 292.243 85.9208 295.357 80.9618C298.344 82.4644 301.676 83.1477 305.014 82.9418C305.014 82.9418 301.117 63.4478 292 69.3878Z" fill="#F31624"/>
<path d="M388.085 154.42L345.577 146.662C345.107 146.58 344.658 146.405 344.256 146.147C343.854 145.89 343.507 145.555 343.236 145.162C342.964 144.769 342.774 144.326 342.675 143.859C342.577 143.392 342.572 142.91 342.661 142.441L350.194 101.185C350.277 100.715 350.452 100.265 350.709 99.8633C350.967 99.4613 351.302 99.1145 351.694 98.8431C352.087 98.5718 352.53 98.3813 352.997 98.2827C353.464 98.1841 353.947 98.1794 354.415 98.2689L396.914 106C397.384 106.082 397.833 106.257 398.235 106.515C398.637 106.772 398.984 107.107 399.255 107.5C399.527 107.893 399.717 108.336 399.816 108.803C399.914 109.27 399.919 109.752 399.83 110.221L392.297 151.477C392.217 151.949 392.045 152.4 391.789 152.804C391.534 153.209 391.2 153.558 390.808 153.832C390.416 154.106 389.973 154.299 389.505 154.4C389.038 154.501 388.555 154.508 388.085 154.42Z" fill="#F31624"/>
<path d="M372.039 101.502L363.202 149.887L370.471 151.214L379.308 102.83L372.039 101.502Z" fill="#F31624"/>
<path d="M348.529 147.202L324.229 142.774C323.797 142.699 323.383 142.539 323.013 142.304C322.643 142.068 322.323 141.762 322.072 141.402C321.821 141.042 321.644 140.636 321.55 140.207C321.457 139.778 321.45 139.335 321.529 138.904L329.17 97.0628C329.245 96.6305 329.405 96.2173 329.64 95.8471C329.876 95.4769 330.182 95.157 330.542 94.906C330.902 94.6549 331.308 94.4776 331.737 94.3844C332.165 94.2912 332.608 94.2839 333.04 94.3628L357.34 98.7908C357.772 98.8657 358.185 99.0255 358.556 99.261C358.926 99.4965 359.246 99.803 359.497 100.163C359.748 100.523 359.925 100.929 360.018 101.358C360.111 101.786 360.119 102.229 360.04 102.661L352.399 144.502C352.324 144.934 352.164 145.347 351.929 145.718C351.693 146.088 351.387 146.408 351.027 146.659C350.667 146.91 350.261 147.087 349.832 147.18C349.403 147.273 348.96 147.281 348.529 147.202V147.202Z" fill="#F31624"/>
<path d="M351.49 146.499C351.422 146.499 351.355 146.478 351.297 146.44C351.24 146.402 351.195 146.348 351.169 146.285C351.142 146.222 351.134 146.152 351.146 146.085C351.159 146.017 351.191 145.955 351.238 145.905C351.673 145.461 351.964 144.897 352.075 144.285L359.662 102.741C359.737 102.337 359.731 101.922 359.645 101.521C359.558 101.119 359.393 100.738 359.158 100.401C359.116 100.325 359.103 100.235 359.123 100.15C359.143 100.065 359.194 99.9902 359.266 99.9407C359.338 99.8911 359.426 99.8703 359.513 99.8822C359.599 99.8941 359.678 99.938 359.734 100.005C360.022 100.418 360.224 100.883 360.331 101.374C360.438 101.865 360.446 102.373 360.355 102.867L352.768 144.411C352.633 145.162 352.275 145.855 351.742 146.4C351.709 146.433 351.67 146.458 351.626 146.475C351.583 146.492 351.537 146.5 351.49 146.499Z" fill="#738F9D"/>
<path d="M325.196 131.283L324.195 136.763C324.081 137.389 324.496 137.989 325.122 138.103L334.188 139.759C334.813 139.874 335.413 139.459 335.528 138.833L336.529 133.353C336.643 132.727 336.228 132.127 335.602 132.012L326.536 130.357C325.91 130.242 325.31 130.657 325.196 131.283Z" fill="#738F9D"/>
<path d="M326.081 126.437L326.071 126.49C325.957 127.116 326.372 127.716 326.998 127.83L336.064 129.486C336.689 129.6 337.289 129.185 337.404 128.559L337.413 128.506C337.528 127.88 337.113 127.28 336.487 127.166L327.421 125.51C326.795 125.396 326.195 125.811 326.081 126.437Z" fill="#738F9D"/>
<path d="M326.891 122.011L326.882 122.064C326.767 122.69 327.182 123.29 327.808 123.404L336.874 125.06C337.5 125.174 338.1 124.76 338.214 124.134L338.224 124.081C338.338 123.455 337.924 122.855 337.298 122.74L328.232 121.085C327.606 120.97 327.006 121.385 326.891 122.011Z" fill="#738F9D"/>
<path d="M368.175 136.6L360.741 133.117L368.895 98.8001L363.639 97.5221L356.052 95.7221L357.852 74.248C357.852 74.248 358.554 74.428 359.751 74.77C366.24 76.57 387.255 82.9511 389.28 89.1701C391.692 96.4331 375.978 124.387 368.175 136.6Z" fill="#ECBDBB"/>
<path d="M363.65 97.5572L356.062 95.7572L357.863 74.2832C357.863 74.2832 358.565 74.4632 359.762 74.8052C363.89 81.6241 365.279 89.7544 363.65 97.5572V97.5572Z" fill="#465A64"/>
<path d="M369.857 97.7471C369.791 97.7472 369.725 97.7283 369.669 97.6925C369.612 97.6567 369.567 97.6056 369.539 97.5451C369.511 97.4846 369.5 97.4173 369.509 97.351C369.517 97.2848 369.545 97.2224 369.587 97.1711C372.477 93.9506 375.988 91.3483 379.91 89.5211C379.952 89.5016 379.998 89.4906 380.044 89.4886C380.09 89.4866 380.136 89.4938 380.18 89.5097C380.223 89.5256 380.263 89.5498 380.297 89.5811C380.331 89.6124 380.359 89.6501 380.378 89.6921C380.398 89.7341 380.409 89.7794 380.411 89.8257C380.413 89.8719 380.406 89.9181 380.39 89.9615C380.374 90.005 380.35 90.0449 380.318 90.0789C380.287 90.113 380.249 90.1406 380.207 90.1601C376.381 91.9418 372.955 94.4798 370.136 97.6211C370.103 97.6618 370.06 97.6943 370.011 97.7161C369.963 97.7379 369.91 97.7485 369.857 97.7471Z" fill="#465A64"/>
<path d="M360.741 133.145C360.741 133.145 350.301 137.105 349.581 138.14C348.861 139.175 347.664 144.854 347.781 145.655C347.898 146.456 351.057 147.095 352.344 141.893H359.778L360.741 133.145Z" fill="#ECBDBB"/>
<path d="M360.742 133.145L352.3 141.902L350.617 147.5C350.501 147.753 350.442 148.03 350.445 148.31C350.449 148.589 350.515 148.864 350.638 149.115C350.761 149.366 350.939 149.586 351.158 149.76C351.377 149.933 351.632 150.056 351.904 150.119C353.704 150.686 354.397 148.634 354.397 148.634C354.397 148.634 353.668 150.947 355.513 151.424C357.358 151.901 358.051 149.732 358.051 149.732C358.051 149.732 357.628 151.856 359.095 152.252C360.562 152.648 361.399 150.731 361.399 150.731C361.399 150.731 360.868 152.612 362.506 152.972C363.937 153.287 364.459 151.649 364.459 151.649C364.459 151.649 366.439 146.762 367.159 144.449C367.717 142.649 368.158 136.61 368.158 136.61L360.742 133.145Z" fill="#ECBDBB"/>
<path d="M315.274 63.3305C315.274 63.3305 333.985 62.6105 360.616 73.2845C360.616 73.2845 363.253 90.4385 356.656 101.832L333.985 95.1185C333.985 95.1185 309.514 83.9585 315.274 63.3305Z" fill="#738F9D"/>
<path d="M353.264 98.2693H353.138C353.094 98.2525 353.055 98.2272 353.021 98.1949C352.988 98.1626 352.961 98.124 352.943 98.0813C352.924 98.0385 352.915 97.9926 352.914 97.9461C352.914 97.8996 352.922 97.8534 352.94 97.8103C357.17 87.1453 355.496 74.5993 355.478 74.4733C355.467 74.4262 355.467 74.3774 355.476 74.33C355.486 74.2826 355.505 74.2376 355.532 74.1979C355.56 74.1582 355.595 74.1246 355.636 74.0992C355.677 74.0739 355.723 74.0572 355.771 74.0504C355.819 74.0436 355.867 74.0467 355.914 74.0595C355.961 74.0724 356.004 74.0947 356.042 74.1251C356.079 74.1556 356.11 74.1934 356.132 74.2363C356.154 74.2791 356.168 74.3262 356.171 74.3743C356.171 74.5003 357.89 87.2263 353.588 98.0623C353.56 98.1246 353.514 98.1774 353.457 98.2141C353.399 98.2509 353.332 98.2701 353.264 98.2693V98.2693Z" fill="#738F9D"/>
<path d="M355.388 101.806H355.289L333.887 95.5064H333.842C329.742 93.4826 325.971 90.852 322.655 87.7034C315.644 80.9534 312.836 73.0874 314.555 64.9514C314.561 64.9029 314.577 64.8561 314.601 64.814C314.626 64.7718 314.659 64.7353 314.699 64.7068C314.738 64.6783 314.784 64.6583 314.831 64.6482C314.879 64.6381 314.928 64.6381 314.976 64.6482C315.024 64.6582 315.069 64.6781 315.109 64.7066C315.148 64.7351 315.182 64.7716 315.207 64.8137C315.231 64.8558 315.247 64.9026 315.253 64.9511C315.258 64.9996 315.254 65.0487 315.239 65.0954C313.574 73.0964 316.238 80.5304 323.168 87.1994C326.418 90.2867 330.113 92.8685 334.13 94.8584L355.505 101.158C355.567 101.195 355.616 101.249 355.646 101.315C355.676 101.38 355.685 101.453 355.672 101.523C355.66 101.594 355.626 101.659 355.575 101.709C355.524 101.76 355.459 101.794 355.388 101.806V101.806Z" fill="#738F9D"/>
<path d="M298.597 71.7996C298.597 71.7996 297.922 76.8216 295.357 80.3406C295.357 80.3406 291.578 77.3976 290.615 75.6426L290.165 73.7526L288.562 67.0656L294.16 55.5996L294.799 57.9126L298.597 71.7996Z" fill="#ECBDBB"/>
<path d="M290.201 73.7346L288.599 67.0476L294.161 55.5996L294.8 57.9126C295.169 62.7366 295.088 71.3136 290.201 73.7346Z" fill="#465A64"/>
<path d="M270.769 49.2991C270.769 49.2991 272.569 62.3761 280.003 68.0101C287.437 73.6441 291.64 69.5671 293.683 62.4931C295.726 55.4191 293.8 38.7331 283.72 38.4991C273.64 38.2651 269.689 42.6931 270.769 49.2991Z" fill="#ECBDBB"/>
<path d="M302.117 46.1586C302.07 47.2647 301.922 48.3643 301.676 49.4436C299.435 59.6766 295.763 61.6836 295.763 61.6836L293.639 53.5296L292.739 53.2866L292.325 52.3866L290.984 49.4616C290.984 49.4616 285.71 50.9016 283.784 43.1616C283.784 43.1616 281.984 48.3636 279.284 49.2456C278.493 49.4849 277.653 49.5076 276.85 49.3113C276.047 49.115 275.312 48.7069 274.721 48.1296C274.721 48.1296 274.478 55.4466 268.367 52.8096C262.256 50.1726 259.97 41.4156 261.527 39.8496C263.084 38.2836 265.964 40.4526 265.964 40.4526C265.964 40.4526 261.401 28.5726 266.081 25.0986C270.761 21.6246 277.673 26.7006 280.634 29.7336C280.634 29.7336 280.157 23.0196 283.433 22.8576C286.709 22.6956 286.475 31.8576 291.911 34.3776C296.717 36.5286 302.396 38.6526 302.117 46.1586Z" fill="#465A64"/>
<path d="M302.116 46.1582C302.069 47.2643 301.922 48.3639 301.675 49.4432C299.434 59.6762 295.762 61.6832 295.762 61.6832L293.638 53.5292L292.738 53.2862L292.324 52.3862C295.537 51.6752 299.632 50.0192 302.116 46.1582Z" fill="#465A64"/>
<path d="M292.325 53.5663C292.325 53.5663 291.524 46.8073 295.367 46.4473C299.21 46.0873 300.047 55.7263 293.09 56.6443L292.325 53.5663Z" fill="#ECBDBB"/>
<path d="M293.919 55.4014C293.838 55.4011 293.76 55.3732 293.698 55.3224C293.636 55.2716 293.593 55.201 293.577 55.1224C293.532 54.8884 292.479 49.4614 295.827 48.0934C295.869 48.0757 295.915 48.0665 295.961 48.0664C296.007 48.0663 296.053 48.0753 296.095 48.0928C296.138 48.1104 296.177 48.1362 296.209 48.1687C296.242 48.2012 296.268 48.2399 296.286 48.2824C296.303 48.325 296.312 48.3706 296.313 48.4167C296.313 48.4628 296.304 48.5084 296.286 48.5511C296.269 48.5937 296.243 48.6324 296.21 48.6651C296.178 48.6977 296.139 48.7237 296.097 48.7414C293.28 49.8934 294.297 54.9334 294.297 54.9874C294.306 55.0329 294.306 55.0798 294.297 55.1254C294.288 55.1709 294.269 55.2142 294.244 55.2527C294.218 55.2912 294.184 55.3241 294.145 55.3497C294.107 55.3752 294.063 55.3928 294.018 55.4014H293.946H293.919Z" fill="#465A64"/>
<path d="M296.321 52.8006C296.252 52.8006 296.184 52.7801 296.127 52.7416C296.069 52.7032 296.024 52.6485 295.997 52.5846C295.805 52.2075 295.517 51.888 295.161 51.6588C294.805 51.4296 294.395 51.2987 293.972 51.2796C293.879 51.2712 293.793 51.2262 293.733 51.1545C293.673 51.0828 293.644 50.9902 293.653 50.8971C293.661 50.804 293.706 50.718 293.778 50.6581C293.85 50.5982 293.942 50.5692 294.035 50.5776C294.586 50.6086 295.118 50.7859 295.576 51.0913C296.035 51.3966 296.404 51.8189 296.645 52.3146C296.668 52.3679 296.676 52.4259 296.671 52.4834C296.665 52.5409 296.645 52.5962 296.613 52.6443C296.581 52.6923 296.538 52.7318 296.487 52.759C296.436 52.7863 296.379 52.8006 296.321 52.8006Z" fill="#465A64"/>
<path d="M281.001 62.6476C280.699 62.6785 280.393 62.6482 280.102 62.5586C279.812 62.4689 279.542 62.3216 279.309 62.1256C279.174 61.9549 279.09 61.7489 279.068 61.532C279.045 61.3151 279.085 61.0964 279.183 60.9016C279.576 59.5834 279.631 58.1879 279.345 56.8426C279.324 56.7519 279.339 56.6564 279.388 56.5771C279.437 56.4977 279.516 56.4411 279.606 56.4196C279.697 56.3981 279.793 56.4136 279.872 56.4625C279.951 56.5115 280.008 56.5899 280.029 56.6806C280.358 58.1716 280.292 59.7224 279.84 61.1806C279.789 61.2564 279.762 61.3457 279.762 61.4371C279.762 61.5285 279.789 61.6178 279.84 61.6936C280.182 62.0896 281.64 61.9906 282.54 61.7926C282.629 61.778 282.72 61.7977 282.794 61.8479C282.868 61.898 282.921 61.9747 282.94 62.0623C282.96 62.1498 282.945 62.2415 282.899 62.3186C282.853 62.3956 282.78 62.4522 282.693 62.4766C282.136 62.5895 281.57 62.6467 281.001 62.6476Z" fill="#465A64"/>
<path d="M281.2 53.0526C281.2 53.0526 280.444 51.1716 280.723 50.6136C281.002 50.0556 281.479 50.8926 281.479 50.8926C281.479 50.8926 284.719 48.4176 286.879 51.7926C286.96 51.8106 284.404 50.6136 281.2 53.0526Z" fill="#465A64"/>
<path d="M282.801 56.5626C282.755 56.5603 282.71 56.5489 282.668 56.5291C282.627 56.5093 282.589 56.4815 282.558 56.4472C282.527 56.4129 282.503 56.3729 282.488 56.3293C282.473 56.2858 282.466 56.2397 282.468 56.1936C282.495 55.7038 282.629 55.2258 282.86 54.7934C283.092 54.3611 283.416 53.9849 283.809 53.6916C284.655 53.1696 285.798 53.2236 287.202 53.8446C287.247 53.8617 287.287 53.8878 287.322 53.9212C287.356 53.9546 287.383 53.9946 287.401 54.0387C287.419 54.0829 287.428 54.1303 287.427 54.178C287.426 54.2258 287.416 54.2728 287.396 54.3164C287.377 54.3599 287.348 54.399 287.313 54.4312C287.278 54.4634 287.236 54.4881 287.191 54.5037C287.146 54.5194 287.098 54.5257 287.051 54.5222C287.003 54.5187 286.957 54.5056 286.914 54.4836C285.735 53.9616 284.817 53.8896 284.214 54.2856C283.921 54.5202 283.68 54.8135 283.506 55.1467C283.333 55.4799 283.23 55.8457 283.206 56.2206C283.206 56.2708 283.194 56.3204 283.173 56.3658C283.151 56.4112 283.12 56.4515 283.082 56.4839C283.043 56.5164 282.998 56.5402 282.95 56.5537C282.902 56.5673 282.851 56.5703 282.801 56.5626V56.5626Z" fill="#465A64"/>
<path d="M277.293 54.7448C276.991 53.9574 276.552 53.2293 275.997 52.5938C275.493 52.3148 275.772 53.2328 275.772 53.2328C275.772 53.2328 272.496 53.0978 273.495 56.9408C273.495 56.9408 274.08 54.6008 277.293 54.7448Z" fill="#465A64"/>
<path d="M274.954 59.1993H274.9C274.811 59.1741 274.735 59.1145 274.69 59.0336C274.644 58.9526 274.632 58.8568 274.657 58.7673C274.981 57.5793 275.557 56.8953 276.241 56.7153C277.483 56.4273 278.725 57.8043 278.779 57.8673C278.836 57.9373 278.863 58.0263 278.856 58.116C278.849 58.2057 278.808 58.2892 278.741 58.3493C278.674 58.4093 278.586 58.4414 278.496 58.4388C278.406 58.4362 278.321 58.3992 278.257 58.3353V58.3353C277.978 58.0203 277.096 57.2373 276.403 57.4353C276.113 57.588 275.865 57.8085 275.678 58.078C275.492 58.3475 275.373 58.6581 275.332 58.9833C275.303 59.0566 275.25 59.1178 275.181 59.157C275.112 59.1962 275.033 59.2111 274.954 59.1993V59.1993Z" fill="#465A64"/>
<path d="M287.06 66.2823C286.526 66.6219 285.912 66.8148 285.28 66.8416C284.648 66.8685 284.02 66.7284 283.46 66.4353C282.983 66.2109 282.547 65.9065 282.173 65.5353C283.641 63.6598 285.531 62.1579 287.69 61.1523C287.888 61.5137 288.051 61.8935 288.176 62.2863C288.581 63.4383 288.788 65.2563 287.06 66.2823Z" fill="#465A64"/>
<path d="M288.202 62.2593C286.234 63.126 284.585 64.586 283.486 66.4353C283.009 66.2109 282.574 65.9065 282.199 65.5353C283.667 63.6598 285.557 62.1579 287.716 61.1523C287.913 61.5051 288.076 61.8758 288.202 62.2593V62.2593Z" fill="white"/>
<path d="M337.901 53.0894L336.281 56.1674L318.461 46.7624L320.081 43.6844C320.081 43.6844 326.381 45.2144 331.475 38.3474C332.601 36.7916 333.529 35.1016 334.238 33.3164L335.885 35.3414L338.486 35.5574C337.884 36.4641 337.34 37.408 336.857 38.3834C332.159 47.9054 337.901 53.0894 337.901 53.0894Z" fill="#F31624"/>
<path d="M336.848 38.3826H331.448C332.574 36.8267 333.503 35.1367 334.211 33.3516L335.858 35.3766L338.459 35.5926C337.865 36.4881 337.327 37.4199 336.848 38.3826V38.3826Z" fill="#465A64"/>
<path d="M336.793 53.6644C336.74 53.677 336.685 53.677 336.631 53.6644L320.368 45.0784C320.292 45.0321 320.237 44.9585 320.213 44.8728C320.189 44.787 320.199 44.6953 320.24 44.6164C320.281 44.5374 320.351 44.4771 320.435 44.4476C320.519 44.4181 320.611 44.4216 320.692 44.4574L337 52.9984C337.079 53.0332 337.143 53.0958 337.178 53.1742C337.214 53.2526 337.22 53.3414 337.194 53.4237C337.168 53.506 337.113 53.576 337.04 53.6204C336.966 53.6648 336.878 53.6804 336.793 53.6644V53.6644Z" fill="#ECBDBB"/>
<path d="M330.609 25.6294C324.93 22.6324 321.421 18.8434 320.188 14.3614C318.649 8.79043 321.16 3.78643 322.312 1.89643C322.66 1.25627 323.241 0.77477 323.935 0.551882C324.629 0.328993 325.382 0.381829 326.038 0.699425L337.413 6.70242L335.73 9.88843L325.084 4.29943C324.112 6.09943 322.6 9.62743 323.653 13.4344C324.616 16.9174 327.523 19.9594 332.284 22.4344L330.609 25.6294Z" fill="#F31624"/>
<path d="M362.056 36.465C358.832 37.4873 355.367 37.4653 352.156 36.402C350.336 35.8492 348.576 35.1166 346.9 34.215L348.583 31.029C350.721 32.2134 353.042 33.0317 355.45 33.45C357.28 33.7642 359.158 33.6283 360.922 33.054C364.657 31.776 366.754 28.554 367.654 26.754L356.98 21.102L358.663 17.916L370.03 23.919C370.672 24.2798 371.148 24.8759 371.358 25.5813C371.568 26.2868 371.495 27.0462 371.155 27.699C370.237 29.697 367.528 34.593 362.056 36.465Z" fill="#F31624"/>
<path d="M348.556 31.0293C350.694 32.2137 353.015 33.032 355.423 33.4503C354.407 34.5162 353.305 35.4974 352.129 36.3843C350.319 35.8355 348.568 35.109 346.9 34.2153L348.556 31.0293Z" fill="#465A64"/>
<path d="M361.642 23.559L356.98 21.102L358.663 17.916L362.749 20.076C362.457 21.26 362.087 22.4235 361.642 23.559V23.559Z" fill="#465A64"/>
<path d="M335.884 35.3322C335.884 35.3322 316.984 28.0512 337.603 1.24023L363.1 14.6862C352.588 46.8612 335.884 35.3322 335.884 35.3322Z" fill="#F31624"/>
<path d="M333.059 8.1782C332.997 8.17745 332.937 8.16044 332.884 8.1289C332.83 8.09737 332.787 8.05241 332.757 7.99857C332.726 7.94473 332.711 7.8839 332.712 7.82221C332.713 7.76053 332.73 7.70016 332.762 7.6472C333.221 6.8912 333.707 6.1172 334.229 5.3432C334.253 5.30273 334.285 5.26762 334.324 5.23999C334.362 5.21236 334.406 5.19276 334.452 5.18238C334.498 5.17201 334.546 5.17106 334.592 5.1796C334.639 5.18814 334.683 5.20599 334.723 5.23209C334.762 5.25818 334.796 5.29197 334.822 5.33144C334.848 5.37091 334.866 5.41523 334.874 5.46176C334.883 5.50828 334.882 5.55604 334.871 5.60217C334.861 5.6483 334.841 5.69185 334.814 5.7302C334.301 6.4952 333.815 7.2602 333.365 8.0072C333.333 8.06002 333.288 8.10362 333.234 8.13364C333.181 8.16365 333.12 8.17902 333.059 8.1782V8.1782Z" fill="#ECBDBB"/>
<path d="M327.954 23.5054C327.863 23.5054 327.775 23.4697 327.709 23.4058C327.644 23.3419 327.606 23.2549 327.603 23.1634C327.59 22.188 327.653 21.213 327.792 20.2474C327.795 20.1992 327.809 20.1522 327.831 20.1093C327.853 20.0664 327.884 20.0286 327.921 19.9982C327.959 19.9678 328.002 19.9455 328.049 19.9326C328.096 19.9197 328.144 19.9166 328.192 19.9235C328.24 19.9303 328.286 19.9469 328.327 19.9723C328.368 19.9977 328.403 20.0313 328.431 20.071C328.458 20.1107 328.477 20.1556 328.487 20.203C328.496 20.2504 328.496 20.2992 328.485 20.3464C328.353 21.2733 328.292 22.2091 328.305 23.1454C328.306 23.1915 328.299 23.2374 328.282 23.2804C328.265 23.3235 328.241 23.3628 328.209 23.3963C328.177 23.4297 328.139 23.4565 328.097 23.4753C328.055 23.494 328.009 23.5042 327.963 23.5054V23.5054H327.954Z" fill="#ECBDBB"/>
<path d="M344.506 30.9661C344.449 30.9658 344.393 30.9517 344.343 30.9251C344.293 30.8984 344.25 30.86 344.218 30.8131L340.852 25.8991H334.903C334.837 25.8995 334.772 25.8814 334.716 25.8467C334.66 25.812 334.615 25.7623 334.586 25.7031C334.557 25.6439 334.545 25.5777 334.552 25.5121C334.558 25.4465 334.584 25.3841 334.624 25.3321L338.224 20.6161L336.424 14.9551C336.404 14.8928 336.401 14.826 336.416 14.7622C336.432 14.6985 336.465 14.6404 336.512 14.5944C336.559 14.5485 336.617 14.5167 336.681 14.5025C336.746 14.4883 336.812 14.4923 336.874 14.5141L342.481 16.5031L347.296 13.0111C347.349 12.9721 347.413 12.949 347.478 12.9443C347.544 12.9396 347.61 12.9535 347.668 12.9845C347.727 13.0155 347.775 13.0623 347.808 13.1196C347.841 13.1768 347.857 13.2421 347.854 13.3081L347.692 19.2571L352.498 22.7581C352.551 22.7967 352.593 22.8494 352.617 22.9102C352.642 22.971 352.649 23.0376 352.638 23.1023C352.626 23.1669 352.597 23.2272 352.554 23.2761C352.51 23.325 352.453 23.3607 352.39 23.3791L346.684 25.0621L344.839 30.7141C344.819 30.7778 344.782 30.8345 344.731 30.8775C344.68 30.9206 344.617 30.9482 344.551 30.9571H344.497L344.506 30.9661ZM335.623 25.1971H341.023C341.08 25.1974 341.136 25.2115 341.186 25.2381C341.236 25.2648 341.279 25.3032 341.311 25.3501L344.38 29.8501L346.063 24.7021C346.081 24.6485 346.112 24.6001 346.153 24.5609C346.193 24.5217 346.243 24.493 346.297 24.4771L351.499 22.9471L347.116 19.7521C347.07 19.7182 347.032 19.6734 347.007 19.6216C346.982 19.5698 346.97 19.5126 346.972 19.4551L347.116 14.0551L342.724 17.2321C342.678 17.2653 342.624 17.2868 342.568 17.2946C342.511 17.3025 342.454 17.2965 342.4 17.2771L337.297 15.4771L338.962 20.6341C338.98 20.6884 338.985 20.7463 338.975 20.8028C338.966 20.8593 338.943 20.9126 338.908 20.9581L335.623 25.1971Z" fill="#ECBDBB"/>
<path d="M357.206 14.9927C357.152 15.0053 357.097 15.0053 357.044 14.9927L337.613 4.73271C337.537 4.68636 337.481 4.61284 337.457 4.52705C337.433 4.44126 337.443 4.34961 337.484 4.27067C337.525 4.19173 337.595 4.13139 337.679 4.10187C337.763 4.07236 337.855 4.07588 337.937 4.11172L357.368 14.3717C357.421 14.414 357.46 14.4709 357.482 14.5354C357.503 14.5998 357.506 14.6692 357.489 14.7349C357.471 14.8007 357.436 14.86 357.385 14.9058C357.335 14.9516 357.273 14.9817 357.206 14.9927V14.9927Z" fill="#ECBDBB"/>
<path d="M244.426 28.2049L219.766 22.0039L211.612 28.3399L225.544 51.1459L248.602 37.6459L244.426 28.2049Z" fill="#F31624"/>
<path d="M230.205 33.3698H230.115L213.294 29.1398C213.249 29.1286 213.207 29.1086 213.17 29.0811C213.133 29.0535 213.101 29.0189 213.078 28.9792C213.054 28.9395 213.038 28.8955 213.031 28.8497C213.024 28.8039 213.027 28.7572 213.038 28.7123C213.049 28.6674 213.069 28.6252 213.097 28.588C213.124 28.5508 213.159 28.5194 213.199 28.4956C213.238 28.4717 213.282 28.456 213.328 28.4492C213.374 28.4423 213.42 28.4446 213.465 28.4558L230.286 32.6858C230.364 32.7108 230.43 32.7619 230.474 32.8303C230.518 32.8988 230.537 32.9804 230.527 33.0611C230.518 33.1419 230.48 33.2168 230.422 33.2731C230.363 33.3294 230.286 33.3636 230.205 33.3698V33.3698Z" fill="#ECBDBB"/>
<path d="M225.399 49.7228C225.31 49.7231 225.225 49.6898 225.16 49.6298C225.094 49.5697 225.055 49.4872 225.048 49.3988L223.599 31.4708C223.595 31.4247 223.601 31.3784 223.615 31.3345C223.629 31.2905 223.652 31.2498 223.682 31.2147C223.712 31.1796 223.749 31.1508 223.79 31.1299C223.832 31.109 223.877 31.0964 223.923 31.0928C223.969 31.0893 224.015 31.0949 224.059 31.1092C224.103 31.1236 224.144 31.1465 224.179 31.1765C224.214 31.2066 224.243 31.2433 224.264 31.2846C224.285 31.3258 224.297 31.3707 224.301 31.4168L225.75 49.2998C225.753 49.346 225.748 49.3924 225.734 49.4364C225.719 49.4804 225.696 49.5211 225.666 49.5562C225.636 49.5913 225.599 49.6202 225.558 49.641C225.517 49.6619 225.472 49.6744 225.426 49.6778L225.399 49.7228Z" fill="#ECBDBB"/>
<path d="M226.687 46.9423H226.597C226.508 46.919 226.432 46.8616 226.384 46.7824C226.337 46.7033 226.323 46.6088 226.345 46.5193L231.259 26.9623C231.27 26.9174 231.29 26.8752 231.318 26.838C231.345 26.8008 231.38 26.7694 231.42 26.7456C231.459 26.7217 231.503 26.706 231.549 26.6992C231.595 26.6923 231.642 26.6946 231.687 26.7058C231.731 26.7171 231.774 26.737 231.811 26.7646C231.848 26.7922 231.88 26.8268 231.903 26.8665C231.927 26.9062 231.943 26.9502 231.95 26.9959C231.957 27.0417 231.954 27.0884 231.943 27.1333L227.029 46.6903C227.007 46.7639 226.962 46.8284 226.9 46.874C226.839 46.9195 226.764 46.9435 226.687 46.9423Z" fill="#ECBDBB"/>
<path d="M246.559 37.4748H246.469L229.9 33.3078C229.855 33.2966 229.813 33.2766 229.775 33.2491C229.738 33.2215 229.707 33.1869 229.683 33.1472C229.659 33.1075 229.643 33.0635 229.637 33.0177C229.63 32.9719 229.632 32.9252 229.643 32.8803C229.655 32.8354 229.675 32.7931 229.702 32.7559C229.73 32.7187 229.764 32.6873 229.804 32.6635C229.844 32.6397 229.888 32.6239 229.933 32.6171C229.979 32.6103 230.026 32.6126 230.071 32.6238L246.613 36.7818C246.695 36.8001 246.769 36.8476 246.819 36.9156C246.869 36.9836 246.893 37.0674 246.887 37.1518C246.88 37.2361 246.843 37.3152 246.783 37.3746C246.723 37.4339 246.643 37.4695 246.559 37.4748V37.4748Z" fill="#ECBDBB"/>
<path d="M223.942 31.7855H223.852C223.801 31.7724 223.753 31.7477 223.712 31.7134C223.672 31.6791 223.64 31.6361 223.618 31.5875L219.865 23.1275C219.833 23.0438 219.834 22.9509 219.868 22.868C219.902 22.785 219.967 22.7182 220.049 22.6814C220.13 22.6445 220.223 22.6404 220.308 22.6698C220.393 22.6992 220.463 22.7599 220.504 22.8395L224.104 30.8945L230.881 25.6205C230.918 25.5921 230.96 25.5713 231.004 25.5591C231.049 25.5469 231.096 25.5436 231.142 25.5495C231.188 25.5553 231.232 25.5702 231.272 25.5932C231.313 25.6162 231.348 25.6469 231.376 25.6835C231.405 25.7201 231.425 25.762 231.438 25.8067C231.45 25.8514 231.453 25.8981 231.447 25.9441C231.441 25.99 231.427 26.0344 231.404 26.0746C231.381 26.1148 231.35 26.1501 231.313 26.1785L224.176 31.7225C224.108 31.7706 224.025 31.793 223.942 31.7855V31.7855Z" fill="#ECBDBB"/>
<path d="M236.272 34.8996H236.2C236.149 34.8864 236.101 34.8618 236.06 34.8275C236.02 34.7932 235.988 34.7501 235.966 34.7016L232.267 26.3586C232.245 26.3162 232.232 26.2698 232.228 26.2222C232.225 26.1746 232.231 26.1267 232.247 26.0816C232.263 26.0365 232.287 25.9951 232.32 25.9599C232.352 25.9246 232.391 25.8963 232.434 25.8767C232.478 25.8571 232.525 25.8466 232.573 25.8458C232.62 25.845 232.668 25.8539 232.712 25.8721C232.756 25.8902 232.796 25.9172 232.83 25.9513C232.863 25.9854 232.889 26.026 232.906 26.0706L236.416 33.9996L243.31 28.5996C243.347 28.5712 243.389 28.5504 243.433 28.5382C243.478 28.526 243.525 28.5227 243.571 28.5286C243.617 28.5344 243.661 28.5493 243.701 28.5723C243.741 28.5953 243.777 28.6259 243.805 28.6626C243.833 28.6992 243.854 28.7411 243.867 28.7858C243.879 28.8305 243.882 28.8772 243.876 28.9231C243.87 28.9691 243.855 29.0135 243.832 29.0537C243.809 29.0939 243.779 29.1292 243.742 29.1576L236.497 34.7916C236.438 34.8539 236.358 34.8924 236.272 34.8996V34.8996Z" fill="#ECBDBB"/>
<path d="M226.686 49.7225C226.623 49.7228 226.561 49.706 226.507 49.674C226.453 49.642 226.408 49.5959 226.377 49.5407C226.347 49.4854 226.332 49.423 226.334 49.36C226.336 49.297 226.355 49.2357 226.389 49.1825L235.974 34.3505C236.024 34.2718 236.104 34.2161 236.195 34.1959C236.286 34.1756 236.381 34.1924 236.46 34.2425C236.539 34.2927 236.595 34.372 236.615 34.4632C236.635 34.5543 236.618 34.6498 236.568 34.7285L226.983 49.5605C226.951 49.6104 226.907 49.6514 226.856 49.6797C226.804 49.708 226.745 49.7227 226.686 49.7225Z" fill="#ECBDBB"/>
<path d="M379.713 44.6465C379.713 44.6465 377.913 52.6115 371.901 51.4235C371.901 51.4235 378.291 53.2235 376.761 61.0085C376.761 61.0085 378.462 53.2505 384.393 53.8985C384.384 53.8985 378.759 51.8285 379.713 44.6465Z" fill="#465A64"/>
<path d="M368.006 35.6289C365.432 35.1699 364.586 41.0829 366.989 41.7309C369.392 42.3789 370.589 36.0969 368.006 35.6289Z" fill="#F31624"/>
<path d="M385.32 60.8923C383.745 60.6133 383.232 64.2223 384.699 64.6183C386.166 65.0143 386.904 61.1803 385.32 60.8923Z" fill="#F31624"/>
<path d="M206.643 45.1504C206.643 45.1504 207.903 51.5674 203.106 52.6474C203.106 52.6474 208.38 51.9274 209.766 58.1014C209.766 58.1014 208.506 51.8644 213.069 50.4244C213.06 50.4334 208.299 50.7304 206.643 45.1504Z" fill="#465A64"/>
<path d="M213.313 140.641C213.313 140.641 215.797 146.437 211.513 148.435C211.513 148.435 216.346 146.689 218.902 152.233C218.902 152.233 216.454 146.599 220.459 144.322C220.432 144.322 215.968 145.6 213.313 140.641Z" fill="#465A64"/>
<path d="M253.463 12.8223C253.463 12.8223 251.24 18.6453 246.812 17.0883C246.812 17.0883 251.438 19.1763 249.431 24.8643C249.431 24.8643 251.564 19.1853 255.974 20.3643C256.001 20.3283 251.951 18.1413 253.463 12.8223Z" fill="#465A64"/>
<path d="M226.373 151.675C224.42 151.603 223.61 156.715 225.896 156.949C228.182 157.183 229.496 151.801 226.373 151.675Z" fill="#F31624"/>
</g>
</g>
<defs>
<clipPath id="clip0_2401_21957">
<rect width="603" height="227" fill="white"/>
</clipPath>
</defs>
</svg>
