<svg width="225" height="115" viewBox="0 0 225 115" fill="none" xmlns="http://www.w3.org/2000/svg">
<path d="M0 0H225L221.646 4.78788L225 9.875L221.646 14.3636L225 19.75L221.646 23.0417L225 29.625L221.646 32.9167L225 39.5L221.646 43.0909L225 49.375L221.646 53.2652L225 59.25L221.646 63.7386L225 69.125L221.646 73.9129L225 79H0L3.35366 73.9129L0 68.8258L3.35366 63.7386L0 58.6515L3.35366 53.2652L0 48.4773L3.35366 43.0909L0 38.303L3.35366 32.9167L0 28.7273L3.35366 23.0417L0 19.1515L3.35366 14.3636L0 9.57576L3.35366 4.78788L0 0Z" fill="#FEE8E9"/>
<path d="M68.8204 43.16L50.8204 25.16C50.1004 24.44 49.1004 24 48.0004 24H34.0004C31.8004 24 30.0004 25.8 30.0004 28V42C30.0004 43.1 30.4404 44.1 31.1804 44.84L49.1804 62.84C49.9004 63.56 50.9004 64 52.0004 64C53.1004 64 54.1004 63.56 54.8204 62.82L68.8204 48.82C69.5604 48.1 70.0004 47.1 70.0004 46C70.0004 44.9 69.5404 43.88 68.8204 43.16ZM37.0004 34C35.3404 34 34.0004 32.66 34.0004 31C34.0004 29.34 35.3404 28 37.0004 28C38.6604 28 40.0004 29.34 40.0004 31C40.0004 32.66 38.6604 34 37.0004 34ZM60.5404 50.54L52.0004 59.08L43.4604 50.54C42.5604 49.62 42.0004 48.38 42.0004 47C42.0004 44.24 44.2404 42 47.0004 42C48.3804 42 49.6404 42.56 50.5404 43.48L52.0004 44.92L53.4604 43.46C54.3604 42.56 55.6204 42 57.0004 42C59.7604 42 62.0004 44.24 62.0004 47C62.0004 48.38 61.4404 49.64 60.5404 50.54Z" fill="#F31624"/>
<path d="M94.4609 35H92.0312L92.0469 33.4453H94.4609C95.1641 33.4453 95.7526 33.2917 96.2266 32.9844C96.7057 32.6771 97.0651 32.237 97.3047 31.6641C97.5495 31.0911 97.6719 30.4089 97.6719 29.6172V29C97.6719 28.3854 97.6016 27.8411 97.4609 27.3672C97.3255 26.8932 97.1224 26.4948 96.8516 26.1719C96.5859 25.849 96.2578 25.6042 95.8672 25.4375C95.4818 25.2708 95.0365 25.1875 94.5312 25.1875H91.9844V23.625H94.5312C95.2865 23.625 95.9766 23.7526 96.6016 24.0078C97.2266 24.2578 97.7656 24.6198 98.2188 25.0938C98.6771 25.5677 99.0286 26.1354 99.2734 26.7969C99.5182 27.4583 99.6406 28.1979 99.6406 29.0156V29.6172C99.6406 30.4349 99.5182 31.1745 99.2734 31.8359C99.0286 32.4974 98.6771 33.0651 98.2188 33.5391C97.7604 34.0078 97.2135 34.3698 96.5781 34.625C95.9479 34.875 95.2422 35 94.4609 35ZM93.1172 23.625V35H91.1562V23.625H93.1172ZM105.148 35.1562C104.523 35.1562 103.958 35.0547 103.453 34.8516C102.953 34.6432 102.526 34.3542 102.172 33.9844C101.823 33.6146 101.555 33.1797 101.367 32.6797C101.18 32.1797 101.086 31.6406 101.086 31.0625V30.75C101.086 30.0885 101.182 29.4896 101.375 28.9531C101.568 28.4167 101.836 27.9583 102.18 27.5781C102.523 27.1927 102.93 26.8984 103.398 26.6953C103.867 26.4922 104.375 26.3906 104.922 26.3906C105.526 26.3906 106.055 26.4922 106.508 26.6953C106.961 26.8984 107.336 27.1849 107.633 27.5547C107.935 27.9193 108.159 28.3542 108.305 28.8594C108.456 29.3646 108.531 29.9219 108.531 30.5312V31.3359H102V29.9844H106.672V29.8359C106.661 29.4974 106.594 29.1797 106.469 28.8828C106.349 28.5859 106.164 28.3464 105.914 28.1641C105.664 27.9818 105.331 27.8906 104.914 27.8906C104.602 27.8906 104.323 27.9583 104.078 28.0938C103.839 28.224 103.638 28.4141 103.477 28.6641C103.315 28.9141 103.19 29.2161 103.102 29.5703C103.018 29.9193 102.977 30.3125 102.977 30.75V31.0625C102.977 31.4323 103.026 31.776 103.125 32.0938C103.229 32.4062 103.38 32.6797 103.578 32.9141C103.776 33.1484 104.016 33.3333 104.297 33.4688C104.578 33.599 104.898 33.6641 105.258 33.6641C105.711 33.6641 106.115 33.5729 106.469 33.3906C106.823 33.2083 107.13 32.9505 107.391 32.6172L108.383 33.5781C108.201 33.8438 107.964 34.099 107.672 34.3438C107.38 34.5833 107.023 34.7786 106.602 34.9297C106.185 35.0807 105.701 35.1562 105.148 35.1562ZM114.742 32.7109C114.742 32.5234 114.695 32.3542 114.602 32.2031C114.508 32.0469 114.328 31.9062 114.062 31.7812C113.802 31.6562 113.417 31.5417 112.906 31.4375C112.458 31.3385 112.047 31.2214 111.672 31.0859C111.302 30.9453 110.984 30.776 110.719 30.5781C110.453 30.3802 110.247 30.1458 110.102 29.875C109.956 29.6042 109.883 29.2917 109.883 28.9375C109.883 28.5938 109.958 28.2682 110.109 27.9609C110.26 27.6536 110.477 27.3828 110.758 27.1484C111.039 26.9141 111.38 26.7292 111.781 26.5938C112.188 26.4583 112.641 26.3906 113.141 26.3906C113.849 26.3906 114.456 26.5104 114.961 26.75C115.471 26.9844 115.862 27.3047 116.133 27.7109C116.404 28.112 116.539 28.5651 116.539 29.0703H114.656C114.656 28.8464 114.599 28.638 114.484 28.4453C114.375 28.2474 114.208 28.0885 113.984 27.9688C113.76 27.8438 113.479 27.7812 113.141 27.7812C112.818 27.7812 112.549 27.8333 112.336 27.9375C112.128 28.0365 111.971 28.1667 111.867 28.3281C111.768 28.4896 111.719 28.6667 111.719 28.8594C111.719 29 111.745 29.1276 111.797 29.2422C111.854 29.3516 111.948 29.4531 112.078 29.5469C112.208 29.6354 112.385 29.7188 112.609 29.7969C112.839 29.875 113.125 29.9505 113.469 30.0234C114.115 30.1589 114.669 30.3333 115.133 30.5469C115.602 30.7552 115.961 31.026 116.211 31.3594C116.461 31.6875 116.586 32.1042 116.586 32.6094C116.586 32.9844 116.505 33.3281 116.344 33.6406C116.188 33.9479 115.958 34.2161 115.656 34.4453C115.354 34.6693 114.992 34.8438 114.57 34.9688C114.154 35.0938 113.685 35.1562 113.164 35.1562C112.398 35.1562 111.75 35.0208 111.219 34.75C110.688 34.474 110.284 34.1224 110.008 33.6953C109.737 33.263 109.602 32.8151 109.602 32.3516H111.422C111.443 32.7005 111.539 32.9792 111.711 33.1875C111.888 33.3906 112.107 33.5391 112.367 33.6328C112.633 33.7214 112.906 33.7656 113.188 33.7656C113.526 33.7656 113.81 33.7214 114.039 33.6328C114.268 33.5391 114.443 33.4141 114.562 33.2578C114.682 33.0964 114.742 32.9141 114.742 32.7109ZM121.688 33.6562C121.995 33.6562 122.271 33.5964 122.516 33.4766C122.766 33.3516 122.966 33.1797 123.117 32.9609C123.273 32.7422 123.359 32.4896 123.375 32.2031H125.148C125.138 32.75 124.977 33.2474 124.664 33.6953C124.352 34.1432 123.938 34.5 123.422 34.7656C122.906 35.026 122.336 35.1562 121.711 35.1562C121.065 35.1562 120.503 35.0469 120.023 34.8281C119.544 34.6042 119.146 34.2969 118.828 33.9062C118.51 33.5156 118.271 33.0651 118.109 32.5547C117.953 32.0443 117.875 31.4974 117.875 30.9141V30.6406C117.875 30.0573 117.953 29.5104 118.109 29C118.271 28.4844 118.51 28.0312 118.828 27.6406C119.146 27.25 119.544 26.9453 120.023 26.7266C120.503 26.5026 121.062 26.3906 121.703 26.3906C122.38 26.3906 122.974 26.526 123.484 26.7969C123.995 27.0625 124.396 27.4349 124.688 27.9141C124.984 28.388 125.138 28.9401 125.148 29.5703H123.375C123.359 29.2578 123.281 28.9766 123.141 28.7266C123.005 28.4714 122.812 28.2682 122.562 28.1172C122.318 27.9661 122.023 27.8906 121.68 27.8906C121.299 27.8906 120.984 27.9688 120.734 28.125C120.484 28.276 120.289 28.4844 120.148 28.75C120.008 29.0104 119.906 29.3047 119.844 29.6328C119.786 29.9557 119.758 30.2917 119.758 30.6406V30.9141C119.758 31.263 119.786 31.6016 119.844 31.9297C119.901 32.2578 120 32.5521 120.141 32.8125C120.286 33.0677 120.484 33.2734 120.734 33.4297C120.984 33.5807 121.302 33.6562 121.688 33.6562ZM126.234 30.8672V30.6875C126.234 30.0781 126.323 29.513 126.5 28.9922C126.677 28.4661 126.932 28.0104 127.266 27.625C127.604 27.2344 128.016 26.9323 128.5 26.7188C128.99 26.5 129.542 26.3906 130.156 26.3906C130.776 26.3906 131.328 26.5 131.812 26.7188C132.302 26.9323 132.716 27.2344 133.055 27.625C133.393 28.0104 133.651 28.4661 133.828 28.9922C134.005 29.513 134.094 30.0781 134.094 30.6875V30.8672C134.094 31.4766 134.005 32.0417 133.828 32.5625C133.651 33.0833 133.393 33.5391 133.055 33.9297C132.716 34.3151 132.305 34.6172 131.82 34.8359C131.336 35.0495 130.786 35.1562 130.172 35.1562C129.552 35.1562 128.997 35.0495 128.508 34.8359C128.023 34.6172 127.612 34.3151 127.273 33.9297C126.935 33.5391 126.677 33.0833 126.5 32.5625C126.323 32.0417 126.234 31.4766 126.234 30.8672ZM128.117 30.6875V30.8672C128.117 31.2474 128.156 31.6068 128.234 31.9453C128.312 32.2839 128.435 32.5807 128.602 32.8359C128.768 33.0911 128.982 33.2917 129.242 33.4375C129.503 33.5833 129.812 33.6562 130.172 33.6562C130.521 33.6562 130.823 33.5833 131.078 33.4375C131.339 33.2917 131.552 33.0911 131.719 32.8359C131.885 32.5807 132.008 32.2839 132.086 31.9453C132.169 31.6068 132.211 31.2474 132.211 30.8672V30.6875C132.211 30.3125 132.169 29.9583 132.086 29.625C132.008 29.2865 131.883 28.987 131.711 28.7266C131.544 28.4661 131.331 28.263 131.07 28.1172C130.815 27.9661 130.51 27.8906 130.156 27.8906C129.802 27.8906 129.495 27.9661 129.234 28.1172C128.979 28.263 128.768 28.4661 128.602 28.7266C128.435 28.987 128.312 29.2865 128.234 29.625C128.156 29.9583 128.117 30.3125 128.117 30.6875ZM137.539 28.3516V35H135.656V26.5469H137.43L137.539 28.3516ZM137.203 30.4609L136.594 30.4531C136.599 29.8542 136.682 29.3047 136.844 28.8047C137.01 28.3047 137.24 27.875 137.531 27.5156C137.828 27.1562 138.182 26.8802 138.594 26.6875C139.005 26.4896 139.464 26.3906 139.969 26.3906C140.375 26.3906 140.742 26.4479 141.07 26.5625C141.404 26.6719 141.688 26.8516 141.922 27.1016C142.161 27.3516 142.344 27.6771 142.469 28.0781C142.594 28.474 142.656 28.9609 142.656 29.5391V35H140.766V29.5312C140.766 29.125 140.706 28.8047 140.586 28.5703C140.471 28.3307 140.302 28.1615 140.078 28.0625C139.859 27.9583 139.586 27.9062 139.258 27.9062C138.935 27.9062 138.646 27.974 138.391 28.1094C138.135 28.2448 137.919 28.4297 137.742 28.6641C137.57 28.8984 137.438 29.1693 137.344 29.4766C137.25 29.7839 137.203 30.112 137.203 30.4609ZM148.453 26.5469V27.9219H143.688V26.5469H148.453ZM145.062 24.4766H146.945V32.6641C146.945 32.9245 146.982 33.125 147.055 33.2656C147.133 33.401 147.24 33.4922 147.375 33.5391C147.51 33.5859 147.669 33.6094 147.852 33.6094C147.982 33.6094 148.107 33.6016 148.227 33.5859C148.346 33.5703 148.443 33.5547 148.516 33.5391L148.523 34.9766C148.367 35.0234 148.185 35.0651 147.977 35.1016C147.773 35.138 147.539 35.1562 147.273 35.1562C146.841 35.1562 146.458 35.0807 146.125 34.9297C145.792 34.7734 145.531 34.5208 145.344 34.1719C145.156 33.8229 145.062 33.3594 145.062 32.7812V24.4766ZM149.359 30.8672V30.6875C149.359 30.0781 149.448 29.513 149.625 28.9922C149.802 28.4661 150.057 28.0104 150.391 27.625C150.729 27.2344 151.141 26.9323 151.625 26.7188C152.115 26.5 152.667 26.3906 153.281 26.3906C153.901 26.3906 154.453 26.5 154.938 26.7188C155.427 26.9323 155.841 27.2344 156.18 27.625C156.518 28.0104 156.776 28.4661 156.953 28.9922C157.13 29.513 157.219 30.0781 157.219 30.6875V30.8672C157.219 31.4766 157.13 32.0417 156.953 32.5625C156.776 33.0833 156.518 33.5391 156.18 33.9297C155.841 34.3151 155.43 34.6172 154.945 34.8359C154.461 35.0495 153.911 35.1562 153.297 35.1562C152.677 35.1562 152.122 35.0495 151.633 34.8359C151.148 34.6172 150.737 34.3151 150.398 33.9297C150.06 33.5391 149.802 33.0833 149.625 32.5625C149.448 32.0417 149.359 31.4766 149.359 30.8672ZM151.242 30.6875V30.8672C151.242 31.2474 151.281 31.6068 151.359 31.9453C151.438 32.2839 151.56 32.5807 151.727 32.8359C151.893 33.0911 152.107 33.2917 152.367 33.4375C152.628 33.5833 152.938 33.6562 153.297 33.6562C153.646 33.6562 153.948 33.5833 154.203 33.4375C154.464 33.2917 154.677 33.0911 154.844 32.8359C155.01 32.5807 155.133 32.2839 155.211 31.9453C155.294 31.6068 155.336 31.2474 155.336 30.8672V30.6875C155.336 30.3125 155.294 29.9583 155.211 29.625C155.133 29.2865 155.008 28.987 154.836 28.7266C154.669 28.4661 154.456 28.263 154.195 28.1172C153.94 27.9661 153.635 27.8906 153.281 27.8906C152.927 27.8906 152.62 27.9661 152.359 28.1172C152.104 28.263 151.893 28.4661 151.727 28.7266C151.56 28.987 151.438 29.2865 151.359 29.625C151.281 29.9583 151.242 30.3125 151.242 30.6875ZM163.539 32.7109C163.539 32.5234 163.492 32.3542 163.398 32.2031C163.305 32.0469 163.125 31.9062 162.859 31.7812C162.599 31.6562 162.214 31.5417 161.703 31.4375C161.255 31.3385 160.844 31.2214 160.469 31.0859C160.099 30.9453 159.781 30.776 159.516 30.5781C159.25 30.3802 159.044 30.1458 158.898 29.875C158.753 29.6042 158.68 29.2917 158.68 28.9375C158.68 28.5938 158.755 28.2682 158.906 27.9609C159.057 27.6536 159.273 27.3828 159.555 27.1484C159.836 26.9141 160.177 26.7292 160.578 26.5938C160.984 26.4583 161.438 26.3906 161.938 26.3906C162.646 26.3906 163.253 26.5104 163.758 26.75C164.268 26.9844 164.659 27.3047 164.93 27.7109C165.201 28.112 165.336 28.5651 165.336 29.0703H163.453C163.453 28.8464 163.396 28.638 163.281 28.4453C163.172 28.2474 163.005 28.0885 162.781 27.9688C162.557 27.8438 162.276 27.7812 161.938 27.7812C161.615 27.7812 161.346 27.8333 161.133 27.9375C160.924 28.0365 160.768 28.1667 160.664 28.3281C160.565 28.4896 160.516 28.6667 160.516 28.8594C160.516 29 160.542 29.1276 160.594 29.2422C160.651 29.3516 160.745 29.4531 160.875 29.5469C161.005 29.6354 161.182 29.7188 161.406 29.7969C161.635 29.875 161.922 29.9505 162.266 30.0234C162.911 30.1589 163.466 30.3333 163.93 30.5469C164.398 30.7552 164.758 31.026 165.008 31.3594C165.258 31.6875 165.383 32.1042 165.383 32.6094C165.383 32.9844 165.302 33.3281 165.141 33.6406C164.984 33.9479 164.755 34.2161 164.453 34.4453C164.151 34.6693 163.789 34.8438 163.367 34.9688C162.951 35.0938 162.482 35.1562 161.961 35.1562C161.195 35.1562 160.547 35.0208 160.016 34.75C159.484 34.474 159.081 34.1224 158.805 33.6953C158.534 33.263 158.398 32.8151 158.398 32.3516H160.219C160.24 32.7005 160.336 32.9792 160.508 33.1875C160.685 33.3906 160.904 33.5391 161.164 33.6328C161.43 33.7214 161.703 33.7656 161.984 33.7656C162.323 33.7656 162.607 33.7214 162.836 33.6328C163.065 33.5391 163.24 33.4141 163.359 33.2578C163.479 33.0964 163.539 32.9141 163.539 32.7109ZM174.742 35.1562C174.117 35.1562 173.552 35.0547 173.047 34.8516C172.547 34.6432 172.12 34.3542 171.766 33.9844C171.417 33.6146 171.148 33.1797 170.961 32.6797C170.773 32.1797 170.68 31.6406 170.68 31.0625V30.75C170.68 30.0885 170.776 29.4896 170.969 28.9531C171.161 28.4167 171.43 27.9583 171.773 27.5781C172.117 27.1927 172.523 26.8984 172.992 26.6953C173.461 26.4922 173.969 26.3906 174.516 26.3906C175.12 26.3906 175.648 26.4922 176.102 26.6953C176.555 26.8984 176.93 27.1849 177.227 27.5547C177.529 27.9193 177.753 28.3542 177.898 28.8594C178.049 29.3646 178.125 29.9219 178.125 30.5312V31.3359H171.594V29.9844H176.266V29.8359C176.255 29.4974 176.188 29.1797 176.062 28.8828C175.943 28.5859 175.758 28.3464 175.508 28.1641C175.258 27.9818 174.924 27.8906 174.508 27.8906C174.195 27.8906 173.917 27.9583 173.672 28.0938C173.432 28.224 173.232 28.4141 173.07 28.6641C172.909 28.9141 172.784 29.2161 172.695 29.5703C172.612 29.9193 172.57 30.3125 172.57 30.75V31.0625C172.57 31.4323 172.62 31.776 172.719 32.0938C172.823 32.4062 172.974 32.6797 173.172 32.9141C173.37 33.1484 173.609 33.3333 173.891 33.4688C174.172 33.599 174.492 33.6641 174.852 33.6641C175.305 33.6641 175.708 33.5729 176.062 33.3906C176.417 33.2083 176.724 32.9505 176.984 32.6172L177.977 33.5781C177.794 33.8438 177.557 34.099 177.266 34.3438C176.974 34.5833 176.617 34.7786 176.195 34.9297C175.779 35.0807 175.294 35.1562 174.742 35.1562ZM181.477 28.2656V35H179.594V26.5469H181.367L181.477 28.2656ZM181.172 30.4609L180.531 30.4531C180.531 29.8698 180.604 29.3307 180.75 28.8359C180.896 28.3411 181.109 27.9115 181.391 27.5469C181.672 27.1771 182.021 26.8932 182.438 26.6953C182.859 26.4922 183.346 26.3906 183.898 26.3906C184.284 26.3906 184.635 26.4479 184.953 26.5625C185.276 26.6719 185.555 26.8464 185.789 27.0859C186.029 27.3255 186.211 27.6328 186.336 28.0078C186.466 28.3828 186.531 28.8359 186.531 29.3672V35H184.648V29.5312C184.648 29.1198 184.586 28.7969 184.461 28.5625C184.341 28.3281 184.167 28.1615 183.938 28.0625C183.714 27.9583 183.445 27.9062 183.133 27.9062C182.779 27.9062 182.477 27.974 182.227 28.1094C181.982 28.2448 181.781 28.4297 181.625 28.6641C181.469 28.8984 181.354 29.1693 181.281 29.4766C181.208 29.7839 181.172 30.112 181.172 30.4609ZM186.414 29.9609L185.531 30.1562C185.531 29.6458 185.602 29.1641 185.742 28.7109C185.888 28.2526 186.099 27.8516 186.375 27.5078C186.656 27.1589 187.003 26.8854 187.414 26.6875C187.826 26.4896 188.297 26.3906 188.828 26.3906C189.26 26.3906 189.646 26.4505 189.984 26.5703C190.328 26.6849 190.62 26.8672 190.859 27.1172C191.099 27.3672 191.281 27.6927 191.406 28.0938C191.531 28.4896 191.594 28.9688 191.594 29.5312V35H189.703V29.5234C189.703 29.0964 189.641 28.7656 189.516 28.5312C189.396 28.2969 189.224 28.1354 189 28.0469C188.776 27.9531 188.508 27.9062 188.195 27.9062C187.904 27.9062 187.646 27.9609 187.422 28.0703C187.203 28.1745 187.018 28.3229 186.867 28.5156C186.716 28.7031 186.602 28.9193 186.523 29.1641C186.451 29.4089 186.414 29.6745 186.414 29.9609ZM92.8359 47.3516V54H90.9531V45.5469H92.7266L92.8359 47.3516ZM92.5 49.4609L91.8906 49.4531C91.8958 48.8542 91.9792 48.3047 92.1406 47.8047C92.3073 47.3047 92.5365 46.875 92.8281 46.5156C93.125 46.1562 93.4792 45.8802 93.8906 45.6875C94.3021 45.4896 94.7604 45.3906 95.2656 45.3906C95.6719 45.3906 96.0391 45.4479 96.3672 45.5625C96.7005 45.6719 96.9844 45.8516 97.2188 46.1016C97.4583 46.3516 97.6406 46.6771 97.7656 47.0781C97.8906 47.474 97.9531 47.9609 97.9531 48.5391V54H96.0625V48.5312C96.0625 48.125 96.0026 47.8047 95.8828 47.5703C95.7682 47.3307 95.599 47.1615 95.375 47.0625C95.1562 46.9583 94.8828 46.9062 94.5547 46.9062C94.2318 46.9062 93.9427 46.974 93.6875 47.1094C93.4323 47.2448 93.2161 47.4297 93.0391 47.6641C92.8672 47.8984 92.7344 48.1693 92.6406 48.4766C92.5469 48.7839 92.5 49.112 92.5 49.4609ZM101.891 45.5469V54H100V45.5469H101.891ZM99.875 43.3281C99.875 43.0417 99.9688 42.8047 100.156 42.6172C100.349 42.4245 100.615 42.3281 100.953 42.3281C101.286 42.3281 101.549 42.4245 101.742 42.6172C101.935 42.8047 102.031 43.0417 102.031 43.3281C102.031 43.6094 101.935 43.8438 101.742 44.0312C101.549 44.2188 101.286 44.3125 100.953 44.3125C100.615 44.3125 100.349 44.2188 100.156 44.0312C99.9688 43.8438 99.875 43.6094 99.875 43.3281ZM105.852 42V54H103.961V42H105.852ZM111.102 45.5469L107.422 49.625L105.406 51.6875L104.914 50.0938L106.438 48.2109L108.828 45.5469H111.102ZM109.234 54L106.492 50.0312L107.68 48.7109L111.414 54H109.234ZM115.867 54.1562C115.242 54.1562 114.677 54.0547 114.172 53.8516C113.672 53.6432 113.245 53.3542 112.891 52.9844C112.542 52.6146 112.273 52.1797 112.086 51.6797C111.898 51.1797 111.805 50.6406 111.805 50.0625V49.75C111.805 49.0885 111.901 48.4896 112.094 47.9531C112.286 47.4167 112.555 46.9583 112.898 46.5781C113.242 46.1927 113.648 45.8984 114.117 45.6953C114.586 45.4922 115.094 45.3906 115.641 45.3906C116.245 45.3906 116.773 45.4922 117.227 45.6953C117.68 45.8984 118.055 46.1849 118.352 46.5547C118.654 46.9193 118.878 47.3542 119.023 47.8594C119.174 48.3646 119.25 48.9219 119.25 49.5312V50.3359H112.719V48.9844H117.391V48.8359C117.38 48.4974 117.312 48.1797 117.188 47.8828C117.068 47.5859 116.883 47.3464 116.633 47.1641C116.383 46.9818 116.049 46.8906 115.633 46.8906C115.32 46.8906 115.042 46.9583 114.797 47.0938C114.557 47.224 114.357 47.4141 114.195 47.6641C114.034 47.9141 113.909 48.2161 113.82 48.5703C113.737 48.9193 113.695 49.3125 113.695 49.75V50.0625C113.695 50.4323 113.745 50.776 113.844 51.0938C113.948 51.4062 114.099 51.6797 114.297 51.9141C114.495 52.1484 114.734 52.3333 115.016 52.4688C115.297 52.599 115.617 52.6641 115.977 52.6641C116.43 52.6641 116.833 52.5729 117.188 52.3906C117.542 52.2083 117.849 51.9505 118.109 51.6172L119.102 52.5781C118.919 52.8438 118.682 53.099 118.391 53.3438C118.099 53.5833 117.742 53.7786 117.32 53.9297C116.904 54.0807 116.419 54.1562 115.867 54.1562ZM120.797 53.0625C120.797 52.7708 120.896 52.526 121.094 52.3281C121.292 52.125 121.56 52.0234 121.898 52.0234C122.242 52.0234 122.51 52.125 122.703 52.3281C122.901 52.526 123 52.7708 123 53.0625C123 53.3542 122.901 53.599 122.703 53.7969C122.51 53.9948 122.242 54.0938 121.898 54.0938C121.56 54.0938 121.292 53.9948 121.094 53.7969C120.896 53.599 120.797 53.3542 120.797 53.0625ZM128.625 52.6562C128.932 52.6562 129.208 52.5964 129.453 52.4766C129.703 52.3516 129.904 52.1797 130.055 51.9609C130.211 51.7422 130.297 51.4896 130.312 51.2031H132.086C132.076 51.75 131.914 52.2474 131.602 52.6953C131.289 53.1432 130.875 53.5 130.359 53.7656C129.844 54.026 129.273 54.1562 128.648 54.1562C128.003 54.1562 127.44 54.0469 126.961 53.8281C126.482 53.6042 126.083 53.2969 125.766 52.9062C125.448 52.5156 125.208 52.0651 125.047 51.5547C124.891 51.0443 124.812 50.4974 124.812 49.9141V49.6406C124.812 49.0573 124.891 48.5104 125.047 48C125.208 47.4844 125.448 47.0312 125.766 46.6406C126.083 46.25 126.482 45.9453 126.961 45.7266C127.44 45.5026 128 45.3906 128.641 45.3906C129.318 45.3906 129.911 45.526 130.422 45.7969C130.932 46.0625 131.333 46.4349 131.625 46.9141C131.922 47.388 132.076 47.9401 132.086 48.5703H130.312C130.297 48.2578 130.219 47.9766 130.078 47.7266C129.943 47.4714 129.75 47.2682 129.5 47.1172C129.255 46.9661 128.961 46.8906 128.617 46.8906C128.237 46.8906 127.922 46.9688 127.672 47.125C127.422 47.276 127.227 47.4844 127.086 47.75C126.945 48.0104 126.844 48.3047 126.781 48.6328C126.724 48.9557 126.695 49.2917 126.695 49.6406V49.9141C126.695 50.263 126.724 50.6016 126.781 50.9297C126.839 51.2578 126.938 51.5521 127.078 51.8125C127.224 52.0677 127.422 52.2734 127.672 52.4297C127.922 52.5807 128.24 52.6562 128.625 52.6562ZM133.172 49.8672V49.6875C133.172 49.0781 133.26 48.513 133.438 47.9922C133.615 47.4661 133.87 47.0104 134.203 46.625C134.542 46.2344 134.953 45.9323 135.438 45.7188C135.927 45.5 136.479 45.3906 137.094 45.3906C137.714 45.3906 138.266 45.5 138.75 45.7188C139.24 45.9323 139.654 46.2344 139.992 46.625C140.331 47.0104 140.589 47.4661 140.766 47.9922C140.943 48.513 141.031 49.0781 141.031 49.6875V49.8672C141.031 50.4766 140.943 51.0417 140.766 51.5625C140.589 52.0833 140.331 52.5391 139.992 52.9297C139.654 53.3151 139.242 53.6172 138.758 53.8359C138.273 54.0495 137.724 54.1562 137.109 54.1562C136.49 54.1562 135.935 54.0495 135.445 53.8359C134.961 53.6172 134.549 53.3151 134.211 52.9297C133.872 52.5391 133.615 52.0833 133.438 51.5625C133.26 51.0417 133.172 50.4766 133.172 49.8672ZM135.055 49.6875V49.8672C135.055 50.2474 135.094 50.6068 135.172 50.9453C135.25 51.2839 135.372 51.5807 135.539 51.8359C135.706 52.0911 135.919 52.2917 136.18 52.4375C136.44 52.5833 136.75 52.6562 137.109 52.6562C137.458 52.6562 137.76 52.5833 138.016 52.4375C138.276 52.2917 138.49 52.0911 138.656 51.8359C138.823 51.5807 138.945 51.2839 139.023 50.9453C139.107 50.6068 139.148 50.2474 139.148 49.8672V49.6875C139.148 49.3125 139.107 48.9583 139.023 48.625C138.945 48.2865 138.82 47.987 138.648 47.7266C138.482 47.4661 138.268 47.263 138.008 47.1172C137.753 46.9661 137.448 46.8906 137.094 46.8906C136.74 46.8906 136.432 46.9661 136.172 47.1172C135.917 47.263 135.706 47.4661 135.539 47.7266C135.372 47.987 135.25 48.2865 135.172 48.625C135.094 48.9583 135.055 49.3125 135.055 49.6875ZM144.492 47.2656V54H142.609V45.5469H144.383L144.492 47.2656ZM144.188 49.4609L143.547 49.4531C143.547 48.8698 143.62 48.3307 143.766 47.8359C143.911 47.3411 144.125 46.9115 144.406 46.5469C144.688 46.1771 145.036 45.8932 145.453 45.6953C145.875 45.4922 146.362 45.3906 146.914 45.3906C147.299 45.3906 147.651 45.4479 147.969 45.5625C148.292 45.6719 148.57 45.8464 148.805 46.0859C149.044 46.3255 149.227 46.6328 149.352 47.0078C149.482 47.3828 149.547 47.8359 149.547 48.3672V54H147.664V48.5312C147.664 48.1198 147.602 47.7969 147.477 47.5625C147.357 47.3281 147.182 47.1615 146.953 47.0625C146.729 46.9583 146.461 46.9062 146.148 46.9062C145.794 46.9062 145.492 46.974 145.242 47.1094C144.997 47.2448 144.797 47.4297 144.641 47.6641C144.484 47.8984 144.37 48.1693 144.297 48.4766C144.224 48.7839 144.188 49.112 144.188 49.4609ZM149.43 48.9609L148.547 49.1562C148.547 48.6458 148.617 48.1641 148.758 47.7109C148.904 47.2526 149.115 46.8516 149.391 46.5078C149.672 46.1589 150.018 45.8854 150.43 45.6875C150.841 45.4896 151.312 45.3906 151.844 45.3906C152.276 45.3906 152.661 45.4505 153 45.5703C153.344 45.6849 153.635 45.8672 153.875 46.1172C154.115 46.3672 154.297 46.6927 154.422 47.0938C154.547 47.4896 154.609 47.9688 154.609 48.5312V54H152.719V48.5234C152.719 48.0964 152.656 47.7656 152.531 47.5312C152.411 47.2969 152.24 47.1354 152.016 47.0469C151.792 46.9531 151.523 46.9062 151.211 46.9062C150.919 46.9062 150.661 46.9609 150.438 47.0703C150.219 47.1745 150.034 47.3229 149.883 47.5156C149.732 47.7031 149.617 47.9193 149.539 48.1641C149.466 48.4089 149.43 48.6745 149.43 48.9609ZM156.625 53.0625C156.625 52.7708 156.724 52.526 156.922 52.3281C157.12 52.125 157.388 52.0234 157.727 52.0234C158.07 52.0234 158.339 52.125 158.531 52.3281C158.729 52.526 158.828 52.7708 158.828 53.0625C158.828 53.3542 158.729 53.599 158.531 53.7969C158.339 53.9948 158.07 54.0938 157.727 54.0938C157.388 54.0938 157.12 53.9948 156.922 53.7969C156.724 53.599 156.625 53.3542 156.625 53.0625ZM161.008 42H162.891V52.1953L162.711 54H161.008V42ZM168.406 49.6953V49.8594C168.406 50.4844 168.336 51.0599 168.195 51.5859C168.06 52.1068 167.852 52.5599 167.57 52.9453C167.294 53.3307 166.951 53.6302 166.539 53.8438C166.133 54.0521 165.661 54.1562 165.125 54.1562C164.599 54.1562 164.141 54.0573 163.75 53.8594C163.359 53.6615 163.031 53.3802 162.766 53.0156C162.505 52.651 162.294 52.2161 162.133 51.7109C161.971 51.2057 161.857 50.6484 161.789 50.0391V49.5156C161.857 48.901 161.971 48.3438 162.133 47.8438C162.294 47.3385 162.505 46.9036 162.766 46.5391C163.031 46.1693 163.357 45.8854 163.742 45.6875C164.133 45.4896 164.589 45.3906 165.109 45.3906C165.651 45.3906 166.128 45.4948 166.539 45.7031C166.956 45.9115 167.302 46.2083 167.578 46.5938C167.854 46.974 168.06 47.4271 168.195 47.9531C168.336 48.4792 168.406 49.0599 168.406 49.6953ZM166.523 49.8594V49.6953C166.523 49.3151 166.492 48.9583 166.43 48.625C166.367 48.2865 166.263 47.9896 166.117 47.7344C165.977 47.4792 165.784 47.2786 165.539 47.1328C165.299 46.9818 165 46.9062 164.641 46.9062C164.307 46.9062 164.021 46.9635 163.781 47.0781C163.542 47.1927 163.341 47.349 163.18 47.5469C163.018 47.7448 162.891 47.974 162.797 48.2344C162.708 48.4948 162.648 48.776 162.617 49.0781V50.4922C162.664 50.8828 162.763 51.2422 162.914 51.5703C163.07 51.8932 163.289 52.1536 163.57 52.3516C163.852 52.5443 164.214 52.6406 164.656 52.6406C165.005 52.6406 165.299 52.5703 165.539 52.4297C165.779 52.2891 165.969 52.0938 166.109 51.8438C166.255 51.5885 166.359 51.2917 166.422 50.9531C166.49 50.6146 166.523 50.25 166.523 49.8594ZM171.891 47.1562V54H170.008V45.5469H171.805L171.891 47.1562ZM174.477 45.4922L174.461 47.2422C174.346 47.2214 174.221 47.2057 174.086 47.1953C173.956 47.1849 173.826 47.1797 173.695 47.1797C173.372 47.1797 173.089 47.2266 172.844 47.3203C172.599 47.4089 172.393 47.5391 172.227 47.7109C172.065 47.8776 171.94 48.0807 171.852 48.3203C171.763 48.5599 171.711 48.8281 171.695 49.125L171.266 49.1562C171.266 48.625 171.318 48.1328 171.422 47.6797C171.526 47.2266 171.682 46.8281 171.891 46.4844C172.104 46.1406 172.37 45.8724 172.688 45.6797C173.01 45.487 173.383 45.3906 173.805 45.3906C173.919 45.3906 174.042 45.401 174.172 45.4219C174.307 45.4427 174.409 45.4661 174.477 45.4922Z" fill="#465A64"/>
<path d="M0 79H225L222.5 85L225 89.8L222.5 94.8333L225 99.4L222.5 104.667L225 109L222.5 114.5H3L0 109.857L3 104.381L0 99.5714L3 94.2619L0 89.2857L3 84.1429L0 79Z" fill="#465A64"/>
<g clip-path="url(#clip0_2579_2907)">
<path fill-rule="evenodd" clip-rule="evenodd" d="M94.8874 104.888C93.5671 104.836 92.4871 104.474 91.6426 103.803C91.4813 103.675 91.0973 103.291 90.9685 103.129C90.6259 102.698 90.3932 102.279 90.2379 101.814C89.76 100.383 90.006 98.5044 90.9414 96.443C91.7424 94.6782 92.9782 92.9278 95.1344 90.5035C95.452 90.1468 96.3978 89.1035 96.4039 89.1035C96.4061 89.1035 96.3547 89.1929 96.2897 89.3015C95.7291 90.2406 95.2493 91.3467 94.988 92.3043C94.5682 93.8407 94.6189 95.1594 95.1363 96.1818C95.4933 96.8862 96.1052 97.4964 96.7933 97.8336C97.998 98.4239 99.7617 98.4726 101.916 97.9765C102.064 97.9422 109.412 95.9915 118.245 93.6416C127.078 91.2915 134.306 89.3702 134.308 89.3718C134.31 89.3739 113.786 98.1562 103.132 102.712C101.444 103.434 100.993 103.616 100.2 103.895C98.172 104.607 96.3555 104.946 94.8874 104.888V104.888Z" fill="white"/>
</g>
<defs>
<clipPath id="clip0_2579_2907">
<rect width="44.3077" height="16" fill="white" transform="translate(90 89)"/>
</clipPath>
</defs>
</svg>
