<svg width="225" height="115" viewBox="0 0 225 115" fill="none" xmlns="http://www.w3.org/2000/svg">
<path d="M0 0H225L221.646 4.78788L225 9.875L221.646 14.3636L225 19.75L221.646 23.0417L225 29.625L221.646 32.9167L225 39.5L221.646 43.0909L225 49.375L221.646 53.2652L225 59.25L221.646 63.7386L225 69.125L221.646 73.9129L225 79H0L3.35366 73.9129L0 68.8258L3.35366 63.7386L0 58.6515L3.35366 53.2652L0 48.4773L3.35366 43.0909L0 38.303L3.35366 32.9167L0 28.7273L3.35366 23.0417L0 19.1515L3.35366 14.3636L0 9.57576L3.35366 4.78788L0 0Z" fill="#FEE8E9"/>
<path d="M93.875 31.2969H95.8281C95.7656 32.0417 95.5573 32.7057 95.2031 33.2891C94.849 33.8672 94.3516 34.3229 93.7109 34.6562C93.0703 34.9896 92.2917 35.1562 91.375 35.1562C90.6719 35.1562 90.0391 35.0312 89.4766 34.7812C88.9141 34.526 88.4323 34.1667 88.0312 33.7031C87.6302 33.2344 87.3229 32.6693 87.1094 32.0078C86.901 31.3464 86.7969 30.6068 86.7969 29.7891V28.8438C86.7969 28.026 86.9036 27.2865 87.1172 26.625C87.3359 25.9635 87.6484 25.3984 88.0547 24.9297C88.4609 24.4557 88.9479 24.0938 89.5156 23.8438C90.0885 23.5938 90.7318 23.4688 91.4453 23.4688C92.3516 23.4688 93.1172 23.6354 93.7422 23.9688C94.3672 24.3021 94.8516 24.763 95.1953 25.3516C95.5443 25.9401 95.7578 26.6146 95.8359 27.375H93.8828C93.8307 26.8854 93.7161 26.4661 93.5391 26.1172C93.3672 25.7682 93.112 25.5026 92.7734 25.3203C92.4349 25.1328 91.9922 25.0391 91.4453 25.0391C90.9974 25.0391 90.6068 25.1224 90.2734 25.2891C89.9401 25.4557 89.6615 25.7005 89.4375 26.0234C89.2135 26.3464 89.0443 26.7448 88.9297 27.2188C88.8203 27.6875 88.7656 28.224 88.7656 28.8281V29.7891C88.7656 30.362 88.8151 30.8828 88.9141 31.3516C89.0182 31.8151 89.1745 32.2135 89.3828 32.5469C89.5964 32.8802 89.8672 33.138 90.1953 33.3203C90.5234 33.5026 90.9167 33.5938 91.375 33.5938C91.9323 33.5938 92.3828 33.5052 92.7266 33.3281C93.0755 33.151 93.3385 32.8932 93.5156 32.5547C93.6979 32.2109 93.8177 31.7917 93.875 31.2969ZM102.188 33.3047V29.2734C102.188 28.9714 102.133 28.7109 102.023 28.4922C101.914 28.2734 101.747 28.1042 101.523 27.9844C101.305 27.8646 101.029 27.8047 100.695 27.8047C100.388 27.8047 100.122 27.8568 99.8984 27.9609C99.6745 28.0651 99.5 28.2057 99.375 28.3828C99.25 28.5599 99.1875 28.7604 99.1875 28.9844H97.3125C97.3125 28.651 97.3932 28.3281 97.5547 28.0156C97.7161 27.7031 97.9505 27.4245 98.2578 27.1797C98.5651 26.9349 98.9323 26.7422 99.3594 26.6016C99.7865 26.4609 100.266 26.3906 100.797 26.3906C101.432 26.3906 101.995 26.4974 102.484 26.7109C102.979 26.9245 103.367 27.2474 103.648 27.6797C103.935 28.1068 104.078 28.6432 104.078 29.2891V33.0469C104.078 33.4323 104.104 33.7786 104.156 34.0859C104.214 34.388 104.294 34.651 104.398 34.875V35H102.469C102.38 34.7969 102.31 34.5391 102.258 34.2266C102.211 33.9089 102.188 33.6016 102.188 33.3047ZM102.461 29.8594L102.477 31.0234H101.125C100.776 31.0234 100.469 31.0573 100.203 31.125C99.9375 31.1875 99.7161 31.2812 99.5391 31.4062C99.362 31.5312 99.2292 31.6823 99.1406 31.8594C99.0521 32.0365 99.0078 32.237 99.0078 32.4609C99.0078 32.6849 99.0599 32.8906 99.1641 33.0781C99.2682 33.2604 99.4193 33.4036 99.6172 33.5078C99.8203 33.612 100.065 33.6641 100.352 33.6641C100.737 33.6641 101.073 33.5859 101.359 33.4297C101.651 33.2682 101.88 33.0729 102.047 32.8438C102.214 32.6094 102.302 32.388 102.312 32.1797L102.922 33.0156C102.859 33.2292 102.753 33.4583 102.602 33.7031C102.451 33.9479 102.253 34.1823 102.008 34.4062C101.768 34.625 101.479 34.8047 101.141 34.9453C100.807 35.0859 100.422 35.1562 99.9844 35.1562C99.4323 35.1562 98.9401 35.0469 98.5078 34.8281C98.0755 34.6042 97.737 34.3047 97.4922 33.9297C97.2474 33.5495 97.125 33.1198 97.125 32.6406C97.125 32.1927 97.2083 31.7969 97.375 31.4531C97.5469 31.1042 97.7969 30.8125 98.125 30.5781C98.4583 30.3438 98.8646 30.1667 99.3438 30.0469C99.8229 29.9219 100.37 29.8594 100.984 29.8594H102.461ZM107.938 28.1562V35H106.055V26.5469H107.852L107.938 28.1562ZM110.523 26.4922L110.508 28.2422C110.393 28.2214 110.268 28.2057 110.133 28.1953C110.003 28.1849 109.872 28.1797 109.742 28.1797C109.419 28.1797 109.135 28.2266 108.891 28.3203C108.646 28.4089 108.44 28.5391 108.273 28.7109C108.112 28.8776 107.987 29.0807 107.898 29.3203C107.81 29.5599 107.758 29.8281 107.742 30.125L107.312 30.1562C107.312 29.625 107.365 29.1328 107.469 28.6797C107.573 28.2266 107.729 27.8281 107.938 27.4844C108.151 27.1406 108.417 26.8724 108.734 26.6797C109.057 26.487 109.43 26.3906 109.852 26.3906C109.966 26.3906 110.089 26.401 110.219 26.4219C110.354 26.4427 110.456 26.4661 110.523 26.4922ZM115.969 26.5469V27.9219H111.203V26.5469H115.969ZM112.578 24.4766H114.461V32.6641C114.461 32.9245 114.497 33.125 114.57 33.2656C114.648 33.401 114.755 33.4922 114.891 33.5391C115.026 33.5859 115.185 33.6094 115.367 33.6094C115.497 33.6094 115.622 33.6016 115.742 33.5859C115.862 33.5703 115.958 33.5547 116.031 33.5391L116.039 34.9766C115.883 35.0234 115.701 35.0651 115.492 35.1016C115.289 35.138 115.055 35.1562 114.789 35.1562C114.357 35.1562 113.974 35.0807 113.641 34.9297C113.307 34.7734 113.047 34.5208 112.859 34.1719C112.672 33.8229 112.578 33.3594 112.578 32.7812V24.4766ZM122.188 33.3047V29.2734C122.188 28.9714 122.133 28.7109 122.023 28.4922C121.914 28.2734 121.747 28.1042 121.523 27.9844C121.305 27.8646 121.029 27.8047 120.695 27.8047C120.388 27.8047 120.122 27.8568 119.898 27.9609C119.674 28.0651 119.5 28.2057 119.375 28.3828C119.25 28.5599 119.188 28.7604 119.188 28.9844H117.312C117.312 28.651 117.393 28.3281 117.555 28.0156C117.716 27.7031 117.951 27.4245 118.258 27.1797C118.565 26.9349 118.932 26.7422 119.359 26.6016C119.786 26.4609 120.266 26.3906 120.797 26.3906C121.432 26.3906 121.995 26.4974 122.484 26.7109C122.979 26.9245 123.367 27.2474 123.648 27.6797C123.935 28.1068 124.078 28.6432 124.078 29.2891V33.0469C124.078 33.4323 124.104 33.7786 124.156 34.0859C124.214 34.388 124.294 34.651 124.398 34.875V35H122.469C122.38 34.7969 122.31 34.5391 122.258 34.2266C122.211 33.9089 122.188 33.6016 122.188 33.3047ZM122.461 29.8594L122.477 31.0234H121.125C120.776 31.0234 120.469 31.0573 120.203 31.125C119.938 31.1875 119.716 31.2812 119.539 31.4062C119.362 31.5312 119.229 31.6823 119.141 31.8594C119.052 32.0365 119.008 32.237 119.008 32.4609C119.008 32.6849 119.06 32.8906 119.164 33.0781C119.268 33.2604 119.419 33.4036 119.617 33.5078C119.82 33.612 120.065 33.6641 120.352 33.6641C120.737 33.6641 121.073 33.5859 121.359 33.4297C121.651 33.2682 121.88 33.0729 122.047 32.8438C122.214 32.6094 122.302 32.388 122.312 32.1797L122.922 33.0156C122.859 33.2292 122.753 33.4583 122.602 33.7031C122.451 33.9479 122.253 34.1823 122.008 34.4062C121.768 34.625 121.479 34.8047 121.141 34.9453C120.807 35.0859 120.422 35.1562 119.984 35.1562C119.432 35.1562 118.94 35.0469 118.508 34.8281C118.076 34.6042 117.737 34.3047 117.492 33.9297C117.247 33.5495 117.125 33.1198 117.125 32.6406C117.125 32.1927 117.208 31.7969 117.375 31.4531C117.547 31.1042 117.797 30.8125 118.125 30.5781C118.458 30.3438 118.865 30.1667 119.344 30.0469C119.823 29.9219 120.37 29.8594 120.984 29.8594H122.461ZM122.578 23.0938L123.727 23.1797C123.727 23.5599 123.651 23.901 123.5 24.2031C123.349 24.5 123.143 24.7344 122.883 24.9062C122.622 25.0781 122.328 25.1641 122 25.1641C121.745 25.1641 121.529 25.1276 121.352 25.0547C121.174 24.9818 121.013 24.8984 120.867 24.8047C120.721 24.7109 120.57 24.6302 120.414 24.5625C120.263 24.4896 120.083 24.4531 119.875 24.4531C119.677 24.4531 119.508 24.526 119.367 24.6719C119.232 24.8177 119.164 25.013 119.164 25.2578L118.008 25.1953C118.008 24.8203 118.083 24.4818 118.234 24.1797C118.385 23.8776 118.591 23.638 118.852 23.4609C119.112 23.2839 119.406 23.1953 119.734 23.1953C119.948 23.1953 120.141 23.2318 120.312 23.3047C120.49 23.3724 120.656 23.4531 120.812 23.5469C120.974 23.6406 121.138 23.724 121.305 23.7969C121.471 23.8698 121.656 23.9062 121.859 23.9062C122.057 23.9062 122.227 23.8307 122.367 23.6797C122.508 23.5286 122.578 23.3333 122.578 23.0938ZM125.688 30.8672V30.6875C125.688 30.0781 125.776 29.513 125.953 28.9922C126.13 28.4661 126.385 28.0104 126.719 27.625C127.057 27.2344 127.469 26.9323 127.953 26.7188C128.443 26.5 128.995 26.3906 129.609 26.3906C130.229 26.3906 130.781 26.5 131.266 26.7188C131.755 26.9323 132.169 27.2344 132.508 27.625C132.846 28.0104 133.104 28.4661 133.281 28.9922C133.458 29.513 133.547 30.0781 133.547 30.6875V30.8672C133.547 31.4766 133.458 32.0417 133.281 32.5625C133.104 33.0833 132.846 33.5391 132.508 33.9297C132.169 34.3151 131.758 34.6172 131.273 34.8359C130.789 35.0495 130.24 35.1562 129.625 35.1562C129.005 35.1562 128.451 35.0495 127.961 34.8359C127.477 34.6172 127.065 34.3151 126.727 33.9297C126.388 33.5391 126.13 33.0833 125.953 32.5625C125.776 32.0417 125.688 31.4766 125.688 30.8672ZM127.57 30.6875V30.8672C127.57 31.2474 127.609 31.6068 127.688 31.9453C127.766 32.2839 127.888 32.5807 128.055 32.8359C128.221 33.0911 128.435 33.2917 128.695 33.4375C128.956 33.5833 129.266 33.6562 129.625 33.6562C129.974 33.6562 130.276 33.5833 130.531 33.4375C130.792 33.2917 131.005 33.0911 131.172 32.8359C131.339 32.5807 131.461 32.2839 131.539 31.9453C131.622 31.6068 131.664 31.2474 131.664 30.8672V30.6875C131.664 30.3125 131.622 29.9583 131.539 29.625C131.461 29.2865 131.336 28.987 131.164 28.7266C130.997 28.4661 130.784 28.263 130.523 28.1172C130.268 27.9661 129.964 27.8906 129.609 27.8906C129.255 27.8906 128.948 27.9661 128.688 28.1172C128.432 28.263 128.221 28.4661 128.055 28.7266C127.888 28.987 127.766 29.2865 127.688 29.625C127.609 29.9583 127.57 30.3125 127.57 30.6875ZM141 28.1719V38.25H139.117V26.5469H140.852L141 28.1719ZM146.508 30.6953V30.8594C146.508 31.474 146.435 32.0443 146.289 32.5703C146.148 33.0911 145.938 33.5469 145.656 33.9375C145.38 34.3229 145.039 34.6224 144.633 34.8359C144.227 35.0495 143.758 35.1562 143.227 35.1562C142.701 35.1562 142.24 35.0599 141.844 34.8672C141.453 34.6693 141.122 34.3906 140.852 34.0312C140.581 33.6719 140.362 33.25 140.195 32.7656C140.034 32.276 139.919 31.7396 139.852 31.1562V30.5234C139.919 29.9036 140.034 29.3411 140.195 28.8359C140.362 28.3307 140.581 27.8958 140.852 27.5312C141.122 27.1667 141.453 26.8854 141.844 26.6875C142.234 26.4896 142.69 26.3906 143.211 26.3906C143.742 26.3906 144.214 26.4948 144.625 26.7031C145.036 26.9062 145.383 27.1979 145.664 27.5781C145.945 27.9531 146.156 28.4062 146.297 28.9375C146.438 29.4635 146.508 30.0495 146.508 30.6953ZM144.625 30.8594V30.6953C144.625 30.3047 144.589 29.9427 144.516 29.6094C144.443 29.2708 144.328 28.974 144.172 28.7188C144.016 28.4635 143.815 28.2656 143.57 28.125C143.331 27.9792 143.042 27.9062 142.703 27.9062C142.37 27.9062 142.083 27.9635 141.844 28.0781C141.604 28.1875 141.404 28.3411 141.242 28.5391C141.081 28.737 140.956 28.9688 140.867 29.2344C140.779 29.4948 140.716 29.7786 140.68 30.0859V31.6016C140.742 31.9766 140.849 32.3203 141 32.6328C141.151 32.9453 141.365 33.1953 141.641 33.3828C141.922 33.5651 142.281 33.6562 142.719 33.6562C143.057 33.6562 143.346 33.5833 143.586 33.4375C143.826 33.2917 144.021 33.0911 144.172 32.8359C144.328 32.5755 144.443 32.276 144.516 31.9375C144.589 31.599 144.625 31.2396 144.625 30.8594ZM150 28.1562V35H148.117V26.5469H149.914L150 28.1562ZM152.586 26.4922L152.57 28.2422C152.456 28.2214 152.331 28.2057 152.195 28.1953C152.065 28.1849 151.935 28.1797 151.805 28.1797C151.482 28.1797 151.198 28.2266 150.953 28.3203C150.708 28.4089 150.503 28.5391 150.336 28.7109C150.174 28.8776 150.049 29.0807 149.961 29.3203C149.872 29.5599 149.82 29.8281 149.805 30.125L149.375 30.1562C149.375 29.625 149.427 29.1328 149.531 28.6797C149.635 28.2266 149.792 27.8281 150 27.4844C150.214 27.1406 150.479 26.8724 150.797 26.6797C151.12 26.487 151.492 26.3906 151.914 26.3906C152.029 26.3906 152.151 26.401 152.281 26.4219C152.417 26.4427 152.518 26.4661 152.586 26.4922ZM157.336 35.1562C156.711 35.1562 156.146 35.0547 155.641 34.8516C155.141 34.6432 154.714 34.3542 154.359 33.9844C154.01 33.6146 153.742 33.1797 153.555 32.6797C153.367 32.1797 153.273 31.6406 153.273 31.0625V30.75C153.273 30.0885 153.37 29.4896 153.562 28.9531C153.755 28.4167 154.023 27.9583 154.367 27.5781C154.711 27.1927 155.117 26.8984 155.586 26.6953C156.055 26.4922 156.562 26.3906 157.109 26.3906C157.714 26.3906 158.242 26.4922 158.695 26.6953C159.148 26.8984 159.523 27.1849 159.82 27.5547C160.122 27.9193 160.346 28.3542 160.492 28.8594C160.643 29.3646 160.719 29.9219 160.719 30.5312V31.3359H154.188V29.9844H158.859V29.8359C158.849 29.4974 158.781 29.1797 158.656 28.8828C158.536 28.5859 158.352 28.3464 158.102 28.1641C157.852 27.9818 157.518 27.8906 157.102 27.8906C156.789 27.8906 156.51 27.9583 156.266 28.0938C156.026 28.224 155.826 28.4141 155.664 28.6641C155.503 28.9141 155.378 29.2161 155.289 29.5703C155.206 29.9193 155.164 30.3125 155.164 30.75V31.0625C155.164 31.4323 155.214 31.776 155.312 32.0938C155.417 32.4062 155.568 32.6797 155.766 32.9141C155.964 33.1484 156.203 33.3333 156.484 33.4688C156.766 33.599 157.086 33.6641 157.445 33.6641C157.898 33.6641 158.302 33.5729 158.656 33.3906C159.01 33.2083 159.318 32.9505 159.578 32.6172L160.57 33.5781C160.388 33.8438 160.151 34.099 159.859 34.3438C159.568 34.5833 159.211 34.7786 158.789 34.9297C158.372 35.0807 157.888 35.1562 157.336 35.1562ZM166.93 32.7109C166.93 32.5234 166.883 32.3542 166.789 32.2031C166.695 32.0469 166.516 31.9062 166.25 31.7812C165.99 31.6562 165.604 31.5417 165.094 31.4375C164.646 31.3385 164.234 31.2214 163.859 31.0859C163.49 30.9453 163.172 30.776 162.906 30.5781C162.641 30.3802 162.435 30.1458 162.289 29.875C162.143 29.6042 162.07 29.2917 162.07 28.9375C162.07 28.5938 162.146 28.2682 162.297 27.9609C162.448 27.6536 162.664 27.3828 162.945 27.1484C163.227 26.9141 163.568 26.7292 163.969 26.5938C164.375 26.4583 164.828 26.3906 165.328 26.3906C166.036 26.3906 166.643 26.5104 167.148 26.75C167.659 26.9844 168.049 27.3047 168.32 27.7109C168.591 28.112 168.727 28.5651 168.727 29.0703H166.844C166.844 28.8464 166.786 28.638 166.672 28.4453C166.562 28.2474 166.396 28.0885 166.172 27.9688C165.948 27.8438 165.667 27.7812 165.328 27.7812C165.005 27.7812 164.737 27.8333 164.523 27.9375C164.315 28.0365 164.159 28.1667 164.055 28.3281C163.956 28.4896 163.906 28.6667 163.906 28.8594C163.906 29 163.932 29.1276 163.984 29.2422C164.042 29.3516 164.135 29.4531 164.266 29.5469C164.396 29.6354 164.573 29.7188 164.797 29.7969C165.026 29.875 165.312 29.9505 165.656 30.0234C166.302 30.1589 166.857 30.3333 167.32 30.5469C167.789 30.7552 168.148 31.026 168.398 31.3594C168.648 31.6875 168.773 32.1042 168.773 32.6094C168.773 32.9844 168.693 33.3281 168.531 33.6406C168.375 33.9479 168.146 34.2161 167.844 34.4453C167.542 34.6693 167.18 34.8438 166.758 34.9688C166.341 35.0938 165.872 35.1562 165.352 35.1562C164.586 35.1562 163.938 35.0208 163.406 34.75C162.875 34.474 162.471 34.1224 162.195 33.6953C161.924 33.263 161.789 32.8151 161.789 32.3516H163.609C163.63 32.7005 163.727 32.9792 163.898 33.1875C164.076 33.3906 164.294 33.5391 164.555 33.6328C164.82 33.7214 165.094 33.7656 165.375 33.7656C165.714 33.7656 165.997 33.7214 166.227 33.6328C166.456 33.5391 166.63 33.4141 166.75 33.2578C166.87 33.0964 166.93 32.9141 166.93 32.7109ZM174.148 35.1562C173.523 35.1562 172.958 35.0547 172.453 34.8516C171.953 34.6432 171.526 34.3542 171.172 33.9844C170.823 33.6146 170.555 33.1797 170.367 32.6797C170.18 32.1797 170.086 31.6406 170.086 31.0625V30.75C170.086 30.0885 170.182 29.4896 170.375 28.9531C170.568 28.4167 170.836 27.9583 171.18 27.5781C171.523 27.1927 171.93 26.8984 172.398 26.6953C172.867 26.4922 173.375 26.3906 173.922 26.3906C174.526 26.3906 175.055 26.4922 175.508 26.6953C175.961 26.8984 176.336 27.1849 176.633 27.5547C176.935 27.9193 177.159 28.3542 177.305 28.8594C177.456 29.3646 177.531 29.9219 177.531 30.5312V31.3359H171V29.9844H175.672V29.8359C175.661 29.4974 175.594 29.1797 175.469 28.8828C175.349 28.5859 175.164 28.3464 174.914 28.1641C174.664 27.9818 174.331 27.8906 173.914 27.8906C173.602 27.8906 173.323 27.9583 173.078 28.0938C172.839 28.224 172.638 28.4141 172.477 28.6641C172.315 28.9141 172.19 29.2161 172.102 29.5703C172.018 29.9193 171.977 30.3125 171.977 30.75V31.0625C171.977 31.4323 172.026 31.776 172.125 32.0938C172.229 32.4062 172.38 32.6797 172.578 32.9141C172.776 33.1484 173.016 33.3333 173.297 33.4688C173.578 33.599 173.898 33.6641 174.258 33.6641C174.711 33.6641 175.115 33.5729 175.469 33.3906C175.823 33.2083 176.13 32.9505 176.391 32.6172L177.383 33.5781C177.201 33.8438 176.964 34.099 176.672 34.3438C176.38 34.5833 176.023 34.7786 175.602 34.9297C175.185 35.0807 174.701 35.1562 174.148 35.1562ZM180.867 28.3516V35H178.984V26.5469H180.758L180.867 28.3516ZM180.531 30.4609L179.922 30.4531C179.927 29.8542 180.01 29.3047 180.172 28.8047C180.339 28.3047 180.568 27.875 180.859 27.5156C181.156 27.1562 181.51 26.8802 181.922 26.6875C182.333 26.4896 182.792 26.3906 183.297 26.3906C183.703 26.3906 184.07 26.4479 184.398 26.5625C184.732 26.6719 185.016 26.8516 185.25 27.1016C185.49 27.3516 185.672 27.6771 185.797 28.0781C185.922 28.474 185.984 28.9609 185.984 29.5391V35H184.094V29.5312C184.094 29.125 184.034 28.8047 183.914 28.5703C183.799 28.3307 183.63 28.1615 183.406 28.0625C183.188 27.9583 182.914 27.9062 182.586 27.9062C182.263 27.9062 181.974 27.974 181.719 28.1094C181.464 28.2448 181.247 28.4297 181.07 28.6641C180.898 28.8984 180.766 29.1693 180.672 29.4766C180.578 29.7839 180.531 30.112 180.531 30.4609ZM191.781 26.5469V27.9219H187.016V26.5469H191.781ZM188.391 24.4766H190.273V32.6641C190.273 32.9245 190.31 33.125 190.383 33.2656C190.461 33.401 190.568 33.4922 190.703 33.5391C190.839 33.5859 190.997 33.6094 191.18 33.6094C191.31 33.6094 191.435 33.6016 191.555 33.5859C191.674 33.5703 191.771 33.5547 191.844 33.5391L191.852 34.9766C191.695 35.0234 191.513 35.0651 191.305 35.1016C191.102 35.138 190.867 35.1562 190.602 35.1562C190.169 35.1562 189.786 35.0807 189.453 34.9297C189.12 34.7734 188.859 34.5208 188.672 34.1719C188.484 33.8229 188.391 33.3594 188.391 32.7812V24.4766ZM196.961 35.1562C196.336 35.1562 195.771 35.0547 195.266 34.8516C194.766 34.6432 194.339 34.3542 193.984 33.9844C193.635 33.6146 193.367 33.1797 193.18 32.6797C192.992 32.1797 192.898 31.6406 192.898 31.0625V30.75C192.898 30.0885 192.995 29.4896 193.188 28.9531C193.38 28.4167 193.648 27.9583 193.992 27.5781C194.336 27.1927 194.742 26.8984 195.211 26.6953C195.68 26.4922 196.188 26.3906 196.734 26.3906C197.339 26.3906 197.867 26.4922 198.32 26.6953C198.773 26.8984 199.148 27.1849 199.445 27.5547C199.747 27.9193 199.971 28.3542 200.117 28.8594C200.268 29.3646 200.344 29.9219 200.344 30.5312V31.3359H193.812V29.9844H198.484V29.8359C198.474 29.4974 198.406 29.1797 198.281 28.8828C198.161 28.5859 197.977 28.3464 197.727 28.1641C197.477 27.9818 197.143 27.8906 196.727 27.8906C196.414 27.8906 196.135 27.9583 195.891 28.0938C195.651 28.224 195.451 28.4141 195.289 28.6641C195.128 28.9141 195.003 29.2161 194.914 29.5703C194.831 29.9193 194.789 30.3125 194.789 30.75V31.0625C194.789 31.4323 194.839 31.776 194.938 32.0938C195.042 32.4062 195.193 32.6797 195.391 32.9141C195.589 33.1484 195.828 33.3333 196.109 33.4688C196.391 33.599 196.711 33.6641 197.07 33.6641C197.523 33.6641 197.927 33.5729 198.281 33.3906C198.635 33.2083 198.943 32.9505 199.203 32.6172L200.195 33.5781C200.013 33.8438 199.776 34.099 199.484 34.3438C199.193 34.5833 198.836 34.7786 198.414 34.9297C197.997 35.0807 197.513 35.1562 196.961 35.1562ZM88.8359 47.3516V54H86.9531V45.5469H88.7266L88.8359 47.3516ZM88.5 49.4609L87.8906 49.4531C87.8958 48.8542 87.9792 48.3047 88.1406 47.8047C88.3073 47.3047 88.5365 46.875 88.8281 46.5156C89.125 46.1562 89.4792 45.8802 89.8906 45.6875C90.3021 45.4896 90.7604 45.3906 91.2656 45.3906C91.6719 45.3906 92.0391 45.4479 92.3672 45.5625C92.7005 45.6719 92.9844 45.8516 93.2188 46.1016C93.4583 46.3516 93.6406 46.6771 93.7656 47.0781C93.8906 47.474 93.9531 47.9609 93.9531 48.5391V54H92.0625V48.5312C92.0625 48.125 92.0026 47.8047 91.8828 47.5703C91.7682 47.3307 91.599 47.1615 91.375 47.0625C91.1562 46.9583 90.8828 46.9062 90.5547 46.9062C90.2318 46.9062 89.9427 46.974 89.6875 47.1094C89.4323 47.2448 89.2161 47.4297 89.0391 47.6641C88.8672 47.8984 88.7344 48.1693 88.6406 48.4766C88.5469 48.7839 88.5 49.112 88.5 49.4609ZM100.641 52.3047V48.2734C100.641 47.9714 100.586 47.7109 100.477 47.4922C100.367 47.2734 100.201 47.1042 99.9766 46.9844C99.7578 46.8646 99.4818 46.8047 99.1484 46.8047C98.8411 46.8047 98.5755 46.8568 98.3516 46.9609C98.1276 47.0651 97.9531 47.2057 97.8281 47.3828C97.7031 47.5599 97.6406 47.7604 97.6406 47.9844H95.7656C95.7656 47.651 95.8464 47.3281 96.0078 47.0156C96.1693 46.7031 96.4036 46.4245 96.7109 46.1797C97.0182 45.9349 97.3854 45.7422 97.8125 45.6016C98.2396 45.4609 98.7188 45.3906 99.25 45.3906C99.8854 45.3906 100.448 45.4974 100.938 45.7109C101.432 45.9245 101.82 46.2474 102.102 46.6797C102.388 47.1068 102.531 47.6432 102.531 48.2891V52.0469C102.531 52.4323 102.557 52.7786 102.609 53.0859C102.667 53.388 102.747 53.651 102.852 53.875V54H100.922C100.833 53.7969 100.763 53.5391 100.711 53.2266C100.664 52.9089 100.641 52.6016 100.641 52.3047ZM100.914 48.8594L100.93 50.0234H99.5781C99.2292 50.0234 98.9219 50.0573 98.6562 50.125C98.3906 50.1875 98.1693 50.2812 97.9922 50.4062C97.8151 50.5312 97.6823 50.6823 97.5938 50.8594C97.5052 51.0365 97.4609 51.237 97.4609 51.4609C97.4609 51.6849 97.513 51.8906 97.6172 52.0781C97.7214 52.2604 97.8724 52.4036 98.0703 52.5078C98.2734 52.612 98.5182 52.6641 98.8047 52.6641C99.1901 52.6641 99.526 52.5859 99.8125 52.4297C100.104 52.2682 100.333 52.0729 100.5 51.8438C100.667 51.6094 100.755 51.388 100.766 51.1797L101.375 52.0156C101.312 52.2292 101.206 52.4583 101.055 52.7031C100.904 52.9479 100.706 53.1823 100.461 53.4062C100.221 53.625 99.9323 53.8047 99.5938 53.9453C99.2604 54.0859 98.875 54.1562 98.4375 54.1562C97.8854 54.1562 97.3932 54.0469 96.9609 53.8281C96.5286 53.6042 96.1901 53.3047 95.9453 52.9297C95.7005 52.5495 95.5781 52.1198 95.5781 51.6406C95.5781 51.1927 95.6615 50.7969 95.8281 50.4531C96 50.1042 96.25 49.8125 96.5781 49.5781C96.9115 49.3438 97.3177 49.1667 97.7969 49.0469C98.276 48.9219 98.8229 48.8594 99.4375 48.8594H100.914ZM115.391 50.2969H117.344C117.281 51.0417 117.073 51.7057 116.719 52.2891C116.365 52.8672 115.867 53.3229 115.227 53.6562C114.586 53.9896 113.807 54.1562 112.891 54.1562C112.188 54.1562 111.555 54.0312 110.992 53.7812C110.43 53.526 109.948 53.1667 109.547 52.7031C109.146 52.2344 108.839 51.6693 108.625 51.0078C108.417 50.3464 108.312 49.6068 108.312 48.7891V47.8438C108.312 47.026 108.419 46.2865 108.633 45.625C108.852 44.9635 109.164 44.3984 109.57 43.9297C109.977 43.4557 110.464 43.0938 111.031 42.8438C111.604 42.5938 112.247 42.4688 112.961 42.4688C113.867 42.4688 114.633 42.6354 115.258 42.9688C115.883 43.3021 116.367 43.763 116.711 44.3516C117.06 44.9401 117.273 45.6146 117.352 46.375H115.398C115.346 45.8854 115.232 45.4661 115.055 45.1172C114.883 44.7682 114.628 44.5026 114.289 44.3203C113.951 44.1328 113.508 44.0391 112.961 44.0391C112.513 44.0391 112.122 44.1224 111.789 44.2891C111.456 44.4557 111.177 44.7005 110.953 45.0234C110.729 45.3464 110.56 45.7448 110.445 46.2188C110.336 46.6875 110.281 47.224 110.281 47.8281V48.7891C110.281 49.362 110.331 49.8828 110.43 50.3516C110.534 50.8151 110.69 51.2135 110.898 51.5469C111.112 51.8802 111.383 52.138 111.711 52.3203C112.039 52.5026 112.432 52.5938 112.891 52.5938C113.448 52.5938 113.898 52.5052 114.242 52.3281C114.591 52.151 114.854 51.8932 115.031 51.5547C115.214 51.2109 115.333 50.7917 115.391 50.2969ZM122.664 54.1562C122.039 54.1562 121.474 54.0547 120.969 53.8516C120.469 53.6432 120.042 53.3542 119.688 52.9844C119.339 52.6146 119.07 52.1797 118.883 51.6797C118.695 51.1797 118.602 50.6406 118.602 50.0625V49.75C118.602 49.0885 118.698 48.4896 118.891 47.9531C119.083 47.4167 119.352 46.9583 119.695 46.5781C120.039 46.1927 120.445 45.8984 120.914 45.6953C121.383 45.4922 121.891 45.3906 122.438 45.3906C123.042 45.3906 123.57 45.4922 124.023 45.6953C124.477 45.8984 124.852 46.1849 125.148 46.5547C125.451 46.9193 125.674 47.3542 125.82 47.8594C125.971 48.3646 126.047 48.9219 126.047 49.5312V50.3359H119.516V48.9844H124.188V48.8359C124.177 48.4974 124.109 48.1797 123.984 47.8828C123.865 47.5859 123.68 47.3464 123.43 47.1641C123.18 46.9818 122.846 46.8906 122.43 46.8906C122.117 46.8906 121.839 46.9583 121.594 47.0938C121.354 47.224 121.154 47.4141 120.992 47.6641C120.831 47.9141 120.706 48.2161 120.617 48.5703C120.534 48.9193 120.492 49.3125 120.492 49.75V50.0625C120.492 50.4323 120.542 50.776 120.641 51.0938C120.745 51.4062 120.896 51.6797 121.094 51.9141C121.292 52.1484 121.531 52.3333 121.812 52.4688C122.094 52.599 122.414 52.6641 122.773 52.6641C123.227 52.6641 123.63 52.5729 123.984 52.3906C124.339 52.2083 124.646 51.9505 124.906 51.6172L125.898 52.5781C125.716 52.8438 125.479 53.099 125.188 53.3438C124.896 53.5833 124.539 53.7786 124.117 53.9297C123.701 54.0807 123.216 54.1562 122.664 54.1562ZM129.383 47.3516V54H127.5V45.5469H129.273L129.383 47.3516ZM129.047 49.4609L128.438 49.4531C128.443 48.8542 128.526 48.3047 128.688 47.8047C128.854 47.3047 129.083 46.875 129.375 46.5156C129.672 46.1562 130.026 45.8802 130.438 45.6875C130.849 45.4896 131.307 45.3906 131.812 45.3906C132.219 45.3906 132.586 45.4479 132.914 45.5625C133.247 45.6719 133.531 45.8516 133.766 46.1016C134.005 46.3516 134.188 46.6771 134.312 47.0781C134.438 47.474 134.5 47.9609 134.5 48.5391V54H132.609V48.5312C132.609 48.125 132.549 47.8047 132.43 47.5703C132.315 47.3307 132.146 47.1615 131.922 47.0625C131.703 46.9583 131.43 46.9062 131.102 46.9062C130.779 46.9062 130.49 46.974 130.234 47.1094C129.979 47.2448 129.763 47.4297 129.586 47.6641C129.414 47.8984 129.281 48.1693 129.188 48.4766C129.094 48.7839 129.047 49.112 129.047 49.4609ZM140.297 45.5469V46.9219H135.531V45.5469H140.297ZM136.906 43.4766H138.789V51.6641C138.789 51.9245 138.826 52.125 138.898 52.2656C138.977 52.401 139.083 52.4922 139.219 52.5391C139.354 52.5859 139.513 52.6094 139.695 52.6094C139.826 52.6094 139.951 52.6016 140.07 52.5859C140.19 52.5703 140.286 52.5547 140.359 52.5391L140.367 53.9766C140.211 54.0234 140.029 54.0651 139.82 54.1016C139.617 54.138 139.383 54.1562 139.117 54.1562C138.685 54.1562 138.302 54.0807 137.969 53.9297C137.635 53.7734 137.375 53.5208 137.188 53.1719C137 52.8229 136.906 52.3594 136.906 51.7812V43.4766ZM146.516 52.3047V48.2734C146.516 47.9714 146.461 47.7109 146.352 47.4922C146.242 47.2734 146.076 47.1042 145.852 46.9844C145.633 46.8646 145.357 46.8047 145.023 46.8047C144.716 46.8047 144.451 46.8568 144.227 46.9609C144.003 47.0651 143.828 47.2057 143.703 47.3828C143.578 47.5599 143.516 47.7604 143.516 47.9844H141.641C141.641 47.651 141.721 47.3281 141.883 47.0156C142.044 46.7031 142.279 46.4245 142.586 46.1797C142.893 45.9349 143.26 45.7422 143.688 45.6016C144.115 45.4609 144.594 45.3906 145.125 45.3906C145.76 45.3906 146.323 45.4974 146.812 45.7109C147.307 45.9245 147.695 46.2474 147.977 46.6797C148.263 47.1068 148.406 47.6432 148.406 48.2891V52.0469C148.406 52.4323 148.432 52.7786 148.484 53.0859C148.542 53.388 148.622 53.651 148.727 53.875V54H146.797C146.708 53.7969 146.638 53.5391 146.586 53.2266C146.539 52.9089 146.516 52.6016 146.516 52.3047ZM146.789 48.8594L146.805 50.0234H145.453C145.104 50.0234 144.797 50.0573 144.531 50.125C144.266 50.1875 144.044 50.2812 143.867 50.4062C143.69 50.5312 143.557 50.6823 143.469 50.8594C143.38 51.0365 143.336 51.237 143.336 51.4609C143.336 51.6849 143.388 51.8906 143.492 52.0781C143.596 52.2604 143.747 52.4036 143.945 52.5078C144.148 52.612 144.393 52.6641 144.68 52.6641C145.065 52.6641 145.401 52.5859 145.688 52.4297C145.979 52.2682 146.208 52.0729 146.375 51.8438C146.542 51.6094 146.63 51.388 146.641 51.1797L147.25 52.0156C147.188 52.2292 147.081 52.4583 146.93 52.7031C146.779 52.9479 146.581 53.1823 146.336 53.4062C146.096 53.625 145.807 53.8047 145.469 53.9453C145.135 54.0859 144.75 54.1562 144.312 54.1562C143.76 54.1562 143.268 54.0469 142.836 53.8281C142.404 53.6042 142.065 53.3047 141.82 52.9297C141.576 52.5495 141.453 52.1198 141.453 51.6406C141.453 51.1927 141.536 50.7969 141.703 50.4531C141.875 50.1042 142.125 49.8125 142.453 49.5781C142.786 49.3438 143.193 49.1667 143.672 49.0469C144.151 48.9219 144.698 48.8594 145.312 48.8594H146.789ZM155.461 52.0078V45.5469H157.352V54H155.57L155.461 52.0078ZM155.727 50.25L156.359 50.2344C156.359 50.8021 156.297 51.3255 156.172 51.8047C156.047 52.2786 155.854 52.6927 155.594 53.0469C155.333 53.3958 155 53.6693 154.594 53.8672C154.188 54.0599 153.701 54.1562 153.133 54.1562C152.721 54.1562 152.344 54.0964 152 53.9766C151.656 53.8568 151.359 53.6719 151.109 53.4219C150.865 53.1719 150.674 52.8464 150.539 52.4453C150.404 52.0443 150.336 51.5651 150.336 51.0078V45.5469H152.219V51.0234C152.219 51.3307 152.255 51.5885 152.328 51.7969C152.401 52 152.5 52.1641 152.625 52.2891C152.75 52.4141 152.896 52.5026 153.062 52.5547C153.229 52.6068 153.406 52.6328 153.594 52.6328C154.13 52.6328 154.552 52.5286 154.859 52.3203C155.172 52.1068 155.393 51.8203 155.523 51.4609C155.659 51.1016 155.727 50.6979 155.727 50.25ZM161.172 47.1562V54H159.289V45.5469H161.086L161.172 47.1562ZM163.758 45.4922L163.742 47.2422C163.628 47.2214 163.503 47.2057 163.367 47.1953C163.237 47.1849 163.107 47.1797 162.977 47.1797C162.654 47.1797 162.37 47.2266 162.125 47.3203C161.88 47.4089 161.674 47.5391 161.508 47.7109C161.346 47.8776 161.221 48.0807 161.133 48.3203C161.044 48.5599 160.992 48.8281 160.977 49.125L160.547 49.1562C160.547 48.625 160.599 48.1328 160.703 47.6797C160.807 47.2266 160.964 46.8281 161.172 46.4844C161.385 46.1406 161.651 45.8724 161.969 45.6797C162.292 45.487 162.664 45.3906 163.086 45.3906C163.201 45.3906 163.323 45.401 163.453 45.4219C163.589 45.4427 163.69 45.4661 163.758 45.4922ZM164.375 49.8672V49.6875C164.375 49.0781 164.464 48.513 164.641 47.9922C164.818 47.4661 165.073 47.0104 165.406 46.625C165.745 46.2344 166.156 45.9323 166.641 45.7188C167.13 45.5 167.682 45.3906 168.297 45.3906C168.917 45.3906 169.469 45.5 169.953 45.7188C170.443 45.9323 170.857 46.2344 171.195 46.625C171.534 47.0104 171.792 47.4661 171.969 47.9922C172.146 48.513 172.234 49.0781 172.234 49.6875V49.8672C172.234 50.4766 172.146 51.0417 171.969 51.5625C171.792 52.0833 171.534 52.5391 171.195 52.9297C170.857 53.3151 170.445 53.6172 169.961 53.8359C169.477 54.0495 168.927 54.1562 168.312 54.1562C167.693 54.1562 167.138 54.0495 166.648 53.8359C166.164 53.6172 165.753 53.3151 165.414 52.9297C165.076 52.5391 164.818 52.0833 164.641 51.5625C164.464 51.0417 164.375 50.4766 164.375 49.8672ZM166.258 49.6875V49.8672C166.258 50.2474 166.297 50.6068 166.375 50.9453C166.453 51.2839 166.576 51.5807 166.742 51.8359C166.909 52.0911 167.122 52.2917 167.383 52.4375C167.643 52.5833 167.953 52.6562 168.312 52.6562C168.661 52.6562 168.964 52.5833 169.219 52.4375C169.479 52.2917 169.693 52.0911 169.859 51.8359C170.026 51.5807 170.148 51.2839 170.227 50.9453C170.31 50.6068 170.352 50.2474 170.352 49.8672V49.6875C170.352 49.3125 170.31 48.9583 170.227 48.625C170.148 48.2865 170.023 47.987 169.852 47.7266C169.685 47.4661 169.471 47.263 169.211 47.1172C168.956 46.9661 168.651 46.8906 168.297 46.8906C167.943 46.8906 167.635 46.9661 167.375 47.1172C167.12 47.263 166.909 47.4661 166.742 47.7266C166.576 47.987 166.453 48.2865 166.375 48.625C166.297 48.9583 166.258 49.3125 166.258 49.6875Z" fill="#465A64"/>
<path fill-rule="evenodd" clip-rule="evenodd" d="M61.5 28H57.14C57.36 27.38 57.5 26.7 57.5 26C57.5 22.68 54.82 20 51.5 20C49.4 20 47.58 21.08 46.5 22.7L45.5 24.04L44.5 22.68C43.42 21.08 41.6 20 39.5 20C36.18 20 33.5 22.68 33.5 26C33.5 26.7 33.64 27.38 33.86 28H29.5C27.28 28 25.52 29.78 25.52 32L25.5 54C25.5 56.22 27.28 58 29.5 58H61.5C63.72 58 65.5 56.22 65.5 54V32C65.5 29.78 63.72 28 61.5 28ZM51.5 24.0001C52.6 24.0001 53.5 24.9001 53.5 26.0001C53.5 27.1001 52.6 28.0001 51.5 28.0001C50.4 28.0001 49.5 27.1001 49.5 26.0001C49.5 24.9001 50.4 24.0001 51.5 24.0001ZM41.5 26.0001C41.5 24.9001 40.6 24.0001 39.5 24.0001C38.4 24.0001 37.5 24.9001 37.5 26.0001C37.5 27.1001 38.4 28.0001 39.5 28.0001C40.6 28.0001 41.5 27.1001 41.5 26.0001ZM61.5001 50V54H29.5001V50H61.5001ZM29.5001 31.9999V43.9999H61.5001V31.9999H51.3401L55.5001 37.6599L52.2601 39.9999L47.5001 33.5199L45.5001 30.7999L43.5001 33.5199L38.7401 39.9999L35.5001 37.6599L39.6601 31.9999H29.5001Z" fill="#F31624"/>
<path d="M0 79H225L222.5 85L225 89.8L222.5 94.8333L225 99.4L222.5 104.667L225 109L222.5 114.5H3L0 109.857L3 104.381L0 99.5714L3 94.2619L0 89.2857L3 84.1429L0 79Z" fill="#465A64"/>
<path d="M74.8177 95.5981C72.1758 98.3325 74.2422 100.57 79.4483 100.648L78.9442 101.543C72.3108 101.471 69.5054 98.9148 72.6734 95.7969C74.9952 93.5102 80.3078 91.1166 85.0311 90.4491L84.6186 91.2018C80.7343 91.9334 76.7566 93.5955 74.8177 95.5981Z" fill="white"/>
<path d="M72.0133 95.7686C68.6109 99.121 71.5873 101.883 78.7102 101.961L78.0072 103.211C77.7517 103.219 77.5031 103.219 77.2471 103.219C69.1221 103.219 66.019 99.625 69.8042 95.7191C72.8296 92.5869 79.6765 89.9732 85.4714 89.6462L85.1449 90.243C79.9315 90.875 74.4987 93.3182 72.0133 95.7686Z" fill="white"/>
<path d="M66.8992 95.7539C70.5142 92.0819 78.6174 89.2698 85.8334 89L85.5773 89.433C79.342 89.7385 72.3891 92.3804 69.2069 95.6689C65.2301 99.7736 68.4546 103.637 76.9916 103.637C77.2613 103.637 77.5094 103.63 77.7794 103.623L77.0338 104.944C76.068 105.008 72.8581 105.185 69.7966 104.241C64.7401 102.679 63.5258 99.1699 66.8992 95.7539Z" fill="white"/>
<path d="M80.8046 101.5C80.3291 101.521 79.8241 101.536 79.4766 101.543L79.9383 100.655C80.2786 100.648 80.7621 100.641 81.1312 100.626L80.8046 101.5Z" fill="white"/>
<path d="M79.605 104.731C79.0079 104.787 78.2694 104.851 77.7656 104.895L78.4189 103.609C78.8594 103.587 79.5125 103.552 80.0523 103.516L79.605 104.731Z" fill="white"/>
<path d="M80.2016 103.132C79.7751 103.161 79.243 103.189 78.625 103.211L79.257 101.975C79.7751 101.968 80.2581 101.947 80.6491 101.925L80.2016 103.132Z" fill="white"/>
<path d="M116.699 90.7528L116.407 92.1807H118.764L116.39 103.398H118.936L121.31 92.1807H123.719L124.012 90.7528H116.699Z" fill="white"/>
<path d="M131.238 91.4406C130.791 90.8902 129.948 90.6151 128.71 90.6151C127.539 90.6151 126.593 90.9073 125.853 91.5096C125.131 92.0944 124.649 92.9546 124.408 94.0733L122.43 103.398H124.976L126.421 96.6022H128.434L126.989 103.398H129.553L131.531 94.0733C131.771 92.8685 131.686 92.0084 131.238 91.4406ZM129.088 93.54L128.795 94.9161H126.782L127.075 93.54C127.178 93.0062 127.333 92.6453 127.522 92.4213C127.711 92.2152 128.004 92.0944 128.399 92.0944C128.761 92.0944 128.985 92.2152 129.088 92.4213C129.208 92.6453 129.208 93.0238 129.088 93.54" fill="white"/>
<path d="M139.17 90.7518L137.243 99.8532C137.088 100.576 136.916 101.075 136.71 101.333C136.52 101.608 136.245 101.746 135.901 101.746C135.522 101.746 135.316 101.591 135.229 101.316C135.161 101.023 135.196 100.541 135.351 99.8532L137.277 90.7518H134.731L132.787 99.9046C132.529 101.126 132.632 102.038 133.096 102.658C133.578 103.294 134.37 103.604 135.505 103.604C136.675 103.604 137.621 103.294 138.327 102.692C139.015 102.09 139.514 101.161 139.772 99.9046L141.716 90.7518H139.17Z" fill="white"/>
<path d="M159.575 91.7855C159.128 91.0114 158.267 90.6158 157.012 90.6158C155.773 90.6158 154.74 91.0459 153.915 91.9061C153.123 92.7834 152.435 94.5043 151.884 97.1022C151.334 99.6659 151.282 101.386 151.729 102.281C152.177 103.158 153.02 103.605 154.259 103.605C155.498 103.605 156.513 103.158 157.338 102.281C158.147 101.386 158.818 99.6659 159.369 97.1022C159.954 94.3495 160.022 92.5773 159.575 91.7855ZM157.321 93.5925C157.253 94.4008 157.063 95.5706 156.736 97.1022C156.409 98.6333 156.117 99.8036 155.841 100.612C155.566 101.438 155.17 101.834 154.637 101.834C154.121 101.834 153.881 101.472 153.915 100.75C153.949 100.01 154.155 98.7884 154.517 97.1022C154.827 95.5879 155.136 94.4351 155.412 93.6094C155.704 92.7834 156.117 92.3707 156.633 92.3707C157.166 92.3707 157.407 92.7834 157.321 93.5925" fill="white"/>
<path d="M94.2976 96.6025L94.6416 94.9161L94.8832 93.8151C95.0033 93.2131 95.2096 92.7827 95.4676 92.5419C95.7256 92.301 96.1383 92.1807 96.6889 92.1807H98.5127L98.8228 90.7528H96.328C95.0375 90.7528 94.126 90.976 93.558 91.4066C92.9895 91.8538 92.5772 92.714 92.3017 94.0043L90.9943 100.164C90.7534 101.248 90.8571 102.056 91.2867 102.59C91.7168 103.123 92.4741 103.398 93.5404 103.398H96.4657L96.7579 101.97H94.8656C94.2289 101.97 93.8162 101.816 93.6264 101.489C93.454 101.162 93.4372 100.629 93.5922 99.8714L94.2976 96.6025Z" fill="white"/>
<path d="M150.405 91.4922C150.026 90.9936 149.303 90.7528 148.237 90.7528H144.348L141.664 103.398H144.21L145.449 97.5485H146.516C146.826 97.5485 147.049 97.6348 147.187 97.8067C147.325 97.9615 147.377 98.2026 147.307 98.5295L146.276 103.398H148.701L149.733 98.5982C149.854 98.0478 149.785 97.5832 149.544 97.2045C149.286 96.8262 148.856 96.6025 148.271 96.5338C148.907 96.3445 149.424 96.0174 149.819 95.5528C150.232 95.0882 150.508 94.4691 150.662 93.7121C150.886 92.714 150.8 91.9739 150.405 91.4922ZM148.013 94.142C147.858 94.8474 147.669 95.3467 147.445 95.6215C147.204 95.9144 146.895 96.0521 146.516 96.0521H145.777L146.602 92.1463H147.273C147.72 92.1463 147.996 92.2839 148.099 92.5592C148.202 92.8343 148.185 93.3678 148.013 94.142Z" fill="white"/>
<path d="M102.97 92.5756C103.245 92.3345 103.642 92.2144 104.209 92.2144H106.033L106.342 90.786H103.83C102.557 90.786 101.628 91.01 101.06 91.4398C100.51 91.8875 100.079 92.7475 99.8039 94.038L98.4965 100.197C98.273 101.281 98.3762 102.09 98.8063 102.623C99.2359 103.156 99.976 103.432 101.06 103.432H103.968L104.277 102.004H102.367C101.748 102.004 101.335 101.849 101.146 101.522C100.957 101.196 100.957 100.662 101.112 99.9048L101.8 96.6359H104.828L105.189 94.9498H102.161L102.402 93.849C102.522 93.2463 102.712 92.8164 102.97 92.5756Z" fill="white"/>
<path d="M114.514 91.4574C114.171 91.01 113.585 90.786 112.777 90.786H110.575H108.545L105.86 103.432H108.407L110.781 92.2832H111.229C111.659 92.2832 111.95 92.3863 112.123 92.5756C112.278 92.7648 112.312 93.0399 112.244 93.4187L110.11 103.432H112.657L114.807 93.3326C114.979 92.524 114.876 91.9047 114.514 91.4574Z" fill="white"/>
</svg>
