<svg width="225" height="115" viewBox="0 0 225 115" fill="none" xmlns="http://www.w3.org/2000/svg">
<path d="M0 0H225L221.646 4.78788L225 9.875L221.646 14.3636L225 19.75L221.646 23.0417L225 29.625L221.646 32.9167L225 39.5L221.646 43.0909L225 49.375L221.646 53.2652L225 59.25L221.646 63.7386L225 69.125L221.646 73.9129L225 79H0L3.35366 73.9129L0 68.8258L3.35366 63.7386L0 58.6515L3.35366 53.2652L0 48.4773L3.35366 43.0909L0 38.303L3.35366 32.9167L0 28.7273L3.35366 23.0417L0 19.1515L3.35366 14.3636L0 9.57576L3.35366 4.78788L0 0Z" fill="#F31624"/>
<path d="M29.875 36.2969H31.8281C31.7656 37.0417 31.5573 37.7057 31.2031 38.2891C30.849 38.8672 30.3516 39.3229 29.7109 39.6562C29.0703 39.9896 28.2917 40.1562 27.375 40.1562C26.6719 40.1562 26.0391 40.0312 25.4766 39.7812C24.9141 39.526 24.4323 39.1667 24.0312 38.7031C23.6302 38.2344 23.3229 37.6693 23.1094 37.0078C22.901 36.3464 22.7969 35.6068 22.7969 34.7891V33.8438C22.7969 33.026 22.9036 32.2865 23.1172 31.625C23.3359 30.9635 23.6484 30.3984 24.0547 29.9297C24.4609 29.4557 24.9479 29.0938 25.5156 28.8438C26.0885 28.5938 26.7318 28.4688 27.4453 28.4688C28.3516 28.4688 29.1172 28.6354 29.7422 28.9688C30.3672 29.3021 30.8516 29.763 31.1953 30.3516C31.5443 30.9401 31.7578 31.6146 31.8359 32.375H29.8828C29.8307 31.8854 29.7161 31.4661 29.5391 31.1172C29.3672 30.7682 29.112 30.5026 28.7734 30.3203C28.4349 30.1328 27.9922 30.0391 27.4453 30.0391C26.9974 30.0391 26.6068 30.1224 26.2734 30.2891C25.9401 30.4557 25.6615 30.7005 25.4375 31.0234C25.2135 31.3464 25.0443 31.7448 24.9297 32.2188C24.8203 32.6875 24.7656 33.224 24.7656 33.8281V34.7891C24.7656 35.362 24.8151 35.8828 24.9141 36.3516C25.0182 36.8151 25.1745 37.2135 25.3828 37.5469C25.5964 37.8802 25.8672 38.138 26.1953 38.3203C26.5234 38.5026 26.9167 38.5938 27.375 38.5938C27.9323 38.5938 28.3828 38.5052 28.7266 38.3281C29.0755 38.151 29.3385 37.8932 29.5156 37.5547C29.6979 37.2109 29.8177 36.7917 29.875 36.2969ZM35.4375 28V40H33.5469V28H35.4375ZM39.5156 31.5469V40H37.625V31.5469H39.5156ZM37.5 29.3281C37.5 29.0417 37.5938 28.8047 37.7812 28.6172C37.974 28.4245 38.2396 28.3281 38.5781 28.3281C38.9115 28.3281 39.1745 28.4245 39.3672 28.6172C39.5599 28.8047 39.6562 29.0417 39.6562 29.3281C39.6562 29.6094 39.5599 29.8438 39.3672 30.0312C39.1745 30.2188 38.9115 30.3125 38.5781 30.3125C38.2396 30.3125 37.974 30.2188 37.7812 30.0312C37.5938 29.8438 37.5 29.6094 37.5 29.3281ZM46.7266 43.25V33.2266L46.9453 31.5469H48.625V43.25H46.7266ZM41.2344 35.8594V35.6953C41.2344 35.0547 41.3073 34.4714 41.4531 33.9453C41.599 33.4141 41.8151 32.9583 42.1016 32.5781C42.388 32.1979 42.737 31.9062 43.1484 31.7031C43.5599 31.4948 44.0339 31.3906 44.5703 31.3906C45.0911 31.3906 45.5443 31.4896 45.9297 31.6875C46.3203 31.8854 46.6484 32.1693 46.9141 32.5391C47.1849 32.9036 47.401 33.3385 47.5625 33.8438C47.724 34.349 47.8411 34.9115 47.9141 35.5312V36.0547C47.8464 36.6589 47.7318 37.2109 47.5703 37.7109C47.4089 38.2109 47.1927 38.6432 46.9219 39.0078C46.651 39.3724 46.3203 39.6562 45.9297 39.8594C45.5391 40.0573 45.0807 40.1562 44.5547 40.1562C44.0286 40.1562 43.5599 40.0495 43.1484 39.8359C42.737 39.6224 42.388 39.3229 42.1016 38.9375C41.8203 38.5469 41.6042 38.0911 41.4531 37.5703C41.3073 37.0443 41.2344 36.474 41.2344 35.8594ZM43.1172 35.6953V35.8594C43.1172 36.2448 43.151 36.6068 43.2188 36.9453C43.2917 37.2786 43.4062 37.5755 43.5625 37.8359C43.7188 38.0911 43.9167 38.2917 44.1562 38.4375C44.3958 38.5833 44.6849 38.6562 45.0234 38.6562C45.4661 38.6562 45.8281 38.5599 46.1094 38.3672C46.3958 38.1745 46.6146 37.9167 46.7656 37.5938C46.9219 37.2656 47.0312 36.9036 47.0938 36.5078V35.0938C47.0573 34.7865 46.9922 34.5 46.8984 34.2344C46.8047 33.9635 46.6745 33.7292 46.5078 33.5312C46.3464 33.3281 46.1432 33.1719 45.8984 33.0625C45.6589 32.9479 45.3724 32.8906 45.0391 32.8906C44.7005 32.8906 44.4089 32.9635 44.1641 33.1094C43.9193 33.2552 43.7188 33.4583 43.5625 33.7188C43.4115 33.974 43.2995 34.2708 43.2266 34.6094C43.1536 34.9479 43.1172 35.3099 43.1172 35.6953ZM55.7266 38.0078V31.5469H57.6172V40H55.8359L55.7266 38.0078ZM55.9922 36.25L56.625 36.2344C56.625 36.8021 56.5625 37.3255 56.4375 37.8047C56.3125 38.2786 56.1198 38.6927 55.8594 39.0469C55.599 39.3958 55.2656 39.6693 54.8594 39.8672C54.4531 40.0599 53.9661 40.1562 53.3984 40.1562C52.987 40.1562 52.6094 40.0964 52.2656 39.9766C51.9219 39.8568 51.625 39.6719 51.375 39.4219C51.1302 39.1719 50.9401 38.8464 50.8047 38.4453C50.6693 38.0443 50.6016 37.5651 50.6016 37.0078V31.5469H52.4844V37.0234C52.4844 37.3307 52.5208 37.5885 52.5938 37.7969C52.6667 38 52.7656 38.1641 52.8906 38.2891C53.0156 38.4141 53.1615 38.5026 53.3281 38.5547C53.4948 38.6068 53.6719 38.6328 53.8594 38.6328C54.3958 38.6328 54.8177 38.5286 55.125 38.3203C55.4375 38.1068 55.6589 37.8203 55.7891 37.4609C55.9245 37.1016 55.9922 36.6979 55.9922 36.25ZM63.2734 40.1562C62.6484 40.1562 62.0833 40.0547 61.5781 39.8516C61.0781 39.6432 60.651 39.3542 60.2969 38.9844C59.9479 38.6146 59.6797 38.1797 59.4922 37.6797C59.3047 37.1797 59.2109 36.6406 59.2109 36.0625V35.75C59.2109 35.0885 59.3073 34.4896 59.5 33.9531C59.6927 33.4167 59.9609 32.9583 60.3047 32.5781C60.6484 32.1927 61.0547 31.8984 61.5234 31.6953C61.9922 31.4922 62.5 31.3906 63.0469 31.3906C63.651 31.3906 64.1797 31.4922 64.6328 31.6953C65.0859 31.8984 65.4609 32.1849 65.7578 32.5547C66.0599 32.9193 66.2839 33.3542 66.4297 33.8594C66.5807 34.3646 66.6562 34.9219 66.6562 35.5312V36.3359H60.125V34.9844H64.7969V34.8359C64.7865 34.4974 64.7188 34.1797 64.5938 33.8828C64.474 33.5859 64.2891 33.3464 64.0391 33.1641C63.7891 32.9818 63.4557 32.8906 63.0391 32.8906C62.7266 32.8906 62.4479 32.9583 62.2031 33.0938C61.9635 33.224 61.763 33.4141 61.6016 33.6641C61.4401 33.9141 61.3151 34.2161 61.2266 34.5703C61.1432 34.9193 61.1016 35.3125 61.1016 35.75V36.0625C61.1016 36.4323 61.151 36.776 61.25 37.0938C61.3542 37.4062 61.5052 37.6797 61.7031 37.9141C61.901 38.1484 62.1406 38.3333 62.4219 38.4688C62.7031 38.599 63.0234 38.6641 63.3828 38.6641C63.8359 38.6641 64.2396 38.5729 64.5938 38.3906C64.9479 38.2083 65.2552 37.9505 65.5156 37.6172L66.5078 38.5781C66.3255 38.8438 66.0885 39.099 65.7969 39.3438C65.5052 39.5833 65.1484 39.7786 64.7266 39.9297C64.3099 40.0807 63.8255 40.1562 63.2734 40.1562ZM75.8359 40.1562C75.2109 40.1562 74.6458 40.0547 74.1406 39.8516C73.6406 39.6432 73.2135 39.3542 72.8594 38.9844C72.5104 38.6146 72.2422 38.1797 72.0547 37.6797C71.8672 37.1797 71.7734 36.6406 71.7734 36.0625V35.75C71.7734 35.0885 71.8698 34.4896 72.0625 33.9531C72.2552 33.4167 72.5234 32.9583 72.8672 32.5781C73.2109 32.1927 73.6172 31.8984 74.0859 31.6953C74.5547 31.4922 75.0625 31.3906 75.6094 31.3906C76.2135 31.3906 76.7422 31.4922 77.1953 31.6953C77.6484 31.8984 78.0234 32.1849 78.3203 32.5547C78.6224 32.9193 78.8464 33.3542 78.9922 33.8594C79.1432 34.3646 79.2188 34.9219 79.2188 35.5312V36.3359H72.6875V34.9844H77.3594V34.8359C77.349 34.4974 77.2812 34.1797 77.1562 33.8828C77.0365 33.5859 76.8516 33.3464 76.6016 33.1641C76.3516 32.9818 76.0182 32.8906 75.6016 32.8906C75.2891 32.8906 75.0104 32.9583 74.7656 33.0938C74.526 33.224 74.3255 33.4141 74.1641 33.6641C74.0026 33.9141 73.8776 34.2161 73.7891 34.5703C73.7057 34.9193 73.6641 35.3125 73.6641 35.75V36.0625C73.6641 36.4323 73.7135 36.776 73.8125 37.0938C73.9167 37.4062 74.0677 37.6797 74.2656 37.9141C74.4635 38.1484 74.7031 38.3333 74.9844 38.4688C75.2656 38.599 75.5859 38.6641 75.9453 38.6641C76.3984 38.6641 76.8021 38.5729 77.1562 38.3906C77.5104 38.2083 77.8177 37.9505 78.0781 37.6172L79.0703 38.5781C78.888 38.8438 78.651 39.099 78.3594 39.3438C78.0677 39.5833 77.7109 39.7786 77.2891 39.9297C76.8724 40.0807 76.388 40.1562 75.8359 40.1562ZM88.125 38.6562C88.4323 38.6562 88.7083 38.5964 88.9531 38.4766C89.2031 38.3516 89.4036 38.1797 89.5547 37.9609C89.7109 37.7422 89.7969 37.4896 89.8125 37.2031H91.5859C91.5755 37.75 91.4141 38.2474 91.1016 38.6953C90.7891 39.1432 90.375 39.5 89.8594 39.7656C89.3438 40.026 88.7734 40.1562 88.1484 40.1562C87.5026 40.1562 86.9401 40.0469 86.4609 39.8281C85.9818 39.6042 85.5833 39.2969 85.2656 38.9062C84.9479 38.5156 84.7083 38.0651 84.5469 37.5547C84.3906 37.0443 84.3125 36.4974 84.3125 35.9141V35.6406C84.3125 35.0573 84.3906 34.5104 84.5469 34C84.7083 33.4844 84.9479 33.0312 85.2656 32.6406C85.5833 32.25 85.9818 31.9453 86.4609 31.7266C86.9401 31.5026 87.5 31.3906 88.1406 31.3906C88.8177 31.3906 89.4115 31.526 89.9219 31.7969C90.4323 32.0625 90.8333 32.4349 91.125 32.9141C91.4219 33.388 91.5755 33.9401 91.5859 34.5703H89.8125C89.7969 34.2578 89.7188 33.9766 89.5781 33.7266C89.4427 33.4714 89.25 33.2682 89 33.1172C88.7552 32.9661 88.4609 32.8906 88.1172 32.8906C87.737 32.8906 87.4219 32.9688 87.1719 33.125C86.9219 33.276 86.7266 33.4844 86.5859 33.75C86.4453 34.0104 86.3438 34.3047 86.2812 34.6328C86.224 34.9557 86.1953 35.2917 86.1953 35.6406V35.9141C86.1953 36.263 86.224 36.6016 86.2812 36.9297C86.3385 37.2578 86.4375 37.5521 86.5781 37.8125C86.724 38.0677 86.9219 38.2734 87.1719 38.4297C87.4219 38.5807 87.7396 38.6562 88.125 38.6562ZM97.7969 38.3047V34.2734C97.7969 33.9714 97.7422 33.7109 97.6328 33.4922C97.5234 33.2734 97.3568 33.1042 97.1328 32.9844C96.9141 32.8646 96.638 32.8047 96.3047 32.8047C95.9974 32.8047 95.7318 32.8568 95.5078 32.9609C95.2839 33.0651 95.1094 33.2057 94.9844 33.3828C94.8594 33.5599 94.7969 33.7604 94.7969 33.9844H92.9219C92.9219 33.651 93.0026 33.3281 93.1641 33.0156C93.3255 32.7031 93.5599 32.4245 93.8672 32.1797C94.1745 31.9349 94.5417 31.7422 94.9688 31.6016C95.3958 31.4609 95.875 31.3906 96.4062 31.3906C97.0417 31.3906 97.6042 31.4974 98.0938 31.7109C98.5885 31.9245 98.9766 32.2474 99.2578 32.6797C99.5443 33.1068 99.6875 33.6432 99.6875 34.2891V38.0469C99.6875 38.4323 99.7135 38.7786 99.7656 39.0859C99.8229 39.388 99.9036 39.651 100.008 39.875V40H98.0781C97.9896 39.7969 97.9193 39.5391 97.8672 39.2266C97.8203 38.9089 97.7969 38.6016 97.7969 38.3047ZM98.0703 34.8594L98.0859 36.0234H96.7344C96.3854 36.0234 96.0781 36.0573 95.8125 36.125C95.5469 36.1875 95.3255 36.2812 95.1484 36.4062C94.9714 36.5312 94.8385 36.6823 94.75 36.8594C94.6615 37.0365 94.6172 37.237 94.6172 37.4609C94.6172 37.6849 94.6693 37.8906 94.7734 38.0781C94.8776 38.2604 95.0286 38.4036 95.2266 38.5078C95.4297 38.612 95.6745 38.6641 95.9609 38.6641C96.3464 38.6641 96.6823 38.5859 96.9688 38.4297C97.2604 38.2682 97.4896 38.0729 97.6562 37.8438C97.8229 37.6094 97.9115 37.388 97.9219 37.1797L98.5312 38.0156C98.4688 38.2292 98.362 38.4583 98.2109 38.7031C98.0599 38.9479 97.862 39.1823 97.6172 39.4062C97.3776 39.625 97.0885 39.8047 96.75 39.9453C96.4167 40.0859 96.0312 40.1562 95.5938 40.1562C95.0417 40.1562 94.5495 40.0469 94.1172 39.8281C93.6849 39.6042 93.3464 39.3047 93.1016 38.9297C92.8568 38.5495 92.7344 38.1198 92.7344 37.6406C92.7344 37.1927 92.8177 36.7969 92.9844 36.4531C93.1562 36.1042 93.4062 35.8125 93.7344 35.5781C94.0677 35.3438 94.474 35.1667 94.9531 35.0469C95.4323 34.9219 95.9792 34.8594 96.5938 34.8594H98.0703ZM106.812 38.25V28H108.703V40H106.992L106.812 38.25ZM101.312 35.8672V35.7031C101.312 35.0625 101.388 34.4792 101.539 33.9531C101.69 33.4219 101.909 32.9661 102.195 32.5859C102.482 32.2005 102.831 31.9062 103.242 31.7031C103.654 31.4948 104.117 31.3906 104.633 31.3906C105.143 31.3906 105.591 31.4896 105.977 31.6875C106.362 31.8854 106.69 32.1693 106.961 32.5391C107.232 32.9036 107.448 33.3411 107.609 33.8516C107.771 34.3568 107.885 34.9193 107.953 35.5391V36.0625C107.885 36.6667 107.771 37.2188 107.609 37.7188C107.448 38.2188 107.232 38.651 106.961 39.0156C106.69 39.3802 106.359 39.6615 105.969 39.8594C105.583 40.0573 105.133 40.1562 104.617 40.1562C104.107 40.1562 103.646 40.0495 103.234 39.8359C102.828 39.6224 102.482 39.3229 102.195 38.9375C101.909 38.5521 101.69 38.099 101.539 37.5781C101.388 37.0521 101.312 36.4818 101.312 35.8672ZM103.195 35.7031V35.8672C103.195 36.2526 103.229 36.612 103.297 36.9453C103.37 37.2786 103.482 37.5729 103.633 37.8281C103.784 38.0781 103.979 38.276 104.219 38.4219C104.464 38.5625 104.755 38.6328 105.094 38.6328C105.521 38.6328 105.872 38.5391 106.148 38.3516C106.424 38.1641 106.641 37.9115 106.797 37.5938C106.958 37.2708 107.068 36.9115 107.125 36.5156V35.1016C107.094 34.7943 107.029 34.5078 106.93 34.2422C106.836 33.9766 106.708 33.7448 106.547 33.5469C106.385 33.3438 106.185 33.1875 105.945 33.0781C105.711 32.9635 105.432 32.9062 105.109 32.9062C104.766 32.9062 104.474 32.9792 104.234 33.125C103.995 33.2708 103.797 33.4714 103.641 33.7266C103.49 33.9818 103.378 34.2786 103.305 34.6172C103.232 34.9557 103.195 35.3177 103.195 35.7031ZM115.438 38.3047V34.2734C115.438 33.9714 115.383 33.7109 115.273 33.4922C115.164 33.2734 114.997 33.1042 114.773 32.9844C114.555 32.8646 114.279 32.8047 113.945 32.8047C113.638 32.8047 113.372 32.8568 113.148 32.9609C112.924 33.0651 112.75 33.2057 112.625 33.3828C112.5 33.5599 112.438 33.7604 112.438 33.9844H110.562C110.562 33.651 110.643 33.3281 110.805 33.0156C110.966 32.7031 111.201 32.4245 111.508 32.1797C111.815 31.9349 112.182 31.7422 112.609 31.6016C113.036 31.4609 113.516 31.3906 114.047 31.3906C114.682 31.3906 115.245 31.4974 115.734 31.7109C116.229 31.9245 116.617 32.2474 116.898 32.6797C117.185 33.1068 117.328 33.6432 117.328 34.2891V38.0469C117.328 38.4323 117.354 38.7786 117.406 39.0859C117.464 39.388 117.544 39.651 117.648 39.875V40H115.719C115.63 39.7969 115.56 39.5391 115.508 39.2266C115.461 38.9089 115.438 38.6016 115.438 38.3047ZM115.711 34.8594L115.727 36.0234H114.375C114.026 36.0234 113.719 36.0573 113.453 36.125C113.188 36.1875 112.966 36.2812 112.789 36.4062C112.612 36.5312 112.479 36.6823 112.391 36.8594C112.302 37.0365 112.258 37.237 112.258 37.4609C112.258 37.6849 112.31 37.8906 112.414 38.0781C112.518 38.2604 112.669 38.4036 112.867 38.5078C113.07 38.612 113.315 38.6641 113.602 38.6641C113.987 38.6641 114.323 38.5859 114.609 38.4297C114.901 38.2682 115.13 38.0729 115.297 37.8438C115.464 37.6094 115.552 37.388 115.562 37.1797L116.172 38.0156C116.109 38.2292 116.003 38.4583 115.852 38.7031C115.701 38.9479 115.503 39.1823 115.258 39.4062C115.018 39.625 114.729 39.8047 114.391 39.9453C114.057 40.0859 113.672 40.1562 113.234 40.1562C112.682 40.1562 112.19 40.0469 111.758 39.8281C111.326 39.6042 110.987 39.3047 110.742 38.9297C110.497 38.5495 110.375 38.1198 110.375 37.6406C110.375 37.1927 110.458 36.7969 110.625 36.4531C110.797 36.1042 111.047 35.8125 111.375 35.5781C111.708 35.3438 112.115 35.1667 112.594 35.0469C113.073 34.9219 113.62 34.8594 114.234 34.8594H115.711ZM124.039 37.7109C124.039 37.5234 123.992 37.3542 123.898 37.2031C123.805 37.0469 123.625 36.9062 123.359 36.7812C123.099 36.6562 122.714 36.5417 122.203 36.4375C121.755 36.3385 121.344 36.2214 120.969 36.0859C120.599 35.9453 120.281 35.776 120.016 35.5781C119.75 35.3802 119.544 35.1458 119.398 34.875C119.253 34.6042 119.18 34.2917 119.18 33.9375C119.18 33.5938 119.255 33.2682 119.406 32.9609C119.557 32.6536 119.773 32.3828 120.055 32.1484C120.336 31.9141 120.677 31.7292 121.078 31.5938C121.484 31.4583 121.938 31.3906 122.438 31.3906C123.146 31.3906 123.753 31.5104 124.258 31.75C124.768 31.9844 125.159 32.3047 125.43 32.7109C125.701 33.112 125.836 33.5651 125.836 34.0703H123.953C123.953 33.8464 123.896 33.638 123.781 33.4453C123.672 33.2474 123.505 33.0885 123.281 32.9688C123.057 32.8438 122.776 32.7812 122.438 32.7812C122.115 32.7812 121.846 32.8333 121.633 32.9375C121.424 33.0365 121.268 33.1667 121.164 33.3281C121.065 33.4896 121.016 33.6667 121.016 33.8594C121.016 34 121.042 34.1276 121.094 34.2422C121.151 34.3516 121.245 34.4531 121.375 34.5469C121.505 34.6354 121.682 34.7188 121.906 34.7969C122.135 34.875 122.422 34.9505 122.766 35.0234C123.411 35.1589 123.966 35.3333 124.43 35.5469C124.898 35.7552 125.258 36.026 125.508 36.3594C125.758 36.6875 125.883 37.1042 125.883 37.6094C125.883 37.9844 125.802 38.3281 125.641 38.6406C125.484 38.9479 125.255 39.2161 124.953 39.4453C124.651 39.6693 124.289 39.8438 123.867 39.9688C123.451 40.0938 122.982 40.1562 122.461 40.1562C121.695 40.1562 121.047 40.0208 120.516 39.75C119.984 39.474 119.581 39.1224 119.305 38.6953C119.034 38.263 118.898 37.8151 118.898 37.3516H120.719C120.74 37.7005 120.836 37.9792 121.008 38.1875C121.185 38.3906 121.404 38.5391 121.664 38.6328C121.93 38.7214 122.203 38.7656 122.484 38.7656C122.823 38.7656 123.107 38.7214 123.336 38.6328C123.565 38.5391 123.74 38.4141 123.859 38.2578C123.979 38.0964 124.039 37.9141 124.039 37.7109ZM131.406 31.5469V32.9219H126.641V31.5469H131.406ZM128.016 29.4766H129.898V37.6641C129.898 37.9245 129.935 38.125 130.008 38.2656C130.086 38.401 130.193 38.4922 130.328 38.5391C130.464 38.5859 130.622 38.6094 130.805 38.6094C130.935 38.6094 131.06 38.6016 131.18 38.5859C131.299 38.5703 131.396 38.5547 131.469 38.5391L131.477 39.9766C131.32 40.0234 131.138 40.0651 130.93 40.1016C130.727 40.138 130.492 40.1562 130.227 40.1562C129.794 40.1562 129.411 40.0807 129.078 39.9297C128.745 39.7734 128.484 39.5208 128.297 39.1719C128.109 38.8229 128.016 38.3594 128.016 37.7812V29.4766ZM134.75 33.1562V40H132.867V31.5469H134.664L134.75 33.1562ZM137.336 31.4922L137.32 33.2422C137.206 33.2214 137.081 33.2057 136.945 33.1953C136.815 33.1849 136.685 33.1797 136.555 33.1797C136.232 33.1797 135.948 33.2266 135.703 33.3203C135.458 33.4089 135.253 33.5391 135.086 33.7109C134.924 33.8776 134.799 34.0807 134.711 34.3203C134.622 34.5599 134.57 34.8281 134.555 35.125L134.125 35.1562C134.125 34.625 134.177 34.1328 134.281 33.6797C134.385 33.2266 134.542 32.8281 134.75 32.4844C134.964 32.1406 135.229 31.8724 135.547 31.6797C135.87 31.487 136.242 31.3906 136.664 31.3906C136.779 31.3906 136.901 31.401 137.031 31.4219C137.167 31.4427 137.268 31.4661 137.336 31.4922ZM142.086 40.1562C141.461 40.1562 140.896 40.0547 140.391 39.8516C139.891 39.6432 139.464 39.3542 139.109 38.9844C138.76 38.6146 138.492 38.1797 138.305 37.6797C138.117 37.1797 138.023 36.6406 138.023 36.0625V35.75C138.023 35.0885 138.12 34.4896 138.312 33.9531C138.505 33.4167 138.773 32.9583 139.117 32.5781C139.461 32.1927 139.867 31.8984 140.336 31.6953C140.805 31.4922 141.312 31.3906 141.859 31.3906C142.464 31.3906 142.992 31.4922 143.445 31.6953C143.898 31.8984 144.273 32.1849 144.57 32.5547C144.872 32.9193 145.096 33.3542 145.242 33.8594C145.393 34.3646 145.469 34.9219 145.469 35.5312V36.3359H138.938V34.9844H143.609V34.8359C143.599 34.4974 143.531 34.1797 143.406 33.8828C143.286 33.5859 143.102 33.3464 142.852 33.1641C142.602 32.9818 142.268 32.8906 141.852 32.8906C141.539 32.8906 141.26 32.9583 141.016 33.0938C140.776 33.224 140.576 33.4141 140.414 33.6641C140.253 33.9141 140.128 34.2161 140.039 34.5703C139.956 34.9193 139.914 35.3125 139.914 35.75V36.0625C139.914 36.4323 139.964 36.776 140.062 37.0938C140.167 37.4062 140.318 37.6797 140.516 37.9141C140.714 38.1484 140.953 38.3333 141.234 38.4688C141.516 38.599 141.836 38.6641 142.195 38.6641C142.648 38.6641 143.052 38.5729 143.406 38.3906C143.76 38.2083 144.068 37.9505 144.328 37.6172L145.32 38.5781C145.138 38.8438 144.901 39.099 144.609 39.3438C144.318 39.5833 143.961 39.7786 143.539 39.9297C143.122 40.0807 142.638 40.1562 142.086 40.1562ZM150.727 34.3906V35.8906H146.594V34.3906H150.727ZM157.117 37.7109C157.117 37.5234 157.07 37.3542 156.977 37.2031C156.883 37.0469 156.703 36.9062 156.438 36.7812C156.177 36.6562 155.792 36.5417 155.281 36.4375C154.833 36.3385 154.422 36.2214 154.047 36.0859C153.677 35.9453 153.359 35.776 153.094 35.5781C152.828 35.3802 152.622 35.1458 152.477 34.875C152.331 34.6042 152.258 34.2917 152.258 33.9375C152.258 33.5938 152.333 33.2682 152.484 32.9609C152.635 32.6536 152.852 32.3828 153.133 32.1484C153.414 31.9141 153.755 31.7292 154.156 31.5938C154.562 31.4583 155.016 31.3906 155.516 31.3906C156.224 31.3906 156.831 31.5104 157.336 31.75C157.846 31.9844 158.237 32.3047 158.508 32.7109C158.779 33.112 158.914 33.5651 158.914 34.0703H157.031C157.031 33.8464 156.974 33.638 156.859 33.4453C156.75 33.2474 156.583 33.0885 156.359 32.9688C156.135 32.8438 155.854 32.7812 155.516 32.7812C155.193 32.7812 154.924 32.8333 154.711 32.9375C154.503 33.0365 154.346 33.1667 154.242 33.3281C154.143 33.4896 154.094 33.6667 154.094 33.8594C154.094 34 154.12 34.1276 154.172 34.2422C154.229 34.3516 154.323 34.4531 154.453 34.5469C154.583 34.6354 154.76 34.7188 154.984 34.7969C155.214 34.875 155.5 34.9505 155.844 35.0234C156.49 35.1589 157.044 35.3333 157.508 35.5469C157.977 35.7552 158.336 36.026 158.586 36.3594C158.836 36.6875 158.961 37.1042 158.961 37.6094C158.961 37.9844 158.88 38.3281 158.719 38.6406C158.562 38.9479 158.333 39.2161 158.031 39.4453C157.729 39.6693 157.367 39.8438 156.945 39.9688C156.529 40.0938 156.06 40.1562 155.539 40.1562C154.773 40.1562 154.125 40.0208 153.594 39.75C153.062 39.474 152.659 39.1224 152.383 38.6953C152.112 38.263 151.977 37.8151 151.977 37.3516H153.797C153.818 37.7005 153.914 37.9792 154.086 38.1875C154.263 38.3906 154.482 38.5391 154.742 38.6328C155.008 38.7214 155.281 38.7656 155.562 38.7656C155.901 38.7656 156.185 38.7214 156.414 38.6328C156.643 38.5391 156.818 38.4141 156.938 38.2578C157.057 38.0964 157.117 37.9141 157.117 37.7109ZM164.336 40.1562C163.711 40.1562 163.146 40.0547 162.641 39.8516C162.141 39.6432 161.714 39.3542 161.359 38.9844C161.01 38.6146 160.742 38.1797 160.555 37.6797C160.367 37.1797 160.273 36.6406 160.273 36.0625V35.75C160.273 35.0885 160.37 34.4896 160.562 33.9531C160.755 33.4167 161.023 32.9583 161.367 32.5781C161.711 32.1927 162.117 31.8984 162.586 31.6953C163.055 31.4922 163.562 31.3906 164.109 31.3906C164.714 31.3906 165.242 31.4922 165.695 31.6953C166.148 31.8984 166.523 32.1849 166.82 32.5547C167.122 32.9193 167.346 33.3542 167.492 33.8594C167.643 34.3646 167.719 34.9219 167.719 35.5312V36.3359H161.188V34.9844H165.859V34.8359C165.849 34.4974 165.781 34.1797 165.656 33.8828C165.536 33.5859 165.352 33.3464 165.102 33.1641C164.852 32.9818 164.518 32.8906 164.102 32.8906C163.789 32.8906 163.51 32.9583 163.266 33.0938C163.026 33.224 162.826 33.4141 162.664 33.6641C162.503 33.9141 162.378 34.2161 162.289 34.5703C162.206 34.9193 162.164 35.3125 162.164 35.75V36.0625C162.164 36.4323 162.214 36.776 162.312 37.0938C162.417 37.4062 162.568 37.6797 162.766 37.9141C162.964 38.1484 163.203 38.3333 163.484 38.4688C163.766 38.599 164.086 38.6641 164.445 38.6641C164.898 38.6641 165.302 38.5729 165.656 38.3906C166.01 38.2083 166.318 37.9505 166.578 37.6172L167.57 38.5781C167.388 38.8438 167.151 39.099 166.859 39.3438C166.568 39.5833 166.211 39.7786 165.789 39.9297C165.372 40.0807 164.888 40.1562 164.336 40.1562ZM24.8594 52.1719V62.25H22.9766V50.5469H24.7109L24.8594 52.1719ZM30.3672 54.6953V54.8594C30.3672 55.474 30.2943 56.0443 30.1484 56.5703C30.0078 57.0911 29.7969 57.5469 29.5156 57.9375C29.2396 58.3229 28.8984 58.6224 28.4922 58.8359C28.0859 59.0495 27.6172 59.1562 27.0859 59.1562C26.5599 59.1562 26.099 59.0599 25.7031 58.8672C25.3125 58.6693 24.9818 58.3906 24.7109 58.0312C24.4401 57.6719 24.2214 57.25 24.0547 56.7656C23.8932 56.276 23.7786 55.7396 23.7109 55.1562V54.5234C23.7786 53.9036 23.8932 53.3411 24.0547 52.8359C24.2214 52.3307 24.4401 51.8958 24.7109 51.5312C24.9818 51.1667 25.3125 50.8854 25.7031 50.6875C26.0938 50.4896 26.5495 50.3906 27.0703 50.3906C27.6016 50.3906 28.0729 50.4948 28.4844 50.7031C28.8958 50.9062 29.2422 51.1979 29.5234 51.5781C29.8047 51.9531 30.0156 52.4062 30.1562 52.9375C30.2969 53.4635 30.3672 54.0495 30.3672 54.6953ZM28.4844 54.8594V54.6953C28.4844 54.3047 28.4479 53.9427 28.375 53.6094C28.3021 53.2708 28.1875 52.974 28.0312 52.7188C27.875 52.4635 27.6745 52.2656 27.4297 52.125C27.1901 51.9792 26.901 51.9062 26.5625 51.9062C26.2292 51.9062 25.9427 51.9635 25.7031 52.0781C25.4635 52.1875 25.263 52.3411 25.1016 52.5391C24.9401 52.737 24.8151 52.9688 24.7266 53.2344C24.638 53.4948 24.5755 53.7786 24.5391 54.0859V55.6016C24.6016 55.9766 24.7083 56.3203 24.8594 56.6328C25.0104 56.9453 25.224 57.1953 25.5 57.3828C25.7812 57.5651 26.1406 57.6562 26.5781 57.6562C26.9167 57.6562 27.2057 57.5833 27.4453 57.4375C27.6849 57.2917 27.8802 57.0911 28.0312 56.8359C28.1875 56.5755 28.3021 56.276 28.375 55.9375C28.4479 55.599 28.4844 55.2396 28.4844 54.8594ZM36.7344 57.3047V53.2734C36.7344 52.9714 36.6797 52.7109 36.5703 52.4922C36.4609 52.2734 36.2943 52.1042 36.0703 51.9844C35.8516 51.8646 35.5755 51.8047 35.2422 51.8047C34.9349 51.8047 34.6693 51.8568 34.4453 51.9609C34.2214 52.0651 34.0469 52.2057 33.9219 52.3828C33.7969 52.5599 33.7344 52.7604 33.7344 52.9844H31.8594C31.8594 52.651 31.9401 52.3281 32.1016 52.0156C32.263 51.7031 32.4974 51.4245 32.8047 51.1797C33.112 50.9349 33.4792 50.7422 33.9062 50.6016C34.3333 50.4609 34.8125 50.3906 35.3438 50.3906C35.9792 50.3906 36.5417 50.4974 37.0312 50.7109C37.526 50.9245 37.9141 51.2474 38.1953 51.6797C38.4818 52.1068 38.625 52.6432 38.625 53.2891V57.0469C38.625 57.4323 38.651 57.7786 38.7031 58.0859C38.7604 58.388 38.8411 58.651 38.9453 58.875V59H37.0156C36.9271 58.7969 36.8568 58.5391 36.8047 58.2266C36.7578 57.9089 36.7344 57.6016 36.7344 57.3047ZM37.0078 53.8594L37.0234 55.0234H35.6719C35.3229 55.0234 35.0156 55.0573 34.75 55.125C34.4844 55.1875 34.263 55.2812 34.0859 55.4062C33.9089 55.5312 33.776 55.6823 33.6875 55.8594C33.599 56.0365 33.5547 56.237 33.5547 56.4609C33.5547 56.6849 33.6068 56.8906 33.7109 57.0781C33.8151 57.2604 33.9661 57.4036 34.1641 57.5078C34.3672 57.612 34.612 57.6641 34.8984 57.6641C35.2839 57.6641 35.6198 57.5859 35.9062 57.4297C36.1979 57.2682 36.4271 57.0729 36.5938 56.8438C36.7604 56.6094 36.849 56.388 36.8594 56.1797L37.4688 57.0156C37.4062 57.2292 37.2995 57.4583 37.1484 57.7031C36.9974 57.9479 36.7995 58.1823 36.5547 58.4062C36.3151 58.625 36.026 58.8047 35.6875 58.9453C35.3542 59.0859 34.9688 59.1562 34.5312 59.1562C33.9792 59.1562 33.487 59.0469 33.0547 58.8281C32.6224 58.6042 32.2839 58.3047 32.0391 57.9297C31.7943 57.5495 31.6719 57.1198 31.6719 56.6406C31.6719 56.1927 31.7552 55.7969 31.9219 55.4531C32.0938 55.1042 32.3438 54.8125 32.6719 54.5781C33.0052 54.3438 33.4115 54.1667 33.8906 54.0469C34.3698 53.9219 34.9167 53.8594 35.5312 53.8594H37.0078ZM42.4844 52.1562V59H40.6016V50.5469H42.3984L42.4844 52.1562ZM45.0703 50.4922L45.0547 52.2422C44.9401 52.2214 44.8151 52.2057 44.6797 52.1953C44.5495 52.1849 44.4193 52.1797 44.2891 52.1797C43.9661 52.1797 43.6823 52.2266 43.4375 52.3203C43.1927 52.4089 42.987 52.5391 42.8203 52.7109C42.6589 52.8776 42.5339 53.0807 42.4453 53.3203C42.3568 53.5599 42.3047 53.8281 42.2891 54.125L41.8594 54.1562C41.8594 53.625 41.9115 53.1328 42.0156 52.6797C42.1198 52.2266 42.276 51.8281 42.4844 51.4844C42.6979 51.1406 42.9635 50.8724 43.2812 50.6797C43.6042 50.487 43.9766 50.3906 44.3984 50.3906C44.513 50.3906 44.6354 50.401 44.7656 50.4219C44.901 50.4427 45.0026 50.4661 45.0703 50.4922ZM50.7344 57.3047V53.2734C50.7344 52.9714 50.6797 52.7109 50.5703 52.4922C50.4609 52.2734 50.2943 52.1042 50.0703 51.9844C49.8516 51.8646 49.5755 51.8047 49.2422 51.8047C48.9349 51.8047 48.6693 51.8568 48.4453 51.9609C48.2214 52.0651 48.0469 52.2057 47.9219 52.3828C47.7969 52.5599 47.7344 52.7604 47.7344 52.9844H45.8594C45.8594 52.651 45.9401 52.3281 46.1016 52.0156C46.263 51.7031 46.4974 51.4245 46.8047 51.1797C47.112 50.9349 47.4792 50.7422 47.9062 50.6016C48.3333 50.4609 48.8125 50.3906 49.3438 50.3906C49.9792 50.3906 50.5417 50.4974 51.0312 50.7109C51.526 50.9245 51.9141 51.2474 52.1953 51.6797C52.4818 52.1068 52.625 52.6432 52.625 53.2891V57.0469C52.625 57.4323 52.651 57.7786 52.7031 58.0859C52.7604 58.388 52.8411 58.651 52.9453 58.875V59H51.0156C50.9271 58.7969 50.8568 58.5391 50.8047 58.2266C50.7578 57.9089 50.7344 57.6016 50.7344 57.3047ZM51.0078 53.8594L51.0234 55.0234H49.6719C49.3229 55.0234 49.0156 55.0573 48.75 55.125C48.4844 55.1875 48.263 55.2812 48.0859 55.4062C47.9089 55.5312 47.776 55.6823 47.6875 55.8594C47.599 56.0365 47.5547 56.237 47.5547 56.4609C47.5547 56.6849 47.6068 56.8906 47.7109 57.0781C47.8151 57.2604 47.9661 57.4036 48.1641 57.5078C48.3672 57.612 48.612 57.6641 48.8984 57.6641C49.2839 57.6641 49.6198 57.5859 49.9062 57.4297C50.1979 57.2682 50.4271 57.0729 50.5938 56.8438C50.7604 56.6094 50.849 56.388 50.8594 56.1797L51.4688 57.0156C51.4062 57.2292 51.2995 57.4583 51.1484 57.7031C50.9974 57.9479 50.7995 58.1823 50.5547 58.4062C50.3151 58.625 50.026 58.8047 49.6875 58.9453C49.3542 59.0859 48.9688 59.1562 48.5312 59.1562C47.9792 59.1562 47.487 59.0469 47.0547 58.8281C46.6224 58.6042 46.2839 58.3047 46.0391 57.9297C45.7943 57.5495 45.6719 57.1198 45.6719 56.6406C45.6719 56.1927 45.7552 55.7969 45.9219 55.4531C46.0938 55.1042 46.3438 54.8125 46.6719 54.5781C47.0052 54.3438 47.4115 54.1667 47.8906 54.0469C48.3698 53.9219 48.9167 53.8594 49.5312 53.8594H51.0078ZM61.3281 57.5078L63.3984 50.5469H65.3516L62.4141 59H61.1953L61.3281 57.5078ZM59.7422 50.5469L61.8516 57.5391L61.9531 59H60.7344L57.7812 50.5469H59.7422ZM70.1328 59.1562C69.5078 59.1562 68.9427 59.0547 68.4375 58.8516C67.9375 58.6432 67.5104 58.3542 67.1562 57.9844C66.8073 57.6146 66.5391 57.1797 66.3516 56.6797C66.1641 56.1797 66.0703 55.6406 66.0703 55.0625V54.75C66.0703 54.0885 66.1667 53.4896 66.3594 52.9531C66.5521 52.4167 66.8203 51.9583 67.1641 51.5781C67.5078 51.1927 67.9141 50.8984 68.3828 50.6953C68.8516 50.4922 69.3594 50.3906 69.9062 50.3906C70.5104 50.3906 71.0391 50.4922 71.4922 50.6953C71.9453 50.8984 72.3203 51.1849 72.6172 51.5547C72.9193 51.9193 73.1432 52.3542 73.2891 52.8594C73.4401 53.3646 73.5156 53.9219 73.5156 54.5312V55.3359H66.9844V53.9844H71.6562V53.8359C71.6458 53.4974 71.5781 53.1797 71.4531 52.8828C71.3333 52.5859 71.1484 52.3464 70.8984 52.1641C70.6484 51.9818 70.3151 51.8906 69.8984 51.8906C69.5859 51.8906 69.3073 51.9583 69.0625 52.0938C68.8229 52.224 68.6224 52.4141 68.4609 52.6641C68.2995 52.9141 68.1745 53.2161 68.0859 53.5703C68.0026 53.9193 67.9609 54.3125 67.9609 54.75V55.0625C67.9609 55.4323 68.0104 55.776 68.1094 56.0938C68.2135 56.4062 68.3646 56.6797 68.5625 56.9141C68.7604 57.1484 69 57.3333 69.2812 57.4688C69.5625 57.599 69.8828 57.6641 70.2422 57.6641C70.6953 57.6641 71.099 57.5729 71.4531 57.3906C71.8073 57.2083 72.1146 56.9505 72.375 56.6172L73.3672 57.5781C73.1849 57.8438 72.9479 58.099 72.6562 58.3438C72.3646 58.5833 72.0078 58.7786 71.5859 58.9297C71.1693 59.0807 70.6849 59.1562 70.1328 59.1562ZM76.875 52.1562V59H74.9922V50.5469H76.7891L76.875 52.1562ZM79.4609 50.4922L79.4453 52.2422C79.3307 52.2214 79.2057 52.2057 79.0703 52.1953C78.9401 52.1849 78.8099 52.1797 78.6797 52.1797C78.3568 52.1797 78.0729 52.2266 77.8281 52.3203C77.5833 52.4089 77.3776 52.5391 77.2109 52.7109C77.0495 52.8776 76.9245 53.0807 76.8359 53.3203C76.7474 53.5599 76.6953 53.8281 76.6797 54.125L76.25 54.1562C76.25 53.625 76.3021 53.1328 76.4062 52.6797C76.5104 52.2266 76.6667 51.8281 76.875 51.4844C77.0885 51.1406 77.3542 50.8724 77.6719 50.6797C77.9948 50.487 78.3672 50.3906 78.7891 50.3906C78.9036 50.3906 79.026 50.401 79.1562 50.4219C79.2917 50.4427 79.3932 50.4661 79.4609 50.4922ZM86.5078 52.2656V59H84.625V50.5469H86.3984L86.5078 52.2656ZM86.2031 54.4609L85.5625 54.4531C85.5625 53.8698 85.6354 53.3307 85.7812 52.8359C85.9271 52.3411 86.1406 51.9115 86.4219 51.5469C86.7031 51.1771 87.0521 50.8932 87.4688 50.6953C87.8906 50.4922 88.3776 50.3906 88.9297 50.3906C89.3151 50.3906 89.6667 50.4479 89.9844 50.5625C90.3073 50.6719 90.5859 50.8464 90.8203 51.0859C91.0599 51.3255 91.2422 51.6328 91.3672 52.0078C91.4974 52.3828 91.5625 52.8359 91.5625 53.3672V59H89.6797V53.5312C89.6797 53.1198 89.6172 52.7969 89.4922 52.5625C89.3724 52.3281 89.1979 52.1615 88.9688 52.0625C88.7448 51.9583 88.4766 51.9062 88.1641 51.9062C87.8099 51.9062 87.5078 51.974 87.2578 52.1094C87.013 52.2448 86.8125 52.4297 86.6562 52.6641C86.5 52.8984 86.3854 53.1693 86.3125 53.4766C86.2396 53.7839 86.2031 54.112 86.2031 54.4609ZM91.4453 53.9609L90.5625 54.1562C90.5625 53.6458 90.6328 53.1641 90.7734 52.7109C90.9193 52.2526 91.1302 51.8516 91.4062 51.5078C91.6875 51.1589 92.0339 50.8854 92.4453 50.6875C92.8568 50.4896 93.3281 50.3906 93.8594 50.3906C94.2917 50.3906 94.6771 50.4505 95.0156 50.5703C95.3594 50.6849 95.651 50.8672 95.8906 51.1172C96.1302 51.3672 96.3125 51.6927 96.4375 52.0938C96.5625 52.4896 96.625 52.9688 96.625 53.5312V59H94.7344V53.5234C94.7344 53.0964 94.6719 52.7656 94.5469 52.5312C94.4271 52.2969 94.2552 52.1354 94.0312 52.0469C93.8073 51.9531 93.5391 51.9062 93.2266 51.9062C92.9349 51.9062 92.6771 51.9609 92.4531 52.0703C92.2344 52.1745 92.0495 52.3229 91.8984 52.5156C91.7474 52.7031 91.6328 52.9193 91.5547 53.1641C91.4818 53.4089 91.4453 53.6745 91.4453 53.9609ZM103.328 57.3047V53.2734C103.328 52.9714 103.273 52.7109 103.164 52.4922C103.055 52.2734 102.888 52.1042 102.664 51.9844C102.445 51.8646 102.169 51.8047 101.836 51.8047C101.529 51.8047 101.263 51.8568 101.039 51.9609C100.815 52.0651 100.641 52.2057 100.516 52.3828C100.391 52.5599 100.328 52.7604 100.328 52.9844H98.4531C98.4531 52.651 98.5339 52.3281 98.6953 52.0156C98.8568 51.7031 99.0911 51.4245 99.3984 51.1797C99.7057 50.9349 100.073 50.7422 100.5 50.6016C100.927 50.4609 101.406 50.3906 101.938 50.3906C102.573 50.3906 103.135 50.4974 103.625 50.7109C104.12 50.9245 104.508 51.2474 104.789 51.6797C105.076 52.1068 105.219 52.6432 105.219 53.2891V57.0469C105.219 57.4323 105.245 57.7786 105.297 58.0859C105.354 58.388 105.435 58.651 105.539 58.875V59H103.609C103.521 58.7969 103.451 58.5391 103.398 58.2266C103.352 57.9089 103.328 57.6016 103.328 57.3047ZM103.602 53.8594L103.617 55.0234H102.266C101.917 55.0234 101.609 55.0573 101.344 55.125C101.078 55.1875 100.857 55.2812 100.68 55.4062C100.503 55.5312 100.37 55.6823 100.281 55.8594C100.193 56.0365 100.148 56.237 100.148 56.4609C100.148 56.6849 100.201 56.8906 100.305 57.0781C100.409 57.2604 100.56 57.4036 100.758 57.5078C100.961 57.612 101.206 57.6641 101.492 57.6641C101.878 57.6641 102.214 57.5859 102.5 57.4297C102.792 57.2682 103.021 57.0729 103.188 56.8438C103.354 56.6094 103.443 56.388 103.453 56.1797L104.062 57.0156C104 57.2292 103.893 57.4583 103.742 57.7031C103.591 57.9479 103.393 58.1823 103.148 58.4062C102.909 58.625 102.62 58.8047 102.281 58.9453C101.948 59.0859 101.562 59.1562 101.125 59.1562C100.573 59.1562 100.081 59.0469 99.6484 58.8281C99.2161 58.6042 98.8776 58.3047 98.6328 57.9297C98.388 57.5495 98.2656 57.1198 98.2656 56.6406C98.2656 56.1927 98.349 55.7969 98.5156 55.4531C98.6875 55.1042 98.9375 54.8125 99.2656 54.5781C99.599 54.3438 100.005 54.1667 100.484 54.0469C100.964 53.9219 101.51 53.8594 102.125 53.8594H103.602ZM109.203 50.5469V59H107.312V50.5469H109.203ZM107.188 48.3281C107.188 48.0417 107.281 47.8047 107.469 47.6172C107.661 47.4245 107.927 47.3281 108.266 47.3281C108.599 47.3281 108.862 47.4245 109.055 47.6172C109.247 47.8047 109.344 48.0417 109.344 48.3281C109.344 48.6094 109.247 48.8438 109.055 49.0312C108.862 49.2188 108.599 49.3125 108.266 49.3125C107.927 49.3125 107.661 49.2188 107.469 49.0312C107.281 48.8438 107.188 48.6094 107.188 48.3281ZM116.008 56.7109C116.008 56.5234 115.961 56.3542 115.867 56.2031C115.773 56.0469 115.594 55.9062 115.328 55.7812C115.068 55.6562 114.682 55.5417 114.172 55.4375C113.724 55.3385 113.312 55.2214 112.938 55.0859C112.568 54.9453 112.25 54.776 111.984 54.5781C111.719 54.3802 111.513 54.1458 111.367 53.875C111.221 53.6042 111.148 53.2917 111.148 52.9375C111.148 52.5938 111.224 52.2682 111.375 51.9609C111.526 51.6536 111.742 51.3828 112.023 51.1484C112.305 50.9141 112.646 50.7292 113.047 50.5938C113.453 50.4583 113.906 50.3906 114.406 50.3906C115.115 50.3906 115.721 50.5104 116.227 50.75C116.737 50.9844 117.128 51.3047 117.398 51.7109C117.669 52.112 117.805 52.5651 117.805 53.0703H115.922C115.922 52.8464 115.865 52.638 115.75 52.4453C115.641 52.2474 115.474 52.0885 115.25 51.9688C115.026 51.8438 114.745 51.7812 114.406 51.7812C114.083 51.7812 113.815 51.8333 113.602 51.9375C113.393 52.0365 113.237 52.1667 113.133 52.3281C113.034 52.4896 112.984 52.6667 112.984 52.8594C112.984 53 113.01 53.1276 113.062 53.2422C113.12 53.3516 113.214 53.4531 113.344 53.5469C113.474 53.6354 113.651 53.7188 113.875 53.7969C114.104 53.875 114.391 53.9505 114.734 54.0234C115.38 54.1589 115.935 54.3333 116.398 54.5469C116.867 54.7552 117.227 55.026 117.477 55.3594C117.727 55.6875 117.852 56.1042 117.852 56.6094C117.852 56.9844 117.771 57.3281 117.609 57.6406C117.453 57.9479 117.224 58.2161 116.922 58.4453C116.62 58.6693 116.258 58.8438 115.836 58.9688C115.419 59.0938 114.951 59.1562 114.43 59.1562C113.664 59.1562 113.016 59.0208 112.484 58.75C111.953 58.474 111.549 58.1224 111.273 57.6953C111.003 57.263 110.867 56.8151 110.867 56.3516H112.688C112.708 56.7005 112.805 56.9792 112.977 57.1875C113.154 57.3906 113.372 57.5391 113.633 57.6328C113.898 57.7214 114.172 57.7656 114.453 57.7656C114.792 57.7656 115.076 57.7214 115.305 57.6328C115.534 57.5391 115.708 57.4141 115.828 57.2578C115.948 57.0964 116.008 56.9141 116.008 56.7109ZM123.492 47H125.375V57.1953L125.195 59H123.492V47ZM130.891 54.6953V54.8594C130.891 55.4844 130.82 56.0599 130.68 56.5859C130.544 57.1068 130.336 57.5599 130.055 57.9453C129.779 58.3307 129.435 58.6302 129.023 58.8438C128.617 59.0521 128.146 59.1562 127.609 59.1562C127.083 59.1562 126.625 59.0573 126.234 58.8594C125.844 58.6615 125.516 58.3802 125.25 58.0156C124.99 57.651 124.779 57.2161 124.617 56.7109C124.456 56.2057 124.341 55.6484 124.273 55.0391V54.5156C124.341 53.901 124.456 53.3438 124.617 52.8438C124.779 52.3385 124.99 51.9036 125.25 51.5391C125.516 51.1693 125.841 50.8854 126.227 50.6875C126.617 50.4896 127.073 50.3906 127.594 50.3906C128.135 50.3906 128.612 50.4948 129.023 50.7031C129.44 50.9115 129.786 51.2083 130.062 51.5938C130.339 51.974 130.544 52.4271 130.68 52.9531C130.82 53.4792 130.891 54.0599 130.891 54.6953ZM129.008 54.8594V54.6953C129.008 54.3151 128.977 53.9583 128.914 53.625C128.852 53.2865 128.747 52.9896 128.602 52.7344C128.461 52.4792 128.268 52.2786 128.023 52.1328C127.784 51.9818 127.484 51.9062 127.125 51.9062C126.792 51.9062 126.505 51.9635 126.266 52.0781C126.026 52.1927 125.826 52.349 125.664 52.5469C125.503 52.7448 125.375 52.974 125.281 53.2344C125.193 53.4948 125.133 53.776 125.102 54.0781V55.4922C125.148 55.8828 125.247 56.2422 125.398 56.5703C125.555 56.8932 125.773 57.1536 126.055 57.3516C126.336 57.5443 126.698 57.6406 127.141 57.6406C127.49 57.6406 127.784 57.5703 128.023 57.4297C128.263 57.2891 128.453 57.0938 128.594 56.8438C128.74 56.5885 128.844 56.2917 128.906 55.9531C128.974 55.6146 129.008 55.25 129.008 54.8594ZM136.211 59.1562C135.586 59.1562 135.021 59.0547 134.516 58.8516C134.016 58.6432 133.589 58.3542 133.234 57.9844C132.885 57.6146 132.617 57.1797 132.43 56.6797C132.242 56.1797 132.148 55.6406 132.148 55.0625V54.75C132.148 54.0885 132.245 53.4896 132.438 52.9531C132.63 52.4167 132.898 51.9583 133.242 51.5781C133.586 51.1927 133.992 50.8984 134.461 50.6953C134.93 50.4922 135.438 50.3906 135.984 50.3906C136.589 50.3906 137.117 50.4922 137.57 50.6953C138.023 50.8984 138.398 51.1849 138.695 51.5547C138.997 51.9193 139.221 52.3542 139.367 52.8594C139.518 53.3646 139.594 53.9219 139.594 54.5312V55.3359H133.062V53.9844H137.734V53.8359C137.724 53.4974 137.656 53.1797 137.531 52.8828C137.411 52.5859 137.227 52.3464 136.977 52.1641C136.727 51.9818 136.393 51.8906 135.977 51.8906C135.664 51.8906 135.385 51.9583 135.141 52.0938C134.901 52.224 134.701 52.4141 134.539 52.6641C134.378 52.9141 134.253 53.2161 134.164 53.5703C134.081 53.9193 134.039 54.3125 134.039 54.75V55.0625C134.039 55.4323 134.089 55.776 134.188 56.0938C134.292 56.4062 134.443 56.6797 134.641 56.9141C134.839 57.1484 135.078 57.3333 135.359 57.4688C135.641 57.599 135.961 57.6641 136.32 57.6641C136.773 57.6641 137.177 57.5729 137.531 57.3906C137.885 57.2083 138.193 56.9505 138.453 56.6172L139.445 57.5781C139.263 57.8438 139.026 58.099 138.734 58.3438C138.443 58.5833 138.086 58.7786 137.664 58.9297C137.247 59.0807 136.763 59.1562 136.211 59.1562ZM142.93 52.3516V59H141.047V50.5469H142.82L142.93 52.3516ZM142.594 54.4609L141.984 54.4531C141.99 53.8542 142.073 53.3047 142.234 52.8047C142.401 52.3047 142.63 51.875 142.922 51.5156C143.219 51.1562 143.573 50.8802 143.984 50.6875C144.396 50.4896 144.854 50.3906 145.359 50.3906C145.766 50.3906 146.133 50.4479 146.461 50.5625C146.794 50.6719 147.078 50.8516 147.312 51.1016C147.552 51.3516 147.734 51.6771 147.859 52.0781C147.984 52.474 148.047 52.9609 148.047 53.5391V59H146.156V53.5312C146.156 53.125 146.096 52.8047 145.977 52.5703C145.862 52.3307 145.693 52.1615 145.469 52.0625C145.25 51.9583 144.977 51.9062 144.648 51.9062C144.326 51.9062 144.036 51.974 143.781 52.1094C143.526 52.2448 143.31 52.4297 143.133 52.6641C142.961 52.8984 142.828 53.1693 142.734 53.4766C142.641 53.7839 142.594 54.112 142.594 54.4609ZM153.695 59.1562C153.07 59.1562 152.505 59.0547 152 58.8516C151.5 58.6432 151.073 58.3542 150.719 57.9844C150.37 57.6146 150.102 57.1797 149.914 56.6797C149.727 56.1797 149.633 55.6406 149.633 55.0625V54.75C149.633 54.0885 149.729 53.4896 149.922 52.9531C150.115 52.4167 150.383 51.9583 150.727 51.5781C151.07 51.1927 151.477 50.8984 151.945 50.6953C152.414 50.4922 152.922 50.3906 153.469 50.3906C154.073 50.3906 154.602 50.4922 155.055 50.6953C155.508 50.8984 155.883 51.1849 156.18 51.5547C156.482 51.9193 156.706 52.3542 156.852 52.8594C157.003 53.3646 157.078 53.9219 157.078 54.5312V55.3359H150.547V53.9844H155.219V53.8359C155.208 53.4974 155.141 53.1797 155.016 52.8828C154.896 52.5859 154.711 52.3464 154.461 52.1641C154.211 51.9818 153.878 51.8906 153.461 51.8906C153.148 51.8906 152.87 51.9583 152.625 52.0938C152.385 52.224 152.185 52.4141 152.023 52.6641C151.862 52.9141 151.737 53.2161 151.648 53.5703C151.565 53.9193 151.523 54.3125 151.523 54.75V55.0625C151.523 55.4323 151.573 55.776 151.672 56.0938C151.776 56.4062 151.927 56.6797 152.125 56.9141C152.323 57.1484 152.562 57.3333 152.844 57.4688C153.125 57.599 153.445 57.6641 153.805 57.6641C154.258 57.6641 154.661 57.5729 155.016 57.3906C155.37 57.2083 155.677 56.9505 155.938 56.6172L156.93 57.5781C156.747 57.8438 156.51 58.099 156.219 58.3438C155.927 58.5833 155.57 58.7786 155.148 58.9297C154.732 59.0807 154.247 59.1562 153.695 59.1562ZM161.094 59H159.211V49.7344C159.211 49.1042 159.328 48.5755 159.562 48.1484C159.802 47.7161 160.143 47.3906 160.586 47.1719C161.029 46.9479 161.552 46.8359 162.156 46.8359C162.344 46.8359 162.529 46.849 162.711 46.875C162.893 46.8958 163.07 46.9297 163.242 46.9766L163.195 48.4297C163.091 48.4036 162.977 48.3854 162.852 48.375C162.732 48.3646 162.602 48.3594 162.461 48.3594C162.174 48.3594 161.927 48.4141 161.719 48.5234C161.516 48.6276 161.359 48.7812 161.25 48.9844C161.146 49.1875 161.094 49.4375 161.094 49.7344V59ZM162.836 50.5469V51.9219H157.914V50.5469H162.836ZM166.242 50.5469V59H164.359V50.5469H166.242ZM164.375 49.4219L165.898 47.0703H168.023L165.898 49.4219H164.375ZM171.844 57.6562C172.151 57.6562 172.427 57.5964 172.672 57.4766C172.922 57.3516 173.122 57.1797 173.273 56.9609C173.43 56.7422 173.516 56.4896 173.531 56.2031H175.305C175.294 56.75 175.133 57.2474 174.82 57.6953C174.508 58.1432 174.094 58.5 173.578 58.7656C173.062 59.026 172.492 59.1562 171.867 59.1562C171.221 59.1562 170.659 59.0469 170.18 58.8281C169.701 58.6042 169.302 58.2969 168.984 57.9062C168.667 57.5156 168.427 57.0651 168.266 56.5547C168.109 56.0443 168.031 55.4974 168.031 54.9141V54.6406C168.031 54.0573 168.109 53.5104 168.266 53C168.427 52.4844 168.667 52.0312 168.984 51.6406C169.302 51.25 169.701 50.9453 170.18 50.7266C170.659 50.5026 171.219 50.3906 171.859 50.3906C172.536 50.3906 173.13 50.526 173.641 50.7969C174.151 51.0625 174.552 51.4349 174.844 51.9141C175.141 52.388 175.294 52.9401 175.305 53.5703H173.531C173.516 53.2578 173.438 52.9766 173.297 52.7266C173.161 52.4714 172.969 52.2682 172.719 52.1172C172.474 51.9661 172.18 51.8906 171.836 51.8906C171.456 51.8906 171.141 51.9688 170.891 52.125C170.641 52.276 170.445 52.4844 170.305 52.75C170.164 53.0104 170.062 53.3047 170 53.6328C169.943 53.9557 169.914 54.2917 169.914 54.6406V54.9141C169.914 55.263 169.943 55.6016 170 55.9297C170.057 56.2578 170.156 56.5521 170.297 56.8125C170.443 57.0677 170.641 57.2734 170.891 57.4297C171.141 57.5807 171.458 57.6562 171.844 57.6562ZM178.766 50.5469V59H176.875V50.5469H178.766ZM176.75 48.3281C176.75 48.0417 176.844 47.8047 177.031 47.6172C177.224 47.4245 177.49 47.3281 177.828 47.3281C178.161 47.3281 178.424 47.4245 178.617 47.6172C178.81 47.8047 178.906 48.0417 178.906 48.3281C178.906 48.6094 178.81 48.8438 178.617 49.0312C178.424 49.2188 178.161 49.3125 177.828 49.3125C177.49 49.3125 177.224 49.2188 177.031 49.0312C176.844 48.8438 176.75 48.6094 176.75 48.3281ZM180.469 54.8672V54.6875C180.469 54.0781 180.557 53.513 180.734 52.9922C180.911 52.4661 181.167 52.0104 181.5 51.625C181.839 51.2344 182.25 50.9323 182.734 50.7188C183.224 50.5 183.776 50.3906 184.391 50.3906C185.01 50.3906 185.562 50.5 186.047 50.7188C186.536 50.9323 186.951 51.2344 187.289 51.625C187.628 52.0104 187.885 52.4661 188.062 52.9922C188.24 53.513 188.328 54.0781 188.328 54.6875V54.8672C188.328 55.4766 188.24 56.0417 188.062 56.5625C187.885 57.0833 187.628 57.5391 187.289 57.9297C186.951 58.3151 186.539 58.6172 186.055 58.8359C185.57 59.0495 185.021 59.1562 184.406 59.1562C183.786 59.1562 183.232 59.0495 182.742 58.8359C182.258 58.6172 181.846 58.3151 181.508 57.9297C181.169 57.5391 180.911 57.0833 180.734 56.5625C180.557 56.0417 180.469 55.4766 180.469 54.8672ZM182.352 54.6875V54.8672C182.352 55.2474 182.391 55.6068 182.469 55.9453C182.547 56.2839 182.669 56.5807 182.836 56.8359C183.003 57.0911 183.216 57.2917 183.477 57.4375C183.737 57.5833 184.047 57.6562 184.406 57.6562C184.755 57.6562 185.057 57.5833 185.312 57.4375C185.573 57.2917 185.786 57.0911 185.953 56.8359C186.12 56.5807 186.242 56.2839 186.32 55.9453C186.404 55.6068 186.445 55.2474 186.445 54.8672V54.6875C186.445 54.3125 186.404 53.9583 186.32 53.625C186.242 53.2865 186.117 52.987 185.945 52.7266C185.779 52.4661 185.565 52.263 185.305 52.1172C185.049 51.9661 184.745 51.8906 184.391 51.8906C184.036 51.8906 183.729 51.9661 183.469 52.1172C183.214 52.263 183.003 52.4661 182.836 52.7266C182.669 52.987 182.547 53.2865 182.469 53.625C182.391 53.9583 182.352 54.3125 182.352 54.6875ZM194.648 56.7109C194.648 56.5234 194.602 56.3542 194.508 56.2031C194.414 56.0469 194.234 55.9062 193.969 55.7812C193.708 55.6562 193.323 55.5417 192.812 55.4375C192.365 55.3385 191.953 55.2214 191.578 55.0859C191.208 54.9453 190.891 54.776 190.625 54.5781C190.359 54.3802 190.154 54.1458 190.008 53.875C189.862 53.6042 189.789 53.2917 189.789 52.9375C189.789 52.5938 189.865 52.2682 190.016 51.9609C190.167 51.6536 190.383 51.3828 190.664 51.1484C190.945 50.9141 191.286 50.7292 191.688 50.5938C192.094 50.4583 192.547 50.3906 193.047 50.3906C193.755 50.3906 194.362 50.5104 194.867 50.75C195.378 50.9844 195.768 51.3047 196.039 51.7109C196.31 52.112 196.445 52.5651 196.445 53.0703H194.562C194.562 52.8464 194.505 52.638 194.391 52.4453C194.281 52.2474 194.115 52.0885 193.891 51.9688C193.667 51.8438 193.385 51.7812 193.047 51.7812C192.724 51.7812 192.456 51.8333 192.242 51.9375C192.034 52.0365 191.878 52.1667 191.773 52.3281C191.674 52.4896 191.625 52.6667 191.625 52.8594C191.625 53 191.651 53.1276 191.703 53.2422C191.76 53.3516 191.854 53.4531 191.984 53.5469C192.115 53.6354 192.292 53.7188 192.516 53.7969C192.745 53.875 193.031 53.9505 193.375 54.0234C194.021 54.1589 194.576 54.3333 195.039 54.5469C195.508 54.7552 195.867 55.026 196.117 55.3594C196.367 55.6875 196.492 56.1042 196.492 56.6094C196.492 56.9844 196.411 57.3281 196.25 57.6406C196.094 57.9479 195.865 58.2161 195.562 58.4453C195.26 58.6693 194.898 58.8438 194.477 58.9688C194.06 59.0938 193.591 59.1562 193.07 59.1562C192.305 59.1562 191.656 59.0208 191.125 58.75C190.594 58.474 190.19 58.1224 189.914 57.6953C189.643 57.263 189.508 56.8151 189.508 56.3516H191.328C191.349 56.7005 191.445 56.9792 191.617 57.1875C191.794 57.3906 192.013 57.5391 192.273 57.6328C192.539 57.7214 192.812 57.7656 193.094 57.7656C193.432 57.7656 193.716 57.7214 193.945 57.6328C194.174 57.5391 194.349 57.4141 194.469 57.2578C194.589 57.0964 194.648 56.9141 194.648 56.7109ZM200.312 47.625L200.125 55.6484H198.516L198.32 47.625H200.312ZM198.266 58.1094C198.266 57.8229 198.359 57.5833 198.547 57.3906C198.74 57.1927 199.005 57.0938 199.344 57.0938C199.677 57.0938 199.94 57.1927 200.133 57.3906C200.326 57.5833 200.422 57.8229 200.422 58.1094C200.422 58.3854 200.326 58.6224 200.133 58.8203C199.94 59.013 199.677 59.1094 199.344 59.1094C199.005 59.1094 198.74 59.013 198.547 58.8203C198.359 58.6224 198.266 58.3854 198.266 58.1094Z" fill="white"/>
<path d="M0 79H225L222.5 85L225 89.8L222.5 94.8333L225 99.4L222.5 104.667L225 109L222.5 114.5H3L0 109.857L3 104.381L0 99.5714L3 94.2619L0 89.2857L3 84.1429L0 79Z" fill="#F31624"/>
</svg>
