<svg width="225" height="115" viewBox="0 0 225 115" fill="none" xmlns="http://www.w3.org/2000/svg">
<path d="M0 0H225L221.646 4.78788L225 9.875L221.646 14.3636L225 19.75L221.646 23.0417L225 29.625L221.646 32.9167L225 39.5L221.646 43.0909L225 49.375L221.646 53.2652L225 59.25L221.646 63.7386L225 69.125L221.646 73.9129L225 79H0L3.35366 73.9129L0 68.8258L3.35366 63.7386L0 58.6515L3.35366 53.2652L0 48.4773L3.35366 43.0909L0 38.303L3.35366 32.9167L0 28.7273L3.35366 23.0417L0 19.1515L3.35366 14.3636L0 9.57576L3.35366 4.78788L0 0Z" fill="#FEE8E9"/>
<path d="M91.4766 30.7578H88.5156V29.2031H91.4766C91.9922 29.2031 92.4089 29.1198 92.7266 28.9531C93.0443 28.7865 93.276 28.5573 93.4219 28.2656C93.5729 27.9688 93.6484 27.6302 93.6484 27.25C93.6484 26.8906 93.5729 26.5547 93.4219 26.2422C93.276 25.9245 93.0443 25.6693 92.7266 25.4766C92.4089 25.2839 91.9922 25.1875 91.4766 25.1875H89.1172V35H87.1562V23.625H91.4766C92.3568 23.625 93.1042 23.7812 93.7188 24.0938C94.3385 24.401 94.8099 24.8281 95.1328 25.375C95.4557 25.9167 95.6172 26.5365 95.6172 27.2344C95.6172 27.9688 95.4557 28.599 95.1328 29.125C94.8099 29.651 94.3385 30.0547 93.7188 30.3359C93.1042 30.6172 92.3568 30.7578 91.4766 30.7578ZM99.2031 23V35H97.3125V23H99.2031ZM106.031 33.3047V29.2734C106.031 28.9714 105.977 28.7109 105.867 28.4922C105.758 28.2734 105.591 28.1042 105.367 27.9844C105.148 27.8646 104.872 27.8047 104.539 27.8047C104.232 27.8047 103.966 27.8568 103.742 27.9609C103.518 28.0651 103.344 28.2057 103.219 28.3828C103.094 28.5599 103.031 28.7604 103.031 28.9844H101.156C101.156 28.651 101.237 28.3281 101.398 28.0156C101.56 27.7031 101.794 27.4245 102.102 27.1797C102.409 26.9349 102.776 26.7422 103.203 26.6016C103.63 26.4609 104.109 26.3906 104.641 26.3906C105.276 26.3906 105.839 26.4974 106.328 26.7109C106.823 26.9245 107.211 27.2474 107.492 27.6797C107.779 28.1068 107.922 28.6432 107.922 29.2891V33.0469C107.922 33.4323 107.948 33.7786 108 34.0859C108.057 34.388 108.138 34.651 108.242 34.875V35H106.312C106.224 34.7969 106.154 34.5391 106.102 34.2266C106.055 33.9089 106.031 33.6016 106.031 33.3047ZM106.305 29.8594L106.32 31.0234H104.969C104.62 31.0234 104.312 31.0573 104.047 31.125C103.781 31.1875 103.56 31.2812 103.383 31.4062C103.206 31.5312 103.073 31.6823 102.984 31.8594C102.896 32.0365 102.852 32.237 102.852 32.4609C102.852 32.6849 102.904 32.8906 103.008 33.0781C103.112 33.2604 103.263 33.4036 103.461 33.5078C103.664 33.612 103.909 33.6641 104.195 33.6641C104.581 33.6641 104.917 33.5859 105.203 33.4297C105.495 33.2682 105.724 33.0729 105.891 32.8438C106.057 32.6094 106.146 32.388 106.156 32.1797L106.766 33.0156C106.703 33.2292 106.596 33.4583 106.445 33.7031C106.294 33.9479 106.096 34.1823 105.852 34.4062C105.612 34.625 105.323 34.8047 104.984 34.9453C104.651 35.0859 104.266 35.1562 103.828 35.1562C103.276 35.1562 102.784 35.0469 102.352 34.8281C101.919 34.6042 101.581 34.3047 101.336 33.9297C101.091 33.5495 100.969 33.1198 100.969 32.6406C100.969 32.1927 101.052 31.7969 101.219 31.4531C101.391 31.1042 101.641 30.8125 101.969 30.5781C102.302 30.3438 102.708 30.1667 103.188 30.0469C103.667 29.9219 104.214 29.8594 104.828 29.8594H106.305ZM111.758 28.3516V35H109.875V26.5469H111.648L111.758 28.3516ZM111.422 30.4609L110.812 30.4531C110.818 29.8542 110.901 29.3047 111.062 28.8047C111.229 28.3047 111.458 27.875 111.75 27.5156C112.047 27.1562 112.401 26.8802 112.812 26.6875C113.224 26.4896 113.682 26.3906 114.188 26.3906C114.594 26.3906 114.961 26.4479 115.289 26.5625C115.622 26.6719 115.906 26.8516 116.141 27.1016C116.38 27.3516 116.562 27.6771 116.688 28.0781C116.812 28.474 116.875 28.9609 116.875 29.5391V35H114.984V29.5312C114.984 29.125 114.924 28.8047 114.805 28.5703C114.69 28.3307 114.521 28.1615 114.297 28.0625C114.078 27.9583 113.805 27.9062 113.477 27.9062C113.154 27.9062 112.865 27.974 112.609 28.1094C112.354 28.2448 112.138 28.4297 111.961 28.6641C111.789 28.8984 111.656 29.1693 111.562 29.4766C111.469 29.7839 111.422 30.112 111.422 30.4609ZM120.812 26.5469V35H118.922V26.5469H120.812ZM118.797 24.3281C118.797 24.0417 118.891 23.8047 119.078 23.6172C119.271 23.4245 119.536 23.3281 119.875 23.3281C120.208 23.3281 120.471 23.4245 120.664 23.6172C120.857 23.8047 120.953 24.0417 120.953 24.3281C120.953 24.6094 120.857 24.8438 120.664 25.0312C120.471 25.2188 120.208 25.3125 119.875 25.3125C119.536 25.3125 119.271 25.2188 119.078 25.0312C118.891 24.8438 118.797 24.6094 118.797 24.3281ZM124.891 23V35H123V23H124.891ZM128.812 23V35H126.938V23H128.812ZM128.484 30.4609L127.875 30.4531C127.88 29.8698 127.961 29.3307 128.117 28.8359C128.279 28.3411 128.503 27.9115 128.789 27.5469C129.081 27.1771 129.43 26.8932 129.836 26.6953C130.242 26.4922 130.693 26.3906 131.188 26.3906C131.604 26.3906 131.979 26.4479 132.312 26.5625C132.651 26.6771 132.943 26.862 133.188 27.1172C133.432 27.3672 133.617 27.6953 133.742 28.1016C133.872 28.5026 133.938 28.9922 133.938 29.5703V35H132.047V29.5547C132.047 29.1484 131.987 28.8255 131.867 28.5859C131.753 28.3464 131.583 28.1745 131.359 28.0703C131.135 27.9609 130.862 27.9062 130.539 27.9062C130.201 27.9062 129.901 27.974 129.641 28.1094C129.385 28.2448 129.172 28.4297 129 28.6641C128.828 28.8984 128.698 29.1693 128.609 29.4766C128.526 29.7839 128.484 30.112 128.484 30.4609ZM140.609 33.3047V29.2734C140.609 28.9714 140.555 28.7109 140.445 28.4922C140.336 28.2734 140.169 28.1042 139.945 27.9844C139.727 27.8646 139.451 27.8047 139.117 27.8047C138.81 27.8047 138.544 27.8568 138.32 27.9609C138.096 28.0651 137.922 28.2057 137.797 28.3828C137.672 28.5599 137.609 28.7604 137.609 28.9844H135.734C135.734 28.651 135.815 28.3281 135.977 28.0156C136.138 27.7031 136.372 27.4245 136.68 27.1797C136.987 26.9349 137.354 26.7422 137.781 26.6016C138.208 26.4609 138.688 26.3906 139.219 26.3906C139.854 26.3906 140.417 26.4974 140.906 26.7109C141.401 26.9245 141.789 27.2474 142.07 27.6797C142.357 28.1068 142.5 28.6432 142.5 29.2891V33.0469C142.5 33.4323 142.526 33.7786 142.578 34.0859C142.635 34.388 142.716 34.651 142.82 34.875V35H140.891C140.802 34.7969 140.732 34.5391 140.68 34.2266C140.633 33.9089 140.609 33.6016 140.609 33.3047ZM140.883 29.8594L140.898 31.0234H139.547C139.198 31.0234 138.891 31.0573 138.625 31.125C138.359 31.1875 138.138 31.2812 137.961 31.4062C137.784 31.5312 137.651 31.6823 137.562 31.8594C137.474 32.0365 137.43 32.237 137.43 32.4609C137.43 32.6849 137.482 32.8906 137.586 33.0781C137.69 33.2604 137.841 33.4036 138.039 33.5078C138.242 33.612 138.487 33.6641 138.773 33.6641C139.159 33.6641 139.495 33.5859 139.781 33.4297C140.073 33.2682 140.302 33.0729 140.469 32.8438C140.635 32.6094 140.724 32.388 140.734 32.1797L141.344 33.0156C141.281 33.2292 141.174 33.4583 141.023 33.7031C140.872 33.9479 140.674 34.1823 140.43 34.4062C140.19 34.625 139.901 34.8047 139.562 34.9453C139.229 35.0859 138.844 35.1562 138.406 35.1562C137.854 35.1562 137.362 35.0469 136.93 34.8281C136.497 34.6042 136.159 34.3047 135.914 33.9297C135.669 33.5495 135.547 33.1198 135.547 32.6406C135.547 32.1927 135.63 31.7969 135.797 31.4531C135.969 31.1042 136.219 30.8125 136.547 30.5781C136.88 30.3438 137.286 30.1667 137.766 30.0469C138.245 29.9219 138.792 29.8594 139.406 29.8594H140.883ZM153.609 33.25V23H155.5V35H153.789L153.609 33.25ZM148.109 30.8672V30.7031C148.109 30.0625 148.185 29.4792 148.336 28.9531C148.487 28.4219 148.706 27.9661 148.992 27.5859C149.279 27.2005 149.628 26.9062 150.039 26.7031C150.451 26.4948 150.914 26.3906 151.43 26.3906C151.94 26.3906 152.388 26.4896 152.773 26.6875C153.159 26.8854 153.487 27.1693 153.758 27.5391C154.029 27.9036 154.245 28.3411 154.406 28.8516C154.568 29.3568 154.682 29.9193 154.75 30.5391V31.0625C154.682 31.6667 154.568 32.2188 154.406 32.7188C154.245 33.2188 154.029 33.651 153.758 34.0156C153.487 34.3802 153.156 34.6615 152.766 34.8594C152.38 35.0573 151.93 35.1562 151.414 35.1562C150.904 35.1562 150.443 35.0495 150.031 34.8359C149.625 34.6224 149.279 34.3229 148.992 33.9375C148.706 33.5521 148.487 33.099 148.336 32.5781C148.185 32.0521 148.109 31.4818 148.109 30.8672ZM149.992 30.7031V30.8672C149.992 31.2526 150.026 31.612 150.094 31.9453C150.167 32.2786 150.279 32.5729 150.43 32.8281C150.581 33.0781 150.776 33.276 151.016 33.4219C151.26 33.5625 151.552 33.6328 151.891 33.6328C152.318 33.6328 152.669 33.5391 152.945 33.3516C153.221 33.1641 153.438 32.9115 153.594 32.5938C153.755 32.2708 153.865 31.9115 153.922 31.5156V30.1016C153.891 29.7943 153.826 29.5078 153.727 29.2422C153.633 28.9766 153.505 28.7448 153.344 28.5469C153.182 28.3438 152.982 28.1875 152.742 28.0781C152.508 27.9635 152.229 27.9062 151.906 27.9062C151.562 27.9062 151.271 27.9792 151.031 28.125C150.792 28.2708 150.594 28.4714 150.438 28.7266C150.286 28.9818 150.174 29.2786 150.102 29.6172C150.029 29.9557 149.992 30.3177 149.992 30.7031ZM161.195 35.1562C160.57 35.1562 160.005 35.0547 159.5 34.8516C159 34.6432 158.573 34.3542 158.219 33.9844C157.87 33.6146 157.602 33.1797 157.414 32.6797C157.227 32.1797 157.133 31.6406 157.133 31.0625V30.75C157.133 30.0885 157.229 29.4896 157.422 28.9531C157.615 28.4167 157.883 27.9583 158.227 27.5781C158.57 27.1927 158.977 26.8984 159.445 26.6953C159.914 26.4922 160.422 26.3906 160.969 26.3906C161.573 26.3906 162.102 26.4922 162.555 26.6953C163.008 26.8984 163.383 27.1849 163.68 27.5547C163.982 27.9193 164.206 28.3542 164.352 28.8594C164.503 29.3646 164.578 29.9219 164.578 30.5312V31.3359H158.047V29.9844H162.719V29.8359C162.708 29.4974 162.641 29.1797 162.516 28.8828C162.396 28.5859 162.211 28.3464 161.961 28.1641C161.711 27.9818 161.378 27.8906 160.961 27.8906C160.648 27.8906 160.37 27.9583 160.125 28.0938C159.885 28.224 159.685 28.4141 159.523 28.6641C159.362 28.9141 159.237 29.2161 159.148 29.5703C159.065 29.9193 159.023 30.3125 159.023 30.75V31.0625C159.023 31.4323 159.073 31.776 159.172 32.0938C159.276 32.4062 159.427 32.6797 159.625 32.9141C159.823 33.1484 160.062 33.3333 160.344 33.4688C160.625 33.599 160.945 33.6641 161.305 33.6641C161.758 33.6641 162.161 33.5729 162.516 33.3906C162.87 33.2083 163.177 32.9505 163.438 32.6172L164.43 33.5781C164.247 33.8438 164.01 34.099 163.719 34.3438C163.427 34.5833 163.07 34.7786 162.648 34.9297C162.232 35.0807 161.747 35.1562 161.195 35.1562ZM89.5156 54H87.6328V44.7344C87.6328 44.1042 87.75 43.5755 87.9844 43.1484C88.224 42.7161 88.5651 42.3906 89.0078 42.1719C89.4505 41.9479 89.974 41.8359 90.5781 41.8359C90.7656 41.8359 90.9505 41.849 91.1328 41.875C91.3151 41.8958 91.4922 41.9297 91.6641 41.9766L91.6172 43.4297C91.513 43.4036 91.3984 43.3854 91.2734 43.375C91.1536 43.3646 91.0234 43.3594 90.8828 43.3594C90.5964 43.3594 90.349 43.4141 90.1406 43.5234C89.9375 43.6276 89.7812 43.7812 89.6719 43.9844C89.5677 44.1875 89.5156 44.4375 89.5156 44.7344V54ZM91.2578 45.5469V46.9219H86.3359V45.5469H91.2578ZM92.2656 49.8672V49.6875C92.2656 49.0781 92.3542 48.513 92.5312 47.9922C92.7083 47.4661 92.9635 47.0104 93.2969 46.625C93.6354 46.2344 94.0469 45.9323 94.5312 45.7188C95.0208 45.5 95.5729 45.3906 96.1875 45.3906C96.8073 45.3906 97.3594 45.5 97.8438 45.7188C98.3333 45.9323 98.7474 46.2344 99.0859 46.625C99.4245 47.0104 99.6823 47.4661 99.8594 47.9922C100.036 48.513 100.125 49.0781 100.125 49.6875V49.8672C100.125 50.4766 100.036 51.0417 99.8594 51.5625C99.6823 52.0833 99.4245 52.5391 99.0859 52.9297C98.7474 53.3151 98.3359 53.6172 97.8516 53.8359C97.3672 54.0495 96.8177 54.1562 96.2031 54.1562C95.5833 54.1562 95.0286 54.0495 94.5391 53.8359C94.0547 53.6172 93.6432 53.3151 93.3047 52.9297C92.9661 52.5391 92.7083 52.0833 92.5312 51.5625C92.3542 51.0417 92.2656 50.4766 92.2656 49.8672ZM94.1484 49.6875V49.8672C94.1484 50.2474 94.1875 50.6068 94.2656 50.9453C94.3438 51.2839 94.4661 51.5807 94.6328 51.8359C94.7995 52.0911 95.013 52.2917 95.2734 52.4375C95.5339 52.5833 95.8438 52.6562 96.2031 52.6562C96.5521 52.6562 96.8542 52.5833 97.1094 52.4375C97.3698 52.2917 97.5833 52.0911 97.75 51.8359C97.9167 51.5807 98.0391 51.2839 98.1172 50.9453C98.2005 50.6068 98.2422 50.2474 98.2422 49.8672V49.6875C98.2422 49.3125 98.2005 48.9583 98.1172 48.625C98.0391 48.2865 97.9141 47.987 97.7422 47.7266C97.5755 47.4661 97.362 47.263 97.1016 47.1172C96.8464 46.9661 96.5417 46.8906 96.1875 46.8906C95.8333 46.8906 95.526 46.9661 95.2656 47.1172C95.0104 47.263 94.7995 47.4661 94.6328 47.7266C94.4661 47.987 94.3438 48.2865 94.2656 48.625C94.1875 48.9583 94.1484 49.3125 94.1484 49.6875ZM103.594 47.1562V54H101.711V45.5469H103.508L103.594 47.1562ZM106.18 45.4922L106.164 47.2422C106.049 47.2214 105.924 47.2057 105.789 47.1953C105.659 47.1849 105.529 47.1797 105.398 47.1797C105.076 47.1797 104.792 47.2266 104.547 47.3203C104.302 47.4089 104.096 47.5391 103.93 47.7109C103.768 47.8776 103.643 48.0807 103.555 48.3203C103.466 48.5599 103.414 48.8281 103.398 49.125L102.969 49.1562C102.969 48.625 103.021 48.1328 103.125 47.6797C103.229 47.2266 103.385 46.8281 103.594 46.4844C103.807 46.1406 104.073 45.8724 104.391 45.6797C104.714 45.487 105.086 45.3906 105.508 45.3906C105.622 45.3906 105.745 45.401 105.875 45.4219C106.01 45.4427 106.112 45.4661 106.18 45.4922ZM111.625 45.5469V46.9219H106.859V45.5469H111.625ZM108.234 43.4766H110.117V51.6641C110.117 51.9245 110.154 52.125 110.227 52.2656C110.305 52.401 110.411 52.4922 110.547 52.5391C110.682 52.5859 110.841 52.6094 111.023 52.6094C111.154 52.6094 111.279 52.6016 111.398 52.5859C111.518 52.5703 111.615 52.5547 111.688 52.5391L111.695 53.9766C111.539 54.0234 111.357 54.0651 111.148 54.1016C110.945 54.138 110.711 54.1562 110.445 54.1562C110.013 54.1562 109.63 54.0807 109.297 53.9297C108.964 53.7734 108.703 53.5208 108.516 53.1719C108.328 52.8229 108.234 52.3594 108.234 51.7812V43.4766ZM117.844 52.3047V48.2734C117.844 47.9714 117.789 47.7109 117.68 47.4922C117.57 47.2734 117.404 47.1042 117.18 46.9844C116.961 46.8646 116.685 46.8047 116.352 46.8047C116.044 46.8047 115.779 46.8568 115.555 46.9609C115.331 47.0651 115.156 47.2057 115.031 47.3828C114.906 47.5599 114.844 47.7604 114.844 47.9844H112.969C112.969 47.651 113.049 47.3281 113.211 47.0156C113.372 46.7031 113.607 46.4245 113.914 46.1797C114.221 45.9349 114.589 45.7422 115.016 45.6016C115.443 45.4609 115.922 45.3906 116.453 45.3906C117.089 45.3906 117.651 45.4974 118.141 45.7109C118.635 45.9245 119.023 46.2474 119.305 46.6797C119.591 47.1068 119.734 47.6432 119.734 48.2891V52.0469C119.734 52.4323 119.76 52.7786 119.812 53.0859C119.87 53.388 119.951 53.651 120.055 53.875V54H118.125C118.036 53.7969 117.966 53.5391 117.914 53.2266C117.867 52.9089 117.844 52.6016 117.844 52.3047ZM118.117 48.8594L118.133 50.0234H116.781C116.432 50.0234 116.125 50.0573 115.859 50.125C115.594 50.1875 115.372 50.2812 115.195 50.4062C115.018 50.5312 114.885 50.6823 114.797 50.8594C114.708 51.0365 114.664 51.237 114.664 51.4609C114.664 51.6849 114.716 51.8906 114.82 52.0781C114.924 52.2604 115.076 52.4036 115.273 52.5078C115.477 52.612 115.721 52.6641 116.008 52.6641C116.393 52.6641 116.729 52.5859 117.016 52.4297C117.307 52.2682 117.536 52.0729 117.703 51.8438C117.87 51.6094 117.958 51.388 117.969 51.1797L118.578 52.0156C118.516 52.2292 118.409 52.4583 118.258 52.7031C118.107 52.9479 117.909 53.1823 117.664 53.4062C117.424 53.625 117.135 53.8047 116.797 53.9453C116.464 54.0859 116.078 54.1562 115.641 54.1562C115.089 54.1562 114.596 54.0469 114.164 53.8281C113.732 53.6042 113.393 53.3047 113.148 52.9297C112.904 52.5495 112.781 52.1198 112.781 51.6406C112.781 51.1927 112.865 50.7969 113.031 50.4531C113.203 50.1042 113.453 49.8125 113.781 49.5781C114.115 49.3438 114.521 49.1667 115 49.0469C115.479 48.9219 116.026 48.8594 116.641 48.8594H118.117ZM123.719 42V54H121.828V42H123.719ZM129.508 54.1562C128.883 54.1562 128.318 54.0547 127.812 53.8516C127.312 53.6432 126.885 53.3542 126.531 52.9844C126.182 52.6146 125.914 52.1797 125.727 51.6797C125.539 51.1797 125.445 50.6406 125.445 50.0625V49.75C125.445 49.0885 125.542 48.4896 125.734 47.9531C125.927 47.4167 126.195 46.9583 126.539 46.5781C126.883 46.1927 127.289 45.8984 127.758 45.6953C128.227 45.4922 128.734 45.3906 129.281 45.3906C129.885 45.3906 130.414 45.4922 130.867 45.6953C131.32 45.8984 131.695 46.1849 131.992 46.5547C132.294 46.9193 132.518 47.3542 132.664 47.8594C132.815 48.3646 132.891 48.9219 132.891 49.5312V50.3359H126.359V48.9844H131.031V48.8359C131.021 48.4974 130.953 48.1797 130.828 47.8828C130.708 47.5859 130.523 47.3464 130.273 47.1641C130.023 46.9818 129.69 46.8906 129.273 46.8906C128.961 46.8906 128.682 46.9583 128.438 47.0938C128.198 47.224 127.997 47.4141 127.836 47.6641C127.674 47.9141 127.549 48.2161 127.461 48.5703C127.378 48.9193 127.336 49.3125 127.336 49.75V50.0625C127.336 50.4323 127.385 50.776 127.484 51.0938C127.589 51.4062 127.74 51.6797 127.938 51.9141C128.135 52.1484 128.375 52.3333 128.656 52.4688C128.938 52.599 129.258 52.6641 129.617 52.6641C130.07 52.6641 130.474 52.5729 130.828 52.3906C131.182 52.2083 131.49 51.9505 131.75 51.6172L132.742 52.5781C132.56 52.8438 132.323 53.099 132.031 53.3438C131.74 53.5833 131.383 53.7786 130.961 53.9297C130.544 54.0807 130.06 54.1562 129.508 54.1562ZM137.812 52.6562C138.12 52.6562 138.396 52.5964 138.641 52.4766C138.891 52.3516 139.091 52.1797 139.242 51.9609C139.398 51.7422 139.484 51.4896 139.5 51.2031H141.273C141.263 51.75 141.102 52.2474 140.789 52.6953C140.477 53.1432 140.062 53.5 139.547 53.7656C139.031 54.026 138.461 54.1562 137.836 54.1562C137.19 54.1562 136.628 54.0469 136.148 53.8281C135.669 53.6042 135.271 53.2969 134.953 52.9062C134.635 52.5156 134.396 52.0651 134.234 51.5547C134.078 51.0443 134 50.4974 134 49.9141V49.6406C134 49.0573 134.078 48.5104 134.234 48C134.396 47.4844 134.635 47.0312 134.953 46.6406C135.271 46.25 135.669 45.9453 136.148 45.7266C136.628 45.5026 137.188 45.3906 137.828 45.3906C138.505 45.3906 139.099 45.526 139.609 45.7969C140.12 46.0625 140.521 46.4349 140.812 46.9141C141.109 47.388 141.263 47.9401 141.273 48.5703H139.5C139.484 48.2578 139.406 47.9766 139.266 47.7266C139.13 47.4714 138.938 47.2682 138.688 47.1172C138.443 46.9661 138.148 46.8906 137.805 46.8906C137.424 46.8906 137.109 46.9688 136.859 47.125C136.609 47.276 136.414 47.4844 136.273 47.75C136.133 48.0104 136.031 48.3047 135.969 48.6328C135.911 48.9557 135.883 49.2917 135.883 49.6406V49.9141C135.883 50.263 135.911 50.6016 135.969 50.9297C136.026 51.2578 136.125 51.5521 136.266 51.8125C136.411 52.0677 136.609 52.2734 136.859 52.4297C137.109 52.5807 137.427 52.6562 137.812 52.6562ZM144.734 45.5469V54H142.844V45.5469H144.734ZM142.719 43.3281C142.719 43.0417 142.812 42.8047 143 42.6172C143.193 42.4245 143.458 42.3281 143.797 42.3281C144.13 42.3281 144.393 42.4245 144.586 42.6172C144.779 42.8047 144.875 43.0417 144.875 43.3281C144.875 43.6094 144.779 43.8438 144.586 44.0312C144.393 44.2188 144.13 44.3125 143.797 44.3125C143.458 44.3125 143.193 44.2188 143 44.0312C142.812 43.8438 142.719 43.6094 142.719 43.3281ZM148.68 47.2656V54H146.797V45.5469H148.57L148.68 47.2656ZM148.375 49.4609L147.734 49.4531C147.734 48.8698 147.807 48.3307 147.953 47.8359C148.099 47.3411 148.312 46.9115 148.594 46.5469C148.875 46.1771 149.224 45.8932 149.641 45.6953C150.062 45.4922 150.549 45.3906 151.102 45.3906C151.487 45.3906 151.839 45.4479 152.156 45.5625C152.479 45.6719 152.758 45.8464 152.992 46.0859C153.232 46.3255 153.414 46.6328 153.539 47.0078C153.669 47.3828 153.734 47.8359 153.734 48.3672V54H151.852V48.5312C151.852 48.1198 151.789 47.7969 151.664 47.5625C151.544 47.3281 151.37 47.1615 151.141 47.0625C150.917 46.9583 150.648 46.9062 150.336 46.9062C149.982 46.9062 149.68 46.974 149.43 47.1094C149.185 47.2448 148.984 47.4297 148.828 47.6641C148.672 47.8984 148.557 48.1693 148.484 48.4766C148.411 48.7839 148.375 49.112 148.375 49.4609ZM153.617 48.9609L152.734 49.1562C152.734 48.6458 152.805 48.1641 152.945 47.7109C153.091 47.2526 153.302 46.8516 153.578 46.5078C153.859 46.1589 154.206 45.8854 154.617 45.6875C155.029 45.4896 155.5 45.3906 156.031 45.3906C156.464 45.3906 156.849 45.4505 157.188 45.5703C157.531 45.6849 157.823 45.8672 158.062 46.1172C158.302 46.3672 158.484 46.6927 158.609 47.0938C158.734 47.4896 158.797 47.9688 158.797 48.5312V54H156.906V48.5234C156.906 48.0964 156.844 47.7656 156.719 47.5312C156.599 47.2969 156.427 47.1354 156.203 47.0469C155.979 46.9531 155.711 46.9062 155.398 46.9062C155.107 46.9062 154.849 46.9609 154.625 47.0703C154.406 47.1745 154.221 47.3229 154.07 47.5156C153.919 47.7031 153.805 47.9193 153.727 48.1641C153.654 48.4089 153.617 48.6745 153.617 48.9609ZM164.461 54.1562C163.836 54.1562 163.271 54.0547 162.766 53.8516C162.266 53.6432 161.839 53.3542 161.484 52.9844C161.135 52.6146 160.867 52.1797 160.68 51.6797C160.492 51.1797 160.398 50.6406 160.398 50.0625V49.75C160.398 49.0885 160.495 48.4896 160.688 47.9531C160.88 47.4167 161.148 46.9583 161.492 46.5781C161.836 46.1927 162.242 45.8984 162.711 45.6953C163.18 45.4922 163.688 45.3906 164.234 45.3906C164.839 45.3906 165.367 45.4922 165.82 45.6953C166.273 45.8984 166.648 46.1849 166.945 46.5547C167.247 46.9193 167.471 47.3542 167.617 47.8594C167.768 48.3646 167.844 48.9219 167.844 49.5312V50.3359H161.312V48.9844H165.984V48.8359C165.974 48.4974 165.906 48.1797 165.781 47.8828C165.661 47.5859 165.477 47.3464 165.227 47.1641C164.977 46.9818 164.643 46.8906 164.227 46.8906C163.914 46.8906 163.635 46.9583 163.391 47.0938C163.151 47.224 162.951 47.4141 162.789 47.6641C162.628 47.9141 162.503 48.2161 162.414 48.5703C162.331 48.9193 162.289 49.3125 162.289 49.75V50.0625C162.289 50.4323 162.339 50.776 162.438 51.0938C162.542 51.4062 162.693 51.6797 162.891 51.9141C163.089 52.1484 163.328 52.3333 163.609 52.4688C163.891 52.599 164.211 52.6641 164.57 52.6641C165.023 52.6641 165.427 52.5729 165.781 52.3906C166.135 52.2083 166.443 51.9505 166.703 51.6172L167.695 52.5781C167.513 52.8438 167.276 53.099 166.984 53.3438C166.693 53.5833 166.336 53.7786 165.914 53.9297C165.497 54.0807 165.013 54.1562 164.461 54.1562ZM171.18 47.3516V54H169.297V45.5469H171.07L171.18 47.3516ZM170.844 49.4609L170.234 49.4531C170.24 48.8542 170.323 48.3047 170.484 47.8047C170.651 47.3047 170.88 46.875 171.172 46.5156C171.469 46.1562 171.823 45.8802 172.234 45.6875C172.646 45.4896 173.104 45.3906 173.609 45.3906C174.016 45.3906 174.383 45.4479 174.711 45.5625C175.044 45.6719 175.328 45.8516 175.562 46.1016C175.802 46.3516 175.984 46.6771 176.109 47.0781C176.234 47.474 176.297 47.9609 176.297 48.5391V54H174.406V48.5312C174.406 48.125 174.346 47.8047 174.227 47.5703C174.112 47.3307 173.943 47.1615 173.719 47.0625C173.5 46.9583 173.227 46.9062 172.898 46.9062C172.576 46.9062 172.286 46.974 172.031 47.1094C171.776 47.2448 171.56 47.4297 171.383 47.6641C171.211 47.8984 171.078 48.1693 170.984 48.4766C170.891 48.7839 170.844 49.112 170.844 49.4609ZM182.094 45.5469V46.9219H177.328V45.5469H182.094ZM178.703 43.4766H180.586V51.6641C180.586 51.9245 180.622 52.125 180.695 52.2656C180.773 52.401 180.88 52.4922 181.016 52.5391C181.151 52.5859 181.31 52.6094 181.492 52.6094C181.622 52.6094 181.747 52.6016 181.867 52.5859C181.987 52.5703 182.083 52.5547 182.156 52.5391L182.164 53.9766C182.008 54.0234 181.826 54.0651 181.617 54.1016C181.414 54.138 181.18 54.1562 180.914 54.1562C180.482 54.1562 180.099 54.0807 179.766 53.9297C179.432 53.7734 179.172 53.5208 178.984 53.1719C178.797 52.8229 178.703 52.3594 178.703 51.7812V43.4766ZM183 49.8672V49.6875C183 49.0781 183.089 48.513 183.266 47.9922C183.443 47.4661 183.698 47.0104 184.031 46.625C184.37 46.2344 184.781 45.9323 185.266 45.7188C185.755 45.5 186.307 45.3906 186.922 45.3906C187.542 45.3906 188.094 45.5 188.578 45.7188C189.068 45.9323 189.482 46.2344 189.82 46.625C190.159 47.0104 190.417 47.4661 190.594 47.9922C190.771 48.513 190.859 49.0781 190.859 49.6875V49.8672C190.859 50.4766 190.771 51.0417 190.594 51.5625C190.417 52.0833 190.159 52.5391 189.82 52.9297C189.482 53.3151 189.07 53.6172 188.586 53.8359C188.102 54.0495 187.552 54.1562 186.938 54.1562C186.318 54.1562 185.763 54.0495 185.273 53.8359C184.789 53.6172 184.378 53.3151 184.039 52.9297C183.701 52.5391 183.443 52.0833 183.266 51.5625C183.089 51.0417 183 50.4766 183 49.8672ZM184.883 49.6875V49.8672C184.883 50.2474 184.922 50.6068 185 50.9453C185.078 51.2839 185.201 51.5807 185.367 51.8359C185.534 52.0911 185.747 52.2917 186.008 52.4375C186.268 52.5833 186.578 52.6562 186.938 52.6562C187.286 52.6562 187.589 52.5833 187.844 52.4375C188.104 52.2917 188.318 52.0911 188.484 51.8359C188.651 51.5807 188.773 51.2839 188.852 50.9453C188.935 50.6068 188.977 50.2474 188.977 49.8672V49.6875C188.977 49.3125 188.935 48.9583 188.852 48.625C188.773 48.2865 188.648 47.987 188.477 47.7266C188.31 47.4661 188.096 47.263 187.836 47.1172C187.581 46.9661 187.276 46.8906 186.922 46.8906C186.568 46.8906 186.26 46.9661 186 47.1172C185.745 47.263 185.534 47.4661 185.367 47.7266C185.201 47.987 185.078 48.2865 185 48.625C184.922 48.9583 184.883 49.3125 184.883 49.6875Z" fill="#465A64"/>
<path d="M28 43H36V35H28V43ZM28 53H36V45H28V53ZM28 33H36V25H28V33ZM38 43H64V35H38V43ZM38 53H64V45H38V53ZM38 25V33H64V25H38Z" fill="#F31624"/>
<path d="M0 79H225L222.5 85L225 89.8L222.5 94.8333L225 99.4L222.5 104.667L225 109L222.5 114.5H3L0 109.857L3 104.381L0 99.5714L3 94.2619L0 89.2857L3 84.1429L0 79Z" fill="#465A64"/>
<path fill-rule="evenodd" clip-rule="evenodd" d="M122.144 102.072V89.4846C122.144 85.183 126.64 84.2775 129.864 85.5V87.8998C127.639 86.9942 125.141 87.2206 125.141 89.9827H128.729V92.3825H125.141V102.027L122.144 102.072Z" fill="#F6F6F6"/>
<path fill-rule="evenodd" clip-rule="evenodd" d="M136.449 88.127H138.674L139.128 89.9834H141.898V92.3832H139.446V97.9526C139.446 99.0846 139.946 99.6279 140.899 99.6279H142.443V102.028H139.446C137.448 102.028 136.403 100.941 136.403 98.8129V88.127H136.449Z" fill="#F6F6F6"/>
<path d="M134.133 89.9824H131.09V102.027H134.133V89.9824Z" fill="#F6F6F6"/>
<path d="M134.133 85.6348H131.09V88.1251H134.133V85.6348Z" fill="#F6F6F6"/>
<path fill-rule="evenodd" clip-rule="evenodd" d="M145.033 102.027C142.353 106.238 137.675 109 132.317 109C126.958 109 122.28 106.238 119.601 102.027C122.734 104.925 127.276 106.691 132.317 106.691C137.358 106.736 141.899 104.925 145.033 102.027Z" fill="#F6F6F6"/>
<path d="M79.3633 99.2643V97.6343C80.2262 97.9965 81.2707 98.1776 82.4061 98.1776C83.2689 98.1776 83.6777 97.9059 83.6777 97.3626C83.6777 96.8645 83.4052 96.5928 82.8148 96.5928H81.4069C79.8174 96.5928 79 95.7778 79 94.193C79 92.563 80.1808 91.7479 82.4969 91.7479C83.496 91.7479 84.4043 91.8838 85.3126 92.2007V93.8308C84.4497 93.4686 83.496 93.2874 82.4515 93.2874C81.3615 93.2874 80.862 93.5591 80.862 94.1025C80.862 94.6005 81.1799 94.8722 81.8157 94.8722H83.0873C84.813 94.8722 85.7213 95.6872 85.7213 97.272C85.7213 98.9021 84.586 99.7171 82.3607 99.7171C81.2253 99.7171 80.2716 99.536 79.3633 99.2643V99.2643ZM87.0383 99.6266V91.7932H88.5824L88.8095 92.7894C89.7178 92.1102 90.6261 91.7932 91.4889 91.7932C92.488 91.7932 93.1693 92.1555 93.578 92.8799C94.5771 92.1555 95.5308 91.7932 96.3937 91.7932C98.074 91.7932 98.8915 92.7894 98.8915 94.7817V99.6266H96.8932V94.6911C96.8932 93.8308 96.5299 93.378 95.8033 93.378C95.2129 93.378 94.5771 93.695 93.9413 94.3741V99.6266H91.9431V94.6911C91.9431 93.7855 91.5798 93.378 90.8531 93.378C90.2173 93.378 89.5815 93.695 88.9911 94.3741V99.6266H87.0383ZM100.39 97.1815C100.39 95.5514 101.525 94.7817 103.796 94.7817C104.477 94.7817 105.113 94.8269 105.613 94.9175V94.4194C105.613 93.7402 104.932 93.378 103.569 93.378C102.706 93.378 101.843 93.5138 101.026 93.7402V92.1554C101.889 91.9291 102.752 91.7932 103.569 91.7932C106.249 91.7932 107.611 92.6535 107.611 94.3741V99.6266H106.612L105.749 99.0832C105.068 99.4454 104.341 99.6266 103.569 99.6266C101.435 99.6266 100.39 98.8115 100.39 97.1815V97.1815ZM105.613 96.4117C105.113 96.3212 104.523 96.2759 103.796 96.2759C102.843 96.2759 102.343 96.5928 102.343 97.1815C102.343 97.7701 102.752 98.0871 103.524 98.0871C104.341 98.0871 105.022 97.8607 105.567 97.4531V96.4117H105.613ZM109.564 99.6266V91.7932H111.108L111.335 92.7894C112.016 92.1102 112.743 91.7932 113.515 91.7932V93.378C112.788 93.378 112.107 93.695 111.517 94.3741V99.6266H109.564ZM114.741 90.5254H116.194L116.512 91.7932H118.329V93.378H116.739V97.0003C116.739 97.7248 117.057 98.0871 117.693 98.0871H118.329V99.6718H116.694C115.377 99.6718 114.696 98.9474 114.696 97.5437V90.5254H114.741Z" fill="white"/>
</svg>
