<svg width="225" height="115" viewBox="0 0 225 115" fill="none" xmlns="http://www.w3.org/2000/svg">
<path d="M0 0H225L221.646 4.78788L225 9.875L221.646 14.3636L225 19.75L221.646 23.0417L225 29.625L221.646 32.9167L225 39.5L221.646 43.0909L225 49.375L221.646 53.2652L225 59.25L221.646 63.7386L225 69.125L221.646 73.9129L225 79H0L3.35366 73.9129L0 68.8258L3.35366 63.7386L0 58.6515L3.35366 53.2652L0 48.4773L3.35366 43.0909L0 38.303L3.35366 32.9167L0 28.7273L3.35366 23.0417L0 19.1515L3.35366 14.3636L0 9.57576L3.35366 4.78788L0 0Z" fill="#FEE8E9"/>
<path d="M91.8359 23.625V35H89.8906V23.625H91.8359ZM95.4062 23.625V25.1875H86.3516V23.625H95.4062ZM99.6953 35.1562C99.0703 35.1562 98.5052 35.0547 98 34.8516C97.5 34.6432 97.0729 34.3542 96.7188 33.9844C96.3698 33.6146 96.1016 33.1797 95.9141 32.6797C95.7266 32.1797 95.6328 31.6406 95.6328 31.0625V30.75C95.6328 30.0885 95.7292 29.4896 95.9219 28.9531C96.1146 28.4167 96.3828 27.9583 96.7266 27.5781C97.0703 27.1927 97.4766 26.8984 97.9453 26.6953C98.4141 26.4922 98.9219 26.3906 99.4688 26.3906C100.073 26.3906 100.602 26.4922 101.055 26.6953C101.508 26.8984 101.883 27.1849 102.18 27.5547C102.482 27.9193 102.706 28.3542 102.852 28.8594C103.003 29.3646 103.078 29.9219 103.078 30.5312V31.3359H96.5469V29.9844H101.219V29.8359C101.208 29.4974 101.141 29.1797 101.016 28.8828C100.896 28.5859 100.711 28.3464 100.461 28.1641C100.211 27.9818 99.8776 27.8906 99.4609 27.8906C99.1484 27.8906 98.8698 27.9583 98.625 28.0938C98.3854 28.224 98.1849 28.4141 98.0234 28.6641C97.862 28.9141 97.737 29.2161 97.6484 29.5703C97.5651 29.9193 97.5234 30.3125 97.5234 30.75V31.0625C97.5234 31.4323 97.5729 31.776 97.6719 32.0938C97.776 32.4062 97.9271 32.6797 98.125 32.9141C98.3229 33.1484 98.5625 33.3333 98.8438 33.4688C99.125 33.599 99.4453 33.6641 99.8047 33.6641C100.258 33.6641 100.661 33.5729 101.016 33.3906C101.37 33.2083 101.677 32.9505 101.938 32.6172L102.93 33.5781C102.747 33.8438 102.51 34.099 102.219 34.3438C101.927 34.5833 101.57 34.7786 101.148 34.9297C100.732 35.0807 100.247 35.1562 99.6953 35.1562ZM109.289 32.7109C109.289 32.5234 109.242 32.3542 109.148 32.2031C109.055 32.0469 108.875 31.9062 108.609 31.7812C108.349 31.6562 107.964 31.5417 107.453 31.4375C107.005 31.3385 106.594 31.2214 106.219 31.0859C105.849 30.9453 105.531 30.776 105.266 30.5781C105 30.3802 104.794 30.1458 104.648 29.875C104.503 29.6042 104.43 29.2917 104.43 28.9375C104.43 28.5938 104.505 28.2682 104.656 27.9609C104.807 27.6536 105.023 27.3828 105.305 27.1484C105.586 26.9141 105.927 26.7292 106.328 26.5938C106.734 26.4583 107.188 26.3906 107.688 26.3906C108.396 26.3906 109.003 26.5104 109.508 26.75C110.018 26.9844 110.409 27.3047 110.68 27.7109C110.951 28.112 111.086 28.5651 111.086 29.0703H109.203C109.203 28.8464 109.146 28.638 109.031 28.4453C108.922 28.2474 108.755 28.0885 108.531 27.9688C108.307 27.8438 108.026 27.7812 107.688 27.7812C107.365 27.7812 107.096 27.8333 106.883 27.9375C106.674 28.0365 106.518 28.1667 106.414 28.3281C106.315 28.4896 106.266 28.6667 106.266 28.8594C106.266 29 106.292 29.1276 106.344 29.2422C106.401 29.3516 106.495 29.4531 106.625 29.5469C106.755 29.6354 106.932 29.7188 107.156 29.7969C107.385 29.875 107.672 29.9505 108.016 30.0234C108.661 30.1589 109.216 30.3333 109.68 30.5469C110.148 30.7552 110.508 31.026 110.758 31.3594C111.008 31.6875 111.133 32.1042 111.133 32.6094C111.133 32.9844 111.052 33.3281 110.891 33.6406C110.734 33.9479 110.505 34.2161 110.203 34.4453C109.901 34.6693 109.539 34.8438 109.117 34.9688C108.701 35.0938 108.232 35.1562 107.711 35.1562C106.945 35.1562 106.297 35.0208 105.766 34.75C105.234 34.474 104.831 34.1224 104.555 33.6953C104.284 33.263 104.148 32.8151 104.148 32.3516H105.969C105.99 32.7005 106.086 32.9792 106.258 33.1875C106.435 33.3906 106.654 33.5391 106.914 33.6328C107.18 33.7214 107.453 33.7656 107.734 33.7656C108.073 33.7656 108.357 33.7214 108.586 33.6328C108.815 33.5391 108.99 33.4141 109.109 33.2578C109.229 33.0964 109.289 32.9141 109.289 32.7109ZM116.656 26.5469V27.9219H111.891V26.5469H116.656ZM113.266 24.4766H115.148V32.6641C115.148 32.9245 115.185 33.125 115.258 33.2656C115.336 33.401 115.443 33.4922 115.578 33.5391C115.714 33.5859 115.872 33.6094 116.055 33.6094C116.185 33.6094 116.31 33.6016 116.43 33.5859C116.549 33.5703 116.646 33.5547 116.719 33.5391L116.727 34.9766C116.57 35.0234 116.388 35.0651 116.18 35.1016C115.977 35.138 115.742 35.1562 115.477 35.1562C115.044 35.1562 114.661 35.0807 114.328 34.9297C113.995 34.7734 113.734 34.5208 113.547 34.1719C113.359 33.8229 113.266 33.3594 113.266 32.7812V24.4766ZM121.836 35.1562C121.211 35.1562 120.646 35.0547 120.141 34.8516C119.641 34.6432 119.214 34.3542 118.859 33.9844C118.51 33.6146 118.242 33.1797 118.055 32.6797C117.867 32.1797 117.773 31.6406 117.773 31.0625V30.75C117.773 30.0885 117.87 29.4896 118.062 28.9531C118.255 28.4167 118.523 27.9583 118.867 27.5781C119.211 27.1927 119.617 26.8984 120.086 26.6953C120.555 26.4922 121.062 26.3906 121.609 26.3906C122.214 26.3906 122.742 26.4922 123.195 26.6953C123.648 26.8984 124.023 27.1849 124.32 27.5547C124.622 27.9193 124.846 28.3542 124.992 28.8594C125.143 29.3646 125.219 29.9219 125.219 30.5312V31.3359H118.688V29.9844H123.359V29.8359C123.349 29.4974 123.281 29.1797 123.156 28.8828C123.036 28.5859 122.852 28.3464 122.602 28.1641C122.352 27.9818 122.018 27.8906 121.602 27.8906C121.289 27.8906 121.01 27.9583 120.766 28.0938C120.526 28.224 120.326 28.4141 120.164 28.6641C120.003 28.9141 119.878 29.2161 119.789 29.5703C119.706 29.9193 119.664 30.3125 119.664 30.75V31.0625C119.664 31.4323 119.714 31.776 119.812 32.0938C119.917 32.4062 120.068 32.6797 120.266 32.9141C120.464 33.1484 120.703 33.3333 120.984 33.4688C121.266 33.599 121.586 33.6641 121.945 33.6641C122.398 33.6641 122.802 33.5729 123.156 33.3906C123.51 33.2083 123.818 32.9505 124.078 32.6172L125.07 33.5781C124.888 33.8438 124.651 34.099 124.359 34.3438C124.068 34.5833 123.711 34.7786 123.289 34.9297C122.872 35.0807 122.388 35.1562 121.836 35.1562ZM135.828 33.25V23H137.719V35H136.008L135.828 33.25ZM130.328 30.8672V30.7031C130.328 30.0625 130.404 29.4792 130.555 28.9531C130.706 28.4219 130.924 27.9661 131.211 27.5859C131.497 27.2005 131.846 26.9062 132.258 26.7031C132.669 26.4948 133.133 26.3906 133.648 26.3906C134.159 26.3906 134.607 26.4896 134.992 26.6875C135.378 26.8854 135.706 27.1693 135.977 27.5391C136.247 27.9036 136.464 28.3411 136.625 28.8516C136.786 29.3568 136.901 29.9193 136.969 30.5391V31.0625C136.901 31.6667 136.786 32.2188 136.625 32.7188C136.464 33.2188 136.247 33.651 135.977 34.0156C135.706 34.3802 135.375 34.6615 134.984 34.8594C134.599 35.0573 134.148 35.1562 133.633 35.1562C133.122 35.1562 132.661 35.0495 132.25 34.8359C131.844 34.6224 131.497 34.3229 131.211 33.9375C130.924 33.5521 130.706 33.099 130.555 32.5781C130.404 32.0521 130.328 31.4818 130.328 30.8672ZM132.211 30.7031V30.8672C132.211 31.2526 132.245 31.612 132.312 31.9453C132.385 32.2786 132.497 32.5729 132.648 32.8281C132.799 33.0781 132.995 33.276 133.234 33.4219C133.479 33.5625 133.771 33.6328 134.109 33.6328C134.536 33.6328 134.888 33.5391 135.164 33.3516C135.44 33.1641 135.656 32.9115 135.812 32.5938C135.974 32.2708 136.083 31.9115 136.141 31.5156V30.1016C136.109 29.7943 136.044 29.5078 135.945 29.2422C135.852 28.9766 135.724 28.7448 135.562 28.5469C135.401 28.3438 135.201 28.1875 134.961 28.0781C134.727 27.9635 134.448 27.9062 134.125 27.9062C133.781 27.9062 133.49 27.9792 133.25 28.125C133.01 28.2708 132.812 28.4714 132.656 28.7266C132.505 28.9818 132.393 29.2786 132.32 29.6172C132.247 29.9557 132.211 30.3177 132.211 30.7031ZM143.414 35.1562C142.789 35.1562 142.224 35.0547 141.719 34.8516C141.219 34.6432 140.792 34.3542 140.438 33.9844C140.089 33.6146 139.82 33.1797 139.633 32.6797C139.445 32.1797 139.352 31.6406 139.352 31.0625V30.75C139.352 30.0885 139.448 29.4896 139.641 28.9531C139.833 28.4167 140.102 27.9583 140.445 27.5781C140.789 27.1927 141.195 26.8984 141.664 26.6953C142.133 26.4922 142.641 26.3906 143.188 26.3906C143.792 26.3906 144.32 26.4922 144.773 26.6953C145.227 26.8984 145.602 27.1849 145.898 27.5547C146.201 27.9193 146.424 28.3542 146.57 28.8594C146.721 29.3646 146.797 29.9219 146.797 30.5312V31.3359H140.266V29.9844H144.938V29.8359C144.927 29.4974 144.859 29.1797 144.734 28.8828C144.615 28.5859 144.43 28.3464 144.18 28.1641C143.93 27.9818 143.596 27.8906 143.18 27.8906C142.867 27.8906 142.589 27.9583 142.344 28.0938C142.104 28.224 141.904 28.4141 141.742 28.6641C141.581 28.9141 141.456 29.2161 141.367 29.5703C141.284 29.9193 141.242 30.3125 141.242 30.75V31.0625C141.242 31.4323 141.292 31.776 141.391 32.0938C141.495 32.4062 141.646 32.6797 141.844 32.9141C142.042 33.1484 142.281 33.3333 142.562 33.4688C142.844 33.599 143.164 33.6641 143.523 33.6641C143.977 33.6641 144.38 33.5729 144.734 33.3906C145.089 33.2083 145.396 32.9505 145.656 32.6172L146.648 33.5781C146.466 33.8438 146.229 34.099 145.938 34.3438C145.646 34.5833 145.289 34.7786 144.867 34.9297C144.451 35.0807 143.966 35.1562 143.414 35.1562ZM86.9766 42H88.8594V52.1953L88.6797 54H86.9766V42ZM94.375 49.6953V49.8594C94.375 50.4844 94.3047 51.0599 94.1641 51.5859C94.0286 52.1068 93.8203 52.5599 93.5391 52.9453C93.263 53.3307 92.9193 53.6302 92.5078 53.8438C92.1016 54.0521 91.6302 54.1562 91.0938 54.1562C90.5677 54.1562 90.1094 54.0573 89.7188 53.8594C89.3281 53.6615 89 53.3802 88.7344 53.0156C88.474 52.651 88.263 52.2161 88.1016 51.7109C87.9401 51.2057 87.8255 50.6484 87.7578 50.0391V49.5156C87.8255 48.901 87.9401 48.3438 88.1016 47.8438C88.263 47.3385 88.474 46.9036 88.7344 46.5391C89 46.1693 89.3255 45.8854 89.7109 45.6875C90.1016 45.4896 90.5573 45.3906 91.0781 45.3906C91.6198 45.3906 92.0964 45.4948 92.5078 45.7031C92.9245 45.9115 93.2708 46.2083 93.5469 46.5938C93.8229 46.974 94.0286 47.4271 94.1641 47.9531C94.3047 48.4792 94.375 49.0599 94.375 49.6953ZM92.4922 49.8594V49.6953C92.4922 49.3151 92.4609 48.9583 92.3984 48.625C92.3359 48.2865 92.2318 47.9896 92.0859 47.7344C91.9453 47.4792 91.7526 47.2786 91.5078 47.1328C91.2682 46.9818 90.9688 46.9062 90.6094 46.9062C90.276 46.9062 89.9896 46.9635 89.75 47.0781C89.5104 47.1927 89.3099 47.349 89.1484 47.5469C88.987 47.7448 88.8594 47.974 88.7656 48.2344C88.6771 48.4948 88.6172 48.776 88.5859 49.0781V50.4922C88.6328 50.8828 88.7318 51.2422 88.8828 51.5703C89.0391 51.8932 89.2578 52.1536 89.5391 52.3516C89.8203 52.5443 90.1823 52.6406 90.625 52.6406C90.974 52.6406 91.2682 52.5703 91.5078 52.4297C91.7474 52.2891 91.9375 52.0938 92.0781 51.8438C92.224 51.5885 92.3281 51.2917 92.3906 50.9531C92.4583 50.6146 92.4922 50.25 92.4922 49.8594ZM97.9844 45.5469V54H96.0938V45.5469H97.9844ZM95.9688 43.3281C95.9688 43.0417 96.0625 42.8047 96.25 42.6172C96.4427 42.4245 96.7083 42.3281 97.0469 42.3281C97.3802 42.3281 97.6432 42.4245 97.8359 42.6172C98.0286 42.8047 98.125 43.0417 98.125 43.3281C98.125 43.6094 98.0286 43.8438 97.8359 44.0312C97.6432 44.2188 97.3802 44.3125 97.0469 44.3125C96.7083 44.3125 96.4427 44.2188 96.25 44.0312C96.0625 43.8438 95.9688 43.6094 95.9688 43.3281ZM99.6875 49.8672V49.6875C99.6875 49.0781 99.776 48.513 99.9531 47.9922C100.13 47.4661 100.385 47.0104 100.719 46.625C101.057 46.2344 101.469 45.9323 101.953 45.7188C102.443 45.5 102.995 45.3906 103.609 45.3906C104.229 45.3906 104.781 45.5 105.266 45.7188C105.755 45.9323 106.169 46.2344 106.508 46.625C106.846 47.0104 107.104 47.4661 107.281 47.9922C107.458 48.513 107.547 49.0781 107.547 49.6875V49.8672C107.547 50.4766 107.458 51.0417 107.281 51.5625C107.104 52.0833 106.846 52.5391 106.508 52.9297C106.169 53.3151 105.758 53.6172 105.273 53.8359C104.789 54.0495 104.24 54.1562 103.625 54.1562C103.005 54.1562 102.451 54.0495 101.961 53.8359C101.477 53.6172 101.065 53.3151 100.727 52.9297C100.388 52.5391 100.13 52.0833 99.9531 51.5625C99.776 51.0417 99.6875 50.4766 99.6875 49.8672ZM101.57 49.6875V49.8672C101.57 50.2474 101.609 50.6068 101.688 50.9453C101.766 51.2839 101.888 51.5807 102.055 51.8359C102.221 52.0911 102.435 52.2917 102.695 52.4375C102.956 52.5833 103.266 52.6562 103.625 52.6562C103.974 52.6562 104.276 52.5833 104.531 52.4375C104.792 52.2917 105.005 52.0911 105.172 51.8359C105.339 51.5807 105.461 51.2839 105.539 50.9453C105.622 50.6068 105.664 50.2474 105.664 49.8672V49.6875C105.664 49.3125 105.622 48.9583 105.539 48.625C105.461 48.2865 105.336 47.987 105.164 47.7266C104.997 47.4661 104.784 47.263 104.523 47.1172C104.268 46.9661 103.964 46.8906 103.609 46.8906C103.255 46.8906 102.948 46.9661 102.688 47.1172C102.432 47.263 102.221 47.4661 102.055 47.7266C101.888 47.987 101.766 48.2865 101.688 48.625C101.609 48.9583 101.57 49.3125 101.57 49.6875ZM111.141 45.5469V54H109.25V45.5469H111.141ZM109.125 43.3281C109.125 43.0417 109.219 42.8047 109.406 42.6172C109.599 42.4245 109.865 42.3281 110.203 42.3281C110.536 42.3281 110.799 42.4245 110.992 42.6172C111.185 42.8047 111.281 43.0417 111.281 43.3281C111.281 43.6094 111.185 43.8438 110.992 44.0312C110.799 44.2188 110.536 44.3125 110.203 44.3125C109.865 44.3125 109.599 44.2188 109.406 44.0312C109.219 43.8438 109.125 43.6094 109.125 43.3281ZM115.086 47.2656V54H113.203V45.5469H114.977L115.086 47.2656ZM114.781 49.4609L114.141 49.4531C114.141 48.8698 114.214 48.3307 114.359 47.8359C114.505 47.3411 114.719 46.9115 115 46.5469C115.281 46.1771 115.63 45.8932 116.047 45.6953C116.469 45.4922 116.956 45.3906 117.508 45.3906C117.893 45.3906 118.245 45.4479 118.562 45.5625C118.885 45.6719 119.164 45.8464 119.398 46.0859C119.638 46.3255 119.82 46.6328 119.945 47.0078C120.076 47.3828 120.141 47.8359 120.141 48.3672V54H118.258V48.5312C118.258 48.1198 118.195 47.7969 118.07 47.5625C117.951 47.3281 117.776 47.1615 117.547 47.0625C117.323 46.9583 117.055 46.9062 116.742 46.9062C116.388 46.9062 116.086 46.974 115.836 47.1094C115.591 47.2448 115.391 47.4297 115.234 47.6641C115.078 47.8984 114.964 48.1693 114.891 48.4766C114.818 48.7839 114.781 49.112 114.781 49.4609ZM120.023 48.9609L119.141 49.1562C119.141 48.6458 119.211 48.1641 119.352 47.7109C119.497 47.2526 119.708 46.8516 119.984 46.5078C120.266 46.1589 120.612 45.8854 121.023 45.6875C121.435 45.4896 121.906 45.3906 122.438 45.3906C122.87 45.3906 123.255 45.4505 123.594 45.5703C123.938 45.6849 124.229 45.8672 124.469 46.1172C124.708 46.3672 124.891 46.6927 125.016 47.0938C125.141 47.4896 125.203 47.9688 125.203 48.5312V54H123.312V48.5234C123.312 48.0964 123.25 47.7656 123.125 47.5312C123.005 47.2969 122.833 47.1354 122.609 47.0469C122.385 46.9531 122.117 46.9062 121.805 46.9062C121.513 46.9062 121.255 46.9609 121.031 47.0703C120.812 47.1745 120.628 47.3229 120.477 47.5156C120.326 47.7031 120.211 47.9193 120.133 48.1641C120.06 48.4089 120.023 48.6745 120.023 48.9609ZM129.031 47.1719V57.25H127.148V45.5469H128.883L129.031 47.1719ZM134.539 49.6953V49.8594C134.539 50.474 134.466 51.0443 134.32 51.5703C134.18 52.0911 133.969 52.5469 133.688 52.9375C133.411 53.3229 133.07 53.6224 132.664 53.8359C132.258 54.0495 131.789 54.1562 131.258 54.1562C130.732 54.1562 130.271 54.0599 129.875 53.8672C129.484 53.6693 129.154 53.3906 128.883 53.0312C128.612 52.6719 128.393 52.25 128.227 51.7656C128.065 51.276 127.951 50.7396 127.883 50.1562V49.5234C127.951 48.9036 128.065 48.3411 128.227 47.8359C128.393 47.3307 128.612 46.8958 128.883 46.5312C129.154 46.1667 129.484 45.8854 129.875 45.6875C130.266 45.4896 130.721 45.3906 131.242 45.3906C131.773 45.3906 132.245 45.4948 132.656 45.7031C133.068 45.9062 133.414 46.1979 133.695 46.5781C133.977 46.9531 134.188 47.4062 134.328 47.9375C134.469 48.4635 134.539 49.0495 134.539 49.6953ZM132.656 49.8594V49.6953C132.656 49.3047 132.62 48.9427 132.547 48.6094C132.474 48.2708 132.359 47.974 132.203 47.7188C132.047 47.4635 131.846 47.2656 131.602 47.125C131.362 46.9792 131.073 46.9062 130.734 46.9062C130.401 46.9062 130.115 46.9635 129.875 47.0781C129.635 47.1875 129.435 47.3411 129.273 47.5391C129.112 47.737 128.987 47.9688 128.898 48.2344C128.81 48.4948 128.747 48.7786 128.711 49.0859V50.6016C128.773 50.9766 128.88 51.3203 129.031 51.6328C129.182 51.9453 129.396 52.1953 129.672 52.3828C129.953 52.5651 130.312 52.6562 130.75 52.6562C131.089 52.6562 131.378 52.5833 131.617 52.4375C131.857 52.2917 132.052 52.0911 132.203 51.8359C132.359 51.5755 132.474 51.276 132.547 50.9375C132.62 50.599 132.656 50.2396 132.656 49.8594ZM139.867 54.1562C139.242 54.1562 138.677 54.0547 138.172 53.8516C137.672 53.6432 137.245 53.3542 136.891 52.9844C136.542 52.6146 136.273 52.1797 136.086 51.6797C135.898 51.1797 135.805 50.6406 135.805 50.0625V49.75C135.805 49.0885 135.901 48.4896 136.094 47.9531C136.286 47.4167 136.555 46.9583 136.898 46.5781C137.242 46.1927 137.648 45.8984 138.117 45.6953C138.586 45.4922 139.094 45.3906 139.641 45.3906C140.245 45.3906 140.773 45.4922 141.227 45.6953C141.68 45.8984 142.055 46.1849 142.352 46.5547C142.654 46.9193 142.878 47.3542 143.023 47.8594C143.174 48.3646 143.25 48.9219 143.25 49.5312V50.3359H136.719V48.9844H141.391V48.8359C141.38 48.4974 141.312 48.1797 141.188 47.8828C141.068 47.5859 140.883 47.3464 140.633 47.1641C140.383 46.9818 140.049 46.8906 139.633 46.8906C139.32 46.8906 139.042 46.9583 138.797 47.0938C138.557 47.224 138.357 47.4141 138.195 47.6641C138.034 47.9141 137.909 48.2161 137.82 48.5703C137.737 48.9193 137.695 49.3125 137.695 49.75V50.0625C137.695 50.4323 137.745 50.776 137.844 51.0938C137.948 51.4062 138.099 51.6797 138.297 51.9141C138.495 52.1484 138.734 52.3333 139.016 52.4688C139.297 52.599 139.617 52.6641 139.977 52.6641C140.43 52.6641 140.833 52.5729 141.188 52.3906C141.542 52.2083 141.849 51.9505 142.109 51.6172L143.102 52.5781C142.919 52.8438 142.682 53.099 142.391 53.3438C142.099 53.5833 141.742 53.7786 141.32 53.9297C140.904 54.0807 140.419 54.1562 139.867 54.1562ZM149.875 52.25V42H151.766V54H150.055L149.875 52.25ZM144.375 49.8672V49.7031C144.375 49.0625 144.451 48.4792 144.602 47.9531C144.753 47.4219 144.971 46.9661 145.258 46.5859C145.544 46.2005 145.893 45.9062 146.305 45.7031C146.716 45.4948 147.18 45.3906 147.695 45.3906C148.206 45.3906 148.654 45.4896 149.039 45.6875C149.424 45.8854 149.753 46.1693 150.023 46.5391C150.294 46.9036 150.51 47.3411 150.672 47.8516C150.833 48.3568 150.948 48.9193 151.016 49.5391V50.0625C150.948 50.6667 150.833 51.2188 150.672 51.7188C150.51 52.2188 150.294 52.651 150.023 53.0156C149.753 53.3802 149.422 53.6615 149.031 53.8594C148.646 54.0573 148.195 54.1562 147.68 54.1562C147.169 54.1562 146.708 54.0495 146.297 53.8359C145.891 53.6224 145.544 53.3229 145.258 52.9375C144.971 52.5521 144.753 52.099 144.602 51.5781C144.451 51.0521 144.375 50.4818 144.375 49.8672ZM146.258 49.7031V49.8672C146.258 50.2526 146.292 50.612 146.359 50.9453C146.432 51.2786 146.544 51.5729 146.695 51.8281C146.846 52.0781 147.042 52.276 147.281 52.4219C147.526 52.5625 147.818 52.6328 148.156 52.6328C148.583 52.6328 148.935 52.5391 149.211 52.3516C149.487 52.1641 149.703 51.9115 149.859 51.5938C150.021 51.2708 150.13 50.9115 150.188 50.5156V49.1016C150.156 48.7943 150.091 48.5078 149.992 48.2422C149.898 47.9766 149.771 47.7448 149.609 47.5469C149.448 47.3438 149.247 47.1875 149.008 47.0781C148.773 46.9635 148.495 46.9062 148.172 46.9062C147.828 46.9062 147.536 46.9792 147.297 47.125C147.057 47.2708 146.859 47.4714 146.703 47.7266C146.552 47.9818 146.44 48.2786 146.367 48.6172C146.294 48.9557 146.258 49.3177 146.258 49.7031ZM158.5 52.3047V48.2734C158.5 47.9714 158.445 47.7109 158.336 47.4922C158.227 47.2734 158.06 47.1042 157.836 46.9844C157.617 46.8646 157.341 46.8047 157.008 46.8047C156.701 46.8047 156.435 46.8568 156.211 46.9609C155.987 47.0651 155.812 47.2057 155.688 47.3828C155.562 47.5599 155.5 47.7604 155.5 47.9844H153.625C153.625 47.651 153.706 47.3281 153.867 47.0156C154.029 46.7031 154.263 46.4245 154.57 46.1797C154.878 45.9349 155.245 45.7422 155.672 45.6016C156.099 45.4609 156.578 45.3906 157.109 45.3906C157.745 45.3906 158.307 45.4974 158.797 45.7109C159.292 45.9245 159.68 46.2474 159.961 46.6797C160.247 47.1068 160.391 47.6432 160.391 48.2891V52.0469C160.391 52.4323 160.417 52.7786 160.469 53.0859C160.526 53.388 160.607 53.651 160.711 53.875V54H158.781C158.693 53.7969 158.622 53.5391 158.57 53.2266C158.523 52.9089 158.5 52.6016 158.5 52.3047ZM158.773 48.8594L158.789 50.0234H157.438C157.089 50.0234 156.781 50.0573 156.516 50.125C156.25 50.1875 156.029 50.2812 155.852 50.4062C155.674 50.5312 155.542 50.6823 155.453 50.8594C155.365 51.0365 155.32 51.237 155.32 51.4609C155.32 51.6849 155.372 51.8906 155.477 52.0781C155.581 52.2604 155.732 52.4036 155.93 52.5078C156.133 52.612 156.378 52.6641 156.664 52.6641C157.049 52.6641 157.385 52.5859 157.672 52.4297C157.964 52.2682 158.193 52.0729 158.359 51.8438C158.526 51.6094 158.615 51.388 158.625 51.1797L159.234 52.0156C159.172 52.2292 159.065 52.4583 158.914 52.7031C158.763 52.9479 158.565 53.1823 158.32 53.4062C158.081 53.625 157.792 53.8047 157.453 53.9453C157.12 54.0859 156.734 54.1562 156.297 54.1562C155.745 54.1562 155.253 54.0469 154.82 53.8281C154.388 53.6042 154.049 53.3047 153.805 52.9297C153.56 52.5495 153.438 52.1198 153.438 51.6406C153.438 51.1927 153.521 50.7969 153.688 50.4531C153.859 50.1042 154.109 49.8125 154.438 49.5781C154.771 49.3438 155.177 49.1667 155.656 49.0469C156.135 48.9219 156.682 48.8594 157.297 48.8594H158.773ZM157.734 42L159.898 44.1562V44.2422H158.375L157.18 43.0156L155.984 44.2422H154.492V44.1406L156.625 42H157.734ZM164.227 47.3516V54H162.344V45.5469H164.117L164.227 47.3516ZM163.891 49.4609L163.281 49.4531C163.286 48.8542 163.37 48.3047 163.531 47.8047C163.698 47.3047 163.927 46.875 164.219 46.5156C164.516 46.1562 164.87 45.8802 165.281 45.6875C165.693 45.4896 166.151 45.3906 166.656 45.3906C167.062 45.3906 167.43 45.4479 167.758 45.5625C168.091 45.6719 168.375 45.8516 168.609 46.1016C168.849 46.3516 169.031 46.6771 169.156 47.0781C169.281 47.474 169.344 47.9609 169.344 48.5391V54H167.453V48.5312C167.453 48.125 167.393 47.8047 167.273 47.5703C167.159 47.3307 166.99 47.1615 166.766 47.0625C166.547 46.9583 166.273 46.9062 165.945 46.9062C165.622 46.9062 165.333 46.974 165.078 47.1094C164.823 47.2448 164.607 47.4297 164.43 47.6641C164.258 47.8984 164.125 48.1693 164.031 48.4766C163.938 48.7839 163.891 49.112 163.891 49.4609ZM174.719 52.6562C175.026 52.6562 175.302 52.5964 175.547 52.4766C175.797 52.3516 175.997 52.1797 176.148 51.9609C176.305 51.7422 176.391 51.4896 176.406 51.2031H178.18C178.169 51.75 178.008 52.2474 177.695 52.6953C177.383 53.1432 176.969 53.5 176.453 53.7656C175.938 54.026 175.367 54.1562 174.742 54.1562C174.096 54.1562 173.534 54.0469 173.055 53.8281C172.576 53.6042 172.177 53.2969 171.859 52.9062C171.542 52.5156 171.302 52.0651 171.141 51.5547C170.984 51.0443 170.906 50.4974 170.906 49.9141V49.6406C170.906 49.0573 170.984 48.5104 171.141 48C171.302 47.4844 171.542 47.0312 171.859 46.6406C172.177 46.25 172.576 45.9453 173.055 45.7266C173.534 45.5026 174.094 45.3906 174.734 45.3906C175.411 45.3906 176.005 45.526 176.516 45.7969C177.026 46.0625 177.427 46.4349 177.719 46.9141C178.016 47.388 178.169 47.9401 178.18 48.5703H176.406C176.391 48.2578 176.312 47.9766 176.172 47.7266C176.036 47.4714 175.844 47.2682 175.594 47.1172C175.349 46.9661 175.055 46.8906 174.711 46.8906C174.331 46.8906 174.016 46.9688 173.766 47.125C173.516 47.276 173.32 47.4844 173.18 47.75C173.039 48.0104 172.938 48.3047 172.875 48.6328C172.818 48.9557 172.789 49.2917 172.789 49.6406V49.9141C172.789 50.263 172.818 50.6016 172.875 50.9297C172.932 51.2578 173.031 51.5521 173.172 51.8125C173.318 52.0677 173.516 52.2734 173.766 52.4297C174.016 52.5807 174.333 52.6562 174.719 52.6562ZM181.641 45.5469V54H179.75V45.5469H181.641ZM179.625 43.3281C179.625 43.0417 179.719 42.8047 179.906 42.6172C180.099 42.4245 180.365 42.3281 180.703 42.3281C181.036 42.3281 181.299 42.4245 181.492 42.6172C181.685 42.8047 181.781 43.0417 181.781 43.3281C181.781 43.6094 181.685 43.8438 181.492 44.0312C181.299 44.2188 181.036 44.3125 180.703 44.3125C180.365 44.3125 180.099 44.2188 179.906 44.0312C179.719 43.8438 179.625 43.6094 179.625 43.3281ZM188.469 52.3047V48.2734C188.469 47.9714 188.414 47.7109 188.305 47.4922C188.195 47.2734 188.029 47.1042 187.805 46.9844C187.586 46.8646 187.31 46.8047 186.977 46.8047C186.669 46.8047 186.404 46.8568 186.18 46.9609C185.956 47.0651 185.781 47.2057 185.656 47.3828C185.531 47.5599 185.469 47.7604 185.469 47.9844H183.594C183.594 47.651 183.674 47.3281 183.836 47.0156C183.997 46.7031 184.232 46.4245 184.539 46.1797C184.846 45.9349 185.214 45.7422 185.641 45.6016C186.068 45.4609 186.547 45.3906 187.078 45.3906C187.714 45.3906 188.276 45.4974 188.766 45.7109C189.26 45.9245 189.648 46.2474 189.93 46.6797C190.216 47.1068 190.359 47.6432 190.359 48.2891V52.0469C190.359 52.4323 190.385 52.7786 190.438 53.0859C190.495 53.388 190.576 53.651 190.68 53.875V54H188.75C188.661 53.7969 188.591 53.5391 188.539 53.2266C188.492 52.9089 188.469 52.6016 188.469 52.3047ZM188.742 48.8594L188.758 50.0234H187.406C187.057 50.0234 186.75 50.0573 186.484 50.125C186.219 50.1875 185.997 50.2812 185.82 50.4062C185.643 50.5312 185.51 50.6823 185.422 50.8594C185.333 51.0365 185.289 51.237 185.289 51.4609C185.289 51.6849 185.341 51.8906 185.445 52.0781C185.549 52.2604 185.701 52.4036 185.898 52.5078C186.102 52.612 186.346 52.6641 186.633 52.6641C187.018 52.6641 187.354 52.5859 187.641 52.4297C187.932 52.2682 188.161 52.0729 188.328 51.8438C188.495 51.6094 188.583 51.388 188.594 51.1797L189.203 52.0156C189.141 52.2292 189.034 52.4583 188.883 52.7031C188.732 52.9479 188.534 53.1823 188.289 53.4062C188.049 53.625 187.76 53.8047 187.422 53.9453C187.089 54.0859 186.703 54.1562 186.266 54.1562C185.714 54.1562 185.221 54.0469 184.789 53.8281C184.357 53.6042 184.018 53.3047 183.773 52.9297C183.529 52.5495 183.406 52.1198 183.406 51.6406C183.406 51.1927 183.49 50.7969 183.656 50.4531C183.828 50.1042 184.078 49.8125 184.406 49.5781C184.74 49.3438 185.146 49.1667 185.625 49.0469C186.104 48.9219 186.651 48.8594 187.266 48.8594H188.742Z" fill="#465A64"/>
<path d="M59 19H31C28.8 19 27 20.8 27 23V51C27 53.2 28.8 55 31 55H59C61.2 55 63 53.2 63 51V23C63 20.8 61.2 19 59 19ZM45 37C41.68 37 39 34.32 39 31C39 27.68 41.68 25 45 25C48.32 25 51 27.68 51 31C51 34.32 48.32 37 45 37Z" fill="#F31624"/>
<path d="M43.0151 29.998H41.0151V31.998H43.0151V29.998Z" fill="#F31624"/>
<path d="M46.0151 29.998H44.0151V31.998H46.0151V29.998Z" fill="#F31624"/>
<path d="M49.0151 29.998H47.0151V31.998H49.0151V29.998Z" fill="#F31624"/>
<path d="M0 79H225L222.5 85L225 89.8L222.5 94.8333L225 99.4L222.5 104.667L225 109L222.5 114.5H3L0 109.857L3 104.381L0 99.5714L3 94.2619L0 89.2857L3 84.1429L0 79Z" fill="#465A64"/>
<path fill-rule="evenodd" clip-rule="evenodd" d="M122.144 102.072V89.4846C122.144 85.183 126.64 84.2775 129.864 85.5V87.8998C127.639 86.9942 125.141 87.2206 125.141 89.9827H128.729V92.3825H125.141V102.027L122.144 102.072Z" fill="#F6F6F6"/>
<path fill-rule="evenodd" clip-rule="evenodd" d="M136.449 88.127H138.674L139.128 89.9834H141.898V92.3832H139.446V97.9526C139.446 99.0846 139.946 99.6279 140.899 99.6279H142.443V102.028H139.446C137.448 102.028 136.403 100.941 136.403 98.8129V88.127H136.449Z" fill="#F6F6F6"/>
<path d="M134.133 89.9824H131.09V102.027H134.133V89.9824Z" fill="#F6F6F6"/>
<path d="M134.133 85.6348H131.09V88.1251H134.133V85.6348Z" fill="#F6F6F6"/>
<path fill-rule="evenodd" clip-rule="evenodd" d="M145.033 102.027C142.353 106.238 137.675 109 132.317 109C126.958 109 122.28 106.238 119.601 102.027C122.734 104.925 127.276 106.691 132.317 106.691C137.358 106.736 141.899 104.925 145.033 102.027Z" fill="#F6F6F6"/>
<path d="M79.3633 99.2643V97.6343C80.2262 97.9965 81.2707 98.1776 82.4061 98.1776C83.2689 98.1776 83.6777 97.9059 83.6777 97.3626C83.6777 96.8645 83.4052 96.5928 82.8148 96.5928H81.4069C79.8174 96.5928 79 95.7778 79 94.193C79 92.563 80.1808 91.7479 82.4969 91.7479C83.496 91.7479 84.4043 91.8838 85.3126 92.2007V93.8308C84.4497 93.4686 83.496 93.2874 82.4515 93.2874C81.3615 93.2874 80.862 93.5591 80.862 94.1025C80.862 94.6005 81.1799 94.8722 81.8157 94.8722H83.0873C84.813 94.8722 85.7213 95.6872 85.7213 97.272C85.7213 98.9021 84.586 99.7171 82.3607 99.7171C81.2253 99.7171 80.2716 99.536 79.3633 99.2643V99.2643ZM87.0383 99.6266V91.7932H88.5824L88.8095 92.7894C89.7178 92.1102 90.6261 91.7932 91.4889 91.7932C92.488 91.7932 93.1693 92.1555 93.578 92.8799C94.5771 92.1555 95.5308 91.7932 96.3937 91.7932C98.074 91.7932 98.8915 92.7894 98.8915 94.7817V99.6266H96.8932V94.6911C96.8932 93.8308 96.5299 93.378 95.8033 93.378C95.2129 93.378 94.5771 93.695 93.9413 94.3741V99.6266H91.9431V94.6911C91.9431 93.7855 91.5798 93.378 90.8531 93.378C90.2173 93.378 89.5815 93.695 88.9911 94.3741V99.6266H87.0383ZM100.39 97.1815C100.39 95.5514 101.525 94.7817 103.796 94.7817C104.477 94.7817 105.113 94.8269 105.613 94.9175V94.4194C105.613 93.7402 104.932 93.378 103.569 93.378C102.706 93.378 101.843 93.5138 101.026 93.7402V92.1554C101.889 91.9291 102.752 91.7932 103.569 91.7932C106.249 91.7932 107.611 92.6535 107.611 94.3741V99.6266H106.612L105.749 99.0832C105.068 99.4454 104.341 99.6266 103.569 99.6266C101.435 99.6266 100.39 98.8115 100.39 97.1815V97.1815ZM105.613 96.4117C105.113 96.3212 104.523 96.2759 103.796 96.2759C102.843 96.2759 102.343 96.5928 102.343 97.1815C102.343 97.7701 102.752 98.0871 103.524 98.0871C104.341 98.0871 105.022 97.8607 105.567 97.4531V96.4117H105.613ZM109.564 99.6266V91.7932H111.108L111.335 92.7894C112.016 92.1102 112.743 91.7932 113.515 91.7932V93.378C112.788 93.378 112.107 93.695 111.517 94.3741V99.6266H109.564ZM114.741 90.5254H116.194L116.512 91.7932H118.329V93.378H116.739V97.0003C116.739 97.7248 117.057 98.0871 117.693 98.0871H118.329V99.6718H116.694C115.377 99.6718 114.696 98.9474 114.696 97.5437V90.5254H114.741Z" fill="white"/>
</svg>
