<svg width="277" height="271" viewBox="0 0 277 271" fill="none" xmlns="http://www.w3.org/2000/svg">
<ellipse cx="138" cy="135" rx="96" ry="83" fill="#F31624" fill-opacity="0.1"/>
<path d="M172.53 265.351H108.045C107.958 265.351 107.874 265.317 107.813 265.255C107.751 265.194 107.717 265.11 107.717 265.023C107.717 264.936 107.751 264.853 107.813 264.791C107.874 264.73 107.958 264.695 108.045 264.695H172.53C172.617 264.695 172.7 264.73 172.762 264.791C172.823 264.853 172.858 264.936 172.858 265.023C172.858 265.11 172.823 265.194 172.762 265.255C172.7 265.317 172.617 265.351 172.53 265.351Z" fill="#465A64"/>
<path d="M213.201 267.588H165.641C165.554 267.588 165.47 267.553 165.409 267.492C165.347 267.43 165.312 267.347 165.312 267.26C165.312 267.173 165.347 267.089 165.409 267.028C165.47 266.966 165.554 266.932 165.641 266.932H213.201C213.287 266.932 213.371 266.966 213.432 267.028C213.494 267.089 213.528 267.173 213.528 267.26C213.528 267.347 213.494 267.43 213.432 267.492C213.371 267.553 213.287 267.588 213.201 267.588Z" fill="#465A64"/>
<path d="M155.15 270.107H132.19C132.103 270.107 132.02 270.073 131.958 270.011C131.897 269.95 131.862 269.866 131.862 269.779C131.862 269.692 131.897 269.609 131.958 269.547C132.02 269.486 132.103 269.451 132.19 269.451H155.15C155.237 269.451 155.321 269.486 155.382 269.547C155.444 269.609 155.478 269.692 155.478 269.779C155.478 269.866 155.444 269.95 155.382 270.011C155.321 270.073 155.237 270.107 155.15 270.107Z" fill="#465A64"/>
<path d="M253.959 265.023C253.959 265.023 262.532 261.303 263.536 256.738C264.54 252.172 257.849 250.027 253.296 257.039C251.355 259.832 249.238 262.498 246.959 265.023H253.959Z" fill="#738F9D"/>
<path d="M226.562 265.022C226.562 265.022 218.362 257.091 217.792 247.363C217.221 237.634 226.976 239.491 229.055 246.595C231.135 253.7 233.536 265.022 233.536 265.022H226.562Z" fill="#465A64"/>
<path d="M229.601 264.308C229.544 264.309 229.488 264.294 229.439 264.267C229.389 264.239 229.348 264.199 229.319 264.151C225.009 256.974 221.689 243.861 221.65 243.756C221.629 243.669 221.644 243.577 221.69 243.501C221.737 243.425 221.812 243.37 221.899 243.349C221.986 243.328 222.078 243.343 222.154 243.39C222.23 243.436 222.285 243.511 222.306 243.598C222.306 243.73 225.625 256.718 229.922 263.836C229.948 263.888 229.959 263.946 229.955 264.004C229.951 264.062 229.932 264.118 229.899 264.166C229.867 264.214 229.822 264.253 229.769 264.278C229.717 264.303 229.659 264.313 229.601 264.308Z" fill="#738F9D"/>
<path d="M232.028 265.023C232.028 265.023 227.981 251.411 234.213 234.467C240.445 217.522 252.253 217.85 252.253 226.267C252.253 234.683 241.973 254.803 238.693 265.023H232.028Z" fill="#738F9D"/>
<path d="M234.927 264.308C234.841 264.3 234.762 264.258 234.707 264.192C234.652 264.125 234.625 264.04 234.632 263.954C236.6 242.057 246.138 223.859 246.23 223.675C246.274 223.605 246.343 223.554 246.424 223.533C246.504 223.511 246.589 223.521 246.663 223.56C246.736 223.599 246.792 223.665 246.819 223.743C246.845 223.822 246.841 223.908 246.807 223.984C246.709 224.161 237.223 242.253 235.281 264C235.279 264.043 235.268 264.086 235.249 264.126C235.229 264.165 235.202 264.2 235.169 264.229C235.136 264.257 235.098 264.279 235.056 264.293C235.015 264.306 234.971 264.312 234.927 264.308Z" fill="#465A64"/>
<path d="M236.981 265.023C236.981 265.023 240.589 249.935 248.055 239.229C255.52 228.523 262.487 224.141 266.259 226.043C270.031 227.946 263.799 254.966 247.156 265.023H236.988H236.981Z" fill="#465A64"/>
<path d="M243.214 264.308C243.155 264.308 243.097 264.291 243.046 264.26C242.995 264.229 242.954 264.185 242.926 264.133C242.899 264.08 242.886 264.021 242.889 263.962C242.892 263.903 242.912 263.846 242.945 263.796C243.076 263.606 256.137 244.398 263.668 229.337C263.685 229.295 263.711 229.257 263.744 229.226C263.776 229.195 263.815 229.171 263.857 229.155C263.899 229.139 263.944 229.133 263.989 229.135C264.034 229.138 264.078 229.15 264.119 229.17C264.159 229.19 264.195 229.219 264.223 229.254C264.252 229.288 264.273 229.329 264.286 229.372C264.298 229.415 264.302 229.461 264.296 229.505C264.29 229.55 264.275 229.593 264.252 229.632C256.701 244.72 243.614 263.973 243.483 264.164C243.453 264.208 243.413 264.244 243.366 264.269C243.319 264.294 243.267 264.308 243.214 264.308Z" fill="#738F9D"/>
<path d="M5.37437 73.0434L20.1869 70.5703C16.6773 71.1607 14.3222 74.7622 14.8995 78.6916L0.0870123 81.1844C-0.490268 77.2353 1.86477 73.6338 5.37437 73.0434Z" fill="#ECBDBB"/>
<path d="M95.5606 59.9567C99.1489 59.4516 102.534 62.2855 103.118 66.274L125.953 223.104C126.537 227.099 124.09 230.746 120.502 231.245L45.3241 241.787C41.7292 242.292 38.3508 239.465 37.767 235.47L14.8988 78.6724C14.315 74.6839 16.7553 71.0366 20.3502 70.5315L95.5606 59.9567Z" fill="#F31624"/>
<path d="M91.8408 67.2264C95.4291 66.7213 98.8075 69.5486 99.3913 73.5371L120.331 217.149C120.915 221.144 118.474 224.791 114.879 225.296L49.0368 234.572C45.4419 235.077 42.0569 232.25 41.4731 228.248L20.5336 84.6301C19.9497 80.635 22.39 76.9811 25.9849 76.476L49.7059 73.1435C50.6236 73.0208 51.5573 73.1624 52.3974 73.5516C53.2374 73.9409 53.9491 74.5616 54.4488 75.3411C54.9972 76.2441 55.7927 76.9711 56.7414 77.4362C57.69 77.9012 58.752 78.0847 59.8017 77.9651C60.8402 77.7957 61.8076 77.3297 62.5874 76.6232C63.3671 75.9167 63.9261 74.9999 64.1969 73.9832C64.455 73.0954 64.9635 72.3008 65.6616 71.6947C66.3597 71.0885 67.2177 70.6964 68.1329 70.5654L91.8408 67.2264Z" fill="#738F9D"/>
<path d="M58.6017 69.6791C59.1533 69.6334 59.7007 69.8067 60.1254 70.1615C60.5502 70.5163 60.8182 71.024 60.8715 71.5749C60.926 71.8433 60.9269 72.1198 60.8742 72.3886C60.8215 72.6573 60.7163 72.913 60.5645 73.141C60.4127 73.369 60.2174 73.5647 59.9898 73.717C59.7622 73.8693 59.5067 73.9751 59.2381 74.0284C58.6848 74.074 58.1357 73.9 57.7097 73.544C57.2837 73.188 57.015 72.6786 56.9618 72.1259C56.8556 71.5841 56.9687 71.0223 57.2761 70.5636C57.5835 70.1049 58.0602 69.7868 58.6017 69.6791Z" fill="#465A64"/>
<path d="M37.7675 235.502L22.9551 237.995L0.0869141 81.1647L14.8994 78.6719L37.7675 235.502Z" fill="#F31624"/>
<path d="M45.3257 241.788L30.5132 244.281C26.9183 244.786 23.5399 241.959 22.9561 237.964L37.7685 235.471C38.3524 239.499 41.7308 242.326 45.3257 241.788Z" fill="#AB212A"/>
<path d="M88.2611 84.8784C88.9603 84.8199 89.6544 85.0391 90.1934 85.4884C90.7323 85.9377 91.0727 86.5811 91.1409 87.2794L97.4254 130.379C97.495 130.719 97.4962 131.07 97.4291 131.411C97.3619 131.752 97.2277 132.076 97.0343 132.365C96.8408 132.653 96.5919 132.901 96.3021 133.092C96.0123 133.284 95.6872 133.416 95.3459 133.481L41.5539 141.039C40.8558 141.095 40.1633 140.875 39.6258 140.426C39.0883 139.977 38.7489 139.335 38.6806 138.638L32.3961 95.5384C32.3265 95.1984 32.325 94.848 32.3917 94.5074C32.4585 94.1668 32.5921 93.8429 32.7849 93.5543C32.9777 93.2657 33.2258 93.0182 33.5149 92.8262C33.804 92.6342 34.1283 92.5014 34.4691 92.4356L88.2611 84.8784Z" fill="#F6F6F6"/>
<path d="M77.6043 140.429C78.0089 140.396 78.4103 140.523 78.722 140.783C79.0336 141.044 79.2306 141.416 79.2706 141.82L79.3755 142.6C79.4527 142.997 79.3698 143.408 79.1449 143.743C78.9199 144.079 78.5712 144.312 78.1751 144.391L75.8528 144.719C75.4482 144.752 75.0469 144.625 74.7352 144.365C74.4235 144.105 74.2265 143.732 74.1866 143.328L74.0751 142.548C73.9978 142.151 74.0808 141.74 74.3057 141.405C74.5307 141.069 74.8794 140.836 75.2755 140.757L77.6043 140.429Z" fill="#465A64"/>
<path d="M102.423 174.691C102.83 174.656 103.234 174.784 103.547 175.046C103.86 175.307 104.058 175.682 104.096 176.088L104.207 176.862C104.285 177.261 104.201 177.673 103.975 178.01C103.749 178.347 103.398 178.581 103 178.66L72.5029 182.944C72.0962 182.978 71.6923 182.851 71.379 182.589C71.0657 182.328 70.8684 181.953 70.8301 181.546L70.7186 180.779C70.6795 180.582 70.6797 180.378 70.7193 180.181C70.7588 179.984 70.8369 179.797 70.949 179.63C71.0612 179.463 71.2051 179.319 71.3727 179.208C71.5403 179.097 71.7282 179.02 71.9257 178.981L102.423 174.691Z" fill="#F6F6F6"/>
<path d="M91.0016 200.459C93.8093 200.066 96.4661 202.277 96.9056 205.399L97.2598 207.813C97.7124 210.936 95.8035 213.789 92.9893 214.183L66.8608 217.857C64.0531 218.25 61.3963 216.039 60.9568 212.917L60.6025 210.503C60.1499 207.38 62.0589 204.527 64.8731 204.133L91.0016 200.459Z" fill="#F6F6F6"/>
<path d="M65.1083 188.238C65.5147 188.205 65.9177 188.333 66.2306 188.594C66.5434 188.855 66.7412 189.229 66.7811 189.635L66.8926 190.415C66.9317 190.613 66.9315 190.816 66.892 191.013C66.8524 191.21 66.7744 191.398 66.6622 191.565C66.5501 191.732 66.4061 191.875 66.2385 191.986C66.0709 192.097 65.883 192.174 65.6856 192.213L48.3016 194.653C47.895 194.684 47.4926 194.553 47.1818 194.289C46.871 194.025 46.677 193.649 46.6419 193.243L46.5304 192.462C46.4513 192.065 46.5333 191.652 46.7584 191.315C46.9835 190.978 47.3333 190.744 47.7309 190.665L65.1083 188.238Z" fill="#465A64"/>
<path d="M98.1193 147.002C98.598 146.962 99.0733 147.113 99.4418 147.421C99.8103 147.729 100.042 148.171 100.087 148.649L101.944 161.375C101.99 161.609 101.991 161.849 101.944 162.082C101.898 162.315 101.806 162.537 101.674 162.734C101.542 162.932 101.372 163.101 101.174 163.233C100.976 163.364 100.754 163.455 100.52 163.501L89.0796 165.108C88.6011 165.146 88.1268 164.995 87.7587 164.687C87.3906 164.379 87.1582 163.939 87.1116 163.462L85.2813 150.729C85.2346 150.495 85.2343 150.255 85.2807 150.022C85.327 149.789 85.4189 149.567 85.5512 149.37C85.6835 149.172 85.8535 149.003 86.0515 148.871C86.2495 148.74 86.4715 148.649 86.7048 148.603L98.1193 147.002Z" fill="#F6F6F6"/>
<path d="M76.1638 150.085C76.6426 150.044 77.1178 150.195 77.4863 150.503C77.8548 150.811 78.0868 151.253 78.1318 151.731L79.9882 164.457C80.035 164.691 80.0352 164.931 79.9889 165.164C79.9426 165.397 79.8506 165.619 79.7184 165.816C79.5861 166.014 79.416 166.183 79.2181 166.315C79.0201 166.446 78.798 166.537 78.5647 166.583L67.1175 168.19C66.6391 168.229 66.1648 168.077 65.7967 167.769C65.4286 167.461 65.1962 167.021 65.1495 166.544L63.293 153.817C63.2463 153.584 63.2461 153.344 63.2924 153.111C63.3387 152.878 63.4307 152.656 63.5629 152.458C63.6952 152.261 63.8652 152.092 64.0632 151.96C64.2612 151.828 64.4832 151.737 64.7166 151.692L76.1638 150.085Z" fill="#F6F6F6"/>
<path d="M69.7982 141.531C70.2039 141.496 70.6069 141.623 70.92 141.883C71.2331 142.143 71.4311 142.517 71.471 142.922L71.5825 143.702C71.6216 143.9 71.6214 144.103 71.5819 144.3C71.5423 144.497 71.4643 144.685 71.3521 144.852C71.24 145.019 71.096 145.162 70.9284 145.273C70.7608 145.384 70.5729 145.461 70.3755 145.5L52.9981 147.94C52.5924 147.975 52.1893 147.848 51.8762 147.588C51.5631 147.328 51.3652 146.955 51.3253 146.549L51.2137 145.769C51.1746 145.571 51.1749 145.368 51.2144 145.171C51.2539 144.974 51.332 144.787 51.4441 144.62C51.5563 144.453 51.7003 144.309 51.8679 144.198C52.0354 144.087 52.2233 144.01 52.4208 143.971L69.7982 141.531Z" fill="#465A64"/>
<path d="M54.2065 153.168C54.6849 153.13 55.1592 153.281 55.5273 153.589C55.8954 153.897 56.1278 154.337 56.1745 154.815L58.0309 167.541C58.1236 168.011 58.0257 168.5 57.7588 168.898C57.4919 169.297 57.0778 169.573 56.6074 169.666L45.1668 171.274C44.6884 171.312 44.214 171.161 43.8459 170.853C43.4778 170.545 43.2454 170.105 43.1988 169.627L41.3292 156.901C41.2824 156.668 41.2822 156.428 41.3285 156.194C41.3748 155.961 41.4668 155.739 41.5991 155.542C41.7314 155.344 41.9014 155.175 42.0994 155.043C42.2973 154.912 42.5194 154.821 42.7527 154.775L54.2065 153.168Z" fill="#F6F6F6"/>
<path d="M63.9293 180.123C64.333 180.088 64.7342 180.213 65.0469 180.47C65.3597 180.728 65.559 181.098 65.6021 181.501L65.7136 182.275C65.7527 182.472 65.7525 182.675 65.713 182.872C65.6735 183.069 65.5954 183.257 65.4832 183.424C65.3711 183.591 65.2271 183.734 65.0595 183.845C64.8919 183.957 64.704 184.034 64.5066 184.072L47.1226 186.512C46.717 186.545 46.3147 186.417 46.0029 186.156C45.691 185.894 45.4947 185.52 45.4564 185.115L45.3448 184.341C45.2657 183.943 45.3477 183.531 45.5729 183.194C45.798 182.857 46.1478 182.623 46.5453 182.544L63.9293 180.123Z" fill="#465A64"/>
<path d="M85.7609 139.286C86.1655 139.253 86.5668 139.381 86.8785 139.641C87.1901 139.901 87.3872 140.273 87.4271 140.677L87.5386 141.458C87.6158 141.854 87.5329 142.265 87.3079 142.601C87.083 142.936 86.7343 143.169 86.3381 143.249L84.0159 143.577C83.6113 143.61 83.2099 143.482 82.8983 143.222C82.5866 142.962 82.3896 142.59 82.3497 142.186L82.2381 141.418C82.1609 141.022 82.2439 140.611 82.4688 140.275C82.6938 139.94 83.0425 139.707 83.4386 139.627L85.7609 139.286Z" fill="#465A64"/>
<path d="M103.603 182.825C104.009 182.792 104.412 182.92 104.725 183.182C105.038 183.443 105.235 183.817 105.275 184.223L105.387 185.003C105.426 185.201 105.426 185.404 105.386 185.601C105.347 185.798 105.269 185.986 105.157 186.153C105.044 186.32 104.9 186.463 104.733 186.574C104.565 186.685 104.377 186.762 104.18 186.801L73.6825 191.084C73.2768 191.119 72.8737 190.993 72.5606 190.732C72.2475 190.472 72.0496 190.099 72.0097 189.694L71.8982 188.913C71.821 188.515 71.9046 188.102 72.1308 187.765C72.357 187.428 72.7073 187.195 73.1052 187.116L103.603 182.825Z" fill="#F6F6F6"/>
<path d="M83.0185 90.8086L66.1528 93.1833C63.9224 93.4982 62.407 95.7548 62.7678 98.2411C62.407 95.7548 60.3012 94.0033 58.0708 94.3051L41.2051 96.6732L46.2497 131.264L63.1155 128.889C65.3393 128.581 67.4385 130.319 67.8059 132.786C67.4648 130.313 68.9801 128.069 71.1974 127.755L88.0632 125.386L83.0185 90.8086ZM52.8425 117.232L51.0779 105.109L60.603 109.964L52.8425 117.232Z" fill="#738F9D"/>
<path d="M66.913 127.039C66.8345 127.038 66.7589 127.009 66.7 126.957C66.641 126.906 66.6025 126.834 66.5915 126.757L62.6555 99.631C62.6495 99.588 62.652 99.5441 62.6629 99.502C62.6739 99.4599 62.693 99.4204 62.7191 99.3857C62.772 99.3155 62.8506 99.2693 62.9376 99.2571C63.0246 99.2449 63.1129 99.2678 63.183 99.3207C63.2531 99.3736 63.2994 99.4522 63.3115 99.5392L67.2475 126.665C67.2541 126.707 67.2521 126.751 67.2418 126.793C67.2315 126.835 67.213 126.874 67.1874 126.909C67.1618 126.944 67.1296 126.973 67.0926 126.995C67.0557 127.018 67.0147 127.032 66.972 127.039H66.913Z" fill="#465A64"/>
<path d="M88.0559 125.4L88.7119 129.894L46.905 135.798L46.249 131.304L63.1148 128.936C65.3452 128.621 67.4444 130.373 67.8117 132.872C67.4509 130.386 68.9663 128.129 71.1967 127.814L88.0559 125.4Z" fill="#465A64"/>
<path d="M151.825 236.592L151.621 239.662L151.221 245.507H146.085L145.881 241.866L145.593 236.92L151.825 236.592Z" fill="#C2A0A0"/>
<path d="M151.833 236.592L151.623 239.662C149.937 240.318 147.752 241.177 145.883 241.866L145.601 236.92L151.833 236.592Z" fill="#465A64"/>
<path d="M155.15 255.281C153.218 255.895 151.508 257.06 150.23 258.633C151.154 260.635 151.616 262.819 151.582 265.023H154.344C154.344 265.023 155.098 258.843 155.15 255.281Z" fill="#465A64"/>
<path d="M155.153 255.282C153.221 255.896 151.511 257.061 150.233 258.634L150.194 258.68C148.755 260.479 147.098 262.092 145.261 263.482C143.911 264.482 142.276 265.023 140.596 265.023H130.186C130.186 265.023 129.864 261.455 133.571 258.955C137.946 256.003 141.554 250.755 143.306 243.92C146.448 243.581 149.617 243.581 152.759 243.92C152.759 243.92 155.081 251.188 155.153 254.527C155.16 254.757 155.16 255.013 155.153 255.282Z" fill="#F31624"/>
<path d="M168.493 142.134C168.296 143.446 168.08 144.555 167.837 145.519C166.774 150.045 164.498 157.865 162.241 165.291C159.276 175.098 156.337 184.223 156.337 184.223C156.337 184.223 157.157 193.899 157.813 201.607C158.469 209.315 154.533 238.343 154.533 238.343C150.433 239.327 143.545 238.671 143.545 238.671C143.545 238.671 138.461 199.639 137.969 182.747C137.477 165.855 137.805 138.795 138.625 129.119C139.445 119.443 138.625 105.352 150.925 104.683C170.022 103.64 170.422 129.513 168.493 142.134Z" fill="#738F9D"/>
<path d="M151.125 236.919H151.086C151 236.908 150.922 236.863 150.869 236.794C150.816 236.725 150.792 236.638 150.804 236.552C150.804 236.342 153.427 215.783 153.191 209C153.126 207.091 152.942 204.46 152.752 201.666C152.24 194.272 151.604 185.069 152.562 181.461C153.874 176.606 160.794 141.274 160.867 140.92C160.875 140.877 160.891 140.836 160.915 140.799C160.939 140.763 160.97 140.731 161.007 140.706C161.043 140.682 161.084 140.664 161.127 140.655C161.169 140.646 161.214 140.646 161.257 140.654C161.3 140.662 161.341 140.679 161.378 140.703C161.414 140.727 161.446 140.758 161.471 140.794C161.495 140.831 161.512 140.871 161.521 140.914C161.53 140.957 161.531 141.002 161.523 141.045C161.45 141.399 154.51 176.757 153.211 181.631C152.279 185.134 152.909 194.272 153.421 201.62C153.611 204.414 153.795 207.058 153.86 208.973C154.09 215.809 151.492 236.421 151.466 236.63C151.456 236.713 151.416 236.788 151.352 236.842C151.289 236.895 151.208 236.923 151.125 236.919Z" fill="#465A64"/>
<path d="M168.494 142.135C168.297 143.447 168.08 144.556 167.838 145.52C166.775 150.046 164.499 157.866 162.242 165.292L158.385 139.609L167.838 140.98L168.494 142.135Z" fill="#465A64"/>
<path d="M202.404 236.592L202.194 239.662L201.8 245.507H196.664L196.454 241.866L196.172 236.92L202.404 236.592Z" fill="#C2A0A0"/>
<path d="M202.404 236.592L202.194 239.662C200.508 240.318 198.323 241.177 196.454 241.866L196.146 236.92L202.404 236.592Z" fill="#465A64"/>
<path d="M205.722 255.281C203.79 255.895 202.079 257.06 200.802 258.633C201.725 260.635 202.187 262.819 202.153 265.023H204.915C204.915 265.023 205.669 258.843 205.722 255.281Z" fill="#465A64"/>
<path d="M205.721 255.282C203.79 255.896 202.08 257.061 200.801 258.634L200.762 258.68C199.323 260.479 197.666 262.092 195.829 263.482C194.48 264.482 192.845 265.023 191.165 265.023H180.754C180.754 265.023 180.433 261.455 184.139 258.955C188.515 256.003 192.123 250.755 193.874 243.92C197.016 243.581 200.185 243.581 203.327 243.92C203.327 243.92 205.649 251.188 205.721 254.527C205.728 254.757 205.728 255.013 205.721 255.282Z" fill="#F31624"/>
<path d="M155.224 110.26C155.224 110.26 160.8 144.044 161.62 146.34C162.44 148.636 179.988 182.584 182.776 189.8C185.564 197.016 193.6 238.344 193.6 238.344C193.6 238.344 200.16 238.836 204.752 237.852C204.752 237.852 206.556 211.12 205.244 200.296C203.932 189.472 202.128 186.028 199.996 178.812C197.864 171.596 194.748 137.32 192.944 128.464C191.14 119.608 189.5 112.884 185.236 107.636C180.972 102.388 153.584 91.2362 155.224 110.26Z" fill="#738F9D"/>
<path d="M187.039 126.988C177.199 126.988 174.989 115.659 174.962 115.541C174.955 115.498 174.955 115.453 174.965 115.411C174.974 115.368 174.992 115.327 175.017 115.292C175.042 115.256 175.073 115.225 175.11 115.201C175.147 115.178 175.188 115.161 175.231 115.154C175.274 115.146 175.319 115.147 175.361 115.156C175.404 115.165 175.445 115.183 175.48 115.208C175.516 115.233 175.547 115.265 175.571 115.302C175.594 115.338 175.611 115.38 175.618 115.423C175.704 115.895 177.868 126.942 187.846 126.306C187.889 126.302 187.933 126.307 187.974 126.321C188.015 126.335 188.053 126.357 188.086 126.386C188.118 126.414 188.145 126.449 188.163 126.489C188.182 126.528 188.192 126.571 188.194 126.614C188.196 126.657 188.191 126.7 188.177 126.741C188.162 126.782 188.14 126.82 188.112 126.852C188.083 126.884 188.048 126.911 188.01 126.929C187.971 126.948 187.929 126.959 187.886 126.962C187.617 126.988 187.315 126.988 187.039 126.988Z" fill="#465A64"/>
<path d="M201.471 236.374C201.428 236.372 201.386 236.361 201.347 236.342C201.308 236.323 201.274 236.297 201.245 236.264C201.216 236.232 201.194 236.194 201.18 236.154C201.166 236.113 201.16 236.07 201.163 236.027C201.163 235.797 202.475 212.653 201.983 203.922C201.688 198.615 199.359 191.733 197.279 185.665C195.967 181.729 194.773 178.305 194.445 176.075C194.209 174.448 193.612 169.915 192.851 164.175C191.021 150.281 188.259 129.282 187.564 126.744C186.593 123.188 183.556 114.28 183.523 114.188C183.495 114.105 183.501 114.015 183.54 113.937C183.579 113.858 183.647 113.799 183.73 113.771C183.812 113.743 183.903 113.749 183.981 113.788C184.059 113.827 184.118 113.895 184.146 113.978C184.146 114.07 187.223 122.991 188.194 126.573C188.896 129.151 191.664 150.189 193.501 164.09C194.255 169.83 194.852 174.356 195.088 175.976C195.41 178.148 196.558 181.533 197.896 185.456C199.976 191.563 202.337 198.49 202.632 203.889C203.118 212.66 201.825 235.836 201.812 236.072C201.806 236.157 201.766 236.236 201.703 236.292C201.639 236.348 201.556 236.378 201.471 236.374Z" fill="#465A64"/>
<path d="M160.308 140.435H160.256C160.085 140.435 156.123 139.727 155.408 137.811C154.752 136.06 150.127 113.887 149.93 112.942C149.913 112.855 149.931 112.765 149.98 112.691C150.029 112.617 150.106 112.566 150.193 112.549C150.28 112.531 150.37 112.549 150.444 112.598C150.518 112.648 150.569 112.724 150.586 112.811C150.632 113.041 155.401 135.876 156.038 137.582C156.464 138.71 158.662 139.419 159.921 139.687L155.191 112.273C155.177 112.186 155.197 112.097 155.248 112.025C155.299 111.953 155.377 111.904 155.464 111.889C155.551 111.875 155.64 111.895 155.712 111.946C155.784 111.997 155.833 112.075 155.847 112.162L160.656 140.042C160.666 140.092 160.665 140.143 160.652 140.193C160.639 140.242 160.614 140.287 160.581 140.326C160.547 140.364 160.505 140.394 160.457 140.413C160.41 140.432 160.359 140.439 160.308 140.435Z" fill="#465A64"/>
<path d="M106.273 102.112L102.062 103.805C102.062 103.805 94.7344 102.302 93.4224 101.535C92.1104 100.767 91.3166 102.027 92.5499 103.286C93.5954 104.254 94.7411 105.107 95.9677 105.832C93.9594 106.759 91.8742 107.51 89.7357 108.075C87.2494 108.593 85.4454 108.62 85.3929 109.663C85.3405 110.706 86.8427 110.975 86.8427 110.975C86.8427 110.975 85.6685 111.277 85.8587 112.287C86.0489 113.297 88.4827 113.081 88.4827 113.081C88.4827 113.081 87.256 113.546 87.5249 114.34C87.7939 115.134 90.3982 114.858 90.3982 114.858C90.2953 114.918 90.2067 115 90.1386 115.098C90.0705 115.196 90.0245 115.307 90.0039 115.425C89.9833 115.542 89.9885 115.663 90.0193 115.778C90.05 115.893 90.1054 116 90.1817 116.092C90.759 116.8 100.022 116.131 104.325 108.915L110.065 107.314L106.273 102.112Z" fill="#C2A0A0"/>
<path d="M87.8462 111.132C87.8031 111.136 87.7597 111.131 87.7184 111.118C87.6771 111.105 87.6388 111.084 87.6056 111.057C87.5385 111.001 87.4965 110.92 87.4886 110.833C87.4808 110.746 87.5078 110.66 87.5638 110.593C87.6198 110.526 87.7001 110.484 87.7871 110.476C87.8265 110.476 91.5132 109.82 93.6911 109.164C93.7342 109.151 93.7793 109.148 93.8239 109.152C93.8685 109.157 93.9116 109.171 93.9509 109.193C93.9902 109.214 94.0248 109.243 94.0529 109.279C94.0809 109.314 94.1017 109.354 94.1142 109.397C94.1267 109.44 94.1306 109.485 94.1257 109.53C94.1207 109.574 94.1071 109.617 94.0854 109.657C94.0638 109.696 94.0346 109.731 93.9996 109.759C93.9646 109.787 93.9244 109.807 93.8814 109.82C91.6444 110.476 87.9183 111.132 87.8855 111.171H87.8265L87.8462 111.132Z" fill="#465A64"/>
<path d="M89.597 113.132C89.554 113.138 89.5102 113.135 89.4683 113.124C89.4263 113.112 89.387 113.093 89.3526 113.066C89.3182 113.04 89.2893 113.007 89.2677 112.969C89.246 112.932 89.232 112.89 89.2264 112.847C89.2208 112.804 89.2237 112.76 89.235 112.718C89.2464 112.676 89.2658 112.637 89.2923 112.603C89.3188 112.568 89.3518 112.539 89.3895 112.518C89.4271 112.496 89.4687 112.482 89.5118 112.476C89.5118 112.476 92.7918 111.597 94.9172 110.764C94.958 110.745 95.0023 110.734 95.0474 110.733C95.0925 110.731 95.1374 110.739 95.1793 110.756C95.2212 110.772 95.2592 110.798 95.291 110.83C95.3228 110.862 95.3476 110.9 95.3638 110.942C95.3801 110.984 95.3876 111.029 95.3857 111.074C95.3838 111.119 95.3726 111.163 95.3529 111.204C95.3331 111.245 95.3052 111.281 95.2709 111.31C95.2365 111.339 95.1965 111.361 95.1534 111.374C92.9754 112.22 89.7151 113.1 89.6823 113.106L89.597 113.132Z" fill="#465A64"/>
<path d="M91.0656 114.904C90.9786 114.916 90.8903 114.893 90.8202 114.84C90.7501 114.787 90.7039 114.708 90.6917 114.621C90.6795 114.534 90.7024 114.446 90.7553 114.376C90.8082 114.306 90.8868 114.26 90.9738 114.248C92.7379 113.725 94.4704 113.1 96.1627 112.378C96.2419 112.341 96.3323 112.338 96.4141 112.368C96.4959 112.398 96.5624 112.459 96.599 112.539C96.6355 112.618 96.6391 112.708 96.6089 112.79C96.5788 112.872 96.5174 112.938 96.4382 112.975C94.7268 113.709 92.9746 114.344 91.1902 114.877L91.0656 114.904Z" fill="#465A64"/>
<path d="M157 39C155.205 37.4004 144.069 40.0891 141.765 39.486C139.46 38.8829 137.05 38.8405 134.726 39.3624C126.314 40.9445 123.993 49.0456 129.702 54.018C134.506 58.2054 132.023 62.8685 127.567 62.4046C127.184 62.3626 126.797 62.4191 126.44 62.5691C126.084 62.719 125.769 62.9576 125.525 63.2633C125.281 63.5691 125.115 63.9323 125.042 64.3203C124.969 64.7083 124.992 65.1088 125.107 65.4856C125.896 68.1979 128.333 71.267 135.411 70.9815C147.884 70.4819 166.017 54.6758 157.5 51C148.983 47.3242 156.5 40 157.5 40L157 39Z" fill="#465A64"/>
<path d="M110.78 97.1387L105.617 100.366C105.617 100.366 104.089 106.651 109.337 109.826L116.441 108.35C116.441 108.35 118.16 99.3232 110.78 97.1387Z" fill="white"/>
<path d="M146.23 78.1079C145.272 87.7183 143.606 98.0044 141.119 99.3557C139.696 100.136 136.147 101.291 132.093 102.472C124.221 104.755 114.466 107.142 114.466 107.142C111.271 104.682 111.271 98.6145 111.271 98.6145L131.443 88.2825C131.443 88.2825 131.693 83.1132 132.263 76.5532C132.834 69.9932 131.404 59.9957 136.114 55.6465C141.448 50.7265 147.109 55.4825 147.188 62.2065C147.22 64.9748 146.905 71.3774 146.23 78.1079Z" fill="#F8777F"/>
<path d="M179.639 60.6812C179.639 60.6812 182.153 59.3009 183.935 53.8595C184.795 51.2297 181.55 48.7021 180.23 45.2926C178.819 41.6474 176.047 41.1608 173.42 40.3772C173.42 40.3772 164.6 38.4942 163.184 36.0223C159.769 30.0638 150.835 6.39647 142.054 20.93C133.273 35.4636 136.978 47.3931 142.155 53.2369C147.332 59.0807 148.793 54.8811 151.078 55.1127C154.318 55.4451 155.078 58.6038 160.659 56.2816C164.343 54.7488 173.349 61.6446 173.349 61.6446C176.68 61.2759 176.171 63.3264 179.639 60.6812Z" fill="#465A64"/>
<path d="M163.908 52.2826C165.789 51.0956 166.829 40.2554 168.021 38.3316C169.214 36.4078 169.965 34.2336 170.215 31.9825C171.379 23.9171 161.089 21.5655 159.302 21.6055C157.516 21.6455 157.099 20.2339 156.246 18.3584C155.393 16.483 152.723 16.0691 152.723 16.0691C152.723 16.0691 152.991 17.3509 152.806 17.0451C152.62 16.7394 152.364 16.4887 152.058 16.3156C151.753 16.1425 151.409 16.0524 151.057 16.0535C148.537 16.021 145.228 17.3842 143.367 23.8818C140.085 35.3316 148.022 56.1359 153.648 49.4261C159.273 42.7163 163.214 51.5533 162.917 52.4602L163.908 52.2826Z" fill="#465A64"/>
<path d="M180.057 57.5687C181.938 56.3818 183.539 54.7617 184.731 52.838C185.924 50.9142 186.675 48.7399 186.925 46.4888C188.089 38.4234 181.951 34.0843 176.066 37.89C171.112 41.0914 168.038 38.0726 169.751 34.1598C169.9 33.8239 169.849 32.9377 169.829 32.573C169.808 32.2083 169.701 31.8572 169.516 31.5515C169.33 31.2458 169.073 30.995 168.768 30.8219C168.463 30.6488 168.119 30.5587 167.767 30.5599C165.247 30.5273 161.937 31.8905 160.077 38.3882C156.795 49.8379 168.253 54.3689 173.879 47.6591C179.504 40.9493 183.491 47.1124 177.392 54.7273L180.057 57.5687Z" fill="#465A64"/>
<path d="M157 19.8359C155.205 18.2363 153.069 17.0891 150.765 16.4859C148.46 15.8828 146.05 15.8405 143.726 16.3624C135.314 17.9445 132.993 26.0456 138.702 31.018C143.506 35.2054 141.455 39.4639 137 39C136.617 38.958 135.797 39.4191 135.44 39.569C135.084 39.719 134.769 39.9576 134.525 40.2633C134.281 40.5691 134.115 40.9323 134.042 41.3203C133.969 41.7083 133.992 42.1088 134.107 42.4856C134.896 45.1979 137.333 48.267 144.411 47.9815C156.884 47.4819 157.661 33.6113 149.145 29.9355C140.628 26.2597 145.467 19.824 155.039 23.6902L157 19.8359Z" fill="#465A64"/>
<path d="M190.241 113.946C190.241 113.946 187.926 114.602 184.246 115.343C178.407 116.57 169.158 118.164 160.236 118.21C145.719 118.295 139.401 114.359 139.401 114.359C140.307 106.979 139.9 90.2513 139.9 90.2513C139.9 90.2513 134.481 80.818 134.481 78.6073C134.481 76.3965 137.519 62.3713 137.519 62.3713L136.121 55.6473C136.121 55.6473 147.339 46.05 155.703 45.394C165.156 44.6593 177.043 50.314 177.043 50.314C177.043 50.314 178.932 60.9805 179.995 65.1593C180.611 67.5799 183.931 83.5273 186.653 96.5817C188.608 106.048 190.241 113.946 190.241 113.946Z" fill="#F8777F"/>
<path d="M139.98 98.1242C139.893 98.1242 139.81 98.0897 139.748 98.0281C139.687 97.9666 139.652 97.8832 139.652 97.7962C139.652 93.9389 139.574 90.8754 139.56 90.3441C139.016 89.3929 134.148 80.8058 134.148 78.6082C134.148 76.4106 136.923 63.5202 137.173 62.3722L136.116 57.2751C136.099 57.1881 136.117 57.0978 136.166 57.024C136.215 56.9501 136.292 56.8989 136.379 56.8815C136.466 56.8641 136.556 56.882 136.63 56.9312C136.704 56.9804 136.755 57.0569 136.772 57.1439L137.842 62.3132C137.852 62.3585 137.852 62.4056 137.842 62.4509C137.842 62.5887 134.818 76.4631 134.818 78.6148C134.818 80.3597 138.695 87.4905 140.184 90.0948C140.212 90.1426 140.228 90.1967 140.23 90.2522C140.23 90.2522 140.308 93.5716 140.321 97.8028C140.321 97.8898 140.287 97.9732 140.225 98.0347C140.164 98.0962 140.08 98.1308 139.993 98.1308L139.98 98.1242Z" fill="#ECBDBB"/>
<path d="M154.751 43.8004C150.29 44.089 148.112 48.7204 147.41 54.6244C147.41 54.6244 150.611 52.3678 153.111 52.0398C155.61 51.7118 160.615 53.9684 160.615 53.9684C160.615 53.9684 162.905 43.269 154.751 43.8004Z" fill="white"/>
<path d="M151.726 88.6642C151.726 88.6642 142.431 85.6597 142.103 85.6007C141.775 85.5417 129.691 87.8967 129.311 88.3362C129.244 88.445 129.202 88.5673 129.188 88.6944C129.174 88.8214 129.188 88.9499 129.231 89.0706C129.273 89.1912 129.341 89.301 129.431 89.3918C129.521 89.4827 129.63 89.5523 129.75 89.5957C130.19 89.8122 137.019 89.0513 137.019 89.0513C136.775 89.8978 136.573 90.756 136.415 91.6228C136.415 92.0033 138.436 95.2833 139.643 95.5588C140.467 95.7035 141.316 95.6289 142.103 95.3423L142.975 94.6338C143.655 94.8143 144.352 94.9243 145.055 94.9618C145.599 94.9093 146.695 93.8138 146.695 93.8138L150.742 95.3423L151.726 88.6642Z" fill="#C2A0A0"/>
<path d="M137.812 92.8232H137.713C137.672 92.8105 137.633 92.7897 137.6 92.762C137.567 92.7343 137.539 92.7002 137.519 92.6618C137.499 92.6233 137.486 92.5813 137.483 92.5381C137.479 92.4948 137.484 92.4513 137.497 92.4099L138.619 88.7757C138.631 88.7326 138.652 88.6924 138.68 88.6574C138.708 88.6224 138.743 88.5933 138.782 88.5716C138.821 88.55 138.864 88.5363 138.909 88.5314C138.954 88.5264 138.999 88.5303 139.042 88.5428C139.085 88.5553 139.125 88.5762 139.16 88.6042C139.195 88.6322 139.224 88.6669 139.246 88.7061C139.268 88.7454 139.281 88.7886 139.286 88.8332C139.291 88.8777 139.287 88.9229 139.275 88.9659L138.153 92.6002C138.13 92.6704 138.083 92.7306 138.021 92.7711C137.959 92.8116 137.886 92.83 137.812 92.8232Z" fill="#465A64"/>
<path d="M139.151 94.3255C139.064 94.3255 138.981 94.291 138.919 94.2295C138.858 94.168 138.823 94.0845 138.823 93.9975C138.823 93.9057 138.823 93.8467 140.549 90.0091C140.587 89.9352 140.653 89.879 140.732 89.8518C140.811 89.8247 140.897 89.8286 140.973 89.8629C141.05 89.8972 141.11 89.9593 141.142 90.0364C141.174 90.1135 141.175 90.1999 141.146 90.278C140.542 91.6294 139.558 93.827 139.473 94.0763C139.455 94.1479 139.414 94.2115 139.355 94.2567C139.297 94.302 139.225 94.3262 139.151 94.3255Z" fill="#465A64"/>
<path d="M157.959 87.8448C157.959 87.8448 160.307 95.4412 154.134 100.912L148.67 97.9078C148.67 97.9078 147.194 90.0358 151.95 87.1953L157.959 87.8448Z" fill="white"/>
<path d="M186.055 109.682C178.55 110.889 158.942 101.213 153.727 98.5297C153.499 96.8988 153.595 95.2388 154.012 93.6456C154.428 92.0523 155.157 90.5574 156.154 89.2473L178.511 92.055C178.511 92.055 174.247 78.5085 171.21 69.0949C168.172 59.6813 170.921 48.4113 177.035 50.3137C187.039 53.4362 190.319 69.6657 192.123 83.6122C193.927 97.5588 194.747 108.291 186.055 109.682Z" fill="#F8777F"/>
<path d="M178.511 92.3965H178.471L156.128 89.5954C156.041 89.5841 155.962 89.5387 155.909 89.4692C155.855 89.3996 155.831 89.3117 155.843 89.2247C155.854 89.1377 155.899 89.0588 155.969 89.0053C156.038 88.9518 156.126 88.9281 156.213 88.9394L178.065 91.6814C177.271 89.169 173.597 77.5119 170.921 69.2003C169.012 63.2963 169.32 56.2181 171.642 52.433C171.663 52.3924 171.691 52.3565 171.726 52.3275C171.761 52.2985 171.802 52.2771 171.845 52.2646C171.889 52.2521 171.935 52.2488 171.98 52.2549C172.025 52.2611 172.068 52.2765 172.107 52.3002C172.145 52.3239 172.179 52.3553 172.205 52.3926C172.231 52.4299 172.249 52.4721 172.257 52.5167C172.266 52.5612 172.266 52.6071 172.256 52.6514C172.246 52.6957 172.227 52.7375 172.2 52.7741C169.963 56.4149 169.687 63.2373 171.544 68.997C174.548 78.3187 178.806 91.8389 178.845 91.957C178.864 92.0086 178.87 92.0642 178.861 92.1186C178.853 92.173 178.831 92.2245 178.798 92.2682C178.765 92.312 178.721 92.3467 178.671 92.3691C178.621 92.3915 178.566 92.4009 178.511 92.3965Z" fill="#ECBDBB"/>
<path d="M184.633 110.116C176.296 110.116 158.958 101.588 153.585 98.8393C153.547 98.8195 153.513 98.7923 153.485 98.7593C153.457 98.7263 153.436 98.6882 153.423 98.6471C153.41 98.606 153.405 98.5627 153.408 98.5197C153.412 98.4767 153.424 98.4348 153.444 98.3965C153.464 98.3581 153.491 98.3241 153.524 98.2962C153.557 98.2684 153.595 98.2473 153.636 98.2343C153.677 98.2212 153.721 98.2163 153.764 98.2199C153.807 98.2236 153.848 98.2356 153.887 98.2554C157.928 100.322 178.447 110.575 186.031 109.362L186.601 109.25C186.688 109.232 186.779 109.249 186.854 109.297C186.928 109.346 186.98 109.422 186.998 109.509C187.017 109.596 187 109.687 186.951 109.761C186.902 109.836 186.826 109.888 186.739 109.906L186.129 110.024C185.634 110.095 185.134 110.125 184.633 110.116Z" fill="#ECBDBB"/>
<path d="M187.478 98.8313C187.416 98.8309 187.355 98.8127 187.303 98.7791C187.251 98.7454 187.209 98.6975 187.183 98.6411C185.622 95.2561 179.967 93.3144 179.967 93.2947C179.884 93.2669 179.816 93.2073 179.777 93.1292C179.739 93.0511 179.733 92.9608 179.76 92.8781C179.788 92.7955 179.848 92.7273 179.926 92.6885C180.004 92.6498 180.094 92.6437 180.177 92.6715C180.42 92.7568 186.127 94.7248 187.806 98.3656C187.831 98.4179 187.841 98.4759 187.836 98.5335C187.831 98.5911 187.811 98.6464 187.777 98.6937C187.744 98.741 187.699 98.7786 187.646 98.8028C187.594 98.827 187.536 98.8368 187.478 98.8313Z" fill="#ECBDBB"/>
<path d="M157.441 46.7515C157.136 47.2816 156.729 47.7462 156.244 48.1188C155.759 48.4914 155.205 48.7646 154.614 48.9228C154.076 49.0298 153.519 48.9999 152.996 48.836C152.472 48.6721 151.998 48.3794 151.616 47.9847L151.269 45.0327L150.757 40.7228L155.473 37.6855L155.952 40.1259L157.441 46.7515Z" fill="#C2A0A0"/>
<path d="M155.952 40.1193C155.734 41.3095 155.172 42.4095 154.335 43.2829C153.497 44.1564 152.422 44.7648 151.242 45.0327L150.73 40.7228L155.473 37.6855L155.952 40.1193Z" fill="#263137"/>
<path d="M147.071 21.2388C141.608 22.7241 140.207 27.8385 144.607 38.6978C147.726 46.4044 155.343 45.8019 157.511 36.2877C159.968 25.5405 152.64 19.7185 147.071 21.2388Z" fill="#C2A0A0"/>
<path d="M142 32.0007C142 32.0007 141.5 28.0006 143.5 28.5007C145.5 29.0008 146.175 25.1445 147.5 25.5008C150.69 26.359 150.163 22.9303 151.309 23.3887C153.809 24.3887 151.659 26.6869 154.5 28.2745L155.431 32.486C155.431 32.486 159.643 30.2425 158.272 23.5775C156.901 16.9125 150.262 12.373 143.4 16.414C135.83 20.8748 142 32.0007 142 32.0007Z" fill="#465A64"/>
<path d="M155.736 32.4309C155.599 31.6627 155.732 30.8709 156.113 30.1896C156.493 29.5082 157.096 28.9791 157.822 28.6917C158.101 28.5717 158.401 28.5098 158.704 28.5098C159.008 28.5098 159.308 28.5717 159.587 28.6917C161.555 29.6232 161.174 35.1992 156.307 35.9602L155.736 32.4309Z" fill="#C2A0A0"/>
<path d="M157.442 34.4906C157.366 34.4903 157.292 34.4632 157.233 34.4141C157.174 34.365 157.135 34.2969 157.121 34.2216C157.121 34.0641 156.413 30.3446 158.853 29.4328C158.893 29.4177 158.936 29.4108 158.98 29.4123C159.023 29.4139 159.065 29.4239 159.104 29.4419C159.144 29.4599 159.179 29.4854 159.209 29.5171C159.238 29.5487 159.261 29.5858 159.276 29.6263C159.291 29.6668 159.298 29.7099 159.296 29.753C159.295 29.7962 159.285 29.8387 159.267 29.8779C159.249 29.9172 159.223 29.9526 159.192 29.982C159.16 30.0114 159.123 30.0344 159.082 30.0494C157.154 30.771 157.77 34.0707 157.77 34.1035C157.786 34.1887 157.767 34.2765 157.718 34.3478C157.668 34.4191 157.593 34.468 157.508 34.484H157.442V34.4906Z" fill="#465A64"/>
<path d="M159.272 32.5899C159.219 32.5902 159.168 32.5778 159.121 32.5538C159.074 32.5299 159.034 32.495 159.003 32.4521C158.622 31.9781 158.101 31.6362 157.514 31.4747C157.427 31.4529 157.352 31.3975 157.306 31.3206C157.26 31.2437 157.246 31.1517 157.268 31.0647C157.29 30.9777 157.345 30.9029 157.422 30.8568C157.499 30.8106 157.591 30.7969 157.678 30.8187C158.413 31.0158 159.065 31.4463 159.534 32.0454C159.577 32.0938 159.604 32.1537 159.613 32.2176C159.622 32.2815 159.612 32.3466 159.584 32.4047C159.556 32.4628 159.511 32.5114 159.456 32.5443C159.4 32.5772 159.336 32.5931 159.272 32.5899Z" fill="#465A64"/>
<path d="M146.872 2.34766H146.013C145.614 2.34766 145.291 2.67073 145.291 3.06926V8.92734C145.291 9.32586 145.614 9.64894 146.013 9.64894H146.872C147.27 9.64894 147.594 9.32586 147.594 8.92734V3.06926C147.594 2.67073 147.27 2.34766 146.872 2.34766Z" fill="#738F9D"/>
<path d="M133.817 7.40162L133.209 8.00928C132.928 8.29108 132.928 8.74798 133.209 9.02978L137.347 13.1674C137.629 13.4492 138.086 13.4492 138.368 13.1674L138.975 12.5598C139.257 12.278 139.257 11.8211 138.975 11.5393L134.838 7.40162C134.556 7.11982 134.099 7.11982 133.817 7.40162Z" fill="#738F9D"/>
<path d="M159.682 8.01049L159.075 7.40283C158.793 7.12103 158.336 7.12102 158.054 7.40283L153.917 11.5405C153.635 11.8223 153.635 12.2792 153.917 12.561L154.524 13.1686C154.806 13.4504 155.263 13.4504 155.545 13.1686L159.682 9.03099C159.964 8.74918 159.964 8.29229 159.682 8.01049Z" fill="#738F9D"/>
<path d="M189.048 52.8599C189.048 52.8599 193.712 53.4306 197.49 51.6922C200.964 53.5334 204.997 54.0213 208.81 53.0617C212.622 52.102 215.944 49.7629 218.132 46.4966C220.32 43.2302 221.219 39.2687 220.656 35.3777C220.093 31.4868 218.107 27.9429 215.082 25.4311C212.058 22.9193 208.209 21.6181 204.281 21.7789C200.353 21.9398 196.624 23.5513 193.815 26.302C191.006 29.0527 189.317 32.7471 189.073 36.671C188.83 40.595 190.05 44.4698 192.498 47.5463C191.829 49.0157 190.484 51.6397 189.048 52.8599Z" fill="#738F9D"/>
<path d="M207.607 35.9017C207.679 35.94 207.763 35.9521 207.843 35.9359C207.923 35.9197 207.995 35.8762 208.047 35.8128C208.099 35.7494 208.127 35.67 208.127 35.5882C208.127 35.5063 208.098 35.427 208.046 35.3638C207.509 34.7818 206.851 34.3255 206.117 34.0273C205.383 33.7291 204.593 33.5963 203.802 33.6385C199.512 33.6385 202.438 38.775 203.146 39.982C203.855 41.1891 205.527 44.0033 205.416 44.8758C205.324 45.6105 203.848 46.0172 202.956 44.8233C202.914 44.7526 202.849 44.6985 202.772 44.6703C202.695 44.6421 202.611 44.6415 202.534 44.6686C202.456 44.6957 202.391 44.7488 202.348 44.8189C202.305 44.889 202.288 44.9717 202.3 45.0529C202.336 45.6046 202.504 46.1396 202.791 46.6124C203.077 47.0852 203.474 47.4818 203.946 47.7687C206.38 49.5203 210.461 47.7687 209.85 44.1083C209.47 41.891 206.269 37.955 205.914 36.3478C205.6 35.2851 206.603 35.3703 207.607 35.9017Z" fill="#F6F6F6"/>
<path d="M203.912 31.3428C205.136 31.3428 206.129 30.3501 206.129 29.1255C206.129 27.9009 205.136 26.9082 203.912 26.9082C202.687 26.9082 201.694 27.9009 201.694 29.1255C201.694 30.3501 202.687 31.3428 203.912 31.3428Z" fill="#F6F6F6"/>
<path d="M152.946 29.3153C152.946 29.3153 151.484 27.3998 150.027 28.5215C149.996 28.3985 149.923 28.2905 149.819 28.2171C149.716 28.1437 149.589 28.1098 149.463 28.1214C149.037 28.1935 149.253 29.5187 149.253 29.5187C150.458 29.2038 151.714 29.1346 152.946 29.3153Z" fill="#465A64"/>
<path d="M144.085 32.0899C144.085 32.0899 143.79 29.9054 145.161 30.2597C145.145 30.1636 145.156 30.0647 145.195 29.9751C145.233 29.8855 145.297 29.8089 145.378 29.7546C145.83 29.584 146.171 30.8107 146.171 30.8107C145.358 31.0046 144.627 31.4527 144.085 32.0899Z" fill="#465A64"/>
<path d="M151.408 33.3554C151.895 33.2443 152.179 32.6645 152.041 32.0605C151.903 31.4565 151.396 31.0569 150.909 31.168C150.422 31.2791 150.138 31.8588 150.276 32.4629C150.413 33.0669 150.92 33.4665 151.408 33.3554Z" fill="#465A64"/>
<path d="M150.924 32.1518C151.054 32.122 151.136 31.9919 151.106 31.8612C151.077 31.7305 150.946 31.6487 150.816 31.6785C150.685 31.7083 150.603 31.8384 150.633 31.9691C150.663 32.0998 150.793 32.1816 150.924 32.1518Z" fill="white"/>
<path d="M146.198 34.537C146.685 34.4259 146.969 33.8462 146.831 33.2421C146.693 32.6381 146.186 32.2385 145.699 32.3496C145.212 32.4607 144.928 33.0405 145.066 33.6445C145.203 34.2485 145.71 34.6481 146.198 34.537Z" fill="#465A64"/>
<path d="M146.345 33.2231C146.476 33.1936 146.559 33.0632 146.529 32.9318C146.5 32.8005 146.369 32.7179 146.238 32.7474C146.106 32.7769 146.024 32.9073 146.053 33.0386C146.083 33.17 146.213 33.2526 146.345 33.2231Z" fill="white"/>
<path d="M148.512 36.7276C148.297 36.7366 148.083 36.6907 147.89 36.5944C147.697 36.498 147.532 36.3542 147.41 36.1766C147.324 36.0655 147.268 35.9341 147.247 35.7951C147.227 35.6561 147.242 35.5141 147.292 35.3828C147.394 35.1967 147.532 35.0326 147.697 34.8997C147.862 34.7669 148.052 34.668 148.256 34.6087L147.85 32.7654C147.831 32.6784 147.848 32.5877 147.897 32.5133C147.945 32.4388 148.022 32.3868 148.109 32.3685C148.196 32.3502 148.286 32.3673 148.361 32.4158C148.435 32.4644 148.487 32.5406 148.506 32.6276L148.978 34.7662C148.996 34.8496 148.98 34.9366 148.935 35.0089C148.89 35.0811 148.818 35.1329 148.735 35.1532C148.411 35.2091 148.115 35.3733 147.895 35.619C147.886 35.6515 147.887 35.6858 147.896 35.7182C147.905 35.7506 147.923 35.7798 147.948 35.8026C148.309 36.334 149.175 35.9076 149.181 35.901C149.258 35.8692 149.343 35.8675 149.421 35.8962C149.499 35.9249 149.563 35.9819 149.6 36.0558C149.637 36.1298 149.645 36.2151 149.622 36.2946C149.6 36.3742 149.547 36.4422 149.476 36.4849C149.177 36.6363 148.848 36.7192 148.512 36.7276Z" fill="#465A64"/>
<path d="M149.223 38.6771C149.223 38.6771 151.893 39.7398 152.818 36.5254L149.223 38.6771Z" fill="white"/>
<path d="M175.723 17.7295C179.256 17.7295 182.119 14.8659 182.119 11.3335C182.119 7.80109 179.256 4.9375 175.723 4.9375C172.191 4.9375 169.327 7.80109 169.327 11.3335C169.327 14.8659 172.191 17.7295 175.723 17.7295Z" fill="#F6F6F6"/>
<path d="M183.234 5.62779C183.33 5.72287 183.405 5.83584 183.457 5.96023C183.509 6.08462 183.535 6.21798 183.535 6.35267C183.535 6.48736 183.509 6.62073 183.457 6.74512C183.405 6.86951 183.33 6.98248 183.234 7.07755L176.464 13.8016C176.369 13.897 176.256 13.9727 176.132 14.0243C176.007 14.076 175.874 14.1025 175.739 14.1025C175.605 14.1025 175.471 14.076 175.347 14.0243C175.223 13.9727 175.11 13.897 175.014 13.8016L171.794 10.5806C171.631 10.383 171.547 10.1319 171.56 9.87619C171.572 9.62051 171.679 9.37858 171.86 9.19757C172.041 9.01656 172.283 8.90945 172.539 8.89711C172.795 8.88477 173.046 8.96809 173.243 9.13083L175.736 11.6236L181.791 5.62779C181.983 5.43711 182.242 5.33008 182.513 5.33008C182.783 5.33008 183.042 5.43711 183.234 5.62779Z" fill="#F31624"/>
<path d="M239.559 73.1288V86.4653C239.559 87.9006 238.989 89.2772 237.974 90.2921C236.959 91.3071 235.583 91.8773 234.147 91.8773H217.039L208.951 99.9723V91.8773H207.429C205.993 91.8773 204.617 91.3071 203.602 90.2921C202.587 89.2772 202.017 87.9006 202.017 86.4653V73.1288C202.017 71.6934 202.587 70.3169 203.602 69.3019C204.617 68.287 205.993 67.7168 207.429 67.7168H234.147C235.583 67.7168 236.959 68.287 237.974 69.3019C238.989 70.3169 239.559 71.6934 239.559 73.1288Z" fill="#F6F6F6"/>
<path d="M212.472 83.8809H209.848C209.471 83.8809 209.166 84.1863 209.166 84.5631V85.4946C209.166 85.8714 209.471 86.1769 209.848 86.1769H212.472C212.849 86.1769 213.154 85.8714 213.154 85.4946V84.5631C213.154 84.1863 212.849 83.8809 212.472 83.8809Z" fill="#738F9D"/>
<path d="M227.127 78.3047H209.848C209.471 78.3047 209.166 78.6101 209.166 78.9869V79.9185C209.166 80.2952 209.471 80.6007 209.848 80.6007H227.127C227.504 80.6007 227.81 80.2952 227.81 79.9185V78.9869C227.81 78.6101 227.504 78.3047 227.127 78.3047Z" fill="#738F9D"/>
<path d="M217.123 72.7305H209.848C209.471 72.7305 209.166 73.0359 209.166 73.4127V74.3442C209.166 74.721 209.471 75.0265 209.848 75.0265H217.123C217.5 75.0265 217.806 74.721 217.806 74.3442V73.4127C217.806 73.0359 217.5 72.7305 217.123 72.7305Z" fill="#738F9D"/>
<path d="M126.511 39.8836C126.511 39.8836 120.528 40.6117 115.68 38.3879C111.225 40.7511 106.051 41.3784 101.16 40.1487C96.2691 38.9189 92.0075 35.9194 89.1995 31.73C86.3915 27.5407 85.2364 22.459 85.9576 17.4674C86.6787 12.4758 89.225 7.92892 93.104 4.70569C96.983 1.48247 101.919 -0.188139 106.958 0.0168571C111.998 0.221854 116.782 2.28789 120.386 5.81555C123.991 9.3432 126.159 14.0819 126.473 19.1156C126.786 24.1492 125.222 29.1203 122.083 33.0677C122.942 34.9308 124.641 38.2961 126.511 39.8836Z" fill="#AB212A"/>
<path d="M101.333 17.7636C101.333 17.7636 105.485 15.3036 106.581 11.7481C107.676 8.19254 110.681 10.1081 110.517 12.6796C110.454 14.1134 110.12 15.5224 109.533 16.8321H116.368C117.897 16.8321 117.956 20.1645 116.368 20.6041C116.368 20.6041 117.956 23.1756 115.66 24.8681C115.883 25.4333 115.913 26.0567 115.744 26.6407C115.576 27.2247 115.219 27.7363 114.728 28.0956C114.728 28.0956 115.168 30.6671 112.216 30.9361C109.264 31.205 101.024 29.6765 101.024 29.6765L101.333 17.7636Z" fill="white"/>
<path d="M101.333 16.123H95.6976C95.1252 16.123 94.6611 16.5871 94.6611 17.1595V29.4661C94.6611 30.0385 95.1252 30.5026 95.6976 30.5026H101.333C101.905 30.5026 102.369 30.0385 102.369 29.4661V17.1595C102.369 16.5871 101.905 16.123 101.333 16.123Z" fill="#738F9D"/>
<path d="M73.5715 57.6547C79.39 57.6547 84.1069 52.9379 84.1069 47.1193C84.1069 41.3008 79.39 36.584 73.5715 36.584C67.753 36.584 63.0361 41.3008 63.0361 47.1193C63.0361 52.9379 67.753 57.6547 73.5715 57.6547Z" fill="#F6F6F6"/>
<path d="M73.5705 52.3678C82.479 48.1038 79.4745 42.3638 77.29 41.9243C75.1055 41.4848 73.5705 43.5643 73.5705 43.5643C73.5705 43.5643 72.042 41.4848 69.851 41.9243C67.6599 42.3638 64.662 48.1038 73.5705 52.3678Z" fill="#F31624"/>
<path d="M111.035 51.3957C112.361 51.3957 113.436 50.3207 113.436 48.9947C113.436 47.6687 112.361 46.5938 111.035 46.5938C109.709 46.5938 108.634 47.6687 108.634 48.9947C108.634 50.3207 109.709 51.3957 111.035 51.3957Z" fill="#F6F6F6"/>
<path d="M101.971 53.7849C102.626 53.7849 103.158 53.2533 103.158 52.5975C103.158 51.9418 102.626 51.4102 101.971 51.4102C101.315 51.4102 100.783 51.9418 100.783 52.5975C100.783 53.2533 101.315 53.7849 101.971 53.7849Z" fill="#F6F6F6"/>
<path d="M80.0067 259.953C82.4703 259.953 84.4675 257.956 84.4675 255.492C84.4675 253.028 82.4703 251.031 80.0067 251.031C77.5431 251.031 75.5459 253.028 75.5459 255.492C75.5459 257.956 77.5431 259.953 80.0067 259.953Z" fill="#F6F6F6"/>
<path d="M67.9353 252.099C69.1563 252.099 70.146 251.109 70.146 249.888C70.146 248.667 69.1563 247.678 67.9353 247.678C66.7144 247.678 65.7246 248.667 65.7246 249.888C65.7246 251.109 66.7144 252.099 67.9353 252.099Z" fill="#F6F6F6"/>
<path d="M213.313 118.217C215.36 118.217 217.019 116.558 217.019 114.511C217.019 112.464 215.36 110.805 213.313 110.805C211.266 110.805 209.606 112.464 209.606 114.511C209.606 116.558 211.266 118.217 213.313 118.217Z" fill="#F6F6F6"/>
<path d="M203.289 111.689C204.303 111.689 205.126 110.867 205.126 109.852C205.126 108.838 204.303 108.016 203.289 108.016C202.275 108.016 201.452 108.838 201.452 109.852C201.452 110.867 202.275 111.689 203.289 111.689Z" fill="#F6F6F6"/>
<path d="M225.94 231.803C226.924 231.54 227.427 230.226 227.064 228.868C226.701 227.51 225.609 226.622 224.626 226.885C223.642 227.148 223.139 228.462 223.502 229.82C223.865 231.178 224.957 232.066 225.94 231.803Z" fill="#F6F6F6"/>
<path d="M230.348 223.288C231.102 223.186 231.599 222.259 231.457 221.218C231.316 220.177 230.591 219.416 229.837 219.518C229.083 219.62 228.586 220.547 228.727 221.588C228.868 222.629 229.594 223.391 230.348 223.288Z" fill="#F6F6F6"/>
<path d="M261.223 217.202C261.714 215.587 261.163 213.988 259.992 213.632C258.82 213.276 257.472 214.296 256.981 215.911C256.489 217.527 257.041 219.125 258.212 219.481C259.384 219.838 260.732 218.817 261.223 217.202Z" fill="#F6F6F6"/>
<path d="M269.76 249.233C270.759 247.872 270.768 246.181 269.781 245.457C268.793 244.732 267.183 245.248 266.184 246.61C265.186 247.971 265.176 249.661 266.164 250.386C267.151 251.11 268.761 250.594 269.76 249.233Z" fill="#F6F6F6"/>
<path d="M275.543 244.723C276.103 243.961 276.106 243.013 275.551 242.605C274.996 242.198 274.093 242.486 273.533 243.249C272.974 244.011 272.97 244.959 273.525 245.366C274.08 245.773 274.984 245.486 275.543 244.723Z" fill="#F6F6F6"/>
</svg>
