<svg width="301" height="287" viewBox="0 0 301 287" fill="none" xmlns="http://www.w3.org/2000/svg">
<ellipse cx="150.5" cy="143.5" rx="150.5" ry="143.5" fill="#F31624" fill-opacity="0.1"/>
<mask id="mask0_2660_23768" style="mask-type:alpha" maskUnits="userSpaceOnUse" x="0" y="0" width="301" height="287">
<ellipse cx="150.5" cy="143.5" rx="150.5" ry="143.5" fill="#F31624"/>
</mask>
<g mask="url(#mask0_2660_23768)">
<path d="M179.009 290.225C178.766 291.842 178.5 293.209 178.2 294.398C176.89 299.978 174.084 309.618 171.302 318.773C167.646 330.863 164.023 342.112 164.023 342.112C164.023 342.112 165.034 354.041 165.843 363.544C166.652 373.046 161.799 408.832 161.799 408.832C156.745 410.046 148.253 409.237 148.253 409.237C148.253 409.237 141.986 361.118 141.379 340.293C140.772 319.468 141.177 286.108 142.188 274.179C143.199 262.251 142.188 244.879 157.351 244.054C180.893 242.768 181.387 274.665 179.009 290.225Z" fill="#738F9D"/>
<path d="M162.651 250.93C162.651 250.93 169.525 292.579 170.536 295.41C171.547 298.24 193.18 340.092 196.617 348.988C200.054 357.884 209.961 408.834 209.961 408.834C209.961 408.834 218.048 409.44 223.71 408.227C223.71 408.227 225.934 375.272 224.316 361.928C222.699 348.584 220.475 344.338 217.846 335.442C215.218 326.546 211.376 284.29 209.152 273.372C206.928 262.454 204.907 254.165 199.65 247.695C194.393 241.225 160.629 227.477 162.651 250.93Z" fill="#738F9D"/>
<path d="M201.873 271.552C189.742 271.552 187.017 257.585 186.984 257.44C186.975 257.387 186.976 257.332 186.987 257.279C186.999 257.227 187.02 257.177 187.051 257.132C187.082 257.088 187.121 257.05 187.167 257.021C187.212 256.992 187.263 256.972 187.316 256.963C187.369 256.953 187.423 256.954 187.476 256.965C187.529 256.977 187.579 256.999 187.623 257.03C187.667 257.06 187.705 257.1 187.734 257.145C187.764 257.19 187.783 257.241 187.793 257.294C187.898 257.876 190.567 271.495 202.868 270.711C202.921 270.707 202.975 270.713 203.026 270.73C203.076 270.747 203.123 270.774 203.163 270.809C203.203 270.845 203.236 270.888 203.259 270.937C203.281 270.985 203.294 271.038 203.296 271.091C203.3 271.144 203.292 271.197 203.275 271.248C203.258 271.298 203.231 271.344 203.195 271.384C203.16 271.424 203.117 271.457 203.069 271.48C203.021 271.503 202.969 271.517 202.916 271.52C202.585 271.552 202.213 271.552 201.873 271.552Z" fill="#465A64"/>
<path d="M219.665 406.407C219.612 406.403 219.56 406.39 219.512 406.367C219.464 406.343 219.421 406.311 219.386 406.271C219.351 406.231 219.324 406.185 219.306 406.135C219.289 406.084 219.282 406.031 219.285 405.978C219.285 405.695 220.902 377.163 220.296 366.399C219.932 359.856 217.061 351.373 214.497 343.892C212.88 339.04 211.408 334.818 211.004 332.068C210.712 330.063 209.977 324.474 209.038 317.398C206.782 300.269 203.377 274.382 202.52 271.252C201.323 266.869 197.579 255.886 197.538 255.773C197.504 255.671 197.512 255.56 197.559 255.463C197.607 255.367 197.691 255.294 197.793 255.259C197.895 255.225 198.006 255.233 198.103 255.281C198.199 255.328 198.272 255.412 198.307 255.514C198.307 255.627 202.1 266.626 203.296 271.042C204.162 274.22 207.575 300.156 209.839 317.293C210.769 324.369 211.505 329.949 211.796 331.947C212.192 334.624 213.608 338.797 215.258 343.633C217.821 351.162 220.733 359.703 221.097 366.358C221.695 377.171 220.102 405.743 220.086 406.035C220.077 406.139 220.029 406.236 219.95 406.305C219.872 406.375 219.77 406.411 219.665 406.407Z" fill="#465A64"/>
<path d="M168.919 288.131H168.854C168.644 288.131 163.759 287.258 162.877 284.896C162.069 282.737 156.367 255.402 156.124 254.237C156.103 254.13 156.125 254.019 156.186 253.928C156.246 253.837 156.341 253.774 156.448 253.752C156.555 253.731 156.667 253.753 156.758 253.813C156.849 253.874 156.912 253.968 156.933 254.076C156.99 254.359 162.869 282.51 163.654 284.613C164.179 286.004 166.889 286.878 168.441 287.209L162.61 253.413C162.592 253.305 162.617 253.195 162.68 253.106C162.743 253.018 162.839 252.958 162.946 252.939C163.053 252.921 163.163 252.946 163.252 253.009C163.341 253.072 163.401 253.168 163.419 253.275L169.347 287.646C169.36 287.707 169.358 287.771 169.342 287.832C169.326 287.893 169.296 287.949 169.254 287.996C169.213 288.043 169.161 288.08 169.102 288.103C169.044 288.127 168.981 288.136 168.919 288.131Z" fill="#465A64"/>
<path d="M102.303 240.884L97.1115 242.971C97.1115 242.971 88.078 241.119 86.4605 240.172C84.8431 239.226 83.8645 240.779 85.3849 242.332C86.6738 243.525 88.0863 244.577 89.5984 245.47C87.1225 246.613 84.5518 247.538 81.9155 248.235C78.8504 248.874 76.6264 248.907 76.5617 250.193C76.497 251.478 78.349 251.81 78.349 251.81C78.349 251.81 76.9014 252.182 77.1359 253.427C77.3704 254.673 80.3708 254.406 80.3708 254.406C80.3708 254.406 78.8585 254.98 79.1901 255.959C79.5217 256.937 82.7323 256.598 82.7323 256.598C82.6054 256.672 82.4962 256.773 82.4122 256.893C82.3283 257.014 82.2716 257.151 82.2462 257.296C82.2208 257.441 82.2272 257.589 82.2651 257.731C82.303 257.873 82.3713 258.005 82.4654 258.118C83.1771 258.992 94.5963 258.167 99.9016 249.271L106.978 247.297L102.303 240.884Z" fill="#C2A0A0"/>
<path d="M79.5862 252.006C79.5331 252.011 79.4796 252.005 79.4287 251.989C79.3778 251.974 79.3305 251.948 79.2896 251.914C79.2069 251.845 79.1551 251.746 79.1454 251.638C79.1358 251.531 79.1691 251.424 79.2381 251.342C79.3071 251.259 79.4062 251.207 79.5134 251.198C79.5619 251.198 84.107 250.389 86.792 249.58C86.8451 249.565 86.9007 249.56 86.9556 249.566C87.0106 249.572 87.0638 249.589 87.1122 249.616C87.1607 249.642 87.2034 249.678 87.2379 249.721C87.2725 249.765 87.2982 249.814 87.3136 249.867C87.329 249.92 87.3338 249.976 87.3277 250.031C87.3216 250.086 87.3047 250.139 87.2781 250.187C87.2514 250.236 87.2155 250.279 87.1723 250.313C87.1291 250.348 87.0796 250.373 87.0265 250.389C84.2687 251.198 79.6751 252.006 79.6347 252.055H79.5619L79.5862 252.006Z" fill="#465A64"/>
<path d="M81.7448 254.472C81.6917 254.479 81.6377 254.476 81.586 254.462C81.5343 254.448 81.4859 254.424 81.4434 254.391C81.401 254.358 81.3654 254.318 81.3387 254.271C81.312 254.225 81.2947 254.174 81.2878 254.121C81.2809 254.067 81.2845 254.013 81.2985 253.962C81.3124 253.91 81.3364 253.862 81.3691 253.819C81.4018 253.777 81.4425 253.741 81.4889 253.714C81.5353 253.688 81.5865 253.67 81.6396 253.664C81.6396 253.664 85.6833 252.58 88.3035 251.553C88.3538 251.529 88.4084 251.516 88.464 251.514C88.5196 251.512 88.575 251.522 88.6267 251.542C88.6783 251.563 88.7252 251.594 88.7644 251.633C88.8035 251.673 88.8341 251.72 88.8542 251.772C88.8743 251.824 88.8834 251.879 88.8811 251.935C88.8788 251.991 88.865 252.045 88.8406 252.095C88.8163 252.145 88.7818 252.19 88.7395 252.226C88.6972 252.262 88.6479 252.289 88.5947 252.305C85.9097 253.348 81.8903 254.432 81.8499 254.44L81.7448 254.472Z" fill="#465A64"/>
<path d="M83.5553 256.657C83.448 256.672 83.3392 256.644 83.2527 256.578C83.1663 256.513 83.1093 256.416 83.0943 256.309C83.0793 256.202 83.1075 256.093 83.1727 256.007C83.2379 255.92 83.3348 255.863 83.442 255.848C85.6169 255.203 87.7528 254.434 89.8391 253.543C89.9366 253.498 90.0481 253.494 90.149 253.531C90.2498 253.568 90.3318 253.644 90.3769 253.741C90.4219 253.839 90.4263 253.95 90.3892 254.051C90.352 254.152 90.2763 254.234 90.1787 254.279C88.0689 255.184 85.9087 255.967 83.7089 256.624L83.5553 256.657Z" fill="#465A64"/>
<path d="M164.84 163.081C162.627 161.109 148.899 164.424 146.058 163.68C143.217 162.937 140.245 162.884 137.381 163.528C127.01 165.478 124.149 175.465 131.187 181.595C137.109 186.758 134.048 192.506 128.555 191.935C128.083 191.883 127.605 191.952 127.165 192.137C126.726 192.322 126.338 192.616 126.037 192.993C125.736 193.37 125.532 193.818 125.442 194.296C125.352 194.775 125.38 195.268 125.523 195.733C126.495 199.077 129.499 202.86 138.225 202.508C153.602 201.892 175.956 182.406 165.457 177.875C154.957 173.343 164.224 164.314 165.457 164.314L164.84 163.081Z" fill="#465A64"/>
<path d="M107.859 234.754L101.495 238.733C101.495 238.733 99.6102 246.48 106.08 250.395L114.839 248.575C114.839 248.575 116.957 237.447 107.859 234.754Z" fill="white"/>
<path d="M151.562 211.293C150.382 223.141 148.328 235.821 145.262 237.487C143.507 238.45 139.132 239.873 134.134 241.329C124.43 244.143 112.404 247.087 112.404 247.087C108.465 244.054 108.465 236.573 108.465 236.573L133.334 223.836C133.334 223.836 133.641 217.463 134.345 209.376C135.048 201.289 133.285 188.964 139.092 183.602C145.667 177.536 152.646 183.4 152.743 191.689C152.784 195.102 152.395 202.995 151.562 211.293Z" fill="#F8777F"/>
<path d="M192.749 189.81C192.749 189.81 195.85 188.108 198.045 181.4C199.107 178.158 195.105 175.042 193.478 170.838C191.739 166.345 188.322 165.745 185.083 164.779C185.083 164.779 174.21 162.457 172.463 159.41C168.253 152.064 157.24 122.887 146.415 140.804C135.589 158.721 140.156 173.428 146.539 180.632C152.922 187.837 154.722 182.659 157.539 182.945C161.534 183.355 162.471 187.249 169.352 184.386C173.893 182.496 184.995 190.997 184.995 190.997C189.102 190.543 188.474 193.071 192.749 189.81Z" fill="#465A64"/>
<path d="M173.357 179.456C175.676 177.992 176.957 164.629 178.427 162.257C179.897 159.885 180.824 157.205 181.132 154.43C182.567 144.486 169.881 141.587 167.679 141.637C165.476 141.686 164.963 139.946 163.911 137.634C162.859 135.322 159.568 134.811 159.568 134.811C159.568 134.811 159.898 136.391 159.669 136.015C159.441 135.638 159.124 135.329 158.748 135.115C158.372 134.902 157.947 134.791 157.513 134.792C154.407 134.752 150.327 136.433 148.033 144.443C143.988 158.558 153.772 184.206 160.707 175.934C167.643 167.662 172.501 178.557 172.135 179.675L173.357 179.456Z" fill="#465A64"/>
<path d="M193.266 185.973C195.584 184.509 197.558 182.512 199.028 180.14C200.498 177.769 201.424 175.088 201.732 172.313C203.167 162.37 195.6 157.021 188.345 161.712C182.237 165.659 178.447 161.938 180.56 157.114C180.744 156.7 180.681 155.607 180.656 155.157C180.63 154.708 180.498 154.275 180.269 153.898C180.041 153.521 179.724 153.212 179.348 152.999C178.972 152.785 178.547 152.674 178.114 152.676C175.007 152.636 170.927 154.316 168.633 162.327C164.588 176.442 178.713 182.028 185.648 173.756C192.584 165.484 197.499 173.082 189.979 182.47L193.266 185.973Z" fill="#465A64"/>
<path d="M164.84 139.454C162.627 137.481 159.994 136.067 157.153 135.324C154.312 134.58 151.34 134.528 148.476 135.171C138.105 137.122 135.245 147.109 142.282 153.239C148.204 158.401 145.676 163.651 140.184 163.079C139.711 163.028 138.7 163.596 138.261 163.781C137.821 163.966 137.433 164.26 137.132 164.637C136.831 165.014 136.627 165.462 136.537 165.94C136.447 166.418 136.475 166.912 136.618 167.376C137.59 170.72 140.594 174.504 149.32 174.152C164.697 173.536 165.655 156.436 155.156 151.905C144.657 147.373 150.622 139.439 162.423 144.205L164.84 139.454Z" fill="#465A64"/>
<path d="M205.821 255.475C205.821 255.475 202.966 256.284 198.429 257.198C191.231 258.71 179.828 260.675 168.829 260.732C150.932 260.837 143.144 255.984 143.144 255.984C144.26 246.886 143.759 226.264 143.759 226.264C143.759 226.264 137.079 214.634 137.079 211.909C137.079 209.183 140.823 191.893 140.823 191.893L139.101 183.603C139.101 183.603 152.93 171.772 163.241 170.963C174.895 170.057 189.549 177.028 189.549 177.028C189.549 177.028 191.878 190.178 193.188 195.33C193.949 198.314 198.041 217.974 201.397 234.068C203.807 245.738 205.821 255.475 205.821 255.475Z" fill="#F8777F"/>
<path d="M143.858 235.968C143.751 235.968 143.648 235.925 143.572 235.849C143.496 235.774 143.454 235.671 143.454 235.564C143.454 230.808 143.357 227.031 143.34 226.376C142.669 225.204 136.668 214.618 136.668 211.908C136.668 209.199 140.089 193.308 140.397 191.892L139.095 185.608C139.073 185.501 139.095 185.39 139.156 185.299C139.217 185.208 139.311 185.145 139.418 185.123C139.525 185.102 139.637 185.124 139.728 185.184C139.819 185.245 139.882 185.339 139.903 185.447L141.222 191.82C141.234 191.875 141.234 191.933 141.222 191.989C141.222 192.159 137.493 209.264 137.493 211.916C137.493 214.068 142.273 222.858 144.109 226.069C144.143 226.128 144.163 226.195 144.165 226.263C144.165 226.263 144.262 230.355 144.279 235.572C144.279 235.679 144.236 235.782 144.16 235.858C144.084 235.933 143.981 235.976 143.874 235.976L143.858 235.968Z" fill="#ECBDBB"/>
<path d="M162.067 168.998C156.568 169.354 153.883 175.064 153.018 182.342C153.018 182.342 156.964 179.56 160.045 179.156C163.127 178.751 169.297 181.533 169.297 181.533C169.297 181.533 172.12 168.343 162.067 168.998Z" fill="white"/>
<path d="M158.338 224.306C158.338 224.306 146.879 220.602 146.474 220.53C146.07 220.457 131.173 223.36 130.704 223.902C130.621 224.036 130.57 224.187 130.553 224.344C130.536 224.5 130.554 224.659 130.606 224.807C130.657 224.956 130.742 225.091 130.853 225.203C130.963 225.315 131.098 225.401 131.246 225.455C131.788 225.722 140.207 224.784 140.207 224.784C139.906 225.827 139.658 226.885 139.463 227.954C139.463 228.423 141.954 232.466 143.442 232.806C144.458 232.985 145.504 232.893 146.474 232.539L147.55 231.666C148.388 231.888 149.247 232.024 150.114 232.07C150.785 232.005 152.135 230.655 152.135 230.655L157.125 232.539L158.338 224.306Z" fill="#C2A0A0"/>
<path d="M141.185 229.436H141.063C141.012 229.421 140.965 229.395 140.923 229.361C140.882 229.327 140.848 229.285 140.824 229.237C140.799 229.19 140.784 229.138 140.779 229.085C140.774 229.031 140.78 228.978 140.796 228.927L142.179 224.446C142.195 224.393 142.22 224.344 142.255 224.301C142.29 224.257 142.332 224.221 142.381 224.195C142.429 224.168 142.482 224.151 142.537 224.145C142.592 224.139 142.648 224.144 142.701 224.159C142.754 224.175 142.804 224.2 142.847 224.235C142.89 224.269 142.926 224.312 142.953 224.361C142.979 224.409 142.996 224.462 143.002 224.517C143.008 224.572 143.004 224.628 142.988 224.681L141.605 229.161C141.576 229.248 141.519 229.322 141.443 229.372C141.366 229.422 141.275 229.445 141.185 229.436Z" fill="#465A64"/>
<path d="M142.836 231.285C142.729 231.285 142.626 231.243 142.55 231.167C142.474 231.091 142.432 230.988 142.432 230.881C142.432 230.768 142.432 230.695 144.559 225.964C144.607 225.873 144.688 225.804 144.785 225.77C144.882 225.737 144.989 225.741 145.082 225.784C145.176 225.826 145.251 225.902 145.29 225.998C145.329 226.093 145.331 226.199 145.295 226.295C144.551 227.961 143.337 230.671 143.232 230.978C143.21 231.066 143.159 231.145 143.088 231.2C143.016 231.256 142.927 231.286 142.836 231.285Z" fill="#465A64"/>
<path d="M166.022 223.297C166.022 223.297 168.917 232.662 161.307 239.407L154.57 235.703C154.57 235.703 152.751 225.998 158.614 222.496L166.022 223.297Z" fill="white"/>
<path d="M200.659 250.217C191.408 251.705 167.235 239.776 160.805 236.469C160.523 234.458 160.643 232.412 161.156 230.447C161.67 228.483 162.568 226.64 163.798 225.025L191.359 228.486C191.359 228.486 186.102 211.786 182.358 200.181C178.614 188.576 182.002 174.682 189.539 177.027C201.873 180.877 205.916 200.885 208.14 218.078C210.364 235.272 211.375 248.502 200.659 250.217Z" fill="#F8777F"/>
<path d="M191.359 228.908H191.31L163.765 225.455C163.658 225.441 163.561 225.385 163.495 225.299C163.429 225.213 163.399 225.105 163.413 224.998C163.427 224.89 163.483 224.793 163.569 224.727C163.655 224.661 163.763 224.632 163.87 224.646L190.809 228.026C189.83 224.929 185.302 210.558 182.002 200.311C179.648 193.033 180.029 184.307 182.892 179.64C182.917 179.59 182.952 179.546 182.995 179.51C183.038 179.474 183.088 179.448 183.142 179.433C183.196 179.417 183.252 179.413 183.308 179.421C183.363 179.428 183.416 179.447 183.464 179.476C183.512 179.506 183.553 179.544 183.585 179.59C183.617 179.636 183.639 179.688 183.65 179.743C183.661 179.798 183.66 179.855 183.648 179.909C183.635 179.964 183.612 180.016 183.579 180.061C180.821 184.549 180.481 192.96 182.77 200.061C186.474 211.553 191.723 228.22 191.771 228.366C191.795 228.43 191.801 228.498 191.791 228.565C191.781 228.632 191.754 228.696 191.713 228.75C191.672 228.804 191.618 228.846 191.556 228.874C191.494 228.902 191.426 228.913 191.359 228.908Z" fill="#ECBDBB"/>
<path d="M198.907 250.753C188.628 250.753 167.253 240.239 160.63 236.851C160.583 236.826 160.541 236.793 160.506 236.752C160.472 236.712 160.446 236.665 160.43 236.614C160.414 236.563 160.408 236.51 160.412 236.457C160.417 236.404 160.432 236.352 160.456 236.305C160.481 236.258 160.514 236.216 160.555 236.181C160.595 236.147 160.642 236.121 160.693 236.105C160.744 236.089 160.797 236.083 160.85 236.087C160.903 236.092 160.955 236.107 161.002 236.131C165.984 238.679 191.281 251.319 200.63 249.823L201.333 249.685C201.44 249.663 201.552 249.684 201.644 249.744C201.736 249.804 201.8 249.898 201.822 250.005C201.845 250.112 201.824 250.224 201.764 250.316C201.704 250.407 201.61 250.472 201.503 250.494L200.751 250.64C200.14 250.727 199.524 250.765 198.907 250.753Z" fill="#ECBDBB"/>
<path d="M202.414 236.841C202.338 236.84 202.263 236.818 202.198 236.776C202.134 236.735 202.083 236.676 202.05 236.606C200.126 232.433 193.154 230.039 193.154 230.015C193.052 229.981 192.968 229.907 192.921 229.811C192.873 229.715 192.865 229.603 192.9 229.502C192.934 229.4 193.007 229.316 193.104 229.268C193.2 229.22 193.311 229.212 193.413 229.247C193.712 229.352 200.748 231.778 202.819 236.267C202.849 236.331 202.862 236.403 202.855 236.474C202.849 236.545 202.824 236.613 202.783 236.671C202.742 236.729 202.686 236.776 202.622 236.806C202.557 236.835 202.485 236.847 202.414 236.841Z" fill="#ECBDBB"/>
<path d="M165.384 172.636C165.008 173.289 164.506 173.862 163.908 174.321C163.31 174.781 162.627 175.117 161.899 175.312C161.235 175.444 160.549 175.407 159.903 175.205C159.258 175.003 158.673 174.643 158.203 174.156L157.774 170.517L157.144 165.203L162.958 161.459L163.549 164.467L165.384 172.636Z" fill="#C2A0A0"/>
<path d="M163.548 164.459C163.28 165.927 162.586 167.283 161.554 168.36C160.522 169.436 159.196 170.186 157.742 170.517L157.111 165.203L162.958 161.459L163.548 164.459Z" fill="#263137"/>
<path d="M152.6 141.182C145.865 143.013 144.137 149.318 149.562 162.706C153.407 172.207 162.798 171.464 165.471 159.735C168.5 146.485 159.465 139.308 152.6 141.182Z" fill="#C2A0A0"/>
<path d="M146.348 154.451C146.348 154.451 145.731 149.52 148.197 150.137C150.663 150.753 151.495 145.999 153.128 146.438C157.062 147.496 156.412 143.269 157.824 143.834C160.907 145.067 158.256 147.901 161.758 149.858L162.906 155.05C162.906 155.05 168.098 152.284 166.408 144.067C164.718 135.851 156.534 130.254 148.074 135.236C138.742 140.735 146.348 154.451 146.348 154.451Z" fill="#465A64"/>
<path d="M163.282 154.983C163.113 154.036 163.277 153.06 163.746 152.22C164.215 151.38 164.959 150.728 165.853 150.374C166.197 150.226 166.567 150.149 166.941 150.149C167.315 150.149 167.685 150.226 168.029 150.374C170.455 151.522 169.986 158.396 163.985 159.334L163.282 154.983Z" fill="#C2A0A0"/>
<path d="M165.386 157.523C165.291 157.522 165.2 157.489 165.128 157.428C165.055 157.368 165.006 157.284 164.989 157.191C164.989 156.997 164.116 152.411 167.124 151.287C167.174 151.269 167.227 151.26 167.281 151.262C167.334 151.264 167.386 151.276 167.435 151.298C167.483 151.321 167.527 151.352 167.563 151.391C167.599 151.43 167.627 151.476 167.646 151.526C167.665 151.576 167.673 151.629 167.671 151.682C167.669 151.735 167.657 151.788 167.635 151.836C167.613 151.884 167.581 151.928 167.542 151.964C167.503 152.001 167.457 152.029 167.407 152.047C165.03 152.937 165.79 157.005 165.79 157.045C165.809 157.15 165.786 157.259 165.725 157.347C165.664 157.434 165.571 157.495 165.467 157.514H165.386V157.523Z" fill="#465A64"/>
<path d="M167.641 155.176C167.576 155.177 167.512 155.162 167.455 155.132C167.397 155.102 167.347 155.059 167.31 155.007C166.839 154.422 166.197 154.001 165.474 153.802C165.366 153.775 165.274 153.707 165.217 153.612C165.16 153.517 165.144 153.403 165.17 153.296C165.197 153.189 165.266 153.097 165.36 153.04C165.455 152.983 165.569 152.966 165.676 152.993C166.582 153.236 167.386 153.767 167.965 154.505C168.017 154.565 168.051 154.639 168.062 154.718C168.073 154.796 168.06 154.877 168.026 154.948C167.991 155.02 167.936 155.08 167.868 155.12C167.799 155.161 167.721 155.18 167.641 155.176Z" fill="#465A64"/>
<path d="M152.354 117.895H151.295C150.803 117.895 150.405 118.293 150.405 118.784V126.006C150.405 126.497 150.803 126.896 151.295 126.896H152.354C152.845 126.896 153.244 126.497 153.244 126.006V118.784C153.244 118.293 152.845 117.895 152.354 117.895Z" fill="#738F9D"/>
<path d="M136.26 124.126L135.511 124.875C135.163 125.222 135.163 125.786 135.511 126.133L140.612 131.234C140.959 131.581 141.522 131.581 141.87 131.234L142.619 130.485C142.966 130.137 142.966 129.574 142.619 129.227L137.518 124.126C137.171 123.778 136.607 123.778 136.26 124.126Z" fill="#738F9D"/>
<path d="M168.147 124.877L167.398 124.128C167.05 123.781 166.487 123.781 166.14 124.128L161.039 129.229C160.691 129.576 160.691 130.14 161.039 130.487L161.788 131.236C162.135 131.584 162.699 131.584 163.046 131.236L168.147 126.135C168.494 125.788 168.494 125.225 168.147 124.877Z" fill="#738F9D"/>
<path d="M222.673 153.64C224.183 153.64 225.407 152.416 225.407 150.906C225.407 149.397 224.183 148.173 222.673 148.173C221.164 148.173 219.94 149.397 219.94 150.906C219.94 152.416 221.164 153.64 222.673 153.64Z" fill="white"/>
<path d="M159.843 151.141C159.843 151.141 158.039 148.779 156.244 150.162C156.206 150.01 156.115 149.877 155.987 149.787C155.86 149.696 155.704 149.654 155.548 149.669C155.023 149.758 155.29 151.391 155.29 151.391C156.775 151.003 158.324 150.918 159.843 151.141Z" fill="#465A64"/>
<path d="M148.919 154.56C148.919 154.56 148.555 151.867 150.245 152.304C150.225 152.185 150.239 152.064 150.286 151.953C150.334 151.843 150.412 151.748 150.512 151.681C151.07 151.471 151.491 152.983 151.491 152.983C150.487 153.222 149.587 153.775 148.919 154.56Z" fill="#465A64"/>
<path d="M157.946 156.122C158.547 155.986 158.896 155.271 158.727 154.526C158.557 153.781 157.932 153.289 157.331 153.426C156.73 153.563 156.381 154.278 156.55 155.022C156.72 155.767 157.345 156.259 157.946 156.122Z" fill="#465A64"/>
<path d="M157.349 154.637C157.51 154.6 157.611 154.44 157.574 154.279C157.538 154.118 157.377 154.017 157.216 154.054C157.055 154.09 156.954 154.251 156.991 154.412C157.028 154.573 157.188 154.674 157.349 154.637Z" fill="white"/>
<path d="M151.523 157.578C152.124 157.441 152.473 156.726 152.303 155.981C152.134 155.237 151.509 154.744 150.908 154.881C150.307 155.018 149.957 155.733 150.127 156.477C150.297 157.222 150.922 157.715 151.523 157.578Z" fill="#465A64"/>
<path d="M151.704 155.958C151.866 155.922 151.968 155.761 151.932 155.599C151.895 155.437 151.734 155.335 151.573 155.372C151.411 155.408 151.309 155.569 151.345 155.731C151.381 155.893 151.542 155.995 151.704 155.958Z" fill="white"/>
<path d="M154.376 160.278C154.111 160.289 153.847 160.233 153.609 160.114C153.371 159.995 153.168 159.818 153.017 159.599C152.911 159.462 152.842 159.3 152.817 159.129C152.791 158.957 152.81 158.782 152.872 158.62C152.997 158.391 153.167 158.189 153.371 158.025C153.575 157.861 153.809 157.739 154.061 157.666L153.559 155.394C153.537 155.286 153.558 155.175 153.618 155.083C153.677 154.991 153.771 154.927 153.879 154.904C153.986 154.882 154.098 154.903 154.189 154.963C154.281 155.023 154.345 155.117 154.368 155.224L154.95 157.86C154.972 157.963 154.953 158.07 154.897 158.159C154.841 158.249 154.753 158.312 154.651 158.337C154.251 158.406 153.886 158.609 153.616 158.912C153.605 158.952 153.605 158.994 153.616 159.034C153.628 159.074 153.65 159.11 153.68 159.138C154.125 159.793 155.193 159.267 155.201 159.259C155.295 159.22 155.401 159.218 155.497 159.253C155.592 159.289 155.671 159.359 155.717 159.45C155.763 159.541 155.773 159.646 155.745 159.745C155.717 159.843 155.652 159.926 155.565 159.979C155.196 160.166 154.79 160.268 154.376 160.278Z" fill="#465A64"/>
<path d="M155.252 162.683C155.252 162.683 158.544 163.993 159.684 160.03L155.252 162.683Z" fill="white"/>
<path d="M187.922 136.857C192.277 136.857 195.807 133.327 195.807 128.972C195.807 124.617 192.277 121.087 187.922 121.087C183.567 121.087 180.037 124.617 180.037 128.972C180.037 133.327 183.567 136.857 187.922 136.857Z" fill="white"/>
<path d="M197.182 121.937C197.3 122.055 197.393 122.194 197.457 122.347C197.52 122.501 197.553 122.665 197.553 122.831C197.553 122.997 197.52 123.161 197.457 123.315C197.393 123.468 197.3 123.607 197.182 123.725L188.836 132.014C188.719 132.132 188.579 132.225 188.426 132.289C188.273 132.352 188.108 132.385 187.942 132.385C187.776 132.385 187.612 132.352 187.458 132.289C187.305 132.225 187.166 132.132 187.049 132.014L183.078 128.043C182.877 127.8 182.774 127.49 182.79 127.175C182.805 126.86 182.937 126.561 183.16 126.338C183.383 126.115 183.681 125.983 183.997 125.968C184.312 125.953 184.621 126.055 184.865 126.256L187.938 129.329L195.403 121.937C195.639 121.702 195.959 121.57 196.292 121.57C196.626 121.57 196.946 121.702 197.182 121.937Z" fill="#F31624"/>
<path d="M127.253 164.169C127.253 164.169 119.877 165.067 113.9 162.325C108.408 165.239 102.03 166.012 95.9999 164.496C89.97 162.98 84.7163 159.282 81.2545 154.117C77.7927 148.953 76.3687 142.688 77.2578 136.534C78.1469 130.38 81.2859 124.775 86.068 120.801C90.8501 116.828 96.9356 114.768 103.148 115.021C109.361 115.274 115.259 117.821 119.702 122.169C124.146 126.518 126.819 132.36 127.205 138.566C127.592 144.772 125.663 150.9 121.794 155.766C122.853 158.063 124.948 162.212 127.253 164.169Z" fill="#AB212A"/>
<path d="M96.2126 136.9C96.2126 136.9 101.332 133.867 102.682 129.484C104.033 125.101 107.737 127.462 107.535 130.632C107.457 132.4 107.045 134.137 106.322 135.752H114.749C116.633 135.752 116.706 139.86 114.749 140.402C114.749 140.402 116.706 143.572 113.875 145.659C114.151 146.355 114.187 147.124 113.98 147.844C113.772 148.564 113.331 149.195 112.727 149.638C112.727 149.638 113.269 152.808 109.629 153.139C105.99 153.471 95.8325 151.587 95.8325 151.587L96.2126 136.9Z" fill="white"/>
<path d="M96.2125 134.876H89.2656C88.5599 134.876 87.9878 135.448 87.9878 136.154V151.325C87.9878 152.031 88.5599 152.603 89.2656 152.603H96.2125C96.9182 152.603 97.4903 152.031 97.4903 151.325V136.154C97.4903 135.448 96.9182 134.876 96.2125 134.876Z" fill="#738F9D"/>
<path d="M61.9882 186.078C69.1613 186.078 74.9763 180.263 74.9763 173.09C74.9763 165.917 69.1613 160.102 61.9882 160.102C54.815 160.102 49 165.917 49 173.09C49 180.263 54.815 186.078 61.9882 186.078Z" fill="white"/>
<path d="M61.9867 179.56C72.9693 174.304 69.2653 167.227 66.5722 166.686C63.8792 166.144 61.9867 168.707 61.9867 168.707C61.9867 168.707 60.1024 166.144 57.4013 166.686C54.7001 167.227 51.0042 174.304 61.9867 179.56Z" fill="#F31624"/>
<path d="M108.173 178.36C109.808 178.36 111.133 177.035 111.133 175.4C111.133 173.766 109.808 172.44 108.173 172.44C106.539 172.44 105.213 173.766 105.213 175.4C105.213 177.035 106.539 178.36 108.173 178.36Z" fill="white"/>
<path d="M96.9989 181.306C97.8074 181.306 98.4627 180.65 98.4627 179.842C98.4627 179.033 97.8074 178.378 96.9989 178.378C96.1905 178.378 95.5352 179.033 95.5352 179.842C95.5352 180.65 96.1905 181.306 96.9989 181.306Z" fill="white"/>
<path d="M234.264 260.74C236.787 260.74 238.833 258.694 238.833 256.171C238.833 253.647 236.787 251.602 234.264 251.602C231.74 251.602 229.694 253.647 229.694 256.171C229.694 258.694 231.74 260.74 234.264 260.74Z" fill="white"/>
<path d="M221.906 252.69C223.156 252.69 224.17 251.676 224.17 250.426C224.17 249.175 223.156 248.161 221.906 248.161C220.655 248.161 219.641 249.175 219.641 250.426C219.641 251.676 220.655 252.69 221.906 252.69Z" fill="white"/>
</g>
<rect x="30" y="22" width="232" height="36" rx="8" fill="#465A64"/>
<path d="M106.318 38.5981C103.676 41.3325 105.742 43.5697 110.948 43.6479L110.444 44.543C103.811 44.4715 101.005 41.9148 104.173 38.7969C106.495 36.5102 111.808 34.1166 116.531 33.4491L116.119 34.2018C112.234 34.9334 108.257 36.5955 106.318 38.5981Z" fill="white"/>
<path d="M103.513 38.7686C100.111 42.121 103.087 44.8834 110.21 44.9614L109.507 46.2115C109.252 46.2188 109.003 46.2188 108.747 46.2188C100.622 46.2188 97.519 42.625 101.304 38.7191C104.33 35.5869 111.177 32.9732 116.971 32.6462L116.645 33.243C111.432 33.875 105.999 36.3182 103.513 38.7686Z" fill="white"/>
<path d="M98.3992 38.7539C102.014 35.0819 110.117 32.2698 117.333 32L117.077 32.433C110.842 32.7385 103.889 35.3804 100.707 38.6689C96.7301 42.7736 99.9546 46.6371 108.492 46.6371C108.761 46.6371 109.009 46.6304 109.279 46.6231L108.534 47.944C107.568 48.008 104.358 48.1852 101.297 47.2412C96.2401 45.6786 95.0258 42.1699 98.3992 38.7539Z" fill="white"/>
<path d="M112.305 44.5C111.829 44.5215 111.324 44.5357 110.977 44.543L111.438 43.6547C111.779 43.6479 112.262 43.6409 112.631 43.6264L112.305 44.5Z" fill="white"/>
<path d="M111.105 47.7308C110.508 47.7873 109.769 47.8513 109.266 47.8945L109.919 46.609C110.359 46.5875 111.012 46.5522 111.552 46.5164L111.105 47.7308Z" fill="white"/>
<path d="M111.702 46.1324C111.275 46.1614 110.743 46.1894 110.125 46.2109L110.757 44.9749C111.275 44.9681 111.758 44.9466 112.149 44.9251L111.702 46.1324Z" fill="white"/>
<path d="M148.199 33.7528L147.907 35.1807H150.264L147.89 46.3984H150.436L152.81 35.1807H155.219L155.512 33.7528H148.199Z" fill="white"/>
<path d="M162.738 34.4406C162.291 33.8902 161.448 33.6151 160.21 33.6151C159.039 33.6151 158.093 33.9073 157.353 34.5096C156.631 35.0944 156.149 35.9546 155.908 37.0733L153.93 46.3984H156.476L157.921 39.6022H159.934L158.489 46.3984H161.053L163.031 37.0733C163.271 35.8685 163.186 35.0084 162.738 34.4406ZM160.588 36.54L160.295 37.9161H158.282L158.575 36.54C158.678 36.0062 158.833 35.6453 159.022 35.4213C159.211 35.2152 159.504 35.0944 159.899 35.0944C160.261 35.0944 160.485 35.2152 160.588 35.4213C160.708 35.6453 160.708 36.0238 160.588 36.54Z" fill="white"/>
<path d="M170.67 33.7518L168.743 42.8532C168.588 43.5757 168.416 44.0748 168.21 44.333C168.02 44.6083 167.745 44.746 167.401 44.746C167.022 44.746 166.816 44.591 166.729 44.3159C166.661 44.0229 166.696 43.5413 166.851 42.8532L168.777 33.7518H166.231L164.287 42.9046C164.029 44.1264 164.132 45.0384 164.596 45.6578C165.078 46.2942 165.87 46.6035 167.005 46.6035C168.175 46.6035 169.121 46.2942 169.827 45.6922C170.515 45.09 171.014 44.1606 171.272 42.9046L173.216 33.7518H170.67Z" fill="white"/>
<path d="M191.075 34.7855C190.628 34.0114 189.767 33.6158 188.512 33.6158C187.273 33.6158 186.24 34.0459 185.415 34.9061C184.623 35.7834 183.935 37.5043 183.384 40.1022C182.834 42.6659 182.782 44.3863 183.229 45.281C183.677 46.158 184.52 46.6055 185.759 46.6055C186.998 46.6055 188.013 46.158 188.838 45.281C189.647 44.3863 190.318 42.6659 190.869 40.1022C191.454 37.3495 191.522 35.5773 191.075 34.7855ZM188.821 36.5925C188.753 37.4008 188.563 38.5706 188.236 40.1022C187.909 41.6333 187.617 42.8036 187.341 43.6122C187.066 44.4379 186.67 44.8338 186.137 44.8338C185.621 44.8338 185.381 44.4724 185.415 43.7498C185.449 43.0099 185.655 41.7884 186.017 40.1022C186.327 38.5879 186.636 37.4351 186.912 36.6094C187.204 35.7834 187.617 35.3707 188.133 35.3707C188.666 35.3707 188.907 35.7834 188.821 36.5925Z" fill="white"/>
<path d="M125.798 39.6025L126.142 37.9161L126.383 36.8151C126.503 36.2131 126.71 35.7827 126.968 35.5419C127.226 35.301 127.638 35.1807 128.189 35.1807H130.013L130.323 33.7528H127.828C126.538 33.7528 125.626 33.976 125.058 34.4066C124.489 34.8538 124.077 35.714 123.802 37.0043L122.494 43.1638C122.253 44.248 122.357 45.0563 122.787 45.5898C123.217 46.1231 123.974 46.3984 125.04 46.3984H127.966L128.258 44.9705H126.366C125.729 44.9705 125.316 44.8157 125.126 44.4888C124.954 44.1616 124.937 43.6286 125.092 42.8714L125.798 39.6025Z" fill="white"/>
<path d="M181.905 34.4922C181.526 33.9936 180.803 33.7528 179.737 33.7528H175.848L173.164 46.3984H175.71L176.949 40.5485H178.016C178.326 40.5485 178.549 40.6348 178.687 40.8067C178.825 40.9615 178.877 41.2026 178.807 41.5295L177.776 46.3984H180.201L181.233 41.5982C181.354 41.0478 181.285 40.5832 181.044 40.2045C180.786 39.8262 180.356 39.6025 179.771 39.5338C180.407 39.3445 180.924 39.0174 181.319 38.5528C181.732 38.0882 182.008 37.4691 182.162 36.7121C182.386 35.714 182.3 34.9739 181.905 34.4922ZM179.513 37.142C179.358 37.8474 179.169 38.3467 178.945 38.6215C178.704 38.9144 178.395 39.0521 178.016 39.0521H177.277L178.102 35.1463H178.773C179.22 35.1463 179.496 35.2839 179.599 35.5592C179.702 35.8343 179.685 36.3678 179.513 37.142Z" fill="white"/>
<path d="M134.47 35.5756C134.745 35.3345 135.142 35.2144 135.709 35.2144H137.533L137.842 33.786H135.33C134.057 33.786 133.128 34.01 132.56 34.4398C132.01 34.8875 131.579 35.7475 131.304 37.038L129.996 43.1975C129.773 44.2814 129.876 45.0903 130.306 45.6233C130.736 46.1563 131.476 46.4316 132.56 46.4316H135.468L135.777 45.0042H133.867C133.248 45.0042 132.835 44.8492 132.646 44.5223C132.457 44.1956 132.457 43.6621 132.612 42.9048L133.3 39.6359H136.328L136.689 37.9498H133.661L133.902 36.849C134.022 36.2463 134.212 35.8164 134.47 35.5756Z" fill="white"/>
<path d="M146.014 34.4574C145.671 34.01 145.085 33.786 144.277 33.786H142.075H140.045L137.36 46.4316H139.907L142.281 35.2832H142.729C143.159 35.2832 143.45 35.3863 143.623 35.5756C143.778 35.7648 143.812 36.0399 143.744 36.4187L141.61 46.4316H144.157L146.307 36.3326C146.479 35.524 146.376 34.9046 146.014 34.4574Z" fill="white"/>
<rect x="30" y="66" width="112" height="36" rx="8" fill="#465A64"/>
<g clip-path="url(#clip0_2660_23768)">
<path fill-rule="evenodd" clip-rule="evenodd" d="M68.3874 91.8881C67.0671 91.8357 65.9871 91.4745 65.1426 90.8035C64.9813 90.6753 64.5973 90.291 64.4685 90.1289C64.1259 89.6982 63.8932 89.2791 63.7379 88.8142C63.26 87.3828 63.506 85.5044 64.4414 83.443C65.2424 81.6782 66.4782 79.9278 68.6344 77.5035C68.952 77.1468 69.8978 76.1035 69.9039 76.1035C69.9061 76.1035 69.8547 76.1929 69.7897 76.3015C69.2291 77.2406 68.7493 78.3467 68.488 79.3043C68.0682 80.8407 68.1189 82.1594 68.6363 83.1818C68.9933 83.8862 69.6052 84.4964 70.2933 84.8336C71.498 85.4239 73.2617 85.4726 75.4155 84.9765C75.5638 84.9422 82.9122 82.9915 91.7451 80.6416C100.578 78.2915 107.806 76.3702 107.808 76.3718C107.81 76.3739 87.2859 85.1562 76.6315 89.7125C74.9443 90.4339 74.4931 90.616 73.6997 90.8945C71.672 91.6067 69.8555 91.9463 68.3874 91.888V91.8881Z" fill="white"/>
</g>
<rect x="150" y="66" width="112" height="36" rx="8" fill="#465A64"/>
<path fill-rule="evenodd" clip-rule="evenodd" d="M216.127 89.0722V76.4846C216.127 72.183 220.623 71.2775 223.848 72.5V74.8998C221.623 73.9942 219.125 74.2206 219.125 76.9827H222.713V79.3825H219.125V89.027L216.127 89.0722Z" fill="#F6F6F6"/>
<path fill-rule="evenodd" clip-rule="evenodd" d="M230.433 75.127H232.658L233.112 76.9834H235.882V79.3832H233.43V84.9526C233.43 86.0846 233.93 86.6279 234.883 86.6279H236.427V89.0277H233.43C231.432 89.0277 230.387 87.941 230.387 85.8129V75.127H230.433Z" fill="#F6F6F6"/>
<path d="M228.116 76.9824H225.074V89.0267H228.116V76.9824Z" fill="#F6F6F6"/>
<path d="M228.116 72.6348H225.074V75.1251H228.116V72.6348Z" fill="#F6F6F6"/>
<path fill-rule="evenodd" clip-rule="evenodd" d="M239.016 89.0273C236.337 93.2383 231.659 96.0004 226.3 96.0004C220.942 96.0004 216.264 93.2383 213.584 89.0273C216.718 91.9252 221.259 93.6911 226.3 93.6911C231.341 93.7364 235.883 91.9252 239.016 89.0273Z" fill="#F6F6F6"/>
<path d="M173.347 86.2643V84.6343C174.21 84.9965 175.255 85.1776 176.39 85.1776C177.253 85.1776 177.662 84.9059 177.662 84.3626C177.662 83.8645 177.389 83.5928 176.799 83.5928H175.391C173.801 83.5928 172.984 82.7778 172.984 81.193C172.984 79.563 174.165 78.7479 176.481 78.7479C177.48 78.7479 178.388 78.8838 179.296 79.2007V80.8308C178.434 80.4686 177.48 80.2874 176.435 80.2874C175.345 80.2874 174.846 80.5591 174.846 81.1025C174.846 81.6005 175.164 81.8722 175.8 81.8722H177.071C178.797 81.8722 179.705 82.6872 179.705 84.272C179.705 85.9021 178.57 86.7171 176.345 86.7171C175.209 86.7171 174.255 86.536 173.347 86.2643ZM181.022 86.6266V78.7932H182.566L182.793 79.7894C183.702 79.1102 184.61 78.7932 185.473 78.7932C186.472 78.7932 187.153 79.1555 187.562 79.8799C188.561 79.1555 189.515 78.7932 190.378 78.7932C192.058 78.7932 192.875 79.7894 192.875 81.7817V86.6266H190.877V81.6911C190.877 80.8308 190.514 80.378 189.787 80.378C189.197 80.378 188.561 80.695 187.925 81.3741V86.6266H185.927V81.6911C185.927 80.7855 185.564 80.378 184.837 80.378C184.201 80.378 183.565 80.695 182.975 81.3741V86.6266H181.022ZM194.374 84.1815C194.374 82.5514 195.509 81.7817 197.78 81.7817C198.461 81.7817 199.097 81.8269 199.597 81.9175V81.4194C199.597 80.7402 198.915 80.378 197.553 80.378C196.69 80.378 195.827 80.5138 195.01 80.7402V79.1554C195.873 78.9291 196.736 78.7932 197.553 78.7932C200.232 78.7932 201.595 79.6535 201.595 81.3741V86.6266H200.596L199.733 86.0832C199.052 86.4454 198.325 86.6266 197.553 86.6266C195.419 86.6266 194.374 85.8115 194.374 84.1815ZM199.597 83.4117C199.097 83.3212 198.507 83.2759 197.78 83.2759C196.826 83.2759 196.327 83.5928 196.327 84.1815C196.327 84.7701 196.736 85.0871 197.508 85.0871C198.325 85.0871 199.006 84.8607 199.551 84.4531V83.4117H199.597ZM203.548 86.6266V78.7932H205.092L205.319 79.7894C206 79.1102 206.727 78.7932 207.499 78.7932V80.378C206.772 80.378 206.091 80.695 205.501 81.3741V86.6266H203.548ZM208.725 77.5254H210.178L210.496 78.7932H212.313V80.378H210.723V84.0003C210.723 84.7248 211.041 85.0871 211.677 85.0871H212.313V86.6718H210.678C209.361 86.6718 208.68 85.9474 208.68 84.5437V77.5254H208.725Z" fill="white"/>
<defs>
<clipPath id="clip0_2660_23768">
<rect width="44.3077" height="16" fill="white" transform="translate(63.5 76)"/>
</clipPath>
</defs>
</svg>
