<svg width="80" height="80" viewBox="0 0 80 80" fill="none" xmlns="http://www.w3.org/2000/svg">
<g filter="url(#filter0_d_2282_19010)">
<ellipse cx="40" cy="35.9921" rx="32" ry="31.5077" fill="white"/>
<path d="M54.6666 31.1667C54.6666 32.6333 53.4666 33.8333 51.9999 33.8333C51.7599 33.8333 51.5333 33.8067 51.3199 33.74L46.5733 38.4733C46.6399 38.6867 46.6666 38.9267 46.6666 39.1667C46.6666 40.6333 45.4666 41.8333 43.9999 41.8333C42.5333 41.8333 41.3333 40.6333 41.3333 39.1667C41.3333 38.9267 41.3599 38.6867 41.4266 38.4733L38.0266 35.0733C37.8133 35.14 37.5733 35.1667 37.3333 35.1667C37.0933 35.1667 36.8533 35.14 36.6399 35.0733L30.5733 41.1533C30.6399 41.3667 30.6666 41.5933 30.6666 41.8333C30.6666 43.3 29.4666 44.5 27.9999 44.5C26.5333 44.5 25.3333 43.3 25.3333 41.8333C25.3333 40.3667 26.5333 39.1667 27.9999 39.1667C28.2399 39.1667 28.4666 39.1933 28.6799 39.26L34.7599 33.1933C34.6933 32.98 34.6666 32.74 34.6666 32.5C34.6666 31.0333 35.8666 29.8333 37.3333 29.8333C38.7999 29.8333 39.9999 31.0333 39.9999 32.5C39.9999 32.74 39.9733 32.98 39.9066 33.1933L43.3066 36.5933C43.5199 36.5267 43.7599 36.5 43.9999 36.5C44.2399 36.5 44.4799 36.5267 44.6933 36.5933L49.4266 31.8467C49.3599 31.6333 49.3333 31.4067 49.3333 31.1667C49.3333 29.7 50.5333 28.5 51.9999 28.5C53.4666 28.5 54.6666 29.7 54.6666 31.1667Z" fill="#F31624"/>
</g>
<defs>
<filter id="filter0_d_2282_19010" x="0" y="-0.5" width="80" height="80" filterUnits="userSpaceOnUse" color-interpolation-filters="sRGB">
<feFlood flood-opacity="0" result="BackgroundImageFix"/>
<feColorMatrix in="SourceAlpha" type="matrix" values="0 0 0 0 0 0 0 0 0 0 0 0 0 0 0 0 0 0 127 0" result="hardAlpha"/>
<feOffset dy="4"/>
<feGaussianBlur stdDeviation="4"/>
<feColorMatrix type="matrix" values="0 0 0 0 0 0 0 0 0 0 0 0 0 0 0 0 0 0 0.15 0"/>
<feBlend mode="normal" in2="BackgroundImageFix" result="effect1_dropShadow_2282_19010"/>
<feBlend mode="normal" in="SourceGraphic" in2="effect1_dropShadow_2282_19010" result="shape"/>
</filter>
</defs>
</svg>
