<svg width="80" height="80" viewBox="0 0 80 80" fill="none" xmlns="http://www.w3.org/2000/svg">
<g filter="url(#filter0_d_2356_3275)">
<circle cx="40" cy="36" r="32" fill="white"/>
</g>
<g clip-path="url(#clip0_2356_3275)">
<path d="M57.0626 35.5867L41.0626 19.5867C40.4226 18.9467 39.5337 18.5555 38.5559 18.5555H26.1115C24.1559 18.5555 22.5559 20.1555 22.5559 22.1111V34.5555C22.5559 35.5333 22.947 36.4222 23.6048 37.08L39.6048 53.08C40.2448 53.72 41.1337 54.1111 42.1115 54.1111C43.0893 54.1111 43.9782 53.72 44.6182 53.0622L57.0626 40.6178C57.7204 39.9778 58.1115 39.0889 58.1115 38.1111C58.1115 37.1333 57.7026 36.2267 57.0626 35.5867ZM28.7782 27.4444C27.3026 27.4444 26.1115 26.2533 26.1115 24.7778C26.1115 23.3022 27.3026 22.1111 28.7782 22.1111C30.2537 22.1111 31.4448 23.3022 31.4448 24.7778C31.4448 26.2533 30.2537 27.4444 28.7782 27.4444ZM49.7026 42.1467L42.1115 49.7378L34.5204 42.1467C33.7204 41.3289 33.2226 40.2267 33.2226 39C33.2226 36.5467 35.2137 34.5555 37.667 34.5555C38.8937 34.5555 40.0137 35.0533 40.8137 35.8711L42.1115 37.1511L43.4093 35.8533C44.2093 35.0533 45.3293 34.5555 46.5559 34.5555C49.0093 34.5555 51.0004 36.5467 51.0004 39C51.0004 40.2267 50.5026 41.3467 49.7026 42.1467Z" fill="#F31624"/>
</g>
<defs>
<filter id="filter0_d_2356_3275" x="0" y="0" width="80" height="80" filterUnits="userSpaceOnUse" color-interpolation-filters="sRGB">
<feFlood flood-opacity="0" result="BackgroundImageFix"/>
<feColorMatrix in="SourceAlpha" type="matrix" values="0 0 0 0 0 0 0 0 0 0 0 0 0 0 0 0 0 0 127 0" result="hardAlpha"/>
<feOffset dy="4"/>
<feGaussianBlur stdDeviation="4"/>
<feColorMatrix type="matrix" values="0 0 0 0 0 0 0 0 0 0 0 0 0 0 0 0 0 0 0.15 0"/>
<feBlend mode="normal" in2="BackgroundImageFix" result="effect1_dropShadow_2356_3275"/>
<feBlend mode="normal" in="SourceGraphic" in2="effect1_dropShadow_2356_3275" result="shape"/>
</filter>
<clipPath id="clip0_2356_3275">
<rect width="42.6667" height="42.6667" fill="white" transform="translate(19 15)"/>
</clipPath>
</defs>
</svg>
