<svg width="143" height="53" viewBox="0 0 143 53" fill="none" xmlns="http://www.w3.org/2000/svg">
<path fill-rule="evenodd" clip-rule="evenodd" d="M93.0479 37.7873V10.5021C93.0479 1.17801 102.744 -0.784957 109.699 1.86504V7.06689C104.899 5.10393 99.5122 5.59467 99.5122 11.5817H107.25V16.7836H99.5122V37.6891L93.0479 37.7873Z" fill="#FFB612"/>
<path fill-rule="evenodd" clip-rule="evenodd" d="M123.901 7.55762H128.7L129.679 11.5817H135.654V16.7835H130.365V28.8558C130.365 31.3095 131.442 32.4872 133.499 32.4872H136.829V37.6891H130.365C126.055 37.6891 123.803 35.3335 123.803 30.7206V7.55762H123.901Z" fill="#FFB612"/>
<path fill-rule="evenodd" clip-rule="evenodd" d="M112.343 11.582H118.905V37.6894H112.343V11.582Z" fill="#FFB612"/>
<path fill-rule="evenodd" clip-rule="evenodd" d="M112.343 2.15918H118.905V7.55733H112.343V2.15918Z" fill="#FFB612"/>
<path fill-rule="evenodd" clip-rule="evenodd" d="M142.412 37.6895C136.634 46.8172 126.545 52.8043 114.988 52.8043C103.43 52.8043 93.3418 46.8172 87.563 37.6895C94.3212 43.9709 104.116 47.7987 114.988 47.7987C125.86 47.8969 135.654 43.9709 142.412 37.6895Z" fill="#FFB612"/>
<path d="M0.783562 31.7014V28.1681C2.64452 28.9532 4.89726 29.3458 7.34589 29.3458C9.20685 29.3458 10.0884 28.7569 10.0884 27.5792C10.0884 26.4995 9.50068 25.9106 8.2274 25.9106H5.1911C1.76301 25.9106 0 24.144 0 20.7088C0 17.1755 2.54658 15.4088 7.54178 15.4088C9.69658 15.4088 11.6555 15.7032 13.6144 16.3903V19.9236C11.7534 19.1384 9.69658 18.7458 7.44384 18.7458C5.09315 18.7458 4.01575 19.3347 4.01575 20.5125C4.01575 21.5921 4.70137 22.181 6.0726 22.181H8.81507C12.537 22.181 14.4959 23.9477 14.4959 27.3829C14.4959 30.9162 12.0473 32.6829 7.24795 32.6829C4.79932 32.6829 2.74247 32.2903 0.783562 31.7014ZM17.3363 32.4866V15.5069H20.6664L21.1562 17.6662C23.1151 16.194 25.074 15.5069 26.9349 15.5069C29.0897 15.5069 30.5589 16.2921 31.4404 17.8625C33.5952 16.2921 35.6521 15.5069 37.513 15.5069C41.137 15.5069 42.9 17.6662 42.9 21.9847V32.4866H38.5904V21.7884C38.5904 19.9236 37.8069 18.9421 36.2397 18.9421C34.9664 18.9421 33.5952 19.6292 32.224 21.1014V32.4866H27.9144V21.7884C27.9144 19.8255 27.1308 18.9421 25.5637 18.9421C24.1925 18.9421 22.8212 19.6292 21.5479 21.1014V32.4866H17.3363ZM46.1322 27.1866C46.1322 23.6532 48.5808 21.9847 53.4781 21.9847C54.9473 21.9847 56.3185 22.0829 57.3959 22.2792V21.1995C57.3959 19.7273 55.9267 18.9421 52.9884 18.9421C51.1274 18.9421 49.2664 19.2366 47.5034 19.7273V16.2921C49.3644 15.8014 51.2253 15.5069 52.9884 15.5069C58.7671 15.5069 61.7055 17.3718 61.7055 21.1014V32.4866H59.5507L57.6897 31.3088C56.2206 32.094 54.6534 32.4866 52.9884 32.4866C48.3849 32.4866 46.1322 30.7199 46.1322 27.1866ZM57.3959 25.5181C56.3185 25.3218 55.0452 25.2236 53.4781 25.2236C51.4212 25.2236 50.3438 25.9106 50.3438 27.1866C50.3438 28.4625 51.2253 29.1495 52.8904 29.1495C54.6534 29.1495 56.1226 28.6588 57.2979 27.7755V25.5181H57.3959ZM65.9171 32.4866V15.5069H69.2473L69.737 17.6662C71.2062 16.194 72.7733 15.5069 74.4384 15.5069V18.9421C72.8712 18.9421 71.4021 19.6292 70.1288 21.1014V32.4866H65.9171ZM77.0829 12.7588H80.2171L80.9027 15.5069H84.8205V18.9421H81.3925V26.794C81.3925 28.3643 82.0781 29.1495 83.4493 29.1495H84.8205V32.5847H81.2945C78.4541 32.5847 76.9849 31.0143 76.9849 27.9718V12.7588H77.0829Z" fill="black"/>
</svg>
