<svg width="242" height="80" viewBox="0 0 242 80" fill="none" xmlns="http://www.w3.org/2000/svg">
<rect width="232" height="36" rx="8" fill="#465A64"/>
<path d="M76.3177 16.5981C73.6758 19.3325 75.7422 21.5697 80.9483 21.6479L80.4442 22.543C73.8108 22.4715 71.0054 19.9148 74.1734 16.7969C76.4952 14.5102 81.8078 12.1166 86.5311 11.4491L86.1186 12.2018C82.2343 12.9334 78.2566 14.5955 76.3177 16.5981Z" fill="white"/>
<path d="M73.5133 16.7686C70.1109 20.121 73.0873 22.8834 80.2102 22.9614L79.5072 24.2115C79.2517 24.2188 79.0031 24.2188 78.7471 24.2188C70.6221 24.2188 67.519 20.625 71.3042 16.7191C74.3296 13.5869 81.1765 10.9732 86.9714 10.6462L86.6449 11.243C81.4315 11.875 75.9987 14.3182 73.5133 16.7686Z" fill="white"/>
<path d="M68.3992 16.7539C72.0142 13.0819 80.1174 10.2698 87.3334 9.99999L87.0773 10.433C80.842 10.7385 73.8891 13.3804 70.7069 16.6689C66.7301 20.7736 69.9546 24.6371 78.4916 24.6371C78.7613 24.6371 79.0094 24.6304 79.2794 24.6231L78.5338 25.944C77.568 26.008 74.3581 26.1852 71.2966 25.2412C66.2401 23.6786 65.0258 20.1699 68.3992 16.7539Z" fill="white"/>
<path d="M82.3046 22.5C81.8291 22.5215 81.3241 22.5357 80.9766 22.543L81.4383 21.6547C81.7786 21.6479 82.2621 21.6409 82.6312 21.6264L82.3046 22.5Z" fill="white"/>
<path d="M81.105 25.7308C80.5079 25.7873 79.7694 25.8513 79.2656 25.8945L79.9189 24.609C80.3594 24.5875 81.0125 24.5522 81.5523 24.5164L81.105 25.7308Z" fill="white"/>
<path d="M81.7016 24.1324C81.2751 24.1614 80.743 24.1894 80.125 24.2109L80.757 22.9749C81.2751 22.9681 81.7581 22.9466 82.1491 22.9251L81.7016 24.1324Z" fill="white"/>
<path d="M118.199 11.7528L117.907 13.1807H120.264L117.89 24.3984H120.436L122.81 13.1807H125.219L125.512 11.7528H118.199Z" fill="white"/>
<path d="M132.738 12.4406C132.291 11.8902 131.448 11.6151 130.21 11.6151C129.039 11.6151 128.093 11.9073 127.353 12.5096C126.631 13.0944 126.149 13.9546 125.908 15.0733L123.93 24.3984H126.476L127.921 17.6022H129.934L128.489 24.3984H131.053L133.031 15.0733C133.271 13.8685 133.186 13.0084 132.738 12.4406ZM130.588 14.54L130.295 15.9161H128.282L128.575 14.54C128.678 14.0062 128.833 13.6453 129.022 13.4213C129.211 13.2152 129.504 13.0944 129.899 13.0944C130.261 13.0944 130.485 13.2152 130.588 13.4213C130.708 13.6453 130.708 14.0238 130.588 14.54Z" fill="white"/>
<path d="M140.67 11.7518L138.743 20.8532C138.588 21.5757 138.416 22.0748 138.21 22.333C138.02 22.6083 137.745 22.746 137.401 22.746C137.022 22.746 136.816 22.591 136.729 22.3159C136.661 22.0229 136.696 21.5413 136.851 20.8532L138.777 11.7518H136.231L134.287 20.9046C134.029 22.1264 134.132 23.0384 134.596 23.6578C135.078 24.2942 135.87 24.6035 137.005 24.6035C138.175 24.6035 139.121 24.2942 139.827 23.6922C140.515 23.09 141.014 22.1606 141.272 20.9046L143.216 11.7518H140.67Z" fill="white"/>
<path d="M161.075 12.7855C160.628 12.0114 159.767 11.6158 158.512 11.6158C157.273 11.6158 156.24 12.0459 155.415 12.9061C154.623 13.7834 153.935 15.5043 153.384 18.1022C152.834 20.6659 152.782 22.3863 153.229 23.281C153.677 24.158 154.52 24.6055 155.759 24.6055C156.998 24.6055 158.013 24.158 158.838 23.281C159.647 22.3863 160.318 20.6659 160.869 18.1022C161.454 15.3495 161.522 13.5773 161.075 12.7855ZM158.821 14.5925C158.753 15.4008 158.563 16.5706 158.236 18.1022C157.909 19.6333 157.617 20.8036 157.341 21.6122C157.066 22.4379 156.67 22.8338 156.137 22.8338C155.621 22.8338 155.381 22.4724 155.415 21.7498C155.449 21.0099 155.655 19.7884 156.017 18.1022C156.327 16.5879 156.636 15.4351 156.912 14.6094C157.204 13.7834 157.617 13.3707 158.133 13.3707C158.666 13.3707 158.907 13.7834 158.821 14.5925Z" fill="white"/>
<path d="M95.7976 17.6025L96.1416 15.9161L96.3832 14.8151C96.5033 14.2131 96.7096 13.7827 96.9676 13.5419C97.2256 13.301 97.6383 13.1807 98.1889 13.1807H100.013L100.323 11.7528H97.828C96.5375 11.7528 95.626 11.976 95.058 12.4066C94.4895 12.8538 94.0772 13.714 93.8017 15.0043L92.4943 21.1638C92.2534 22.248 92.3571 23.0563 92.7867 23.5898C93.2168 24.1231 93.9741 24.3984 95.0404 24.3984H97.9657L98.2579 22.9705H96.3656C95.7289 22.9705 95.3162 22.8157 95.1264 22.4888C94.954 22.1616 94.9372 21.6286 95.0922 20.8714L95.7976 17.6025Z" fill="white"/>
<path d="M151.905 12.4922C151.526 11.9936 150.803 11.7528 149.737 11.7528H145.848L143.164 24.3984H145.71L146.949 18.5485H148.016C148.326 18.5485 148.549 18.6348 148.687 18.8067C148.825 18.9615 148.877 19.2026 148.807 19.5295L147.776 24.3984H150.201L151.233 19.5982C151.354 19.0478 151.285 18.5832 151.044 18.2045C150.786 17.8262 150.356 17.6025 149.771 17.5338C150.407 17.3445 150.924 17.0174 151.319 16.5528C151.732 16.0882 152.008 15.4691 152.162 14.7121C152.386 13.714 152.3 12.9739 151.905 12.4922ZM149.513 15.142C149.358 15.8474 149.169 16.3467 148.945 16.6215C148.704 16.9144 148.395 17.0521 148.016 17.0521H147.277L148.102 13.1463H148.773C149.22 13.1463 149.496 13.2839 149.599 13.5592C149.702 13.8343 149.685 14.3678 149.513 15.142Z" fill="white"/>
<path d="M104.47 13.5756C104.745 13.3345 105.142 13.2144 105.709 13.2144H107.533L107.842 11.786H105.33C104.057 11.786 103.128 12.01 102.56 12.4398C102.01 12.8875 101.579 13.7475 101.304 15.038L99.9965 21.1975C99.773 22.2814 99.8762 23.0903 100.306 23.6233C100.736 24.1563 101.476 24.4316 102.56 24.4316H105.468L105.777 23.0042H103.867C103.248 23.0042 102.835 22.8492 102.646 22.5223C102.457 22.1956 102.457 21.6621 102.612 20.9048L103.3 17.6359H106.328L106.689 15.9498H103.661L103.902 14.849C104.022 14.2463 104.212 13.8164 104.47 13.5756Z" fill="white"/>
<path d="M116.014 12.4574C115.671 12.01 115.085 11.786 114.277 11.786H112.075H110.045L107.36 24.4316H109.907L112.281 13.2832H112.729C113.159 13.2832 113.45 13.3863 113.623 13.5756C113.778 13.7648 113.812 14.0399 113.744 14.4187L111.61 24.4316H114.157L116.307 14.3326C116.479 13.524 116.376 12.9046 116.014 12.4574Z" fill="white"/>
<rect y="44" width="112" height="36" rx="8" fill="#465A64"/>
<g clip-path="url(#clip0_2262_23239)">
<path fill-rule="evenodd" clip-rule="evenodd" d="M38.3874 69.8881C37.0671 69.8357 35.9871 69.4745 35.1426 68.8035C34.9813 68.6753 34.5973 68.291 34.4685 68.1289C34.1259 67.6982 33.8932 67.2791 33.7379 66.8142C33.26 65.3828 33.506 63.5044 34.4414 61.443C35.2424 59.6782 36.4782 57.9278 38.6344 55.5035C38.952 55.1468 39.8978 54.1035 39.9039 54.1035C39.9061 54.1035 39.8547 54.1929 39.7897 54.3015C39.2291 55.2406 38.7493 56.3467 38.488 57.3043C38.0682 58.8407 38.1189 60.1594 38.6363 61.1818C38.9933 61.8862 39.6052 62.4964 40.2933 62.8336C41.498 63.4239 43.2617 63.4726 45.4155 62.9765C45.5638 62.9422 52.9122 60.9915 61.7451 58.6416C70.5781 56.2915 77.8064 54.3702 77.8075 54.3718C77.81 54.3739 57.2859 63.1562 46.6315 67.7125C44.9443 68.4339 44.4931 68.616 43.6997 68.8945C41.672 69.6067 39.8555 69.9463 38.3874 69.888V69.8881Z" fill="white"/>
</g>
<rect x="120" y="44" width="112" height="36" rx="8" fill="#465A64"/>
<path fill-rule="evenodd" clip-rule="evenodd" d="M186.127 67.0722V54.4846C186.127 50.183 190.623 49.2775 193.848 50.5V52.8998C191.623 51.9942 189.125 52.2206 189.125 54.9827H192.713V57.3825H189.125V67.027L186.127 67.0722Z" fill="#F6F6F6"/>
<path fill-rule="evenodd" clip-rule="evenodd" d="M200.433 53.127H202.658L203.112 54.9834H205.882V57.3832H203.43V62.9526C203.43 64.0846 203.93 64.6279 204.883 64.6279H206.427V67.0277H203.43C201.432 67.0277 200.387 65.941 200.387 63.8129V53.127H200.433Z" fill="#F6F6F6"/>
<path d="M198.116 54.9824H195.074V67.0267H198.116V54.9824Z" fill="#F6F6F6"/>
<path d="M198.116 50.6348H195.074V53.1251H198.116V50.6348Z" fill="#F6F6F6"/>
<path fill-rule="evenodd" clip-rule="evenodd" d="M209.016 67.0273C206.337 71.2383 201.659 74.0004 196.3 74.0004C190.942 74.0004 186.264 71.2383 183.584 67.0273C186.718 69.9252 191.259 71.6911 196.3 71.6911C201.341 71.7364 205.883 69.9252 209.016 67.0273Z" fill="#F6F6F6"/>
<path d="M143.347 64.2643V62.6343C144.21 62.9965 145.255 63.1776 146.39 63.1776C147.253 63.1776 147.662 62.9059 147.662 62.3626C147.662 61.8645 147.389 61.5928 146.799 61.5928H145.391C143.801 61.5928 142.984 60.7778 142.984 59.193C142.984 57.563 144.165 56.7479 146.481 56.7479C147.48 56.7479 148.388 56.8838 149.296 57.2007V58.8308C148.434 58.4686 147.48 58.2874 146.435 58.2874C145.345 58.2874 144.846 58.5591 144.846 59.1025C144.846 59.6005 145.164 59.8722 145.8 59.8722H147.071C148.797 59.8722 149.705 60.6872 149.705 62.272C149.705 63.9021 148.57 64.7171 146.345 64.7171C145.209 64.7171 144.255 64.536 143.347 64.2643ZM151.022 64.6266V56.7932H152.566L152.793 57.7894C153.702 57.1102 154.61 56.7932 155.473 56.7932C156.472 56.7932 157.153 57.1555 157.562 57.8799C158.561 57.1555 159.515 56.7932 160.378 56.7932C162.058 56.7932 162.875 57.7894 162.875 59.7817V64.6266H160.877V59.6911C160.877 58.8308 160.514 58.378 159.787 58.378C159.197 58.378 158.561 58.695 157.925 59.3741V64.6266H155.927V59.6911C155.927 58.7855 155.564 58.378 154.837 58.378C154.201 58.378 153.565 58.695 152.975 59.3741V64.6266H151.022ZM164.374 62.1815C164.374 60.5514 165.509 59.7817 167.78 59.7817C168.461 59.7817 169.097 59.8269 169.597 59.9175V59.4194C169.597 58.7402 168.915 58.378 167.553 58.378C166.69 58.378 165.827 58.5138 165.01 58.7402V57.1554C165.873 56.9291 166.736 56.7932 167.553 56.7932C170.232 56.7932 171.595 57.6535 171.595 59.3741V64.6266H170.596L169.733 64.0832C169.052 64.4454 168.325 64.6266 167.553 64.6266C165.419 64.6266 164.374 63.8115 164.374 62.1815ZM169.597 61.4117C169.097 61.3212 168.507 61.2759 167.78 61.2759C166.826 61.2759 166.327 61.5928 166.327 62.1815C166.327 62.7701 166.736 63.0871 167.508 63.0871C168.325 63.0871 169.006 62.8607 169.551 62.4531V61.4117H169.597ZM173.548 64.6266V56.7932H175.092L175.319 57.7894C176 57.1102 176.727 56.7932 177.499 56.7932V58.378C176.772 58.378 176.091 58.695 175.501 59.3741V64.6266H173.548ZM178.725 55.5254H180.178L180.496 56.7932H182.313V58.378H180.723V62.0003C180.723 62.7248 181.041 63.0871 181.677 63.0871H182.313V64.6718H180.678C179.361 64.6718 178.68 63.9474 178.68 62.5437V55.5254H178.725Z" fill="white"/>
<defs>
<clipPath id="clip0_2262_23239">
<rect width="44.3077" height="16" fill="white" transform="translate(33.5 54)"/>
</clipPath>
</defs>
</svg>
